<?xml version="1.0" encoding="utf-8"?>
<!-- Generator: Adobe Illustrator 24.0.0, SVG Export Plug-In . SVG Version: 6.00 Build 0)  -->
<svg version="1.1" id="Layer_1" xmlns="http://www.w3.org/2000/svg" xmlns:xlink="http://www.w3.org/1999/xlink" x="0px" y="0px"
	 viewBox="0 0 126 126" style="enable-background:new 0 0 126 126;" xml:space="preserve">
<style type="text/css">
	.st0{fill:#FFFFFF;}
</style>
<g>
	<path class="st0" d="M103.7,22.4c-22.8-22.8-59.3-23.4-83-2l-6.3-6.3c-2-2-5.6-1-6.2,1.8L0.9,45.5c-0.6,2.7,1.8,5.2,4.6,4.6
		l29.7-7.2c2.8-0.6,3.8-4.2,1.8-6.2l-7-7c18.7-16.2,47-15.7,64.7,2c18.4,18.4,18.4,48.6-0.1,67.1l-1.8,1.6c-2.7,2.4-2.8,6.5-0.5,9.1
		c1.3,1.4,3,2.2,4.8,2.2c1.5,0,3-0.5,4.3-1.6c0.8-0.6,1.5-1.4,2.2-2.2C127.2,84.4,127.2,46.1,103.7,22.4z"/>
	<path class="st0" d="M75.8,110.3l-2.4,0.8c-3.4,0.9-5.5,4.4-4.6,8c0.8,2.9,3.4,4.8,6.2,4.8c0.5,0,1.1-0.1,1.6-0.3
		c1-0.3,2-0.6,3-0.9c3.4-1.1,5.2-4.8,4.1-8.1C82.9,111,79.3,109.1,75.8,110.3z"/>
	<path class="st0" d="M54,112.2l-2.5-0.4c-3.6-0.8-7,1.5-7.6,5.1c-0.8,3.6,1.5,7,5.1,7.6c1,0.3,2.2,0.4,3.2,0.5c0.3,0,0.6,0.1,1,0.1
		c3.2,0,6-2.3,6.3-5.6C60,116,57.5,112.7,54,112.2z"/>
	<path class="st0" d="M31.7,102.5c-2.8-2.2-6.9-1.8-9.1,1c-2.2,2.8-1.8,6.9,1,9.1c0.9,0.6,1.6,1.3,2.5,1.9c1.1,0.8,2.4,1.1,3.7,1.1
		c2,0,4.1-0.9,5.3-2.8c2-2.9,1.4-7-1.5-9L31.7,102.5z"/>
	<path class="st0" d="M18,85.4c-1.5-3.3-5.3-4.7-8.6-3.2s-4.7,5.3-3.2,8.6c0.5,1,0.9,1.9,1.4,2.9c1.1,2.2,3.4,3.4,5.7,3.4
		c1,0,2-0.3,3-0.8c3.2-1.6,4.3-5.6,2.7-8.8L18,85.4z"/>
	<path class="st0" d="M82.3,71.1l-14.8-9.5V37.9c0-3.6-2.9-6.5-6.5-6.5s-6.5,2.9-6.5,6.5v27.2c0,2.2,1.1,4.3,3,5.5l17.8,11.3
		c1,0.6,2.3,1,3.4,1c2.2,0,4.2-1,5.5-3C86.1,76.9,85.2,73,82.3,71.1z"/>
</g>
</svg>
