<?xml version="1.0" encoding="utf-8"?>
<!-- Generator: Adobe Illustrator 22.0.1, SVG Export Plug-In . SVG Version: 6.00 Build 0)  -->
<svg version="1.1" id="Layer_1" xmlns="http://www.w3.org/2000/svg" xmlns:xlink="http://www.w3.org/1999/xlink" x="0px" y="0px"
	 viewBox="0 0 331 47" style="enable-background:new 0 0 331 47;" xml:space="preserve">
<style type="text/css">
	.st0{fill:url(#XMLID_4_);}
	.st1{fill:#FFFFFF;}
</style>
<linearGradient id="XMLID_4_" gradientUnits="userSpaceOnUse" x1="0" y1="23.224" x2="331" y2="23.224" gradientTransform="matrix(1 0 0 -1 0 46.724)">
	<stop  offset="0" style="stop-color:#5F82C1"/>
	<stop  offset="0.5218" style="stop-color:#4B5AA6"/>
	<stop  offset="1" style="stop-color:#592F8E"/>
</linearGradient>
<path id="XMLID_3_" class="st0" d="M307.6,46.9H23.4C10.5,46.9,0,36.4,0,23.5l0,0C0,10.6,10.5,0.1,23.4,0.1h284.2
	c12.9,0,23.4,10.5,23.4,23.4l0,0C331,36.4,320.5,46.9,307.6,46.9z"/>
<path id="XMLID_1_" class="st1" d="M307,2.9c-11.4,0-20.6,9.2-20.6,20.6s9.2,20.6,20.6,20.6c11.4,0,20.6-9.2,20.6-20.6
	S318.5,2.9,307,2.9z M309.7,34.4c-0.6,0.6-1.1,0.7-1.9,0.7s-1.3-0.2-1.9-0.7c-1.1-1.1-1.1-2.6,0-3.7l4.5-4.5h-13.1
	c-1.5,0-2.6-1.1-2.6-2.6c0-1.5,1.1-2.6,2.6-2.6h13.1l-4.5-4.5c-1.1-1.1-1.1-2.6,0-3.7s2.6-1.1,3.7,0l10.9,10.9L309.7,34.4z"/>
<g>
	<path class="st1" d="M31.5,14.7H37c3.2,0,5.7,1.4,5.7,4.9c0,3.5-2.6,4.9-5.7,4.9h-3.1v6h-2.4V14.7z M37,22.3c1.6,0,3.2-0.8,3.2-2.8
		s-1.6-2.8-3.2-2.8h-3.1v5.6H37z"/>
	<path class="st1" d="M44.8,18.9H47V22c0.7-1.3,2.3-2.9,4.2-3.4l0.4,2.3c-1.8,0.5-3.5,1.6-4.5,2.9v6.7h-2.3V18.9z"/>
	<path class="st1" d="M57.8,18.6c2.8,0,5.4,2.2,5.4,6c0,3.7-2.6,6-5.4,6c-2.8,0-5.4-2.2-5.4-6C52.4,20.9,55,18.6,57.8,18.6z
		 M57.8,28.6c1.5,0,3.1-1.2,3.1-4s-1.5-4-3.1-4c-1.5,0-3.1,1.3-3.1,4S56.2,28.6,57.8,28.6z"/>
	<path class="st1" d="M64,33.1c1.2,0.1,2-0.5,2-2V18.9h2.3v12.4c0,2.5-1.3,4-4,3.9L64,33.1z M67.2,13.9c0.8,0,1.5,0.7,1.5,1.5
		c0,0.8-0.7,1.5-1.5,1.5c-0.8,0-1.5-0.7-1.5-1.5C65.7,14.6,66.4,13.9,67.2,13.9z"/>
	<path class="st1" d="M75.7,18.6c1.3,0,2.4,0.4,3.4,1.1v-6h2.3v16.6h-2.2V29c-0.9,0.9-2.2,1.6-3.6,1.6c-2.4,0-4.6-2-4.6-6
		C70.9,20.6,73.4,18.6,75.7,18.6z M76.1,28.6c1,0,2.1-0.5,3-1.4v-5.5c-0.9-0.7-1.8-1.1-2.7-1.1c-1.6,0-3.1,1.3-3.1,4
		S74.6,28.6,76.1,28.6z"/>
	<path class="st1" d="M86.3,25.3c0.2,2.3,1.7,3.4,3.1,3.4c1.2,0,2.2-0.7,2.7-2l2.2,0.5c-0.8,2.1-2.7,3.4-5,3.4c-2.8,0-5.4-2.2-5.4-6
		c0-3.8,2.6-6,5.4-6c2.6,0,5.5,2,5.3,6.6H86.3z M85.6,13.5l2-0.3l1.8,2.6l1.8-2.6l2,0.3l-2.6,3.9h-2.2L85.6,13.5z M86.3,23.5h6
		c-0.2-1.9-1.4-3-2.9-3C87.9,20.5,86.6,21.6,86.3,23.5z"/>
	<path class="st1" d="M96.1,18.9h2.1v-3.1l2.3-0.3v3.4h3.3v2h-3.3v5.6c0,1.4,0.4,2,1.4,2c0.5,0,1.1-0.1,1.9-0.4l0.4,1.9
		c-1.1,0.4-2,0.5-2.7,0.5c-2.4,0-3.3-1.6-3.3-4v-5.7h-2.1V18.9z"/>
	<path class="st1" d="M107.8,25.3c0.2,2.3,1.7,3.4,3.1,3.4c1.2,0,2.2-0.7,2.7-2l2.2,0.5c-0.8,2.1-2.7,3.4-5,3.4
		c-2.8,0-5.4-2.2-5.4-6c0-3.8,2.6-6,5.4-6c2.6,0,5.5,2,5.3,6.6H107.8z M107.8,23.5h6c-0.2-1.9-1.4-3-2.9-3
		C109.4,20.5,108.1,21.6,107.8,23.5z"/>
	<path class="st1" d="M127.2,26.8c0.3,1.3,1.3,1.9,2.7,1.9c1.3,0,2.4-0.7,2.4-1.6c0-2.7-7.1-0.2-7.1-5.1c0-1.8,1.8-3.4,4.5-3.4
		c2.5,0,4.3,1.2,4.7,3.2l-2.2,0.5c-0.2-1.4-1.4-1.9-2.5-1.9c-1.2,0-2.2,0.6-2.2,1.5c0,2.7,7.1,0.3,7.1,5.1c0,1.9-1.9,3.5-4.6,3.5
		c-2.8,0-4.4-1.3-4.9-3.2L127.2,26.8z"/>
	<path class="st1" d="M138.5,13.9c0.8,0,1.5,0.7,1.5,1.5c0,0.8-0.7,1.5-1.5,1.5c-0.8,0-1.5-0.7-1.5-1.5
		C137,14.6,137.7,13.9,138.5,13.9z M137.3,18.9h2.3v11.5h-2.3V18.9z"/>
	<path class="st1" d="M148.7,28.4l6.1-7.5h-5.9v-2h8.8v2l-6.1,7.5h6.1v2h-9V28.4z"/>
	<path class="st1" d="M160.1,18.9h2.2v1.3c1-0.9,2.3-1.6,3.8-1.6c2.4,0,4.6,2,4.6,6c0,4-2.5,6-4.8,6c-1.3,0-2.4-0.4-3.4-1.1v5.4
		h-2.3V18.9z M165.1,28.6c1.6,0,3.1-1.3,3.1-4s-1.4-4-2.9-4c-1,0-2.1,0.5-3,1.4v5.5C163.3,28.2,164.2,28.6,165.1,28.6z"/>
	<path class="st1" d="M174.8,25.3c0.2,2.3,1.7,3.4,3.1,3.4c1.2,0,2.2-0.7,2.7-2l2.2,0.5c-0.8,2.1-2.7,3.4-5,3.4
		c-2.8,0-5.4-2.2-5.4-6c0-3.8,2.6-6,5.4-6c2.6,0,5.5,2,5.3,6.6H174.8z M174.1,13.5l2-0.3l1.8,2.6l1.8-2.6l2,0.3l-2.6,3.9h-2.2
		L174.1,13.5z M174.8,23.5h6c-0.2-1.9-1.4-3-2.9-3C176.4,20.5,175.1,21.6,174.8,23.5z"/>
	<path class="st1" d="M184.6,18.9h2.1v-3.1l2.3-0.3v3.4h3.3v2H189v5.6c0,1.4,0.4,2,1.4,2c0.5,0,1.1-0.1,1.9-0.4l0.4,1.9
		c-1.1,0.4-2,0.5-2.7,0.5c-2.4,0-3.3-1.6-3.3-4v-5.7h-2.1V18.9z"/>
	<path class="st1" d="M195.1,18.9h2.2v1.3c1-0.9,2.4-1.6,3.8-1.6c2.1,0,3.9,1.3,3.9,4.5v7.3h-2.3v-7.2c0-1.8-0.9-2.6-2.1-2.6
		c-1,0-2.2,0.6-3.1,1.4v8.4h-2.3V18.9z"/>
	<path class="st1" d="M209.7,25.3c0.2,2.3,1.7,3.4,3.1,3.4c1.2,0,2.2-0.7,2.7-2l2.2,0.5c-0.8,2.1-2.7,3.4-5,3.4
		c-2.8,0-5.4-2.2-5.4-6c0-3.8,2.6-6,5.4-6c2.6,0,5.5,2,5.3,6.6H209.7z M209,13.5l2-0.3l1.8,2.6l1.8-2.6l2,0.3l-2.6,3.9h-2.2
		L209,13.5z M209.7,23.5h6c-0.2-1.9-1.4-3-2.9-3C211.3,20.5,210,21.6,209.7,23.5z"/>
	<path class="st1" d="M226.2,18.9h2.1v-3.1l2.3-0.3v3.4h3.3v2h-3.3v5.6c0,1.4,0.4,2,1.4,2c0.5,0,1.1-0.1,1.9-0.4l0.4,1.9
		c-1.1,0.4-2,0.5-2.7,0.5c-2.4,0-3.3-1.6-3.3-4v-5.7h-2.1V18.9z"/>
	<path class="st1" d="M237.9,25.3c0.2,2.3,1.7,3.4,3.1,3.4c1.2,0,2.2-0.7,2.7-2l2.2,0.5c-0.8,2.1-2.7,3.4-5,3.4
		c-2.8,0-5.4-2.2-5.4-6c0-3.8,2.6-6,5.4-6c2.6,0,5.5,2,5.3,6.6H237.9z M237.9,23.5h6c-0.2-1.9-1.4-3-2.9-3
		C239.5,20.5,238.2,21.6,237.9,23.5z"/>
	<path class="st1" d="M250.5,26.8c0.3,1.3,1.3,1.9,2.7,1.9c1.3,0,2.4-0.7,2.4-1.6c0-2.7-7.1-0.2-7.1-5.1c0-1.8,1.8-3.4,4.5-3.4
		c2.5,0,4.3,1.2,4.7,3.2l-2.2,0.5c-0.2-1.4-1.4-1.9-2.5-1.9c-1.2,0-2.2,0.6-2.2,1.5c0,2.7,7.1,0.3,7.1,5.1c0,1.9-1.9,3.5-4.6,3.5
		c-2.8,0-4.4-1.3-4.9-3.2L250.5,26.8z"/>
	<path class="st1" d="M259.5,18.9h2.1v-3.1l2.3-0.3v3.4h3.3v2h-3.3v5.6c0,1.4,0.4,2,1.4,2c0.5,0,1.1-0.1,1.9-0.4l0.4,1.9
		c-1.1,0.4-2,0.5-2.7,0.5c-2.4,0-3.3-1.6-3.3-4v-5.7h-2.1V18.9z"/>
</g>
</svg>
