<?xml version="1.0" encoding="utf-8"?>
<!-- Generator: Adobe Illustrator 24.3.0, SVG Export Plug-In . SVG Version: 6.00 Build 0)  -->
<svg version="1.1" id="Layer_1" xmlns="http://www.w3.org/2000/svg" xmlns:xlink="http://www.w3.org/1999/xlink" x="0px" y="0px"
	 viewBox="0 0 72 72" style="enable-background:new 0 0 72 72;" xml:space="preserve">
<style type="text/css">
	.st0{fill:#FFFFFF;}
</style>
<g>
	<path class="st0" d="M61.5,18.8h-1.8c-0.6-3.1-3.5-5.5-6.8-5.3H34.7l-4.9-7.8C29.5,5.2,29,5,28.5,5H8.2C8.1,5,8.1,5,8,5
		C6.7,5,5.6,5.5,4.7,6.4S3.4,8.5,3.5,9.7v14.9c0,0.1,0,0.2,0,0.3c0,0.2,0,0.5,0,0.7v35.2c0,3.8,3.1,6.9,6.9,6.9h51.2
		c3.8,0,6.9-3.1,6.9-6.9V25.7C68.4,21.9,65.3,18.8,61.5,18.8z M6.6,9.7c0-0.1,0-0.1,0-0.2c0-0.4,0.2-0.8,0.5-1
		c0.3-0.3,0.7-0.4,1.1-0.4h19.4l4.9,7.8c0.3,0.5,0.8,0.7,1.3,0.7H53c0.3,0,2.7,0.1,3.5,2.2H10.4c-1.4,0-2.7,0.4-3.8,1.1L6.6,9.7z
		 M6.6,25.7c0-2.1,1.7-3.8,3.8-3.8h51.2c2.1,0,3.8,1.7,3.8,3.8v35.2c0,2.1-1.7,3.8-3.8,3.8H10.4c-2.1,0-3.8-1.7-3.8-3.8V25.7z"/>
	<path class="st0" d="M17.8,52.9h36.2c0.9,0,1.6-0.7,1.6-1.6s-0.7-1.6-1.6-1.6h-2.7V31c0-1.5-1.2-2.6-2.6-2.6h-4.3
		c-1.5,0-2.6,1.2-2.6,2.6v18.7h-1.1V36.4c0-1.5-1.2-2.6-2.6-2.6h-4.3c-1.5,0-2.6,1.2-2.6,2.6v13.4H30v-5.9c0-1.5-1.2-2.6-2.6-2.6
		h-4.3c-1.5,0-2.6,1.2-2.6,2.6v5.9h-2.7c-0.9,0-1.6,0.7-1.6,1.6S17,52.9,17.8,52.9z M48.2,49.7H45V31.5h3.3V49.7z M34.3,43.4
		l3.3-3.3v2l-3.3,3.3V43.4z M34.4,49.7l3.2-3.2v3.2H34.4z M34.3,39v-2.1h2.1L34.3,39z M26.9,49.7h-3.3v-5.4h3.3V49.7z"/>
	<path class="st0" d="M18.9,55.1c-0.9,0-1.6,0.7-1.6,1.6s0.7,1.6,1.6,1.6c0.9,0,1.6-0.7,1.6-1.6S19.7,55.1,18.9,55.1z"/>
	<path class="st0" d="M23.1,55.1c-0.9,0-1.6,0.7-1.6,1.6s0.7,1.6,1.6,1.6c0.9,0,1.6-0.7,1.6-1.6S24,55.1,23.1,55.1z"/>
	<path class="st0" d="M27.4,55.1c-0.9,0-1.6,0.7-1.6,1.6s0.7,1.6,1.6,1.6c0.9,0,1.6-0.7,1.6-1.6S28.3,55.1,27.4,55.1z"/>
	<path class="st0" d="M31.7,55.1c-0.9,0-1.6,0.7-1.6,1.6s0.7,1.6,1.6,1.6c0.9,0,1.6-0.7,1.6-1.6S32.5,55.1,31.7,55.1z"/>
	<circle class="st0" cx="35.9" cy="56.6" r="1.6"/>
	<circle class="st0" cx="40.2" cy="56.6" r="1.6"/>
	<circle class="st0" cx="44.5" cy="56.6" r="1.6"/>
	<circle class="st0" cx="48.7" cy="56.6" r="1.6"/>
	<circle class="st0" cx="53" cy="56.6" r="1.6"/>
</g>
</svg>
