<?xml version="1.0" encoding="utf-8"?>
<!-- Generator: Adobe Illustrator 24.3.0, SVG Export Plug-In . SVG Version: 6.00 Build 0)  -->
<svg version="1.1" id="Layer_1" xmlns="http://www.w3.org/2000/svg" xmlns:xlink="http://www.w3.org/1999/xlink" x="0px" y="0px"
	 viewBox="0 0 72 72" style="enable-background:new 0 0 72 72;" xml:space="preserve">
<style type="text/css">
	.st0{fill:#636363;}
</style>
<g>
	<path class="st0" d="M30.4,20.6l5.5-1.9l5.5,1.9l-0.2-5.8l3.5-4.6l-5.6-1.6l-3.3-4.8l-3.3,4.8l-5.6,1.6l3.5,4.6L30.4,20.6z
		 M38.4,13.9l0.1,2.8l-2.6-0.9l-2.6,0.9l0.1-2.8l-1.7-2.2l2.6-0.8l1.6-2.3l1.6,2.3l2.6,0.8L38.4,13.9z"/>
	<path class="st0" d="M16.5,29.2l4-4.2l5.8-0.7l-2.8-5.1l1.1-5.7l-5.7,1l-5.1-2.8L13,17.4l-4.2,4l5.2,2.5L16.5,29.2z M16,16.1
		l2.4,1.3l2.7-0.5l-0.5,2.7l1.3,2.4l-2.7,0.3l-1.9,2l-1.2-2.5l-2.5-1.2l2-1.9L16,16.1z"/>
	<path class="st0" d="M51.3,25l4,4.2l2.5-5.2l5.2-2.5l-4.2-4L58,11.7l-5.1,2.8l-5.7-1l1.1,5.7l-2.8,5.1L51.3,25z M55.8,16.1l0.4,2.7
		l2,1.9l-2.5,1.2l-1.2,2.5l-1.9-2L49.9,22l1.3-2.4l-0.5-2.7l2.7,0.5L55.8,16.1z"/>
	<path class="st0" d="M55.3,38.8c-1.4,0-2.8,0.4-3.9,1.3L41.7,47c-0.2,0.2-0.4,0.3-0.6,0.5c-1-0.3-2-0.5-3-0.5h-4.5
		c-1,0-2.1,0.2-3,0.5c-0.2-0.2-0.4-0.4-0.6-0.5l-9.7-6.9c-1.1-0.8-2.5-1.3-3.9-1.3c-1.6,0-3.1,0.6-4.3,1.6c-1.5,1.3-2.3,3.2-2.1,5.2
		c0.1,2,1.1,3.8,2.7,4.9l9.8,7c0.5,0.4,1,0.6,1.6,0.8v9.7h2.8l0-11.5c0-0.1,0-0.2,0-0.2l0-0.4l-0.3,0c-0.9,0.1-1.8-0.1-2.5-0.7
		l-9.8-7c-0.9-0.7-1.5-1.7-1.6-2.9c-0.1-1.1,0.4-2.2,1.2-3c0.7-0.6,1.5-0.9,2.5-0.9c0.8,0,1.7,0.3,2.3,0.8l9.7,6.9
		c0.5,0.4,0.9,0.9,1.2,1.5l0.1,0.3l0.2-0.2c1.1-0.7,2.4-1.1,3.7-1.1H38c1.3,0,2.6,0.4,3.7,1.1l0.2,0.2l0.1-0.3
		c0.3-0.6,0.7-1.1,1.2-1.5l9.7-6.9c0.7-0.5,1.5-0.8,2.3-0.8c0.9,0,1.8,0.3,2.5,0.9c0.9,0.8,1.3,1.9,1.2,3c-0.1,1.1-0.6,2.2-1.6,2.8
		l-9.8,7c-0.7,0.5-1.6,0.7-2.5,0.7l-0.3,0l0,0.4c0,0.1,0,0.1,0,0.2v11.5h2.8v-9.7c0.6-0.2,1.1-0.5,1.6-0.8l9.8-7
		c1.6-1.1,2.6-2.9,2.7-4.9c0.1-2-0.7-3.9-2.1-5.2C58.4,39.4,56.9,38.8,55.3,38.8z"/>
	<path class="st0" d="M35.8,44.2c4.9,0,8.9-4,8.9-8.9c0-4.9-4-8.9-8.9-8.9s-8.9,4-8.9,8.9C26.9,40.2,30.9,44.2,35.8,44.2z
		 M29.6,35.2c0-3.4,2.8-6.2,6.2-6.2c3.4,0,6.2,2.8,6.2,6.2c0,3.4-2.8,6.2-6.2,6.2C32.4,41.4,29.6,38.6,29.6,35.2z"/>
</g>
</svg>
