<?xml version="1.0" encoding="utf-8"?>
<!-- Generator: Adobe Illustrator 22.0.1, SVG Export Plug-In . SVG Version: 6.00 Build 0)  -->
<svg version="1.1" id="Layer_1" xmlns="http://www.w3.org/2000/svg" xmlns:xlink="http://www.w3.org/1999/xlink" x="0px" y="0px"
	 viewBox="0 0 360 47" style="enable-background:new 0 0 360 47;" xml:space="preserve">
<style type="text/css">
	.st0{fill:url(#XMLID_4_);}
	.st1{clip-path:url(#SVGID_2_);}
	.st2{fill:#5F82C1;}
	.st3{fill:#FFFFFF;}
</style>
<linearGradient id="XMLID_4_" gradientUnits="userSpaceOnUse" x1="0" y1="23.776" x2="360" y2="23.776" gradientTransform="matrix(1 0 0 -1 0 47.276)">
	<stop  offset="0" style="stop-color:#5F82C1"/>
	<stop  offset="0.5218" style="stop-color:#4B5AA6"/>
	<stop  offset="1" style="stop-color:#592F8E"/>
</linearGradient>
<rect id="XMLID_2_" y="0" class="st0" width="360" height="47"/>
<g id="XMLID_1_">
	<g>
		<defs>
			<rect id="SVGID_1_" y="0" width="360" height="47"/>
		</defs>
		<clipPath id="SVGID_2_">
			<use xlink:href="#SVGID_1_"  style="overflow:visible;"/>
		</clipPath>
		<g id="XMLID_2328_" transform="matrix( 1, 0, 0, 1, 0,0) " class="st1">
			<g id="XMLID_2329_">
				<g id="a_36_">
					<path id="XMLID_2330_" class="st2" d="M247.1,17.3l7.4-37.3l-55.7,55.8H245l-11.7,40.3l55.6-58.8H247.1z"/>
				</g>
			</g>
		</g>
	</g>
</g>
<g>
	<path class="st3" d="M60.2,16.7h3l3.3,9.7l3.3-9.7h2.9L68,29.9h-3.1L60.2,16.7z"/>
	<path class="st3" d="M75.1,26.8c0.2,0.9,0.9,1.3,1.8,1.3c0.8,0,1.6-0.4,1.6-0.9c0-1.8-5.8-0.1-5.8-4.2c0-1.6,1.6-3,4-3
		c2.2,0,3.8,1.1,4.2,2.8l-2.6,0.5c-0.1-0.9-0.9-1.3-1.7-1.3c-0.7,0-1.4,0.3-1.4,0.9c0,1.8,5.8,0.1,5.8,4.2c0,1.6-1.6,3-4.2,3
		c-2.3,0-3.9-1.2-4.3-2.8L75.1,26.8z"/>
	<path class="st3" d="M82.2,20.1h1.5v-2.5l2.6-0.3v2.8h2.5v2.3h-2.5v4.1c0,0.8,0.3,1.3,1.1,1.3c0.4,0,0.8-0.1,1.3-0.2l0.5,2.2
		c-0.9,0.3-1.7,0.4-2.3,0.4c-2.2,0-3.2-1.5-3.2-3.6v-4.1h-1.5V20.1z"/>
	<path class="st3" d="M94.7,19.9c2.4,0,4.8,1.9,4.8,5.1c0,3.2-2.4,5.1-4.8,5.1c-2.4,0-4.7-1.9-4.7-5.1
		C89.9,21.8,92.3,19.9,94.7,19.9z M94.7,27.9c0.9,0,2-0.7,2-2.8s-1.1-2.8-2-2.8c-0.9,0-2,0.7-2,2.8S93.7,27.9,94.7,27.9z"/>
	<path class="st3" d="M103.8,20.1v6.3c0,1,0.6,1.5,1.3,1.5c0.7,0,1.5-0.4,2.1-0.9v-6.9h2.6v9.8h-2.5v-1c-0.9,0.8-2,1.2-3,1.2
		c-1.7,0-3.2-1.1-3.2-3.7v-6.4H103.8z"/>
	<path class="st3" d="M112.2,20.1h2.5v1c0.9-0.7,1.9-1.2,3-1.2c1.9,0,3.8,1.7,3.8,5.1c0,3.4-2,5.1-4,5.1c-0.9,0-1.8-0.3-2.6-0.8v4.4
		h-2.6V20.1z M116.6,27.9c1.1,0,2.1-0.9,2.1-2.8c0-1.9-0.9-2.8-2-2.8c-0.6,0-1.3,0.3-1.9,0.9v4.1C115.5,27.6,116,27.9,116.6,27.9z"
		/>
	<path class="st3" d="M124.6,15.7c0.9,0,1.6,0.7,1.6,1.6c0,0.9-0.7,1.6-1.6,1.6c-0.9,0-1.6-0.7-1.6-1.6
		C123,16.5,123.7,15.7,124.6,15.7z M123.3,20.1h2.6v9.8h-2.6V20.1z"/>
	<path class="st3" d="M127.4,20.1h1.5v-2.5l2.6-0.3v2.8h2.5v2.3h-2.5v4.1c0,0.8,0.3,1.3,1.1,1.3c0.4,0,0.8-0.1,1.3-0.2l0.5,2.2
		c-0.9,0.3-1.7,0.4-2.3,0.4c-2.2,0-3.2-1.5-3.2-3.6v-4.1h-1.5V20.1z"/>
	<path class="st3" d="M145.3,19.9c1,0,1.8,0.3,2.6,0.8v-4.8h2.6v14H148v-1c-0.7,0.8-1.8,1.2-2.8,1.2c-1.9,0-3.9-1.7-3.9-5.1
		C141.2,21.7,143.2,19.9,145.3,19.9z M146,27.9c0.6,0,1.3-0.3,1.9-0.9v-4.1c-0.6-0.4-1.2-0.7-1.8-0.7c-1.1,0-2.1,0.9-2.1,2.8
		C143.9,27,144.9,27.9,146,27.9z"/>
	<path class="st3" d="M157,19.9c2.4,0,4.8,1.9,4.8,5.1c0,3.2-2.4,5.1-4.8,5.1s-4.7-1.9-4.7-5.1C152.3,21.8,154.7,19.9,157,19.9z
		 M157,27.9c0.9,0,2-0.7,2-2.8s-1.1-2.8-2-2.8c-0.9,0-2,0.7-2,2.8S156.1,27.9,157,27.9z"/>
	<path class="st3" d="M168.5,20.1h1.5v-2.5l2.6-0.3v2.8h2.5v2.3h-2.5v4.1c0,0.8,0.3,1.3,1.1,1.3c0.4,0,0.8-0.1,1.3-0.2l0.5,2.2
		c-0.9,0.3-1.7,0.4-2.3,0.4c-2.2,0-3.2-1.5-3.2-3.6v-4.1h-1.5V20.1z"/>
	<path class="st3" d="M178.9,25.8c0.2,1.6,1.3,2.2,2.1,2.2c0.8,0,1.5-0.4,1.8-1.3l2.5,0.5c-0.8,1.9-2.5,3-4.4,3
		c-2.4,0-4.7-1.9-4.7-5.1c0-3.2,2.3-5.1,4.7-5.1c2.1,0,4.9,1.5,4.7,5.9H178.9z M178.9,23.9h4c-0.1-1.2-1.1-1.9-1.9-1.9
		C180,22.1,179.2,22.7,178.9,23.9z"/>
	<path class="st3" d="M189.6,26.8c0.2,0.9,0.9,1.3,1.8,1.3c0.8,0,1.6-0.4,1.6-0.9c0-1.8-5.8-0.1-5.8-4.2c0-1.6,1.6-3,4-3
		c2.2,0,3.8,1.1,4.2,2.8l-2.6,0.5c-0.1-0.9-0.9-1.3-1.7-1.3c-0.7,0-1.4,0.3-1.4,0.9c0,1.8,5.8,0.1,5.8,4.2c0,1.6-1.6,3-4.2,3
		c-2.3,0-3.9-1.2-4.3-2.8L189.6,26.8z"/>
	<path class="st3" d="M196.6,20.1h1.5v-2.5l2.6-0.3v2.8h2.5v2.3h-2.5v4.1c0,0.8,0.3,1.3,1.1,1.3c0.4,0,0.8-0.1,1.3-0.2l0.5,2.2
		c-0.9,0.3-1.7,0.4-2.3,0.4c-2.2,0-3.2-1.5-3.2-3.6v-4.1h-1.5V20.1z"/>
	<path class="st3" d="M207.8,20.1v6.3c0,1,0.6,1.5,1.3,1.5c0.7,0,1.5-0.4,2.1-0.9v-6.9h2.6v9.8h-2.5v-1c-0.9,0.8-2,1.2-3,1.2
		c-1.7,0-3.2-1.1-3.2-3.7v-6.4H207.8z"/>
</g>
<g>
	<polygon class="st3" points="250.7,16.9 248.3,16.9 248.3,24.8 255.5,29.8 256.9,27.8 250.7,23.6 	"/>
	<path class="st3" d="M250,7.9c-8.9,0-16,7.2-16,16s7.2,16,16,16c8.9,0,16-7.2,16-16S258.8,7.9,250,7.9z M250,36.9
		c-7.2,0-13.1-5.8-13.1-13.1s5.8-13.1,13.1-13.1c7.3,0,13,6,13,13.2S257.2,36.9,250,36.9z"/>
</g>
<g>
	<path class="st3" d="M29.3,30L31,32l8.4-7.2c0.3-0.2,0.4-0.6,0.4-1c0-0.4-0.2-0.7-0.4-1L31,15.6l-1.7,1.9l5.8,5H20.4V25h14.7
		L29.3,30z"/>
	<path class="st3" d="M25,8.5v2.5h18.8v23.7c0,1.1-0.9,2.1-2.1,2.1H25v2.5h16.8c2.5,0,4.6-2.1,4.6-4.6V8.5H25z"/>
</g>
</svg>
