<?xml version="1.0" encoding="utf-8"?>
<!-- Generator: Adobe Illustrator 24.3.0, SVG Export Plug-In . SVG Version: 6.00 Build 0)  -->
<svg version="1.1" id="Layer_1" xmlns="http://www.w3.org/2000/svg" xmlns:xlink="http://www.w3.org/1999/xlink" x="0px" y="0px"
	 viewBox="0 0 72 72" style="enable-background:new 0 0 72 72;" xml:space="preserve">
<style type="text/css">
	.st0{fill:#636363;}
</style>
<g>
	<path class="st0" d="M63.5,4.4H8.3c-2.4,0-4.4,2-4.4,4.4V64c0,2.4,2,4.4,4.4,4.4h55.2c2.4,0,4.4-2,4.4-4.4V8.8
		C67.9,6.4,65.9,4.4,63.5,4.4z M6.8,8.8c0-0.8,0.7-1.5,1.5-1.5h55.2C64.3,7.3,65,8,65,8.8V16H6.8V8.8z M65,64c0,0.8-0.7,1.5-1.5,1.5
		H8.3c-0.8,0-1.5-0.7-1.5-1.5V18.9H65V64z M15.6,11.7c0,1.6-1.3,2.9-2.9,2.9s-2.9-1.3-2.9-2.9s1.3-2.9,2.9-2.9S15.6,10.1,15.6,11.7z
		 M24.3,11.7c0,1.6-1.3,2.9-2.9,2.9s-2.9-1.3-2.9-2.9s1.3-2.9,2.9-2.9S24.3,10.1,24.3,11.7z M33,11.7c0,1.6-1.3,2.9-2.9,2.9
		c-1.6,0-2.9-1.3-2.9-2.9s1.3-2.9,2.9-2.9C31.7,8.8,33,10.1,33,11.7z M11.2,49.5h49.4c0.8,0,1.5-0.7,1.5-1.5V23.3
		c0-0.8-0.7-1.5-1.5-1.5H11.2c-0.8,0-1.5,0.7-1.5,1.5V48C9.7,48.8,10.4,49.5,11.2,49.5z M12.7,24.8h46.5v21.8H12.7V24.8z M40.8,34.2
		l-8.5-4.9c-0.4-0.3-1-0.3-1.5,0c-0.5,0.3-0.7,0.7-0.7,1.3v9.8c0,0.5,0.3,1,0.7,1.3c0.4,0.3,1,0.3,1.5,0l8.5-4.9
		c0.7-0.4,0.9-1.3,0.5-2C41.2,34.5,41,34.3,40.8,34.2z M33,37.8v-4.8l4.1,2.4L33,37.8z M9.7,56.7c0-0.8,0.7-1.5,1.5-1.5H17v-1.5
		c0-0.8,0.7-1.5,1.5-1.5s1.5,0.7,1.5,1.5v1.5h39.2c0.8,0,1.5,0.7,1.5,1.5s-0.7,1.5-1.5,1.5H19.9v1.5c0,0.8-0.7,1.5-1.5,1.5
		S17,60.4,17,59.6v-1.5h-5.8C10.4,58.2,9.7,57.5,9.7,56.7z"/>
</g>
</svg>
