<?xml version="1.0" encoding="utf-8"?>
<!-- Generator: Adobe Illustrator 22.0.1, SVG Export Plug-In . SVG Version: 6.00 Build 0)  -->
<svg version="1.1" id="Layer_1" xmlns="http://www.w3.org/2000/svg" xmlns:xlink="http://www.w3.org/1999/xlink" x="0px" y="0px"
	 viewBox="0 0 65 57" style="enable-background:new 0 0 65 57;" xml:space="preserve">
<style type="text/css">
	.st0{fill:#6699CC;}
</style>
<g transform="matrix( 1, 0, 0, 1, 0,0) ">
	<g>
		<g id="a">
			<path class="st0" d="M64.7,19.1c-0.1-0.2-0.3-0.3-0.5-0.4c-0.9-1.3-2.8-2.5-5.6-3.7c-0.3-0.3-0.8-0.5-1.6-0.5l-23.2-0.1
				c0-1.1,0-2.2,0-3.3c0-3.4-0.2-5.6-0.6-6.5c0-0.2,0-0.3,0-0.4c-0.5-0.6-1.6-1.5-3.2-2.7c-1.7-1.2-2.8-1.7-3.3-1.5c0,0-0.1,0-0.1,0
				c-1.1,0.3-3.6,2.2-7.5,5.7c-3.1,2.8-5.2,4.8-6.3,6.1c-1.7,2-4.8,5.3-9.2,10c-0.7,0.8-1.5,1.6-2.3,2.5c-0.7,0.7-1.1,1.2-1.2,1.3
				c-0.2,0.5-0.2,1,0,1.5c0.1,0.2,0.5,0.6,1.2,1.3c1.1,1.3,1.9,2.1,2.3,2.7c4.4,4.7,7.5,8,9.2,10c1.1,1.3,3.7,3.6,7.7,7.2
				s7.4,6.1,10.2,7.6c0.4,0.2,0.7,0.4,1,0.5c0.4,0.2,0.7,0.4,1,0.4c0.6,0.2,1-2.2,1.1-7c0-2.4,0-4.8-0.1-7.3l29.3-0.1
				c0.9,0,1.4-0.2,1.6-0.6c0.1-0.1,0.1-0.5,0.2-1.2l0-20.3C64.8,19.7,64.8,19.2,64.7,19.1 M63.1,20.5l0,20l-31.7,0l0.1,13.6
				c-0.8-0.8-1.9-1.8-3.3-3.1c-4.2-3.9-6.7-6.3-7.6-7.2c-0.4-0.5-2.9-3.2-7.3-8.2c-2.1-2.4-3.7-4.1-4.6-5.1c0.9-0.9,2.5-2.6,4.7-5.1
				c4.4-5,6.8-7.8,7.3-8.2c0.9-0.8,3.4-3.2,7.6-7.2c1.4-1.3,2.5-2.3,3.3-3.1l-0.1,13.6L63.1,20.5 M27.7,2.4c0.3,0.3,0.7,0.6,1.1,1
				c0.8,0.7,1.5,1.3,2.1,1.8c-1.3,0.9-3.2,2.5-5.5,4.5c-3.1,2.8-5.2,4.8-6.3,6.1c-1.7,2-4.8,5.3-9.2,10c-0.7,0.8-1.5,1.6-2.3,2.5
				c-0.7,0.7-1.1,1.2-1.2,1.3c-0.1,0.2-0.2,0.4-0.2,0.6c-1.6-1.7-2.7-3-3.5-3.8c0.9-0.9,2.5-2.6,4.7-5.1c4.4-5,6.8-7.8,7.3-8.2
				c0.9-0.8,3.4-3.2,7.6-7.2C23.6,4.7,25.4,3.5,27.7,2.4 M33.8,18.4c0-0.6,0.1-1.3,0.1-1.9l23.3,0c2,0.5,3.4,1.2,4.4,2.1L33.8,18.4
				 M57.1,25.4c0-0.1,0.1-0.1,0.1-0.2c-0.1,0-0.1,0-0.1,0V25.4z"/>
		</g>
	</g>
</g>
</svg>
