<?xml version="1.0" encoding="utf-8"?>
<!-- Generator: Adobe Illustrator 22.0.1, SVG Export Plug-In . SVG Version: 6.00 Build 0)  -->
<svg version="1.1" id="Layer_1" xmlns="http://www.w3.org/2000/svg" xmlns:xlink="http://www.w3.org/1999/xlink" x="0px" y="0px"
	 viewBox="0 0 64 60" style="enable-background:new 0 0 64 60;" xml:space="preserve">
<style type="text/css">
	.st0{fill:#6699CC;}
</style>
<g transform="matrix( 1, 0, 0, 1, 0,0) ">
	<g>
		<g id="a">
			<path class="st0" d="M63.9,13.3c-0.5-1-2.3-3.1-5.5-6.1c-2.7-2.6-4.6-4-5.6-4.1c-0.4-0.4-0.8-0.8-1.3-1.3
				c-1.9-1.8-3.6-2.3-5.2-1.3c-1.6,1-3.4,2.5-5.4,4.6c-2.2,2.3-3.9,4.2-5.1,5.7c-2.3,2.7-4.4,5.1-6.2,7.3c-3.3,4-6,7.4-8.2,10.3
				c-0.2-0.2-0.4-0.3-0.6-0.5c-0.5-0.3-0.9-0.6-1.2-0.9c-0.9-0.8-2.1-1.7-3.6-2.9c-3.7-2.9-5.9-4.3-6.5-4.3
				c-0.9,0.7-2.6,2.8-5.4,6.2C1.4,29.3,0,31.2,0,31.5l12.2,13.1c0,0,3.4,3.8,10.2,11.2c0.3,0.2,0.7,0.5,1.2,0.9c2.6,2,4.1,3,4.5,2.9
				c0.2,0.2,0.4,0.2,0.6,0.2c1.2-1.9,2.9-4.7,5.3-8.3c3.5-5.2,7.1-10.2,10.9-15.1c2.6-3.4,6.8-8.4,12.6-15.2
				C61.9,16.3,64,13.6,63.9,13.3 M57.1,9.3c2.4,2.2,3.7,3.7,4,4.3c-0.7,0.7-3.4,4-8.3,10c-4.8,5.9-7.7,9.6-8.9,11.3
				c-3.4,4.4-6.3,8.1-8.6,11.1c-4.5,5.9-7,9.3-7.4,10.3c-1.8-2.2-4.8-5.7-9.2-10.5c-3.1-3.4-5.2-5.7-6.4-7c-2-2.2-3.2-3.6-3.6-4.2
				c0-0.2,1-1.5,3.1-3.9c2-2.5,3.2-3.9,3.6-4.2c7.4,6.3,11.3,9.4,11.8,9.4c0.1,0,3.9-4.9,11.2-14.6c6-7.8,10.8-13.2,14.3-16.1
				C53.5,6,55,7.4,57.1,9.3 M50.5,4.7c-1.3,1.3-2.6,2.6-4.1,4.2c-2.2,2.3-3.9,4.2-5.1,5.7c-2.3,2.7-4.4,5.1-6.2,7.3
				c-3.4,4.2-6.3,7.7-8.5,10.7c-0.1-0.1-1.2-1-3.3-2.6c1.8-2.3,4.9-6.4,9.4-12.3c6-7.8,10.8-13.2,14.3-16.1
				C47.7,2.2,48.9,3.2,50.5,4.7 M6,27c2-2.5,3.2-3.9,3.6-4.2c1.4,0.6,2.7,1.4,3.9,2.3c-1,1.1-2.2,2.6-3.8,4.5
				c-2.6,3.2-3.9,5.1-4,5.5c-1.3-1.4-2.3-2.9-2.8-4.3C3,30.8,4,29.5,6,27z"/>
		</g>
	</g>
</g>
</svg>
