<?xml version="1.0" encoding="utf-8"?>
<!-- Generator: Adobe Illustrator 19.0.0, SVG Export Plug-In . SVG Version: 6.00 Build 0)  -->
<svg version="1.1" id="Layer_1" xmlns="http://www.w3.org/2000/svg" xmlns:xlink="http://www.w3.org/1999/xlink" x="0px" y="0px"
	 viewBox="0 0 80 35" style="enable-background:new 0 0 80 35;" xml:space="preserve">
<style type="text/css">
	.st0{fill:#4D4D4D;}
	.st1{fill:url(#XMLID_3_);}
	.st2{fill:url(#XMLID_4_);}
	.st3{fill:url(#XMLID_5_);}
	.st4{fill:url(#XMLID_6_);}
	.st5{fill:url(#XMLID_7_);}
	.st6{fill:url(#XMLID_8_);}
</style>
<polygon id="XMLID_2_" class="st0" points="46,10.7 46,10.7 46,10.7 "/>
<linearGradient id="XMLID_3_" gradientUnits="userSpaceOnUse" x1="30.6245" y1="10.8881" x2="48.6691" y2="10.8881">
	<stop  offset="0" style="stop-color:#5F82C1"/>
	<stop  offset="0.5218" style="stop-color:#4B5AA6"/>
	<stop  offset="1" style="stop-color:#592F8E"/>
</linearGradient>
<path id="XMLID_17_" class="st1" d="M32.1,14.7c0.7,1.9,1.8,3.7,3.1,5c0.8,0.7,1.6,1.3,2.5,1.7c0.6,0.2,1.3,0.4,1.9,0.4
	c0.7,0,1.3-0.1,1.9-0.4c0.9-0.4,1.8-1,2.6-1.8c1.3-1.3,2.4-3.1,3.1-4.9c0.5-0.2,1.1-1.1,1.3-2.4c0.2-1.4,0-2.5-0.5-2.7
	c0-0.3,0-0.7,0-1c0-4.9-2.9-8.1-7.4-8.4c-4-0.3-6.9,1.3-8.3,3.9c-0.5,0.9-0.7,2.1-0.8,3.3C31.4,7.9,31.3,9,31.3,9h0c0,0,0,0.3,0,0.3
	c0,0,0,0.1,0,0.1c-0.6,0.1-0.8,1.4-0.6,2.8C31,13.5,31.5,14.6,32.1,14.7z M32.2,11c0.1-0.2,0.1-0.3,0.2-0.4c0,0,0.1,0,0.1-0.1
	c0.1,0,0.2,0,0.3,0.1c0,0,0,0,0,0c0,0,0,0,0,0c0-0.2,0.2-1.3,0.9-2.2c0.5-0.7,1.4-1.2,2.8-1.1c0,0,2.7,1,5.2,0.1c0.3,0,0.5,0,0.8,0
	c1,0,1.7,0.6,2.5,0.9h0c0-0.3-0.3-0.7-0.3-0.9c0.1,0,0.2,0.1,0.3,0.1c0.5,0.5,1,1.6,1.4,3c0,0,0.1,0,0.1,0c0,0,0.1,0.2,0.1,0.2
	c0,0,0.1,0.2,0.1,0.2h0c0,0,0.1-0.2,0.1-0.2c0.3,0.1,0.4,0.5,0.4,1.1c0,0.2,0,0.4-0.1,0.6c0,0.1,0,0.1,0,0.1
	c-0.1,0.6-0.4,1.1-0.6,1.3c-0.1,0.1-0.1,0.1-0.2,0.1c-0.1,0-0.1,0-0.2,0c-0.1,0-0.1,0-0.2-0.1c-0.6,1.9-1.8,3.9-3.3,5.1
	c-0.2,0.2-0.5,0.3-0.7,0.5c-0.7,0.4-1.5,0.7-2.3,0.7c-1,0-2-0.4-2.9-1.1C35.2,17.9,34,16,33.4,14c0,0,0,0,0,0
	c-0.1,0-0.1,0.1-0.2,0.1c-0.1,0-0.3,0-0.4-0.2c-0.3-0.3-0.5-0.8-0.6-1.5c0,0,0-0.1,0-0.1C32.2,11.9,32.2,11.4,32.2,11z"/>
<path id="XMLID_18_" class="st0" d="M46,10.7c0,0,0.2,0.3,0.2,0.3h0.2c0,0,0-0.2,0-0.2c0-0.1,0-0.1-0.1-0.2c-0.1,0-0.1,0-0.2,0.1
	L46,10.7z"/>
<linearGradient id="XMLID_4_" gradientUnits="userSpaceOnUse" x1="0.5332" y1="26.2537" x2="25.6597" y2="26.2537">
	<stop  offset="0" style="stop-color:#5F82C1"/>
	<stop  offset="0.5218" style="stop-color:#4B5AA6"/>
	<stop  offset="1" style="stop-color:#592F8E"/>
</linearGradient>
<path id="XMLID_19_" class="st2" d="M25.7,23.8c-1.5-2.4-3.2-2.5-3.6-2.6c-1.2-0.3-2.6-0.2-3.4-0.4c-0.1,1.1-2.3,2-4.9,2
	s-4.8-0.9-4.9-2c-0.8,0.2-2.2,0.1-3.4,0.4c-0.6,0.1-3.4,0.3-4.9,5.5c-0.2,0.7-0.1,1.5,0.2,2.1c1.2,2.3,7.7,3,12.9,3
	c3.1,0,6.7-0.3,9.3-1c-0.2-0.7-0.2-1.4,0-2C23.8,26.3,24.7,24.8,25.7,23.8z"/>
<linearGradient id="XMLID_5_" gradientUnits="userSpaceOnUse" x1="6.4236" y1="12.2438" x2="20.8573" y2="12.2438">
	<stop  offset="0" style="stop-color:#5F82C1"/>
	<stop  offset="0.5218" style="stop-color:#4B5AA6"/>
	<stop  offset="1" style="stop-color:#592F8E"/>
</linearGradient>
<path id="XMLID_22_" class="st3" d="M7.6,15.3c0.6,1.5,1.4,2.9,2.5,4c0.6,0.6,1.3,1.1,2,1.4c0.5,0.2,1,0.3,1.6,0.3
	c0.5,0,1.1-0.1,1.6-0.3c0.7-0.3,1.5-0.8,2.1-1.4c1.1-1.1,1.9-2.5,2.5-3.9c0.4-0.1,0.9-0.9,1-1.9c0.2-1.1,0-2-0.4-2.2
	c0-0.3,0-0.5,0-0.8c0-3.9-2.3-6.5-5.9-6.8c-3.2-0.2-5.5,1-6.6,3.1C7.5,7.4,7.3,8.6,7.2,9.5C7.1,10,7,11,7,11h0c0,0,0,0.1,0,0.1
	c0,0,0,0,0,0c-0.5,0.1-0.7,1.1-0.5,2.2C6.7,14.4,7.2,15.2,7.6,15.3z M7.7,12.3c0-0.1,0.1-0.2,0.1-0.2c0,0,0,0,0,0
	C7.9,12,7.9,12,8,12c0,0,0,0,0,0c0.1-0.3,0.4-1.2,1-1.9c0.4-0.4,1.1-0.7,2.1-0.7c0,0,2.2,0.8,4.2,0.1c0.2,0,0.4,0,0.6,0
	c0.8,0,1.4,0.7,2,1c0-0.3-0.2-0.5-0.2-0.5h0c0.1,0,0.1-0.2,0.2-0.1c0.4,0.4,1.1,1,1.1,2.2c0,0,0,0,0,0c0,0,0-0.1,0-0.1h0l0,0
	c0,0,0.1,0,0.1-0.1c0,0,0.1,0,0.1,0c0,0,0,0,0.1,0c0,0,0,0,0,0c0,0,0,0,0.1,0c0.3,0.1,0.4,0.8,0.3,1.5c-0.1,0.6-0.3,1-0.5,1.2
	c0,0,0,0-0.1,0c0,0,0,0-0.1,0c0,0-0.1,0-0.1,0c-0.1,0-0.1,0-0.1-0.1c-0.5,1.6-1.5,3.1-2.7,4.1c-0.2,0.1-0.4,0.3-0.6,0.4
	c-0.3,0.2-0.7,0.3-1.1,0.4c0,0-0.1,0-0.1,0c-0.1,0-0.2,0-0.3,0c-0.1,0-0.2,0-0.4,0c-0.8,0-1.6-0.3-2.3-0.9c-1.2-0.9-2.2-2.5-2.7-4.1
	c0,0-0.1,0.1-0.1,0.1c-0.1,0-0.2,0-0.3-0.1c-0.2-0.2-0.4-0.6-0.5-1.2c0,0,0-0.1,0-0.1C7.7,13,7.7,12.7,7.7,12.3z"/>
<path id="XMLID_23_" class="st0" d="M8.1,12c-0.1,0-0.1,0-0.1,0c0,0,0,0,0,0H8.1z"/>
<path id="XMLID_24_" class="st0" d="M8,12.1C8,12,8,12,8,12.1L8,12.1C8,12,8,12.1,8,12.1z"/>
<linearGradient id="XMLID_6_" gradientUnits="userSpaceOnUse" x1="54.1833" y1="26.2533" x2="79.4668" y2="26.2533">
	<stop  offset="0" style="stop-color:#5F82C1"/>
	<stop  offset="0.5218" style="stop-color:#4B5AA6"/>
	<stop  offset="1" style="stop-color:#592F8E"/>
</linearGradient>
<path id="XMLID_25_" class="st4" d="M79.4,26.6c-1.5-5.2-4.3-5.3-4.9-5.5c-1.2-0.3-2.6-0.2-3.4-0.4c-0.1,1.1-2.3,2-4.9,2
	s-4.8-0.9-4.9-2c-0.8,0.2-2.2,0.1-3.4,0.4c-0.5,0.1-2.3,0.3-3.8,2.9c0.9,1,1.7,2.5,2.3,4.8c0.2,0.6,0.2,1.3,0,1.9
	c2.7,0.8,6.4,1.1,9.7,1.1c5.2,0,11.7-0.7,12.9-3C79.5,28.1,79.6,27.3,79.4,26.6z"/>
<linearGradient id="XMLID_7_" gradientUnits="userSpaceOnUse" x1="58.8874" y1="12.2438" x2="73.3248" y2="12.2438">
	<stop  offset="0" style="stop-color:#5F82C1"/>
	<stop  offset="0.5218" style="stop-color:#4B5AA6"/>
	<stop  offset="1" style="stop-color:#592F8E"/>
</linearGradient>
<path id="XMLID_28_" class="st5" d="M60.1,15.3c0.6,1.5,1.4,2.9,2.5,4c0.6,0.6,1.3,1.1,2,1.4c0.5,0.2,1,0.3,1.6,0.3
	c0.5,0,1.1-0.1,1.6-0.3c0.7-0.3,1.5-0.8,2.1-1.4c1.1-1.1,1.9-2.5,2.5-3.9c0.4-0.1,0.9-0.9,1-1.9c0.2-1.1,0-2-0.4-2.2
	c0-0.3,0-0.5,0-0.8c0-3.9-2.3-6.5-5.9-6.8c-3.2-0.2-5.5,1-6.6,3.1c-0.4,0.7-0.6,1.8-0.7,2.8C59.5,10,59.4,11,59.4,11h0
	c0,0,0,0.1,0,0.1c0,0,0,0,0,0c-0.5,0.1-0.7,1.1-0.5,2.2C59.2,14.4,59.6,15.2,60.1,15.3z M60.2,12.3C60.2,12.3,60.2,12.3,60.2,12.3
	c0.1-0.2,0.1-0.2,0.2-0.3c0,0,0,0,0,0c0,0,0.1,0,0.1,0c0.1,0,0.2,0,0.3,0.1c0,0,0,0,0,0c0-0.2,0.1-1.1,0.7-1.8c0,0,0.1-0.1,0.1-0.1
	c0,0,0-0.1,0.1-0.1c0.4-0.4,1.1-0.7,2-0.7c0,0,2.2,0.8,4.2,0.1c0.2,0,0.4,0,0.6,0c0.8,0,1.4,0.5,2,0.7h0c0-0.3-0.2-0.5-0.2-0.7
	c0,0,0,0,0,0c0.1,0,0.4,0.1,0.5,0.1c0.4,0.4,0.4,1.2,1.4,2.4c0,0,0,0,0,0c0,0,0,0-0.1,0c0.2,0.2,0.3,0.8,0.2,1.4
	c-0.1,0.5-0.3,0.9-0.5,1.1c0,0-0.1,0.1-0.1,0.1c0,0-0.1,0-0.1,0.1c0,0,0,0-0.1,0c0,0-0.1,0-0.1,0c0,0-0.1,0-0.1-0.1c0,0,0,0,0,0
	c-0.5,1.6-1.5,3.1-2.7,4.1c-0.3,0.2-0.5,0.4-0.8,0.5c-0.3,0.1-0.5,0.2-0.8,0.3c0,0-0.1,0-0.1,0c-0.1,0-0.2,0-0.2,0
	c-0.1,0-0.3,0-0.4,0c0,0,0,0,0,0c-0.8,0-1.6-0.3-2.3-0.9c-1.2-0.9-2.2-2.5-2.7-4.1h0c0,0-0.1,0.1-0.1,0.1c-0.1,0-0.2,0-0.3-0.1
	c-0.2-0.2-0.4-0.6-0.5-1.2c0,0,0-0.1,0-0.1C60.1,13,60.1,12.7,60.2,12.3z"/>
<path id="XMLID_29_" class="st0" d="M71.6,12C71.6,12,71.7,12,71.6,12C71.7,12,71.7,12,71.6,12L71.6,12z"/>
<path id="XMLID_30_" class="st0" d="M71.8,12L71.8,12C71.8,12,71.8,12,71.8,12c-0.1,0-0.1,0-0.1,0c0,0,0,0,0,0
	C71.7,12,71.8,12,71.8,12C71.8,12,71.8,12,71.8,12C71.9,12,71.9,12,71.8,12C71.9,12,71.8,12,71.8,12z"/>
<linearGradient id="XMLID_8_" gradientUnits="userSpaceOnUse" x1="23.5969" y1="28.4612" x2="56.0081" y2="28.4612">
	<stop  offset="0" style="stop-color:#5F82C1"/>
	<stop  offset="0.5218" style="stop-color:#4B5AA6"/>
	<stop  offset="1" style="stop-color:#592F8E"/>
</linearGradient>
<path id="XMLID_31_" class="st6" d="M53.9,24.7c-1.4-1.9-3-2.2-3.6-2.3c-0.1,0-0.1,0-0.2,0c-0.7-0.2-1.5-0.2-2.3-0.3
	c-0.6,0-1.1-0.1-1.6-0.2c-0.5,1.4-3.1,2.4-6.4,2.4c-3.2,0-5.8-1-6.4-2.4c-0.5,0.1-1,0.1-1.6,0.2c-0.7,0-1.6,0.1-2.3,0.3
	c-0.1,0-0.1,0-0.2,0c-0.6,0.1-2,0.4-3.4,2c-0.8,1-1.6,2.4-2.3,4.6c-0.2,0.5-0.2,1.1,0,1.7c0.1,0.2,0.1,0.5,0.3,0.7
	C25.4,34,33.1,35,39.8,35h0c6.7,0,14.4-1,15.8-3.6c0.1-0.3,0.2-0.6,0.3-0.8c0.1-0.5,0.1-1-0.1-1.5C55.3,27,54.6,25.6,53.9,24.7z"/>
</svg>
