<?xml version="1.0" encoding="utf-8"?>
<!-- Generator: Adobe Illustrator 19.0.0, SVG Export Plug-In . SVG Version: 6.00 Build 0)  -->
<svg version="1.1" id="Layer_1" xmlns="http://www.w3.org/2000/svg" xmlns:xlink="http://www.w3.org/1999/xlink" x="0px" y="0px"
	 viewBox="0 0 23 23" style="enable-background:new 0 0 23 23;" xml:space="preserve">
<style type="text/css">
	.st0{fill:#E8E8EF;}
</style>
<g>
	<path class="st0" d="M16.1,10.3l-2-1.2c-0.3-0.2-0.5-0.5-0.5-0.9c0-0.1,0-0.2,0-0.3c0-0.2-0.1-0.4-0.1-0.6c0-0.2,0-0.4,0.1-0.6
		c0.3-0.3,1-1,1.7-1.9c0.1-0.1,0.2-0.4,0-0.5c-0.4-0.6-0.8-1.2-1.3-1.6c-0.1-0.1-0.3-0.2-0.5-0.1l-2,1.1c-0.3,0.2-0.7,0.2-1,0
		c-0.2-0.1-0.5-0.2-0.7-0.3C9.5,3.4,9.2,3.1,9.1,2.8C9,2.3,8.7,1.5,8.4,0.5c0-0.2-0.2-0.3-0.4-0.3c-0.3,0-0.7,0-1.1,0.1
		c-0.3,0-0.7,0.1-1,0.2c-0.2,0-0.3,0.2-0.3,0.4l0,2.3c0,0.4-0.2,0.7-0.5,0.9C4.9,4.3,4.8,4.4,4.6,4.5C4.3,4.8,3.8,4.9,3.3,4.8
		C2.8,4.7,2.1,4.5,1.3,4.3c-0.2,0-0.4,0-0.5,0.2C0.5,5.2,0.2,5.8,0,6.5C0,6.7,0,6.9,0.2,7l2,1.2c0.3,0.2,0.5,0.5,0.5,0.9
		c0,0.1,0,0.2,0,0.3c0,0.1,0,0.2,0.1,0.4c0.1,0.3,0,0.7-0.2,1c-0.3,0.4-0.9,1-1.6,1.7c-0.1,0.1-0.2,0.4,0,0.5
		c0.4,0.6,0.8,1.2,1.3,1.6c0.1,0.1,0.3,0.2,0.5,0.1l2-1.1c0.3-0.2,0.7-0.2,1,0c0.3,0.1,0.6,0.2,0.9,0.3c0.2,0,0.4,0.2,0.4,0.4
		c0.1,0.5,0.4,1.3,0.8,2.4c0,0.2,0.2,0.3,0.4,0.3c0.3,0,0.7,0,1.1-0.1c0.4,0,0.7-0.1,1-0.2c0.2,0,0.3-0.2,0.3-0.4l0-2.3
		c0-0.4,0.2-0.7,0.5-0.9c0.3-0.2,0.5-0.4,0.7-0.6c0.1-0.1,0.4-0.2,0.6-0.1c0.5,0.1,1.4,0.3,2.5,0.6c0.2,0,0.4,0,0.5-0.2
		c0.3-0.6,0.6-1.3,0.8-2C16.3,10.6,16.3,10.4,16.1,10.3z M8.5,11.4C7,11.6,5.6,10.5,5.4,9C5.2,7.5,6.2,6.1,7.8,5.9s2.9,0.8,3.1,2.4
		C11.1,9.7,10.1,11.1,8.5,11.4z"/>
	<path class="st0" d="M22.9,18.6l-1.3-0.9c-0.2-0.1-0.3-0.4-0.3-0.6c0-0.1,0-0.1,0-0.2c0-0.1,0-0.3,0-0.4c0-0.1,0-0.3,0.1-0.4
		c0.2-0.2,0.7-0.7,1.2-1.2c0.1-0.1,0.1-0.2,0.1-0.3c-0.2-0.4-0.5-0.8-0.8-1.2c-0.1-0.1-0.2-0.1-0.3-0.1L20.1,14
		c-0.2,0.1-0.5,0.1-0.7,0c-0.1-0.1-0.3-0.1-0.5-0.2c-0.2-0.1-0.4-0.3-0.4-0.5c-0.1-0.3-0.2-0.9-0.4-1.5c0-0.1-0.1-0.2-0.3-0.2
		c-0.2,0-0.5,0-0.7,0c-0.2,0-0.5,0-0.7,0.1c-0.1,0-0.2,0.1-0.2,0.3l-0.1,1.5c0,0.2-0.2,0.5-0.4,0.6c-0.1,0.1-0.2,0.1-0.3,0.2
		c-0.2,0.2-0.6,0.2-0.9,0.1c-0.3-0.1-0.8-0.2-1.3-0.4c-0.1,0-0.3,0-0.3,0.1c-0.2,0.4-0.5,0.8-0.6,1.3c0,0.1,0,0.3,0.1,0.3l1.3,0.9
		c0.2,0.1,0.3,0.4,0.3,0.6c0,0.1,0,0.1,0,0.2c0,0.1,0,0.2,0,0.2c0,0.2,0,0.5-0.2,0.6c-0.2,0.2-0.7,0.6-1.1,1.1
		c-0.1,0.1-0.1,0.2,0,0.3c0.2,0.4,0.5,0.8,0.8,1.2c0.1,0.1,0.2,0.1,0.3,0.1l1.4-0.7c0.2-0.1,0.5-0.1,0.7,0c0.2,0.1,0.4,0.2,0.6,0.3
		c0.1,0,0.2,0.2,0.3,0.3c0.1,0.3,0.2,0.9,0.4,1.6c0,0.1,0.1,0.2,0.3,0.2c0.2,0,0.5,0,0.7,0c0.2,0,0.5,0,0.7-0.1
		c0.1,0,0.2-0.1,0.2-0.3l0.1-1.5c0-0.2,0.2-0.5,0.4-0.6c0.2-0.1,0.4-0.2,0.5-0.4c0.1-0.1,0.3-0.1,0.4-0.1c0.3,0.1,0.9,0.3,1.6,0.5
		c0.1,0,0.3,0,0.3-0.1c0.2-0.4,0.5-0.8,0.6-1.3C23,18.8,23,18.6,22.9,18.6z M17.8,19c-1,0.1-1.9-0.7-2-1.7c-0.1-1,0.7-1.9,1.7-2
		c1-0.1,1.9,0.7,2,1.7C19.6,18,18.8,18.9,17.8,19z"/>
</g>
</svg>
