<?xml version="1.0" encoding="utf-8"?>
<!-- Generator: Adobe Illustrator 19.0.0, SVG Export Plug-In . SVG Version: 6.00 Build 0)  -->
<svg version="1.1" id="Layer_1" xmlns="http://www.w3.org/2000/svg" xmlns:xlink="http://www.w3.org/1999/xlink" x="0px" y="0px"
	 viewBox="0 0 16 17" style="enable-background:new 0 0 16 17;" xml:space="preserve">
<style type="text/css">
	.st0{fill:#E8E8EF;}
</style>
<g id="XMLID_7_">
	<g id="XMLID_8_">
		<path id="XMLID_9_" class="st0" d="M1.6,4.2l0.5,10.6c0,1.2,1,2.2,2.2,2.2h7.3c1.2,0,2.2-1,2.2-2.2l0.5-10.6H1.6z M15,3.4
			C15,3,15,3,15,2.9c0-1.2-0.7-1.8-1.6-1.8l-2.6,0c0-0.6-0.6-1.1-1.2-1.1L6.4,0C5.8,0,5.2,0.5,5.2,1.1l-2.6,0C1.6,1.1,1,1.9,1,2.9
			C1,3,1,3,1,3.4H15L15,3.4z M10.2,7c0-0.3,0.3-0.6,0.6-0.6c0.3,0,0.6,0.3,0.6,0.6v7c0,0.3-0.3,0.6-0.6,0.6c-0.3,0-0.6-0.3-0.6-0.6
			V7z M7.4,7c0-0.3,0.3-0.6,0.6-0.6c0.3,0,0.6,0.3,0.6,0.6v7c0,0.3-0.3,0.6-0.6,0.6c-0.3,0-0.6-0.3-0.6-0.6V7z M4.6,7
			c0-0.3,0.3-0.6,0.6-0.6c0.3,0,0.6,0.3,0.6,0.6v7c0,0.3-0.3,0.6-0.6,0.6c-0.3,0-0.6-0.3-0.6-0.6V7z"/>
	</g>
</g>
</svg>
