<?xml version="1.0" encoding="utf-8"?>
<!-- Generator: Adobe Illustrator 19.0.0, SVG Export Plug-In . SVG Version: 6.00 Build 0)  -->
<svg version="1.1" id="Layer_1" xmlns="http://www.w3.org/2000/svg" xmlns:xlink="http://www.w3.org/1999/xlink" x="0px" y="0px"
	 viewBox="0 0 48 46" style="enable-background:new 0 0 48 46;" xml:space="preserve">
<style type="text/css">
	.st0{fill:url(#XMLID_3_);}
	.st1{fill:url(#XMLID_4_);}
	.st2{fill:url(#XMLID_5_);}
</style>
<g id="XMLID_12_">
	<linearGradient id="XMLID_3_" gradientUnits="userSpaceOnUse" x1="18.536" y1="22.726" x2="47.5679" y2="22.726">
		<stop  offset="0" style="stop-color:#5F82C1"/>
		<stop  offset="0.5218" style="stop-color:#4B5AA6"/>
		<stop  offset="1" style="stop-color:#592F8E"/>
	</linearGradient>
	<path id="XMLID_15_" class="st0" d="M43.9,2.5h-9.6V1.2C34.2,0.5,33.7,0,33,0s-1.2,0.5-1.2,1.2v1.2h-9.6c-1.9,0-3.6,1.6-3.6,3.6
		v7.3c0.2,0.3,0.5,0.6,0.7,0.9c0.1,0.2,0.4,0.6,0.6,0.8c0.3,0.1,0.7,0.1,1.1,0.2V6c0-0.6,0.4-1,1-1h21.8c0.6,0,1,0.4,1,1v17.9
		c0,0.6-0.4,1-1,1H22.1c-0.6,0-1-0.5-1-1v-0.6c-0.7-0.1-1.6-0.2-2.5-0.4v1.1c0,1.9,1.6,3.6,3.6,3.6h9.6v12L27,43.3
		c-0.5,0.4-0.6,1.2-0.2,1.7c0.2,0.3,0.6,0.4,1,0.4c0.3,0,0.5-0.1,0.8-0.3l4.5-3.6l4.5,3.6c0.2,0.2,0.5,0.3,0.8,0.3
		c0.3,0,0.7-0.1,1-0.4c0.4-0.5,0.3-1.3-0.2-1.7l-4.7-3.9v-12H44c1.9,0,3.6-1.6,3.6-3.6V6C47.4,4.1,45.8,2.5,43.9,2.5z"/>
	<linearGradient id="XMLID_4_" gradientUnits="userSpaceOnUse" x1="0.4321" y1="28.032" x2="28.17" y2="28.032">
		<stop  offset="0" style="stop-color:#5F82C1"/>
		<stop  offset="0.5218" style="stop-color:#4B5AA6"/>
		<stop  offset="1" style="stop-color:#592F8E"/>
	</linearGradient>
	<path id="XMLID_14_" class="st1" d="M14.6,17.7c0.8,1.1,1.6,2.1,2.6,2.5c2,0.9,5.5,1.1,5.9,1.2c1,0,1.9-0.7,2-1.7
		c0-0.6-0.2-1.2-0.6-1.5l3.6-6.7c0.2-0.4,0-0.8-0.3-1c-0.4-0.2-0.8,0-1,0.3L23,17.6c-1.3-0.1-3.3-0.4-4.2-0.8
		c-0.2-0.1-0.8-0.9-1.2-1.4c-1.3-1.7-2.9-3.9-5.3-3.9H7.3c-3.7,0-5.7,4.6-6.2,6.3c-0.3,1.3-0.6,5.4-0.6,6.7c0,1,0.7,1.9,1.8,2
		c0,0,0,0,0.1,0c1,0,1.8-0.8,1.9-1.8c0.1-2.4,0.3-5.2,0.5-5.9c0.1-0.5,0.4-1.1,0.8-1.7l0.1,9.1L3.3,43.3c-0.1,1.2,0.6,2.3,1.9,2.5
		c1.2,0.1,2.3-0.6,2.5-1.9l2.2-15.8l2.2,15.8c0.1,1.1,1.1,1.9,2.2,1.9c0.1,0,0.2,0,0.3,0c1.2-0.1,2-1.3,1.9-2.5L14,26.1l0.1-9.1
		C14.3,17.2,14.5,17.5,14.6,17.7z"/>
	<linearGradient id="XMLID_5_" gradientUnits="userSpaceOnUse" x1="5.4296" y1="5.7866" x2="14.1342" y2="5.7866">
		<stop  offset="0" style="stop-color:#5F82C1"/>
		<stop  offset="0.5218" style="stop-color:#4B5AA6"/>
		<stop  offset="1" style="stop-color:#592F8E"/>
	</linearGradient>
	<circle id="XMLID_13_" class="st2" cx="9.8" cy="5.8" r="4.4"/>
</g>
</svg>
