<?xml version="1.0" encoding="utf-8"?>
<!-- Generator: Adobe Illustrator 19.0.0, SVG Export Plug-In . SVG Version: 6.00 Build 0)  -->
<svg version="1.1" id="Layer_1" xmlns="http://www.w3.org/2000/svg" xmlns:xlink="http://www.w3.org/1999/xlink" x="0px" y="0px"
	 viewBox="0 0 34 33" style="enable-background:new 0 0 34 33;" xml:space="preserve">
<style type="text/css">
	.st0{fill:#AAAAAA;}
</style>
<g id="XMLID_6_">
	<path id="XMLID_3_" class="st0" d="M31.3,1.8h-6.9V0.9c0-0.5-0.4-0.9-0.9-0.9s-0.9,0.4-0.9,0.9v0.9h-6.9c-1.4,0-2.6,1.1-2.6,2.6
		v5.2c0.2,0.2,0.4,0.5,0.5,0.6c0.1,0.1,0.3,0.4,0.5,0.6c0.2,0.1,0.5,0.1,0.8,0.2V4.3c0-0.4,0.3-0.7,0.7-0.7h15.7
		c0.4,0,0.7,0.3,0.7,0.7v12.9c0,0.4-0.3,0.7-0.7,0.7H15.6c-0.4,0-0.7-0.4-0.7-0.7v-0.5c-0.5-0.1-1.2-0.2-1.8-0.3v0.8
		c0,1.4,1.1,2.6,2.6,2.6h6.9v8.6l-3.4,2.8c-0.4,0.3-0.4,0.9-0.1,1.2c0.2,0.2,0.4,0.3,0.7,0.3c0.2,0,0.4-0.1,0.6-0.2l3.2-2.6l3.2,2.6
		c0.2,0.1,0.4,0.2,0.6,0.2c0.2,0,0.5-0.1,0.7-0.3c0.3-0.4,0.2-1-0.1-1.2l-3.4-2.8v-8.7h6.9c1.4,0,2.6-1.1,2.6-2.6V4.3
		C33.8,2.9,32.7,1.8,31.3,1.8z"/>
	<path id="XMLID_2_" class="st0" d="M10.2,12.7c0.6,0.8,1.1,1.5,1.9,1.8c1.4,0.6,4,0.8,4.2,0.9c0.7,0,1.4-0.5,1.5-1.2
		c0-0.4-0.1-0.9-0.5-1.1l2.6-4.8c0.1-0.3,0-0.6-0.2-0.7c-0.3-0.1-0.6,0-0.7,0.2l-2.7,5c-0.9-0.1-2.4-0.3-3-0.6
		c-0.2-0.1-0.6-0.6-0.9-1c-0.9-1.2-2.1-2.8-3.8-2.8H4.9c-2.6,0-4.1,3.3-4.5,4.5C0.2,13.8,0,16.7,0,17.6c0,0.7,0.5,1.4,1.3,1.4
		c0,0,0,0,0.1,0c0.7,0,1.3-0.6,1.4-1.3C2.8,16.1,3,14,3.1,13.5c0.1-0.4,0.3-0.8,0.6-1.2l0.1,6.5L2,31.2c-0.1,0.9,0.5,1.6,1.4,1.8
		c0.9,0.1,1.6-0.5,1.8-1.4l1.6-11.4l1.6,11.4C8.5,32.4,9.2,33,9.9,33c0.1,0,0.1,0,0.2,0c0.9-0.1,1.5-0.9,1.4-1.8L9.8,18.8l0.1-6.6
		C10,12.4,10.1,12.6,10.2,12.7z"/>
	<circle id="XMLID_1_" class="st0" cx="6.7" cy="4.2" r="3.1"/>
</g>
</svg>
