<?xml version="1.0" encoding="utf-8"?>
<!-- Generator: Adobe Illustrator 19.0.0, SVG Export Plug-In . SVG Version: 6.00 Build 0)  -->
<svg version="1.1" id="Layer_1" xmlns="http://www.w3.org/2000/svg" xmlns:xlink="http://www.w3.org/1999/xlink" x="0px" y="0px"
	 viewBox="0 0 62 55" style="enable-background:new 0 0 62 55;" xml:space="preserve">
<style type="text/css">
	.st0{fill:url(#XMLID_12_);}
</style>
<linearGradient id="XMLID_12_" gradientUnits="userSpaceOnUse" x1="-1.373039e-02" y1="27.5" x2="62.0137" y2="27.5">
	<stop  offset="0" style="stop-color:#5F82C1"/>
	<stop  offset="0.5218" style="stop-color:#4B5AA6"/>
	<stop  offset="1" style="stop-color:#592F8E"/>
</linearGradient>
<path id="XMLID_2_" class="st0" d="M30.8,0.8c-0.9,0.1-1.6,0.8-1.6,1.7v12.1H11.2c-0.1,0-0.1,0-0.2,0c-0.6,0.1-1.1,0.4-1.4,0.9
	l-9.4,19c-0.4,0.8-0.1,1.9,0.8,2.3C1.2,36.9,1.4,37,1.7,37h2.6V49c0,1,0.8,1.7,1.7,1.7h11.2v1.7c0,1,0.8,1.7,1.7,1.7h24.1
	c1,0,1.7-0.8,1.7-1.7v-1.7H56c1,0,1.7-0.8,1.7-1.7V37h2.6c1,0,1.7-0.8,1.7-1.7c0-0.3-0.1-0.5-0.2-0.8l-9.4-19
	c-0.3-0.6-0.9-1-1.6-0.9H32.7v-3.3c0.6,0.1,1,0.3,1.6,0.6c1,0.5,2.5,1,5.3,1c1,0,1.7-0.8,1.7-1.7V4.2c0-1-0.8-1.7-1.7-1.7
	c-2.4,0-3-0.3-3.9-0.7c-0.9-0.4-2.3-1-4.7-1C30.9,0.8,30.9,0.8,30.8,0.8z M32.7,4.4c0.6,0.1,1,0.3,1.6,0.5c0.8,0.3,2,0.7,3.6,0.9
	v3.5C37,9.2,36.3,9,35.8,8.7c-0.6-0.3-1.7-0.6-3.1-0.8V4.4z M12.3,18h15.5l-10,10c-0.3,0.3-0.5,0.8-0.5,1.2v4.3H4.5L12.3,18z
	 M34.3,18h15.5l7.8,15.5H44.8v-4.3c0-0.5-0.2-0.9-0.5-1.2L34.3,18z M31,19.6l10.3,10.3v20.8H20.7V29.9L31,19.6z M31,25.8
	c-2.8,0-5.2,2.3-5.2,5.2s2.3,5.2,5.2,5.2s5.2-2.3,5.2-5.2S33.8,25.8,31,25.8z M31,29.2c1,0,1.7,0.8,1.7,1.7c0,1-0.8,1.7-1.7,1.7
	c-1,0-1.7-0.8-1.7-1.7C29.3,30,30,29.2,31,29.2z M7.7,37h9.5v10.3H7.7V37z M44.8,37h9.5v10.3h-9.5V37z"/>
</svg>
