<?xml version="1.0" encoding="utf-8"?>
<!-- Generator: Adobe Illustrator 19.0.0, SVG Export Plug-In . SVG Version: 6.00 Build 0)  -->
<svg version="1.1" id="Layer_1" xmlns="http://www.w3.org/2000/svg" xmlns:xlink="http://www.w3.org/1999/xlink" x="0px" y="0px"
	 viewBox="0 0 12 15" style="enable-background:new 0 0 12 15;" xml:space="preserve">
<style type="text/css">
	.st0{fill:#848484;}
</style>
<g>
	<g>
		<path class="st0" d="M0.5,3.8l0.5,9c0,1,0.8,1.9,1.9,1.9h6.2c1,0,1.9-0.8,1.9-1.9l0.4-9H0.5z M12,3.2c0-0.4,0-0.4,0-0.4
			c0-1-0.6-1.5-1.4-1.5l-2.2,0c0-0.5-0.5-0.9-1-0.9H4.6c-0.5,0-1,0.4-1,0.9l-2.2,0C0.5,1.2,0,1.9,0,2.8c0,0,0,0.1,0,0.4H12L12,3.2z
			 M7.9,6.2c0-0.3,0.2-0.5,0.5-0.5c0.3,0,0.5,0.2,0.5,0.5v6c0,0.3-0.2,0.5-0.5,0.5c-0.3,0-0.5-0.2-0.5-0.5V6.2z M5.5,6.2
			c0-0.3,0.2-0.5,0.5-0.5c0.3,0,0.5,0.2,0.5,0.5v6c0,0.3-0.2,0.5-0.5,0.5c-0.3,0-0.5-0.2-0.5-0.5V6.2z M3.1,6.2
			c0-0.3,0.2-0.5,0.5-0.5c0.3,0,0.5,0.2,0.5,0.5v6c0,0.3-0.2,0.5-0.5,0.5c-0.3,0-0.5-0.2-0.5-0.5V6.2z"/>
	</g>
</g>
</svg>
