<?xml version="1.0" encoding="utf-8"?>
<!-- Generator: Adobe Illustrator 23.0.2, SVG Export Plug-In . SVG Version: 6.00 Build 0)  -->
<svg version="1.1" id="Layer_1" xmlns="http://www.w3.org/2000/svg" xmlns:xlink="http://www.w3.org/1999/xlink" x="0px" y="0px"
	 viewBox="0 0 175.2 93.2" style="enable-background:new 0 0 175.2 93.2;" xml:space="preserve">
<style type="text/css">
	.st0{fill:#6284C2;}
	.st1{fill:#FFFFFF;}
</style>
<g>
	<g id="XMLID_18_" transform="matrix( 1, 0, 0, 1, 0,0) ">
		<g id="XMLID_19_">
			<g id="a_1_">
				<path id="XMLID_20_" class="st0" d="M90.1,36.8l6.5-33.2L47.2,53.1h41.1L77.8,88.9l49.3-52.1H90.1z"/>
			</g>
		</g>
	</g>
	<g id="_x39_v8mhU.tif_1_">
		<g id="XMLID_16_">
			<path id="XMLID_17_" class="st1" d="M27.4,70.3c-0.7-0.4-1.6-0.7-1.6-1.7c0-1.1,0.5-1.9,1.4-2.5c1-0.6,2.2-1,3.3-1.3
				c1.3-0.4,1.6-1.3,1.9-2.5c-0.9,0.8-1.6,1.6-2.8,1.8c-1.9,0.4-3.3-0.7-2.8-2.6c0.9-3.3,3-5.6,6.2-6.7c1-0.4,2-0.1,2.8,0.7
				c0.3,0.3,0.4,0.5-0.1,0.7c-0.5,0.2-1,0.7-1.6,0.1c-0.4-0.3-0.9-0.1-1.3,0.1c-2,1-3.4,2.6-4.2,4.7c-0.1,0.4-0.3,0.9,0.1,1.3
				c0.4,0.4,1,0.1,1.3-0.1c1.5-1,2.6-2.4,3.6-3.8c0.1-0.1,0.2-0.4,0.3-0.5c0.2-0.2,0.2-0.7,0.6-0.7c0.4,0.1,0.8,0.3,1.2,0.6
				c0.3,0.1,0,0.4-0.1,0.6c-0.6,1.5-1.2,3-1.8,4.5c-0.1,0.1-0.1,0.2-0.1,0.5c2.3-0.9,4.2-2.2,5.8-3.9c1-1.1,1.8-2.4,2.5-3.7
				c0.2-0.4,0.2-0.7-0.2-1c-0.7-0.5-0.9-1.6-0.5-2.3c0.4-0.7,1-1,1.7-0.9c0.7,0.1,1.3,0.7,1.2,1.6c-0.1,1,0.4,1.3,1.2,1.6
				c2,0.6,2.4,1.7,1.4,3.6c-0.4,0.7-0.7,1.3-1,2c-0.3,0.6-0.4,1.4,0.1,1.9c0.6,0.5,1.3,0.4,1.9,0c1.4-0.7,2.5-1.9,3.3-3.2
				c1.3-2,3-3.6,5.4-4.3c1.3-0.4,2.3,0.1,3.1,1.2c-0.3,0.1-0.6,0.3-0.9,0.4c-0.4,0.2-0.6,0.3-1,0c-0.5-0.4-1.1-0.1-1.6,0.1
				c-1.9,1-3.3,2.6-4.2,4.5c-0.2,0.4-0.3,1,0.1,1.3c0.4,0.3,0.9,0.1,1.3-0.1c1.7-1,2.8-2.7,3.9-4.3c0.1-0.2,0.2-0.7,0.6-0.7
				c0.4,0.1,0.8,0.4,1.2,0.5c0.3,0.1,0,0.4-0.1,0.5c-0.3,0.8-0.7,1.7-1,2.5c-0.1,0.4-0.2,1,0.2,1.4c0.4,0.4,1,0.3,1.6,0.1
				c1.5-0.7,2.5-1.9,3.5-3c0.8-0.9,1.1-2.1,1.6-3.2c0.6-1.5,0.6-1.5,2.3-1.3c-0.3,0.8-0.6,1.6-1,2.6c0.7-0.7,1.4-1.2,2-1.8
				c0.5-0.4,1.1-0.8,1.8-1c1.2-0.4,2,0.3,2,1.6c0,0.7-0.4,1.3-0.6,2.1c0.5-0.4,0.9-0.8,1.3-1.2c0.6-0.4,1.2-0.9,1.9-0.5
				c0.8,0.4,1,1.1,1,1.9s0,1.6,0,2.5c0,1.5,0.9,2,2.2,1.2c1.6-1,2.8-2.4,3.6-4c0.6-1.1,1.3-2.2,2.3-2.8c0.7-0.5,1.6-0.7,2.5-0.7
				c1.5,0.1,2.5,1.4,2.5,3.1c0,0.4-0.1,0.8-0.1,1.2c-0.2,1,0.1,1.3,1,1.3c1.7,0.1,2.9-0.7,3.8-2c0.4-0.5,0.4-1.2,0.7-1.8
				c-0.1,0-0.1-0.1-0.1-0.1c-0.3-0.2-1,0.3-1-0.3c-0.1-0.7,0.5-1.3,1.3-1.3c0.4,0,0.7-0.1,0.8-0.5c0-0.1,0.1-0.2,0.1-0.3
				c0.6-1.4,0.6-1.4,2.2-1.3c-0.1,0.6-0.4,1.1-0.6,1.6c-0.1,0.4-0.1,0.5,0.3,0.5c0.6,0,1.2,0,1.8,0c-0.2,1.6-0.3,1.7-1.7,1.6
				c-1-0.1-1.4,0.2-1.7,1.1c-0.3,1-0.7,1.9-1.1,2.9c-0.4,1.4,0.1,2.2,1.6,2.1c1.6-0.1,2.8-1.1,4-2.1c1.4-1.1,2.1-2.7,2.7-4.3
				c0.5-1.5,0.6-1.5,2.2-1.3c-0.3,0.7-0.5,1.4-0.8,2.1c0.1,0.1,0.1,0.1,0.1,0.1c0.4-0.4,0.8-0.9,1.3-1.3c0.6-0.5,1.3-1,2.2-1.1
				c1.3-0.1,2,0.4,2.1,1.8c0.1,1.1-0.1,2.2-0.2,3.2c-0.1,0.6-0.1,1.2,0,1.8c0.1,1.1,0.8,1.4,1.8,0.9c1.2-0.7,2-1.8,2.9-2.8
				c0.4-0.4,0.7-1,1-1.6c0.4-0.9,1-1.6,1.8-2.2c1.4-1.1,3-1.3,4.1-0.6c1,0.7,1.5,2.2,1.1,3.9c-0.2,0.9,0.1,1.3,1,1.3
				c1.3,0.1,2.4-0.4,3.3-1.3c1-1.2,2.1-2.5,3.3-3.6c0.3-0.3,0.2-0.5,0.1-0.8c-0.3-1.3,0.4-2.2,1.6-2.3c1.2-0.1,1.9,1,1.3,1.9
				c-0.7,1-0.4,1.5,0.1,2.3c1.1,1.8,1.4,3.6,0.1,5.6c2.8-0.4,5.8-3,6.5-5.7c0,0,0,0-0.1-0.1c-0.3-0.1-1,0.3-1-0.3
				c-0.1-0.7,0.6-1.3,1.3-1.3c0.4,0,0.7-0.1,0.8-0.6c0.1-0.2,0.2-0.4,0.3-0.7c0.4-0.8,1-1.1,1.9-0.9c0.4,0.1,0.2,0.3,0.1,0.4
				c-0.2,0.6-0.8,1.2-0.5,1.6c0.2,0.3,1.1,0.1,1.7,0.1c0.4,0,0.4,0.1,0.3,0.4c-0.2,0.7-0.4,1.3-1.5,1.2c-1.4-0.1-1.4,0-1.9,1.3
				c-0.4,0.9-0.7,1.8-1,2.7c-0.4,1.4,0.1,2.2,1.6,2.1c1.6-0.1,2.8-1.1,3.9-2.1c0.7-0.6,1.3-1.3,1.9-2.1c0.4,0.3,0.7,0.7,1.1,1
				c0,0.1,0,0.2,0,0.4c-0.9,0.9-1.7,1.9-2.7,2.7c-1.2,0.9-2.5,1.6-4,1.9c-2.2,0.4-3.4-0.4-3.8-2.6c-1.6,1.1-3.3,1.9-5.1,2.3
				c-1.6,0.4-3.3,0.7-5,0.3c-0.4-0.1-0.8-0.2-1.2-0.4c-1.1-0.7-1.1-0.8-0.2-1.6c0.3-0.3,0.4-0.3,0.7,0c1.1,0.9,2.7,0.9,3.8,0.1
				c1.1-0.8,1.6-2.3,1-3.7c-0.2-0.7-0.5-1.3-1-1.8c-1.2,1-2.2,2.2-3.1,3.3c-1.4,1.6-3.3,2.5-5.4,1.9c-1-0.3-1.5-0.1-2,0.7
				c-0.5,0.7-1.3,1.3-2.1,1.6c-1.6,0.7-3.2-0.1-3.8-1.8c-0.1-0.1-0.1-0.2-0.1-0.4c-0.8,0.8-1.6,1.6-2.8,2.1
				c-2.2,0.9-3.7-0.1-3.8-2.5c-0.1-1.3,0.1-2.5,0.2-3.7c0.1-0.4,0.3-1.1-0.3-1.4c-0.5-0.3-1,0.2-1.3,0.5c-1.9,1.7-3.3,3.8-4.5,6
				c-0.7,1.3-0.7,1.3-2.3,1.1c0-0.4,0.4-0.8,0.4-1.4c-1.2,0.8-2.5,1.4-3.8,1.6c-0.8,0.1-1.6,0.1-2.3-0.3c-1-0.5-1.3-1.4-1.3-2.6
				c-1.2,0.5-2.4,0.8-3.6,0.6h-0.1c-1.1-0.7-1.7-0.1-2.3,0.7c-0.7,0.8-1.6,1.4-2.6,1.6c-1.5,0.2-2.5-0.5-3.2-2.3
				c-0.6,0.5-1.1,1-1.7,1.5c-1,0.7-2,1-3.2,0.9c-1.1-0.1-1.8-1-1.9-2.1c-0.1-0.9,0-1.8,0-2.8c0-0.3,0.1-0.7-0.2-0.9
				c-0.4-0.2-0.7,0.1-1,0.4c-1.1,1.1-2,2.4-2.8,3.7c-0.1,0.1-0.1,0.1-0.1,0.2c-0.4,1.3-1.2,1.6-2.4,1.2c0.8-2,1.6-4,2.4-6
				c0.1-0.4,0.6-1,0.1-1.3c-0.4-0.4-1,0.1-1.3,0.4c-1.9,1.5-3.2,3.6-4.4,5.7c-0.7,1.3-0.7,1.3-2.3,1.3c-0.1-0.4,0.3-0.6,0.1-1
				c-0.8,0.4-1.6,1-2.6,1.2c-1.9,0.4-3-0.4-3.1-2.5c-0.7,0.6-1.2,1.2-1.9,1.7c-0.7,0.4-1.5,0.7-2.3,0.8c-1.1,0.1-1.8-0.5-2.2-1.6
				c-1.1,0.9-2.3,1.6-3.7,1.6c-2,0-3.1-1.5-2.6-3.5c0.2-1,0.7-1.8,1.3-2.6c0.7-1.3,0.2-2.2-1.2-2.2c-0.3,0-0.3,0.2-0.4,0.4
				c-2,4.3-5.3,7.2-9.8,8.8c-0.5,0.1-0.9,0.4-1,1c-0.1,0.2-0.2,0.4-0.4,0.7c-0.9,1.8-2.2,3.1-4.2,3.6C27.8,70.3,27.6,70.3,27.4,70.3
				z M87.2,58.1c-0.1-0.7-0.1-1.3-0.7-1.6c-0.7-0.4-1.3-0.1-1.8,0.3c-1.3,1.1-2,2.5-2.1,4.2c0,0.5,0.1,1.1,0.6,1.4
				c0.6,0.3,1.1,0.1,1.6-0.2C86.3,61.2,86.9,59.7,87.2,58.1z M116.2,60.4c0,1.9,0.7,2.5,1.9,1.9c1.5-0.7,2.8-3.2,2.5-4.8
				c-0.2-1.3-1.1-1.8-2.2-1C116.9,57.5,116.3,59,116.2,60.4z M30.9,65.9c-1.2,0.4-2.3,0.7-3.1,1.5c-0.3,0.3-0.4,0.7-0.1,1
				c0.3,0.4,0.7,0.4,1,0.1C29.8,68.2,30.3,67.1,30.9,65.9z"/>
		</g>
	</g>
	<g id="ncOYM4.tif_1_">
		<g id="XMLID_1_">
			<path id="XMLID_15_" class="st1" d="M74.2,51.6c-0.5-0.4-1.1-0.3-1.7-0.4c-2-0.4-3.3-1.4-3.6-2.8c-0.3-1.9,0.3-3,2.2-4.1
				c-1.3-1.3-1.2-1.7,0.4-3c-1.6-1-2-2.6-1.5-4.3c0.6-1.9,2.2-2.6,4-2.8c3.2-0.4,6.5-0.1,9.7-0.2c0.3,0,0.5-0.1,0.5,0.4
				c0,0.8,0,1.6,0,2.4c0,0.4-0.4,0.3-0.6,0.3c-0.5,0-1,0-1.6,0c0.2,1.2,0.3,2.4-0.5,3.3c-0.9,1.1-2.2,1.5-3.5,1.7
				c-1.1,0.2-2.2,0.2-3.3,0.2c-0.4,0-1,0.1-1,0.6c0,0.6,0.5,0.5,1,0.5c1.7,0.2,3.4,0.1,5.1,0.4c2.8,0.6,4.1,2.6,3.3,4.9
				c-0.4,1.2-1.3,1.8-2.5,2.2c-1,0.3-2,0.4-3,0.7C76.6,51.6,75.4,51.6,74.2,51.6z M76.2,48.3c0.6,0,1.2,0,1.8-0.1
				c0.4-0.1,0.7-0.3,0.7-0.7c0-0.4-0.3-0.6-0.7-0.7c-1.3-0.2-2.5-0.2-3.7,0c-0.4,0.1-0.6,0.2-0.6,0.7c0,0.4,0.2,0.6,0.6,0.7
				C75,48.3,75.6,48.3,76.2,48.3z M76.1,36.9c-0.7,0.1-1.4,0.1-1.4,1.1c0,1,0.7,1.2,1.6,1.3c0.8,0,1.6-0.2,1.5-1.3
				C77.7,36.9,76.9,36.9,76.1,36.9z"/>
			<path id="XMLID_14_" class="st1" d="M168.9,46.3c-2.2,0.4-4.1,0.4-5.5-1.7c-0.8,1.3-2,1.8-3.4,1.9c-1.3,0.1-2.7,0.1-4-0.6
				c-1.5-0.7-2-1.9-1.9-3.5c0.1-1.5,1-2.4,2.3-2.9c1.9-0.7,4.2-0.7,6.5,0.1c0-0.2,0-0.4,0-0.7c0-0.7,0.2-1.5-0.7-1.7
				c-0.8-0.1-1.9-0.4-2.4,0.7c-0.1,0.4-0.4,0.4-0.7,0.4c-1.3,0-2.5,0-3.8,0c-0.6,0-0.7-0.2-0.7-0.7c0.1-1.3,0.9-2.2,2-2.8
				c3-1.3,6-1.3,9-0.2c1.6,0.6,2.1,2.1,2.2,3.7c0,1,0.1,1.9,0,2.8c-0.1,0.7,0.2,1.2,1,1.3C168.9,43.7,168.9,45,168.9,46.3z
				 M160.9,43.2c0.4,0,1,0,1.4-0.1c0.3-0.1,0.7-0.1,0.7-0.6c0-0.5-0.4-0.7-0.7-0.7c-0.4-0.1-0.9-0.1-1.3-0.1
				c-0.7,0.1-1.9-0.2-1.9,0.7C159,43.5,160.2,43,160.9,43.2z"/>
			<path id="XMLID_13_" class="st1" d="M5.3,37.7c0-2.5,0-4.9,0-7.4c0-0.8,0.1-1.2,1.1-1.2c4.4,0.1,8.8,0.1,13.2,0c0.8,0,1,0.2,1,1
				c-0.1,0.7-0.1,1.5,0,2.3c0.1,0.7-0.1,0.9-0.9,0.9c-2.7-0.1-5.4,0.1-8.1-0.1c-1,0-0.8,0.6-0.8,1.1s-0.3,1.2,0.8,1.2
				c2.2-0.1,4.2,0,6.4-0.1c0.7,0,1,0.2,0.9,0.9c-0.1,1,0.4,2.2-0.2,2.8c-0.5,0.6-1.8,0.1-2.8,0.1c-1.4,0-2.8,0.1-4.2,0
				c-0.7,0-1,0.1-0.9,0.8c0,1.9,0,1.9,1.9,1.9c2.4,0,4.7,0,7.1,0c0.7,0,1,0.2,0.9,1c-0.1,1,0.4,2.4-0.1,3c-0.6,0.7-2,0.2-3,0.2
				c-3.6,0-7.2-0.1-10.9,0.1c-1.1,0-1.3-0.4-1.3-1.3C5.3,42.6,5.3,40.2,5.3,37.7z"/>
			<path id="XMLID_12_" class="st1" d="M152.8,34.3c-1.2,1.6-2.4,3.2-3.6,4.8c-0.4,0.6-0.6,1,0,1.7c1.4,1.7,2.8,3.5,4.2,5.5
				c-1.9,0-3.5,0-5.2,0c-0.4,0-0.4-0.4-0.6-0.7c-1.3-1.7-2.5-3.5-3.9-5.5c0,1.9-0.1,3.6,0,5.1c0,0.7-0.1,1.1-1,1
				c-1.3-0.1-3,0.5-3.7-0.2c-0.7-0.7-0.2-2.4-0.2-3.6c0-4.1,0-8.2,0-12.3c0-0.7,0.1-1,0.9-1c1,0.1,2.1,0.1,3,0
				c0.7-0.1,0.9,0.1,0.9,0.9c-0.1,3.1,0,6.2,0,9.5c0.7-0.6,1.1-1.4,1.6-2.1c0.8-1.1,1.3-2.7,2.5-3.2c1.1-0.6,2.7-0.1,4-0.1
				C152,34.1,152.3,34,152.8,34.3z"/>
			<path id="XMLID_11_" class="st1" d="M28.1,36.1c1.5-1.9,3.3-2.5,5.6-2.2c2.4,0.3,3.9,1.8,3.9,4.2c0.1,2.5,0,5,0.1,7.5
				c0,0.5-0.1,0.7-0.7,0.7c-1.2,0-2.4-0.1-3.6,0c-0.6,0-0.7-0.1-0.7-0.7c0-1.6,0.1-3.3,0-5c-0.1-1.9-1.6-3-3.3-2.3
				c-1,0.4-1.3,1.3-1.3,2.3c0,1.6,0,3.3,0,4.9c0,0.7-0.1,0.8-0.8,0.8c-1.1-0.1-2.3-0.1-3.4,0c-0.5,0-0.7-0.1-0.7-0.7
				c0-3.6,0-7.3,0-10.9c0-0.5,0.1-0.7,0.7-0.7c1,0,2.1,0.1,3,0c1-0.1,1.3,0.3,1.1,1.2C28.1,35.5,28.1,35.8,28.1,36.1z"/>
			<path id="XMLID_10_" class="st1" d="M95.2,40.9c-1.3,0-2.6,0.1-3.9,0c-0.7,0-0.8,0.3-0.7,0.9c0.4,1.5,2.4,2,3.6,0.8
				c0.4-0.4,0.7-0.4,1.2-0.4c1.3,0,2.5,0,3.8,0c0.6,0,0.7,0.2,0.4,0.7c-0.5,1.4-1.5,2.5-2.9,3c-2.5,1-5,1-7.4,0.1
				c-2.9-1-4-3.3-3.9-6.4c0.2-3.1,2.3-5.2,5.4-5.7c2-0.3,4-0.2,5.9,0.7c2.2,1,3.5,3.2,3.3,5.6c0,0.5-0.2,0.7-0.7,0.7
				C98,40.9,96.6,40.9,95.2,40.9z M94.8,38.7c-0.1-1.1-0.8-1.6-1.7-1.7c-0.8-0.1-1.5,0.1-2,0.7c-0.1,0.2-0.3,0.4-0.2,0.7
				c0.1,0.4,0.4,0.2,0.7,0.2C92.5,38.8,93.6,38.7,94.8,38.7z"/>
			<path id="XMLID_9_" class="st1" d="M50.1,40.9c-1.3,0-2.7,0-4,0c-0.6,0-0.7,0.3-0.6,0.7c0.1,0.7,0.4,1.3,1.1,1.4
				c0.9,0.2,1.8,0.3,2.5-0.4c0.4-0.4,0.7-0.5,1.2-0.5c1.2,0,2.5,0,3.6,0c0.7,0,0.8,0.2,0.5,0.9c-0.5,1.4-1.5,2.3-2.8,2.8
				c-2.5,1-5.1,1-7.6,0.1c-2.5-0.9-3.7-2.8-3.8-5.7c-0.1-2.6,1.1-4.8,3.5-5.7c2.6-1.1,5.2-1.1,7.8,0.1c2.2,1,3.5,3.1,3.3,5.6
				c0,0.6-0.3,0.7-0.8,0.7C52.7,40.9,51.4,40.9,50.1,40.9z M47.6,38.7c0.4,0,0.8,0,1.3,0c0.8,0.1,0.8-0.2,0.4-0.8
				c-0.7-1-2.5-1.3-3.3-0.3c-0.2,0.2-0.4,0.6-0.3,0.9c0.1,0.4,0.5,0.1,0.8,0.1C46.9,38.8,47.2,38.7,47.6,38.7z"/>
			<path id="XMLID_8_" class="st1" d="M133.6,39.2c-0.6,0-1.1,0-1.7,0c-0.4,0-0.8-0.1-1.2-0.4c-0.9-1-2.5-0.9-3.3,0
				c-0.7,0.7-0.7,2.2,0,2.9s2.5,0.8,3.2,0.1c0.4-0.4,0.8-0.5,1.4-0.5c1.1,0,2.2,0.1,3.3,0c1-0.1,1,0.4,0.8,1.2
				c-0.4,1.7-1.6,2.8-3.1,3.5c-2.2,0.9-4.5,1-6.8,0.4c-3-0.8-4.8-3.3-4.5-6.5c0.2-3.2,2.3-5.4,5.5-5.8c2.6-0.3,5.1-0.1,7.3,1.5
				c1,0.7,1.6,1.8,1.8,3c0.1,0.5,0,0.8-0.6,0.7C135,39.2,134.2,39.2,133.6,39.2z"/>
			<path id="XMLID_7_" class="st1" d="M103,40.1c0-0.4-0.1-0.9,0-1.3c0.1-0.7-0.1-1-0.9-0.9c-0.5,0.1-0.7-0.1-0.7-0.7
				c-0.1-1,0-2,1-2.7c0.7-0.4,1.2-1,1.7-1.6c0.7-0.9,1.6-1.2,2.8-1.1c0.8,0,1,0.3,1,1c-0.2,1.2,0.3,1.5,1.5,1.4
				c1.8-0.1,1.8,0,1.8,1.9c0,1.8,0,1.8-1.8,1.8c-1.5,0-1.5,0-1.5,1.5c0,0.4,0,0.7,0,1.1c0,1.9,0.8,2.6,2.6,2.2
				c1-0.2,0.9,0.1,0.9,0.8c0,0.4,0,0.9,0,1.3c0,1.6-0.1,1.8-1.8,1.8c-1,0-1.9,0-2.8-0.2c-2.4-0.5-3.4-1.6-3.7-4
				C103,41.5,103,40.8,103,40.1L103,40.1z"/>
			<path id="XMLID_6_" class="st1" d="M67.5,39.2c-1.1-0.2-2.1-0.5-3.1-0.3c-1.6,0.4-2.2,1-2.3,2.8c-0.1,1.3-0.1,2.5,0,3.8
				c0.1,0.8-0.2,1-1,0.9c-1-0.1-2.2,0-3.2,0c-0.5,0-0.7-0.1-0.7-0.7c0-3.6,0-7.2,0-10.9c0-0.7,0.3-0.7,0.8-0.7c1,0,2.1,0.1,3,0
				c0.8-0.1,1.1,0.2,1,1c-0.1,0.4,0,0.7,0.1,1.2c1-1.5,2.2-2.2,3.9-2.4c1.3-0.1,1.4,0,1.4,1.3C67.5,36.5,67.5,37.8,67.5,39.2z"/>
			<path id="XMLID_5_" class="st1" d="M119.2,40.2c0,1.8,0,3.6,0,5.4c0,0.5-0.1,0.7-0.7,0.7c-1.2-0.1-2.4-0.1-3.5,0
				c-0.6,0-0.7-0.2-0.7-0.7c0-3.6,0-7.1,0-10.7c0-0.7,0.2-0.8,0.8-0.8c1.3,0.1,3-0.5,3.8,0.2c0.7,0.7,0.1,2.4,0.2,3.6
				C119.2,38.7,119.2,39.5,119.2,40.2z"/>
			<path id="XMLID_4_" class="st1" d="M159.4,31.9c1.2-1.3,2.2-2.4,3.3-3.6c0.3-0.3,0.6-0.3,1-0.3c1.6,0,3.2,0,4.8,0
				c-0.1,0.5-0.6,0.6-0.9,0.8c-0.9,0.6-1.9,1.1-2.6,1.8C163.4,32.2,161.5,32,159.4,31.9z"/>
			<path id="XMLID_2_" class="st1" d="M116.8,33c-1.5,0-2.5-0.8-2.5-2c0-1.3,1-2,2.6-2c1.6,0,2.5,0.8,2.5,1.9
				C119.4,32.2,118.4,33,116.8,33z"/>
		</g>
	</g>
</g>
</svg>
