<?xml version="1.0" encoding="utf-8"?>
<!-- Generator: Adobe Illustrator 19.0.0, SVG Export Plug-In . SVG Version: 6.00 Build 0)  -->
<svg version="1.1" id="Layer_1" xmlns="http://www.w3.org/2000/svg" xmlns:xlink="http://www.w3.org/1999/xlink" x="0px" y="0px"
	 viewBox="0 0 920 135" style="enable-background:new 0 0 920 135;" xml:space="preserve">
<style type="text/css">
	.st0{fill:url(#XMLID_169_);}
	.st1{fill:#FFFFFF;}
	.st2{fill-rule:evenodd;clip-rule:evenodd;fill:#FFFFFF;}
</style>
<linearGradient id="XMLID_169_" gradientUnits="userSpaceOnUse" x1="0" y1="67.5" x2="920" y2="67.5">
	<stop  offset="0" style="stop-color:#5F82C1"/>
	<stop  offset="0.5218" style="stop-color:#4B5AA6"/>
	<stop  offset="1" style="stop-color:#592F8E"/>
</linearGradient>
<rect id="XMLID_3_" class="st0" width="920" height="135"/>
<g id="XMLID_4_">
	<path id="XMLID_5_" class="st1" d="M60.1,42h7.6c4.4,0,8.1,1.9,8.1,6.9c0,4.9-3.8,6.9-8.1,6.9h-3.2V63h-4.4V42z M67.9,51.9
		c1.6,0,3.4-0.8,3.4-3.1c0-2.3-1.8-3.1-3.4-3.1h-3.3v6.1H67.9z"/>
	<path id="XMLID_8_" class="st1" d="M76.8,40.3l3.4-0.5l2.3,3.1l2.3-3.1l3.3,0.5l-3.7,5.4h-3.9L76.8,40.3z M78.2,47.4h4v4.3
		c0.9-2.1,2.9-4.1,5.5-4.7l0.8,4.2c-2.4,0.4-4.6,1.6-6,3.4V63h-4.2V47.4z"/>
	<path id="XMLID_11_" class="st1" d="M92.5,40.5c1.4,0,2.5,1.1,2.5,2.6c0,1.4-1.2,2.5-2.5,2.5c-1.4,0-2.5-1.2-2.5-2.5
		C89.9,41.6,91.1,40.5,92.5,40.5z M90.4,47.4h4.2V63h-4.2V47.4z"/>
	<path id="XMLID_14_" class="st1" d="M103.8,47.1c1.5,0,2.9,0.5,4.1,1.2v-7.6h4.2V63h-4v-1.6c-1.1,1.2-2.8,1.9-4.5,1.9
		c-3.1,0-6.2-2.7-6.2-8.1C97.4,49.9,100.5,47.1,103.8,47.1z M104.9,59.7c1,0,2.1-0.5,2.9-1.4v-6.6c-0.9-0.7-1.9-1-2.8-1
		c-1.7,0-3.3,1.4-3.3,4.5C101.7,58.3,103.2,59.7,104.9,59.7z"/>
	<path id="XMLID_17_" class="st1" d="M119.1,56.5c0.4,2.6,2.1,3.4,3.3,3.4c1.2,0,2.4-0.7,2.9-2.1l4,0.8c-1.2,3-4,4.7-7,4.7
		c-3.8,0-7.4-3-7.4-8.1c0-5,3.7-8.1,7.4-8.1c3.3,0,7.7,2.4,7.4,9.4H119.1z M119.2,53.5h6.3c-0.2-2-1.7-3-3.1-3
		C121,50.5,119.7,51.5,119.2,53.5z"/>
	<path id="XMLID_20_" class="st1" d="M130.3,65.7c1.5,0.1,2.5-0.5,2.5-2.4V47.4h4.2v16.1c0,3.8-1.9,6-6.2,5.7L130.3,65.7z M135,40.5
		c1.4,0,2.5,1.1,2.5,2.6c0,1.4-1.2,2.5-2.5,2.5c-1.4,0-2.5-1.2-2.5-2.5C132.4,41.6,133.5,40.5,135,40.5z"/>
	<path id="XMLID_23_" class="st1" d="M153.3,58c0.3,1.4,1.4,2,2.8,2c1.3,0,2.5-0.6,2.5-1.5c0-2.8-9.1-0.1-9.1-6.6
		c0-2.5,2.6-4.8,6.4-4.8c3.5,0,6,1.8,6.6,4.4l-4.1,0.9c-0.2-1.5-1.5-2-2.6-2c-1.1,0-2.2,0.5-2.2,1.4c0,2.8,9.1,0.1,9.1,6.6
		c0,2.6-2.6,4.8-6.6,4.8c-3.7,0-6.1-1.8-6.7-4.5L153.3,58z"/>
	<path id="XMLID_25_" class="st1" d="M169,56.5c0.4,2.6,2.1,3.4,3.3,3.4c1.2,0,2.4-0.7,2.9-2.1l4,0.8c-1.2,3-4,4.7-7,4.7
		c-3.8,0-7.4-3-7.4-8.1c0-5,3.7-8.1,7.4-8.1c3.3,0,7.7,2.4,7.4,9.4H169z M169.1,53.5h6.3c-0.2-2-1.7-3-3.1-3
		C170.8,50.5,169.5,51.5,169.1,53.5z"/>
	<path id="XMLID_28_" class="st1" d="M197,47.1c1.5,0,2.9,0.5,4.1,1.2v-7.6h4.2V63h-4v-1.6c-1.1,1.2-2.8,1.9-4.5,1.9
		c-3.1,0-6.2-2.7-6.2-8.1C190.6,49.9,193.8,47.1,197,47.1z M198.1,59.7c1,0,2.1-0.5,2.9-1.4v-6.6c-0.9-0.7-1.9-1-2.8-1
		c-1.7,0-3.3,1.4-3.3,4.5C194.9,58.3,196.4,59.7,198.1,59.7z"/>
	<path id="XMLID_31_" class="st1" d="M215.7,47.1c3.8,0,7.6,3,7.6,8.1c0,5.1-3.8,8.1-7.6,8.1s-7.5-3-7.5-8.1
		C208.2,50.2,211.9,47.1,215.7,47.1z M215.7,59.7c1.5,0,3.2-1.1,3.2-4.5s-1.7-4.5-3.2-4.5c-1.5,0-3.2,1.1-3.2,4.5
		S214.2,59.7,215.7,59.7z"/>
	<path id="XMLID_34_" class="st1" d="M238.6,58c0.3,1.4,1.4,2,2.8,2c1.3,0,2.5-0.6,2.5-1.5c0-2.8-9.1-0.1-9.1-6.6
		c0-2.5,2.6-4.8,6.4-4.8c3.5,0,6,1.8,6.6,4.4l-4.1,0.9c-0.2-1.5-1.5-2-2.6-2c-1.1,0-2.2,0.5-2.2,1.4c0,2.8,9.1,0.1,9.1,6.6
		c0,2.6-2.6,4.8-6.6,4.8c-3.7,0-6.1-1.8-6.7-4.5L238.6,58z"/>
	<path id="XMLID_36_" class="st1" d="M256.8,57.4l-1.6,1.9V63h-4.2V40.8h4.2v12.8l5-6.2h4.9l-5.5,6.6l6.1,9h-5L256.8,57.4z"/>
	<path id="XMLID_38_" class="st1" d="M271.1,47.4v9.9c0,1.6,0.9,2.3,2.1,2.3c1.1,0,2.4-0.6,3.3-1.4V47.4h4.2V63h-4v-1.6
		c-1.3,1.2-3.1,1.9-4.8,1.9c-2.7,0-5-1.8-5-5.8V47.4H271.1z"/>
	<path id="XMLID_40_" class="st1" d="M284.5,47.4h4v1.6c1.4-1.2,3-1.9,4.7-1.9c3.1,0,6,2.7,6,8.1c0,5.4-3.1,8.1-6.4,8.1
		c-1.5,0-2.9-0.5-4-1.2V69h-4.2V47.4z M291.5,59.7c1.7,0,3.3-1.4,3.3-4.5c0-3.1-1.5-4.5-3.2-4.5c-1,0-2.1,0.5-2.9,1.4v6.6
		C289.6,59.4,290.5,59.7,291.5,59.7z"/>
	<path id="XMLID_43_" class="st1" d="M304.1,40.5c1.4,0,2.5,1.1,2.5,2.6c0,1.4-1.2,2.5-2.5,2.5c-1.4,0-2.5-1.2-2.5-2.5
		C301.5,41.6,302.7,40.5,304.1,40.5z M302,47.4h4.2V63H302V47.4z"/>
	<path id="XMLID_46_" class="st1" d="M309.9,47.4h4v1.6c1.4-1.2,3.1-1.9,4.8-1.9c2.7,0,5,1.8,5,5.8V63h-4.2v-9.9
		c0-1.6-0.9-2.3-2.1-2.3c-1.1,0-2.4,0.6-3.3,1.4V63h-4.2V47.4z"/>
	<path id="XMLID_48_" class="st1" d="M330.8,63l-5.9-15.6h4.5l3.7,10.2l3.7-10.2h4.2L332.7,69h-4.2L330.8,63z"/>
	<path id="XMLID_50_" class="st1" d="M352.1,47.4h4v1.6c1.4-1.2,3.1-1.9,4.8-1.9c2.7,0,5,1.8,5,5.8V63h-4.2v-9.9
		c0-1.6-0.9-2.3-2.1-2.3c-1.1,0-2.4,0.6-3.3,1.4V63h-4.2V47.4z"/>
	<path id="XMLID_52_" class="st1" d="M376.5,53.6h1.4v-0.4c0-1.9-1-2.6-2.4-2.6c-1.2,0-2.2,0.7-2.6,2.1l-4.1-1.1
		c0.7-2.6,3.3-4.4,6.7-4.4c3.9,0,6.5,1.9,6.5,6.1v5c0,1.8,0.2,3.1,0.8,4.6l-4,0.3c-0.3-0.6-0.5-1.5-0.5-2.2
		c-1.4,1.6-3.4,2.3-5.1,2.3c-2.6,0-4.9-1.7-4.9-4.6C368.4,55.6,370.7,53.6,376.5,53.6z M374.1,59.9c1.3,0,3.1-0.8,3.8-2v-1.3h-1.5
		c-3.1,0-4.1,0.8-4.1,1.9C372.4,59.4,373.2,59.9,374.1,59.9z"/>
	<path id="XMLID_55_" class="st1" d="M395.9,51h-2.4v-3.6h2.4v-1.5c0-3.1,1.6-5.4,4.8-5.4c1,0,2.1,0.2,3.4,0.6l-0.8,3.5
		c-0.7-0.2-1.2-0.3-1.6-0.3c-1.1,0-1.5,0.7-1.5,1.8v1.4h4V51h-4v12h-4.2V51z"/>
	<path id="XMLID_57_" class="st1" d="M413.3,53.6h1.4v-0.4c0-1.9-1-2.6-2.4-2.6c-1.2,0-2.2,0.7-2.6,2.1l-4.1-1.1
		c0.7-2.6,3.3-4.4,6.7-4.4c3.9,0,6.5,1.9,6.5,6.1v5c0,1.8,0.2,3.1,0.8,4.6l-4,0.3c-0.3-0.6-0.5-1.5-0.5-2.2
		c-1.4,1.6-3.4,2.3-5.1,2.3c-2.6,0-4.9-1.7-4.9-4.6C405.2,55.6,407.5,53.6,413.3,53.6z M410.9,59.9c1.3,0,3.1-0.8,3.8-2v-1.3h-1.5
		c-3.1,0-4.1,0.8-4.1,1.9C409.2,59.4,410,59.9,410.9,59.9z"/>
	<path id="XMLID_60_" class="st1" d="M429.1,47.1c3.3,0,6,1.8,7,5.5l-4.2,0.9c-0.3-2-1.6-2.7-2.8-2.7c-1.4,0-3.2,1.1-3.2,4.5
		c0,3.4,1.8,4.5,3.2,4.5c1.2,0,2.5-0.8,2.8-2.7l4.2,0.8c-1,3.7-3.8,5.5-7,5.5c-3.8,0-7.4-3-7.4-8.1
		C421.7,50.2,425.4,47.1,429.1,47.1z"/>
	<path id="XMLID_62_" class="st1" d="M442,56.5c0.4,2.6,2.1,3.4,3.3,3.4c1.2,0,2.4-0.7,2.9-2.1l4,0.8c-1.2,3-4,4.7-7,4.7
		c-3.8,0-7.4-3-7.4-8.1c0-5,3.7-8.1,7.4-8.1c3.3,0,7.7,2.4,7.4,9.4H442z M442.1,53.5h6.3c-0.2-2-1.7-3-3.1-3
		C443.9,50.5,442.5,51.5,442.1,53.5z"/>
	<path id="XMLID_65_" class="st1" d="M455.6,40.8h4.2v8.1c1.2-1,2.8-1.7,4.5-1.7c3.1,0,6,2.7,6,8.1c0,5.4-3.2,8.1-6.4,8.1
		c-1.5,0-3.1-0.5-4.3-1.4V63h-4V40.8z M462.6,59.7c1.7,0,3.3-1.4,3.3-4.5c0-3.1-1.5-4.5-3.2-4.5c-1,0-2.1,0.5-2.9,1.4v6.6
		C460.7,59.4,461.7,59.7,462.6,59.7z"/>
	<path id="XMLID_68_" class="st1" d="M479.7,47.1c3.8,0,7.6,3,7.6,8.1c0,5.1-3.8,8.1-7.6,8.1c-3.8,0-7.5-3-7.5-8.1
		C472.2,50.2,476,47.1,479.7,47.1z M479.7,59.7c1.5,0,3.2-1.1,3.2-4.5s-1.7-4.5-3.2-4.5c-1.5,0-3.2,1.1-3.2,4.5
		S478.3,59.7,479.7,59.7z"/>
	<path id="XMLID_71_" class="st1" d="M496.8,47.1c3.8,0,7.6,3,7.6,8.1c0,5.1-3.8,8.1-7.6,8.1c-3.8,0-7.5-3-7.5-8.1
		C489.3,50.2,493,47.1,496.8,47.1z M496.8,59.7c1.5,0,3.2-1.1,3.2-4.5s-1.7-4.5-3.2-4.5c-1.5,0-3.2,1.1-3.2,4.5
		S495.3,59.7,496.8,59.7z"/>
	<path id="XMLID_74_" class="st1" d="M513,57.4l-1.6,1.9V63h-4.2V40.8h4.2v12.8l5-6.2h4.9l-5.5,6.6l6.1,9h-5L513,57.4z"/>
	<path id="XMLID_76_" class="st1" d="M527.3,47.4v9.9c0,1.6,0.9,2.3,2.1,2.3c1.1,0,2.4-0.6,3.3-1.4V47.4h4.2V63h-4v-1.6
		c-1.4,1.2-3.1,1.9-4.8,1.9c-2.7,0-5-1.8-5-5.8V47.4H527.3z"/>
	<path id="XMLID_78_" class="st1" d="M67.2,89.6h1.4v-0.4c0-1.9-1-2.6-2.4-2.6c-1.2,0-2.2,0.7-2.6,2.1l-4.1-1.1
		c0.7-2.6,3.3-4.4,6.7-4.4c3.9,0,6.5,2,6.5,6.1v5c0,1.8,0.2,3.1,0.8,4.6l-4,0.3c-0.3-0.6-0.5-1.5-0.5-2.2c-1.4,1.6-3.4,2.3-5.1,2.3
		c-2.6,0-4.9-1.7-4.9-4.6C59,91.6,61.3,89.6,67.2,89.6z M64.8,95.9c1.3,0,3.1-0.8,3.8-2v-1.3h-1.5c-3.1,0-4.1,0.8-4.1,1.9
		C63.1,95.4,63.8,95.9,64.8,95.9z"/>
	<path id="XMLID_81_" class="st1" d="M85.4,76.8h4.2v8.1c1.2-1,2.8-1.7,4.5-1.7c3.1,0,6,2.7,6,8.1c0,5.4-3.1,8.1-6.4,8.1
		c-1.5,0-3.1-0.5-4.3-1.4V99h-4V76.8z M92.4,95.7c1.7,0,3.3-1.4,3.3-4.5c0-3.1-1.5-4.5-3.2-4.5c-1,0-2.1,0.5-2.9,1.4v6.6
		C90.6,95.4,91.5,95.7,92.4,95.7z"/>
	<path id="XMLID_84_" class="st1" d="M107,83.4v9.9c0,1.7,0.9,2.3,2.1,2.3c1.1,0,2.4-0.6,3.3-1.3V83.4h4.2V99h-4v-1.6
		c-1.3,1.2-3.1,1.9-4.8,1.9c-2.7,0-5-1.8-5-5.8V83.4H107z"/>
	<path id="XMLID_86_" class="st1" d="M125.8,83.1c1.5,0,2.9,0.5,4.1,1.2v-7.6h4.2V99h-4v-1.6c-1.1,1.2-2.8,1.9-4.5,1.9
		c-3.1,0-6.2-2.7-6.2-8.1C119.4,85.9,122.6,83.1,125.8,83.1z M126.9,95.7c1,0,2.1-0.5,2.9-1.3v-6.6c-0.9-0.7-1.9-1-2.8-1
		c-1.7,0-3.3,1.4-3.3,4.5C123.7,94.3,125.2,95.7,126.9,95.7z M135.3,75.6l3.7-0.4c1.1,2.3,0.6,5-1,6.9l-2.8-0.6
		C136.3,79.5,136.3,77.4,135.3,75.6z"/>
	<path id="XMLID_90_" class="st1" d="M150,83.4h4v4.3c0.9-2.1,2.9-4.1,5.5-4.7l0.8,4.2c-2.4,0.4-4.6,1.6-6,3.4V99H150V83.4z"/>
	<path id="XMLID_92_" class="st1" d="M168.4,83.1c3.8,0,7.6,3,7.6,8.1c0,5.1-3.8,8.1-7.6,8.1s-7.5-3-7.5-8.1
		C160.8,86.2,164.6,83.1,168.4,83.1z M168.4,95.7c1.5,0,3.2-1.1,3.2-4.5c0-3.4-1.7-4.5-3.2-4.5c-1.5,0-3.2,1.1-3.2,4.5
		C165.1,94.6,166.9,95.7,168.4,95.7z"/>
	<path id="XMLID_95_" class="st1" d="M176.4,83.4h4.5l3.7,10.2l3.7-10.2h4.2L186.6,99h-4.2L176.4,83.4z"/>
	<path id="XMLID_97_" class="st1" d="M194.7,83.4h4v1.6c1.4-1.2,3.1-1.9,4.8-1.9c2.7,0,5,1.8,5,5.8V99h-4.2v-9.9
		c0-1.6-0.9-2.3-2.1-2.3c-1.1,0-2.4,0.6-3.3,1.4V99h-4.2V83.4z"/>
	<path id="XMLID_99_" class="st1" d="M218.7,83.1c3.8,0,7.6,3,7.6,8.1c0,5.1-3.8,8.1-7.6,8.1s-7.5-3-7.5-8.1
		C211.2,86.2,214.9,83.1,218.7,83.1z M218.7,95.7c1.5,0,3.2-1.1,3.2-4.5c0-3.4-1.7-4.5-3.2-4.5c-1.5,0-3.2,1.1-3.2,4.5
		C215.4,94.6,217.2,95.7,218.7,95.7z"/>
	<path id="XMLID_102_" class="st1" d="M233.2,83.4v9.9c0,1.7,0.9,2.3,2.1,2.3c1.1,0,2.4-0.6,3.3-1.3V83.4h4.2V99h-4v-1.6
		c-1.3,1.2-3.1,1.9-4.8,1.9c-2.7,0-5-1.8-5-5.8V83.4H233.2z"/>
	<path id="XMLID_104_" class="st1" d="M259.6,83.4v9.9c0,1.7,0.9,2.3,2.1,2.3c1.1,0,2.4-0.6,3.3-1.3V83.4h4.2V99h-4v-1.6
		c-1.3,1.2-3.1,1.9-4.8,1.9c-2.7,0-5-1.8-5-5.8V83.4H259.6z"/>
	<path id="XMLID_106_" class="st1" d="M280.7,95.4l7.1-8.4H281v-3.6h12.1V87l-7.1,8.4h7.1V99h-12.4V95.4z"/>
	<path id="XMLID_108_" class="st1" d="M300.9,83.1c1.5,0,2.9,0.5,4.1,1.2v-7.6h4.2V99h-4v-1.6c-1.1,1.2-2.8,1.9-4.5,1.9
		c-3.1,0-6.2-2.7-6.2-8.1C294.6,85.9,297.7,83.1,300.9,83.1z M302.1,95.7c1,0,2.1-0.5,2.9-1.3v-6.6c-0.9-0.7-1.9-1-2.8-1
		c-1.7,0-3.3,1.4-3.3,4.5C298.9,94.3,300.4,95.7,302.1,95.7z"/>
	<path id="XMLID_111_" class="st1" d="M313,83.4h4v4.3c0.9-2.1,2.9-4.1,5.5-4.7l0.8,4.2c-2.4,0.4-4.6,1.6-6,3.4V99H313V83.4z"/>
	<path id="XMLID_113_" class="st1" d="M331.3,83.1c3.8,0,7.6,3,7.6,8.1c0,5.1-3.8,8.1-7.6,8.1s-7.5-3-7.5-8.1
		C323.8,86.2,327.6,83.1,331.3,83.1z M331.3,95.7c1.5,0,3.2-1.1,3.2-4.5c0-3.4-1.7-4.5-3.2-4.5c-1.5,0-3.2,1.1-3.2,4.5
		C328.1,94.6,329.9,95.7,331.3,95.7z"/>
	<path id="XMLID_116_" class="st1" d="M339.4,101.7c1.5,0.1,2.5-0.5,2.5-2.4V83.4h4.2v16.1c0,3.8-1.9,6-6.2,5.7L339.4,101.7z
		 M344,76.5c1.4,0,2.5,1.1,2.5,2.6c0,1.4-1.2,2.5-2.5,2.5c-1.4,0-2.5-1.2-2.5-2.5C341.5,77.6,342.6,76.5,344,76.5z"/>
	<path id="XMLID_119_" class="st1" d="M353.2,92.5c0.4,2.6,2.1,3.4,3.3,3.4c1.2,0,2.4-0.7,2.9-2.1l4,0.8c-1.2,3-4,4.7-7,4.7
		c-3.8,0-7.4-3-7.4-8.1c0-5,3.7-8.1,7.4-8.1c3.3,0,7.7,2.4,7.4,9.4H353.2z M353.3,89.5h6.3c-0.2-2-1.7-3-3.1-3
		C355,86.5,353.7,87.5,353.3,89.5z"/>
	<path id="XMLID_122_" class="st1" d="M375.7,83.4h4v1.6c1.4-1.2,3.1-1.9,4.8-1.9c2.7,0,5,1.8,5,5.8V99h-4.2v-9.9
		c0-1.6-0.9-2.3-2.1-2.3c-1.1,0-2.4,0.6-3.3,1.4V99h-4.2V83.4z"/>
	<path id="XMLID_124_" class="st1" d="M399.8,83.1c3.8,0,7.6,3,7.6,8.1c0,5.1-3.8,8.1-7.6,8.1s-7.5-3-7.5-8.1
		C392.2,86.2,396,83.1,399.8,83.1z M399.8,95.7c1.5,0,3.2-1.1,3.2-4.5c0-3.4-1.7-4.5-3.2-4.5c-1.5,0-3.2,1.1-3.2,4.5
		C396.5,94.6,398.3,95.7,399.8,95.7z"/>
	<path id="XMLID_127_" class="st1" d="M407.8,83.4h4.5l3.7,10.2l3.7-10.2h4.2L417.9,99h-4.2L407.8,83.4z"/>
	<path id="XMLID_129_" class="st1" d="M428.1,76.5c1.4,0,2.5,1.1,2.5,2.6c0,1.4-1.2,2.5-2.5,2.5c-1.4,0-2.5-1.2-2.5-2.5
		C425.6,77.6,426.7,76.5,428.1,76.5z M426,83.4h4.2V99H426V83.4z"/>
	<path id="XMLID_132_" class="st1" d="M434,83.4h4v1.6c1.4-1.2,3.1-1.9,4.8-1.9c2.7,0,5,1.8,5,5.8V99h-4.2v-9.9
		c0-1.6-0.9-2.3-2.1-2.3c-1.1,0-2.4,0.6-3.3,1.4V99H434V83.4z"/>
	<path id="XMLID_134_" class="st1" d="M454.7,92.5c0.4,2.6,2.1,3.4,3.3,3.4c1.2,0,2.4-0.7,2.9-2.1l4,0.8c-1.2,3-4,4.7-7,4.7
		c-3.8,0-7.4-3-7.4-8.1c0-5,3.7-8.1,7.4-8.1c3.3,0,7.7,2.4,7.4,9.4H454.7z M454.8,89.5h6.3c-0.2-2-1.7-3-3.1-3
		C456.5,86.5,455.2,87.5,454.8,89.5z"/>
	<path id="XMLID_137_" class="st1" d="M474,93.4l-1.6,1.9V99h-4.2V76.8h4.2v12.8l5-6.2h4.9l-5.5,6.6l6.1,9h-5L474,93.4z"/>
	<path id="XMLID_139_" class="st1" d="M500.3,89.6h1.4v-0.4c0-1.9-1-2.6-2.4-2.6c-1.2,0-2.2,0.7-2.5,2.1l-4.1-1.1
		c0.7-2.6,3.3-4.4,6.7-4.4c3.9,0,6.5,2,6.5,6.1v5c0,1.8,0.2,3.1,0.8,4.6l-4,0.3c-0.3-0.6-0.5-1.5-0.5-2.2c-1.4,1.6-3.4,2.3-5.1,2.3
		c-2.6,0-4.9-1.7-4.9-4.6C492.1,91.6,494.4,89.6,500.3,89.6z M497.9,95.9c1.3,0,3.1-0.8,3.8-2v-1.3h-1.5c-3.1,0-4,0.8-4,1.9
		C496.2,95.4,496.9,95.9,497.9,95.9z"/>
	<path id="XMLID_142_" class="st1" d="M520.6,76.5c1.4,0,2.5,1.1,2.5,2.6c0,1.4-1.2,2.5-2.5,2.5c-1.4,0-2.5-1.2-2.5-2.5
		C518.1,77.6,519.2,76.5,520.6,76.5z M518.5,83.4h4.2V99h-4.2V83.4z"/>
	<path id="XMLID_145_" class="st1" d="M526.5,83.4h4v1.6c1.4-1.2,3.2-1.9,4.8-1.9c2.7,0,5,1.8,5,5.8V99h-4.2v-9.9
		c0-1.6-0.9-2.3-2.1-2.3c-1.1,0-2.4,0.6-3.3,1.4V99h-4.2V83.4z"/>
	<path id="XMLID_147_" class="st1" d="M545,87h-2.4v-3.6h2.4v-1.5c0-3.1,1.6-5.4,4.8-5.4c1,0,2.1,0.2,3.4,0.6l-0.8,3.5
		c-0.7-0.2-1.2-0.3-1.7-0.3c-1.1,0-1.5,0.7-1.5,1.8v1.4h4V87h-4v12H545V87z"/>
	<path id="XMLID_149_" class="st1" d="M561.6,83.1c3.8,0,7.6,3,7.6,8.1c0,5.1-3.8,8.1-7.6,8.1c-3.8,0-7.5-3-7.5-8.1
		C554,86.2,557.8,83.1,561.6,83.1z M561.6,95.7c1.5,0,3.2-1.1,3.2-4.5c0-3.4-1.7-4.5-3.2-4.5c-1.5,0-3.2,1.1-3.2,4.5
		C558.3,94.6,560.1,95.7,561.6,95.7z"/>
	<path id="XMLID_152_" class="st1" d="M572,83.4h4v4.3c0.9-2.1,2.9-4.1,5.5-4.7l0.8,4.2c-2.4,0.4-4.6,1.6-6,3.4V99H572V83.4z"/>
	<path id="XMLID_154_" class="st1" d="M584.2,83.4h4v1.6c1.3-1.2,2.9-1.9,4.4-1.9c1.5,0,2.9,0.6,3.8,2c1.5-1.2,3.3-2,5-2
		c2.5,0,4.6,1.7,4.6,5.7V99h-4.2V89c0-1.6-0.8-2.2-1.8-2.2c-0.9,0-2,0.6-2.8,1.4c0,0.3,0,0.5,0,0.8V99H593V89c0-1.6-0.8-2.2-1.8-2.2
		c-0.9,0-2,0.6-2.8,1.4V99h-4.2V83.4z"/>
	<path id="XMLID_156_" class="st1" d="M616.6,89.6h1.4v-0.4c0-1.9-1-2.6-2.4-2.6c-1.2,0-2.2,0.7-2.5,2.1l-4.1-1.1
		c0.7-2.6,3.3-4.4,6.7-4.4c3.9,0,6.5,2,6.5,6.1v5c0,1.8,0.2,3.1,0.8,4.6l-4,0.3c-0.3-0.6-0.4-1.5-0.5-2.2c-1.4,1.6-3.4,2.3-5.1,2.3
		c-2.6,0-5-1.7-5-4.6C608.4,91.6,610.7,89.6,616.6,89.6z M614.2,95.9c1.3,0,3.1-0.8,3.8-2v-1.3h-1.5c-3.1,0-4,0.8-4,1.9
		C612.5,95.4,613.2,95.9,614.2,95.9z"/>
	<path id="XMLID_159_" class="st1" d="M632.4,83.1c3.3,0,6,1.8,7,5.5l-4.2,0.9c-0.3-2-1.6-2.7-2.8-2.7c-1.4,0-3.2,1.1-3.2,4.5
		c0,3.4,1.8,4.5,3.2,4.5c1.2,0,2.5-0.8,2.8-2.7l4.2,0.8c-1,3.7-3.8,5.5-7,5.5c-3.8,0-7.4-3-7.4-8.1C625,86.2,628.6,83.1,632.4,83.1z
		"/>
	<path id="XMLID_161_" class="st1" d="M644.3,75.8l4.2,0.3l-3.5,5.7h-3.5L644.3,75.8z M642,83.4h4.2V99H642V83.4z"/>
	<path id="XMLID_164_" class="st1" d="M652.4,94.4c1.3,0,2.4,1.1,2.4,2.4c0,1.3-1.1,2.5-2.4,2.5c-1.3,0-2.4-1.1-2.4-2.5
		C650,95.5,651,94.4,652.4,94.4z M650.1,78h4.5l-0.5,14.1h-3.4L650.1,78z"/>
</g>
<path id="XMLID_2_" class="st2" d="M825.5,36C808.1,36,794,50.1,794,67.5c0,17.4,14.1,31.5,31.5,31.5c17.4,0,31.5-14.1,31.5-31.5
	C857,50.1,842.9,36,825.5,36z M833.8,55.2c-1,0-2.1,0-3.1,0c-1.4,0-2.2,0.7-2.3,2.1c-0.1,1.1,0,2.2,0,3.3c0,0.4,0.2,0.4,0.5,0.4
	c1.6,0,3.2,0,4.8,0c0.5,0,0.6,0.1,0.6,0.6c-0.2,1.8-0.4,3.7-0.5,5.6c0,0.4-0.2,0.5-0.6,0.5c-1.3,0-2.5,0-3.8,0
	c-0.9,0-0.8-0.1-0.8,0.8c0,5.8,0,11.5,0,17.3c0,0.6-0.2,0.8-0.8,0.7c-2.2,0-4.3,0-6.5,0c-0.6,0-0.7-0.2-0.7-0.7c0-2.9,0-5.8,0-8.7
	c0-2.9,0-5.9,0-8.8c0-0.5-0.1-0.7-0.6-0.6c-0.9,0-1.8,0-2.8,0c-0.4,0-0.5-0.1-0.5-0.5c0-1.8,0-3.7,0-5.5c0-0.4,0.1-0.5,0.5-0.5
	c0.9,0,1.9,0,2.8,0c0.5,0,0.7-0.2,0.6-0.7c0-1.4,0-2.8,0-4.2c0-1.7,0.5-3.3,1.5-4.7c1.3-1.8,3.1-2.6,5.2-2.7c2.2-0.1,4.3,0,6.5-0.1
	c0.3,0,0.4,0.1,0.4,0.4c0,1.9,0,3.7,0,5.6C834.3,55.1,834.2,55.2,833.8,55.2z"/>
<g id="XMLID_2331_" transform="matrix( 1, 0, 0, 1, 0,0) ">
	<g id="XMLID_2332_">
		<g id="a_37_">
			<path id="XMLID_2333_" class="st1" d="M751.7,63.1l4.1-20.6L725,73.3h25.5l-6.5,22.2l30.7-32.5H751.7z"/>
		</g>
	</g>
</g>
</svg>
