<?xml version="1.0" encoding="utf-8"?>
<!-- Generator: Adobe Illustrator 19.0.0, SVG Export Plug-In . SVG Version: 6.00 Build 0)  -->
<svg version="1.1" id="Layer_1" xmlns="http://www.w3.org/2000/svg" xmlns:xlink="http://www.w3.org/1999/xlink" x="0px" y="0px"
	 viewBox="0 0 200 196" style="enable-background:new 0 0 200 196;" xml:space="preserve">
<style type="text/css">
	.st0{fill:#2B4272;}
	.st1{fill:#FFFFFF;}
</style>
<g id="XMLID_16_">
	<g id="XMLID_75_" transform="translate(-302.000000, -43.000000)">
		<g id="XMLID_76_" transform="translate(302.004929, 43.386742)">
			<path id="XMLID_77_" class="st0" d="M147.4,195.3v-49.6h21.9c17,0,30.7-13.7,30.7-30.7V30.5c0-16.9-13.7-30.7-30.7-30.7l-138.6,0
				C13.7-0.1,0,13.6,0,30.5l0,84.5c0,16.9,13.7,30.7,30.7,30.7h70.2L147.4,195.3z"/>
		</g>
	</g>
</g>
<g id="XMLID_30_">
	<path id="XMLID_31_" class="st1" d="M23.9,52.1h6.6c3.4,0,6.1,1.3,6.1,4.8c0,5-3.9,7.1-8.2,7.1h-3l-1.1,6.4h-3.7L23.9,52.1z
		 M28.8,60.8c1.8,0,3.9-0.9,3.9-3.6c0-1.3-1.1-2-2.4-2H27l-1,5.6H28.8z"/>
	<path id="XMLID_34_" class="st1" d="M44.3,56.5c2.9,0,5.4,2.1,5.4,5.7c0,5.1-4.2,8.3-7.9,8.3c-2.9,0-5.4-2.1-5.4-5.7
		C36.5,59.8,40.6,56.5,44.3,56.5z M42.2,67.6c1.9,0,4-2,4-5.3c0-1.8-0.9-2.8-2.2-2.8c-1.9,0-4,2-4,5.3C40,66.6,40.9,67.6,42.2,67.6z
		"/>
	<path id="XMLID_37_" class="st1" d="M52.2,56.8h2.2l0.6-3.4l3.5-0.4l-0.7,3.9h3.6l-0.5,3h-3.6l-1,5.8c-0.2,1.2,0.1,1.9,1.2,1.9
		c0.5,0,1.1-0.1,2-0.4l0.2,3c-1.3,0.4-2.2,0.5-3.1,0.5c-3,0-4.2-2.1-3.6-4.9l1-5.9h-2.2L52.2,56.8z"/>
	<path id="XMLID_39_" class="st1" d="M64.1,56.8h3.3l-0.6,3.5c1.1-1.7,3.1-3.4,5.5-3.8l0,3.7c-2.2,0.2-4.3,1.3-5.8,2.8l-1.3,7.4
		h-3.5L64.1,56.8z M64,50.6l2.8-0.4l1.5,2.7l2.5-2.7l2.8,0.4l-4,4.7h-3.3L64,50.6z"/>
	<path id="XMLID_42_" class="st1" d="M75.7,64.6c0,2.4,1.3,3.2,2.4,3.2c1.2,0,2.4-0.6,3.1-1.9l3.2,0.7c-1.5,2.7-4.1,4-6.8,4
		c-2.9,0-5.3-2.1-5.3-5.7c0-5.1,4.1-8.3,7.8-8.3c3,0,6.3,2.1,5,8.1H75.7z M76.3,62.1H82c0-1.8-0.9-2.7-2.2-2.7
		C78.4,59.4,76.9,60.4,76.3,62.1z"/>
	<path id="XMLID_45_" class="st1" d="M90.1,51h3.5l-1.2,7c1.2-0.9,2.5-1.5,4-1.5c2.3,0,4.3,1.8,4.3,5.4c0,5.6-3.7,8.7-7,8.7
		c-1.3,0-2.6-0.5-3.6-1.4l-0.2,1.1h-3.3L90.1,51z M93.2,67.6c1.8,0,3.9-1.8,3.9-5.1c0-2.1-1-3-2.2-3c-0.9,0-2.1,0.5-3.1,1.3l-1,5.9
		C91.5,67.3,92.2,67.6,93.2,67.6z"/>
	<path id="XMLID_48_" class="st1" d="M107.6,56.8l-1.5,8.6c-0.3,1.6,0.4,2.2,1.5,2.2c1,0,2.3-0.6,3.3-1.3l1.7-9.5h3.4l-2.4,13.6
		h-3.3l0.3-1.4c-1.4,1.1-2.9,1.7-4.4,1.7c-2.4,0-4.3-1.5-3.7-5.1l1.5-8.8H107.6z"/>
	<path id="XMLID_50_" class="st1" d="M114.8,72.8c1.3,0.1,2.3-0.5,2.6-2.1l2.4-13.9h3.5L120.8,71c-0.6,3.2-2,5.1-6.1,4.8L114.8,72.8
		z M122.6,50.8c1.1,0,1.8,0.8,1.8,1.8c0,1.3-1.2,2.5-2.5,2.5c-1.1,0-1.8-0.8-1.8-1.8C120.1,51.9,121.3,50.8,122.6,50.8z"/>
	<path id="XMLID_53_" class="st1" d="M127.9,64.6c0,2.4,1.3,3.2,2.4,3.2c1.2,0,2.4-0.6,3.1-1.9l3.2,0.7c-1.5,2.7-4.1,4-6.8,4
		c-2.9,0-5.3-2.1-5.3-5.7c0-5.1,4.1-8.3,7.8-8.3c3,0,6.3,2.1,5,8.1H127.9z M128.4,62.1h5.7c0-1.8-0.9-2.7-2.2-2.7
		C130.6,59.4,129.1,60.4,128.4,62.1z"/>
	<path id="XMLID_56_" class="st1" d="M141.2,56.8h3.3l-0.2,1.4c1.2-1,2.6-1.7,3.9-1.7c1.3,0,2.5,0.5,3.1,1.9c1.5-1,3-1.9,4.6-1.9
		c2.2,0,4,1.5,3.4,5.1l-1.5,8.8h-3.4l1.5-8.6c0.3-1.6-0.4-2.2-1.3-2.2c-0.8,0-2,0.6-2.8,1.3c0,0.2,0,0.5-0.1,0.8l-1.5,8.8h-3.5
		l1.5-8.6c0.3-1.6-0.4-2.2-1.3-2.2c-0.8,0-1.9,0.6-2.8,1.3l-1.7,9.5h-3.5L141.2,56.8z"/>
	<path id="XMLID_58_" class="st1" d="M164.6,64.6c0,2.4,1.3,3.2,2.4,3.2c1.2,0,2.4-0.6,3.1-1.9l3.2,0.7c-1.5,2.7-4.1,4-6.8,4
		c-2.9,0-5.3-2.1-5.3-5.7c0-5.1,4.1-8.3,7.8-8.3c3,0,6.3,2.1,5,8.1H164.6z M165.1,62.1h5.7c0-1.8-0.9-2.7-2.2-2.7
		C167.2,59.4,165.8,60.4,165.1,62.1z"/>
	<path id="XMLID_61_" class="st1" d="M64.3,88.1h3.3l-0.2,1.4c1.4-1,2.9-1.7,4.4-1.7c2.4,0,4.3,1.5,3.7,5.1l-1.5,8.8h-3.5l1.5-8.6
		c0.3-1.6-0.4-2.2-1.5-2.2c-1,0-2.3,0.6-3.3,1.3l-1.7,9.5h-3.5L64.3,88.1z"/>
	<path id="XMLID_63_" class="st1" d="M80.7,96c0,2.4,1.3,3.2,2.4,3.2c1.2,0,2.4-0.6,3.1-1.9l3.2,0.7c-1.5,2.7-4.1,4-6.8,4
		c-2.9,0-5.3-2.1-5.3-5.7c0-5.1,4.1-8.3,7.8-8.3c3,0,6.3,2.1,5,8.1H80.7z M81.2,82l2.8-0.4l1.5,2.7l2.5-2.7l2.8,0.4l-4,4.7h-3.3
		L81.2,82z M81.2,93.4H87c0-1.8-0.9-2.7-2.2-2.7C83.4,90.7,81.9,91.8,81.2,93.4z"/>
	<path id="XMLID_67_" class="st1" d="M99.7,87.9c2.8,0,4.8,1.6,5.3,4.7l-3.5,0.7c-0.2-1.7-1-2.5-2-2.5c-1.9,0-4,2-4,5.3
		c0,1.8,0.9,2.8,2.2,2.8c1.2,0,2.5-0.8,3.1-2.5l3.3,0.7c-1.2,3.1-4,4.7-6.9,4.7c-2.9,0-5.3-2.1-5.3-5.7C91.9,91.1,96,87.9,99.7,87.9
		z"/>
	<path id="XMLID_69_" class="st1" d="M113.9,87.9c2.9,0,5.4,2.1,5.4,5.7c0,5.1-4.2,8.3-7.9,8.3c-2.9,0-5.4-2.1-5.4-5.7
		C106,91.1,110.1,87.9,113.9,87.9z M111.7,99c1.9,0,4-2,4-5.3c0-1.8-0.9-2.8-2.2-2.8c-1.9,0-4,2-4,5.3C109.5,97.9,110.4,99,111.7,99
		z"/>
	<path id="XMLID_72_" class="st1" d="M130.7,88.2c0-1-0.7-1.9-2.2-1.9c-2,0-3.4,1.5-3.2,3.6l-3.6,0.5c-0.4-4.3,3.1-7.2,7.4-7.2
		c3.4,0,5.4,2,5.4,4.6c0,4.7-5.5,4.8-6,8h-3.2C126,90.8,130.7,91,130.7,88.2z M126.4,97.8c1,0,1.7,0.8,1.7,1.8
		c0,1.3-1.2,2.4-2.4,2.4c-1,0-1.7-0.8-1.7-1.8C124,98.9,125.2,97.8,126.4,97.8z"/>
</g>
</svg>
