<?xml version="1.0" encoding="utf-8"?>
<!-- Generator: Adobe Illustrator 19.0.0, SVG Export Plug-In . SVG Version: 6.00 Build 0)  -->
<svg version="1.1" id="Layer_1" xmlns="http://www.w3.org/2000/svg" xmlns:xlink="http://www.w3.org/1999/xlink" x="0px" y="0px"
	 viewBox="0 0 12.5 914" style="enable-background:new 0 0 12.5 914;" xml:space="preserve">
<style type="text/css">
	.st0{fill:none;}
	.st1{fill:#5F82C1;}
	.st2{clip-path:url(#XMLID_24_);}
	.st3{opacity:0.11;fill:url(#XMLID_25_);}
	.st4{opacity:0.81;fill:url(#XMLID_26_);}
	.st5{opacity:0.11;fill:url(#XMLID_27_);}
	.st6{opacity:0.81;fill:url(#XMLID_28_);}
	.st7{opacity:0.11;fill:url(#XMLID_29_);}
	.st8{opacity:0.81;fill:url(#XMLID_30_);}
</style>
<pattern  width="12.1" height="12.4" patternUnits="userSpaceOnUse" id="EG_PATTERN_WEB_PODKLAD" viewBox="3 -15.7 12.1 12.4" style="overflow:visible;">
	<g id="XMLID_13_">
		<polygon id="XMLID_41_" class="st0" points="3,-15.7 15.1,-15.7 15.1,-3.3 3,-3.3 		"/>
		<g id="a_25_">
			<path id="XMLID_38_" class="st1" d="M15.4-4l0.5-2.5l-3.8,3.8h3.1L14.4,0l3.8-4H15.4z"/>
		</g>
		<g id="a_24_">
			<path id="XMLID_37_" class="st1" d="M3.3-4l0.5-2.5L0-2.7h3.1L2.3,0l3.8-4H3.3z"/>
		</g>
		<g id="a_20_">
			<path id="XMLID_36_" class="st1" d="M9.3-10.2l0.5-2.5L6-8.9h3.1L8.4-6.2l3.8-4H9.3z"/>
		</g>
		<g id="a_10_">
			<path id="XMLID_31_" class="st1" d="M15.4-16.4l0.5-2.5l-3.8,3.8h3.1l-0.8,2.7l3.8-4H15.4z"/>
		</g>
		<g id="a_9_">
			<path id="XMLID_14_" class="st1" d="M3.3-16.4l0.5-2.5L0-15.1h3.1l-0.8,2.7l3.8-4H3.3z"/>
		</g>
	</g>
</pattern>
<g>
	<defs>
		<rect id="XMLID_1_" width="12.5" height="914"/>
	</defs>
	<clipPath id="XMLID_24_">
		<use xlink:href="#XMLID_1_"  style="overflow:visible;"/>
	</clipPath>
	<g class="st2">
		<pattern  id="XMLID_25_" xlink:href="#EG_PATTERN_WEB_PODKLAD" patternTransform="matrix(1 0 0 1 0 2.6)">
		</pattern>
		<rect id="XMLID_20_" y="0" class="st3" width="12.5" height="115"/>
		<pattern  id="XMLID_26_" xlink:href="#EG_PATTERN_WEB_PODKLAD" patternTransform="matrix(1 0 0 1 0 2.6)">
		</pattern>
		<rect id="XMLID_19_" y="115" class="st4" width="12.5" height="149"/>
		<pattern  id="XMLID_27_" xlink:href="#EG_PATTERN_WEB_PODKLAD" patternTransform="matrix(1 0 0 1 0 2.6)">
		</pattern>
		<rect id="XMLID_18_" y="264" class="st5" width="12.5" height="704.5"/>
		<pattern  id="XMLID_28_" xlink:href="#EG_PATTERN_WEB_PODKLAD" patternTransform="matrix(1 0 0 1 0 2.6)">
		</pattern>
		<rect id="XMLID_17_" y="968.5" class="st6" width="12.5" height="106.8"/>
		<pattern  id="XMLID_29_" xlink:href="#EG_PATTERN_WEB_PODKLAD" patternTransform="matrix(1 0 0 1 0 2.6)">
		</pattern>
		<rect id="XMLID_16_" y="1075.3" class="st7" width="12.5" height="814"/>
		<pattern  id="XMLID_30_" xlink:href="#EG_PATTERN_WEB_PODKLAD" patternTransform="matrix(1 0 0 1 0 2.6)">
		</pattern>
		<rect id="XMLID_15_" y="1889.3" class="st8" width="12.5" height="576"/>
	</g>
</g>
</svg>
