<?xml version="1.0" encoding="utf-8"?>
<!-- Generator: Adobe Illustrator 19.0.0, SVG Export Plug-In . SVG Version: 6.00 Build 0)  -->
<svg version="1.1" id="Layer_1" xmlns="http://www.w3.org/2000/svg" xmlns:xlink="http://www.w3.org/1999/xlink" x="0px" y="0px"
	 viewBox="0 0 276.3 63" style="enable-background:new 0 0 276.3 63;" xml:space="preserve">
<style type="text/css">
	.st0{fill:#FFFFFF;}
	.st1{fill:none;stroke:#000000;stroke-miterlimit:10;}
</style>
<g id="XMLID_16_">
	<path id="XMLID_152_" class="st0" d="M2.2,62.5c-0.9,0-1.7-0.8-1.7-1.7V2.2c0-0.9,0.8-1.7,1.7-1.7h271.9c0.9,0,1.7,0.8,1.7,1.7
		v58.6c0,0.9-0.8,1.7-1.7,1.7H2.2z"/>
	<path id="XMLID_149_" d="M274.1,1c0.7,0,1.2,0.5,1.2,1.2v58.6c0,0.7-0.5,1.2-1.2,1.2H2.2C1.5,62,1,61.5,1,60.8V2.2
		C1,1.5,1.5,1,2.2,1H274.1 M274.1,0H2.2C1,0,0,1,0,2.2v58.6C0,62,1,63,2.2,63h271.9c1.2,0,2.2-1,2.2-2.2V2.2
		C276.3,1,275.3,0,274.1,0L274.1,0z"/>
</g>
<g id="XMLID_17_">
	<path id="XMLID_15_" d="M23.5,21.2c0.9,0,1.4-0.5,1.4-1.4v-5.3c0-0.9-0.5-1.4-1.4-1.4s-1.4,0.5-1.4,1.4v5.3
		C22.1,20.7,22.6,21.2,23.5,21.2z"/>
	<path id="XMLID_14_" d="M41.4,21.2c0.9,0,1.4-0.5,1.4-1.4v-5.3c0-0.9-0.5-1.4-1.4-1.4c-0.9,0-1.4,0.5-1.4,1.4v5.3
		C40,20.7,40.5,21.2,41.4,21.2z"/>
	<path id="XMLID_13_" d="M27.2,31.7h3.2c0.7,0,0.9-0.3,0.9-0.9v-2.3c0-0.7-0.3-0.9-0.9-0.9h-3.2c-0.7,0-0.9,0.3-0.9,0.9v2.3
		C26.3,31.4,26.5,31.7,27.2,31.7z"/>
	<path id="XMLID_12_" d="M34.5,31.7h3.2c0.7,0,0.9-0.3,0.9-0.9v-2.3c0-0.7-0.3-0.9-0.9-0.9h-3.2c-0.7,0-0.9,0.3-0.9,0.9v2.3
		C33.6,31.4,33.8,31.7,34.5,31.7z"/>
	<path id="XMLID_11_" d="M41.7,31.7h3.2c0.7,0,0.9-0.3,0.9-0.9v-2.3c0-0.7-0.3-0.9-0.9-0.9h-3.2c-0.7,0-0.9,0.3-0.9,0.9v2.3
		C40.8,31.4,41.1,31.7,41.7,31.7z"/>
	<path id="XMLID_10_" d="M19.9,38h3.2c0.7,0,0.9-0.3,0.9-0.9v-2.3c0-0.7-0.3-0.9-0.9-0.9h-3.2c-0.7,0-0.9,0.3-0.9,0.9v2.3
		C19,37.8,19.3,38,19.9,38z"/>
	<path id="XMLID_9_" d="M27.2,38h3.2c0.7,0,0.9-0.3,0.9-0.9v-2.3c0-0.7-0.3-0.9-0.9-0.9h-3.2c-0.7,0-0.9,0.3-0.9,0.9v2.3
		C26.3,37.8,26.5,38,27.2,38z"/>
	<path id="XMLID_8_" d="M34.5,38h3.2c0.7,0,0.9-0.3,0.9-0.9v-2.3c0-0.7-0.3-0.9-0.9-0.9h-3.2c-0.7,0-0.9,0.3-0.9,0.9v2.3
		C33.6,37.8,33.8,38,34.5,38z"/>
	<path id="XMLID_7_" d="M41.7,38h3.2c0.7,0,0.9-0.3,0.9-0.9v-2.3c0-0.7-0.3-0.9-0.9-0.9h-3.2c-0.7,0-0.9,0.3-0.9,0.9v2.3
		C40.8,37.8,41.1,38,41.7,38z"/>
	<path id="XMLID_6_" d="M19.9,44.4h3.2c0.7,0,0.9-0.3,0.9-0.9v-2.3c0-0.7-0.3-0.9-0.9-0.9h-3.2c-0.7,0-0.9,0.3-0.9,0.9v2.3
		C19,44.1,19.3,44.4,19.9,44.4z"/>
	<path id="XMLID_5_" d="M27.2,44.4h3.2c0.7,0,0.9-0.3,0.9-0.9v-2.3c0-0.7-0.3-0.9-0.9-0.9h-3.2c-0.7,0-0.9,0.3-0.9,0.9v2.3
		C26.3,44.1,26.5,44.4,27.2,44.4z"/>
	<path id="XMLID_4_" d="M34.5,44.4h3.2c0.7,0,0.9-0.3,0.9-0.9v-2.3c0-0.7-0.3-0.9-0.9-0.9h-3.2c-0.7,0-0.9,0.3-0.9,0.9v2.3
		C33.6,44.1,33.8,44.4,34.5,44.4z"/>
	<path id="XMLID_3_" d="M45,40.3h-3.2c-0.7,0-0.9,0.3-0.9,0.9v2.3c0,0.7,0.3,0.9,0.9,0.9H45c0.7,0,0.9-0.3,0.9-0.9v-2.3
		C45.9,40.6,45.6,40.3,45,40.3z"/>
	<path id="XMLID_18_" d="M46.2,16h-2.7v1.8c0.6,0.6,1,1.4,1,2.3c0,1.7-1.4,3.1-3.1,3.1c-1.7,0-3.1-1.4-3.1-3.1c0-0.9,0.4-1.7,1-2.3
		V16H25.5v1.8c0.6,0.6,1,1.4,1,2.3c0,1.7-1.4,3.1-3.1,3.1c-1.7,0-3.1-1.4-3.1-3.1c0-0.9,0.4-1.7,1-2.3V16h-2.7
		c-2.9,0-4.1,1.2-4.1,4.1v3.5v1.8v19.3c0,2.9,1.2,4.1,4.1,4.1h27.5c2.9,0,4.1-1.2,4.1-4.1V25.4v-1.8v-3.5C50.3,17.2,49.1,16,46.2,16
		z M48,45.2c0,1-0.4,1.4-1.4,1.4H18.2c-1,0-1.4-0.4-1.4-1.4v-20H48V45.2z"/>
</g>
<g id="XMLID_20_">
	<path id="XMLID_21_" d="M85.3,23.8h2.9V16c-0.7,0.6-1.8,1.2-2.9,1.4l-0.2-0.9c1-0.2,2.3-0.8,3.2-1.8h0.8v9h2.7v0.8h-6.6V23.8z"/>
	<path id="XMLID_23_" d="M96.2,14.7c2.1,0,3.5,1.8,3.5,5c0,3.2-1.6,5.1-3.7,5.1c-1.7,0-2.9-1-3.1-2.6l0.9-0.2c0.1,1.2,1,1.9,2.2,1.9
		c1.8,0,2.8-1.9,2.7-4.3c-0.7,0.7-1.8,1.1-2.8,1.1c-1.7,0-3.2-1-3.2-2.9C92.8,15.9,94.3,14.7,96.2,14.7z M96,19.9
		c1.2,0,2.2-0.6,2.7-1.3c-0.3-2.1-1.3-3.1-2.5-3.1c-1.4,0-2.4,0.9-2.4,2.3C93.8,19.2,94.8,19.9,96,19.9z"/>
	<path id="XMLID_26_" d="M102.3,23.2c0.4,0,0.7,0.3,0.7,0.7s-0.3,0.7-0.7,0.7c-0.4,0-0.7-0.3-0.7-0.7S101.9,23.2,102.3,23.2z"/>
	<path id="XMLID_28_" d="M108.7,14.2l0.9-0.2l1.2,1.7L112,14l0.9,0.2l-1.6,2.3h-1L108.7,14.2z M109.3,17.5h0.9v1.8
		c0.5-0.7,1.5-1.6,2.7-2.1l0.2,1c-1.2,0.4-2.2,1.2-2.9,2v4.4h-0.9V17.5z"/>
	<path id="XMLID_31_" d="M115.4,14l1,0.1l-1.3,2.4h-0.9L115.4,14z M114.6,17.5h0.9v7.1h-0.9V17.5z"/>
	<path id="XMLID_34_" d="M116.8,26.7c0.8,0.1,1.3-0.4,1.3-1.4v-7.9h0.9v7.9c0,1.4-0.7,2.2-2.1,2.2L116.8,26.7z M118.6,14.6
		c0.4,0,0.7,0.3,0.7,0.7c0,0.4-0.3,0.7-0.7,0.7c-0.4,0-0.7-0.3-0.7-0.7C117.9,14.9,118.2,14.6,118.6,14.6z"/>
	<path id="XMLID_37_" d="M121.3,17.5h0.9v0.9c0.7-0.6,1.5-1.1,2.5-1.1c1.4,0,2.5,0.8,2.5,2.9v4.4h-0.9v-4.3c0-1.5-0.7-2.1-1.7-2.1
		c-0.8,0-1.7,0.4-2.3,1.1v5.3h-0.9V17.5z"/>
	<path id="XMLID_39_" d="M132.3,20.6h1.5V20c0-1.2-0.7-1.8-1.8-1.8c-0.8,0-1.6,0.5-1.9,1.4l-0.9-0.3c0.4-1.3,1.6-1.9,2.8-1.9
		c1.6,0,2.7,0.9,2.7,2.6v2.6c0,0.7,0.2,1.3,0.5,1.9l-0.9,0.1c-0.2-0.4-0.4-0.8-0.4-1.3c-0.7,0.9-1.8,1.3-2.7,1.3
		c-1.2,0-2.2-0.7-2.2-1.9C128.9,21.4,130,20.6,132.3,20.6z M131.2,23.9c0.9,0,2.1-0.6,2.6-1.5v-1.1h-1.5c-1.6,0-2.4,0.5-2.4,1.5
		C129.9,23.5,130.5,23.9,131.2,23.9z"/>
	<path id="XMLID_42_" d="M141.1,23.8c4.3-3.6,5.5-4.9,5.5-6.3c0-1.2-0.9-2-2.2-2c-1.5,0-2.6,1.1-2.1,3.1h-0.9c-0.5-2.4,1-3.9,3-3.9
		c1.9,0,3.1,1.1,3.1,2.8c0,1.6-1.3,3.1-5.3,6.3h5.5v0.9h-6.7V23.8z"/>
	<path id="XMLID_44_" d="M153.1,14.7c2.1,0,3.9,1.9,3.9,5c0,3.2-1.8,5-3.9,5c-2.1,0-3.9-1.9-3.9-5C149.2,16.6,151,14.7,153.1,14.7z
		 M153.1,23.9c1.5,0,2.9-1.5,2.9-4.2c0-2.7-1.4-4.2-2.9-4.2s-2.9,1.5-2.9,4.2C150.2,22.4,151.5,23.9,153.1,23.9z"/>
	<path id="XMLID_47_" d="M158.5,23.8h2.9V16c-0.7,0.6-1.8,1.2-2.9,1.4l-0.2-0.9c1-0.2,2.3-0.8,3.2-1.8h0.8v9h2.7v0.8h-6.6V23.8z"/>
	<path id="XMLID_49_" d="M166,22c0-1,0.7-1.9,1.8-2.4c-1-0.5-1.5-1.3-1.5-2.3c0-1.4,1.3-2.7,3.2-2.7c1.9,0,3.2,1.2,3.2,2.7
		c0,1-0.6,1.8-1.5,2.3c1.1,0.5,1.8,1.4,1.8,2.4c0,1.4-1.4,2.7-3.5,2.7C167.4,24.8,166,23.5,166,22z M172,22c0-1-1-1.9-2.5-1.9
		c-1.5,0-2.5,0.9-2.5,1.9c0,1,1,1.9,2.5,1.9C171,23.9,172,23,172,22z M171.7,17.4c0-1-0.9-1.9-2.3-1.9c-1.3,0-2.3,0.9-2.3,1.9
		c0,1,0.9,1.8,2.3,1.8C170.8,19.2,171.7,18.4,171.7,17.4z"/>
	<path id="XMLID_53_" d="M178.4,20.6h3.2v0.8h-3.2V20.6z"/>
	<path id="XMLID_55_" d="M188.1,22.5c0.2,1,0.9,1.4,2.1,1.4c1,0,1.8-0.5,1.8-1.3c0-2.1-4.7-0.3-4.7-3.3c0-1.1,1.1-2,2.6-2
		c1.4,0,2.5,0.7,2.8,2l-0.9,0.3c-0.2-1-1-1.4-1.9-1.4c-1,0-1.7,0.5-1.7,1.2c0,2,4.7,0.4,4.7,3.3c0,1.2-1.2,2.1-2.7,2.1
		c-1.7,0-2.7-0.7-3-2L188.1,22.5z M187.9,14.2l0.9-0.2l1.2,1.7l1.2-1.7l0.9,0.2l-1.6,2.3h-1L187.9,14.2z"/>
	<path id="XMLID_58_" d="M197,21.2l-1.2,1.4v2.1h-0.9V14.2h0.9v7l3.2-3.7h1.2l-2.5,2.9l3,4.2h-1.1L197,21.2z"/>
	<path id="XMLID_60_" d="M204.5,17.4c1.7,0,3.2,1.4,3.2,3.7c0,2.3-1.5,3.7-3.2,3.7c-1.7,0-3.2-1.4-3.2-3.7
		C201.2,18.8,202.8,17.4,204.5,17.4z M204.5,23.9c1.2,0,2.3-1,2.3-2.9c0-1.8-1.1-2.9-2.3-2.9c-1.2,0-2.3,1-2.3,2.9
		C202.2,22.9,203.3,23.9,204.5,23.9z"/>
	<path id="XMLID_63_" d="M209.6,14.2h0.9v10.4h-0.9V14.2z"/>
	<path id="XMLID_65_" d="M212.8,17.5h0.9v0.9c0.7-0.6,1.5-1.1,2.5-1.1c1.4,0,2.5,0.8,2.5,2.9v4.4h-0.9v-4.3c0-1.5-0.7-2.1-1.7-2.1
		c-0.8,0-1.7,0.4-2.3,1.1v5.3h-0.9V17.5z"/>
	<path id="XMLID_67_" d="M221.7,14l1,0.1l-1.3,2.4h-0.9L221.7,14z M220.8,17.5h0.9v7.1h-0.9V17.5z"/>
	<path id="XMLID_70_" d="M230.3,21.2l-1.2,1.4v2.1h-0.9V14.2h0.9v7l3.2-3.7h1.2l-2.5,2.9l3,4.2h-1.1L230.3,21.2z"/>
	<path id="XMLID_72_" d="M237.8,17.4c1.7,0,3.2,1.4,3.2,3.7c0,2.3-1.5,3.7-3.2,3.7c-1.7,0-3.2-1.4-3.2-3.7
		C234.6,18.8,236.1,17.4,237.8,17.4z M237.8,23.9c1.2,0,2.3-1,2.3-2.9c0-1.8-1.1-2.9-2.3-2.9c-1.2,0-2.3,1-2.3,2.9
		C235.5,22.9,236.6,23.9,237.8,23.9z"/>
	<path id="XMLID_75_" d="M242.9,14.2h0.9v10.4h-0.9V14.2z"/>
	<path id="XMLID_77_" d="M248.9,17.4c1.7,0,3.2,1.4,3.2,3.7c0,2.3-1.5,3.7-3.2,3.7c-1.7,0-3.2-1.4-3.2-3.7
		C245.7,18.8,247.2,17.4,248.9,17.4z M248.9,23.9c1.2,0,2.3-1,2.3-2.9c0-1.8-1.1-2.9-2.3-2.9c-1.2,0-2.3,1-2.3,2.9
		C246.6,22.9,247.7,23.9,248.9,23.9z"/>
	<path id="XMLID_80_" d="M85.3,46.2h2.9v-7.7c-0.7,0.6-1.8,1.2-2.9,1.4L85.2,39c1-0.2,2.3-0.8,3.2-1.8h0.8v9h2.7v0.8h-6.6V46.2z"/>
	<path id="XMLID_82_" d="M92.8,42.2c0-3.2,1.6-5.1,3.7-5.1c1.7,0,2.9,1,3.1,2.6l-0.9,0.2c-0.1-1.2-1-1.9-2.2-1.9
		c-1.8,0-2.8,1.9-2.7,4.3c0.7-0.7,1.8-1.1,2.8-1.1c1.7,0,3.2,1,3.2,2.9c0,1.9-1.4,3.2-3.4,3.2C94.2,47.2,92.8,45.4,92.8,42.2z
		 M98.8,44.1c0-1.4-1.1-2.1-2.2-2.1s-2.1,0.6-2.7,1.3c0.3,2.1,1.3,3.1,2.6,3.1C97.7,46.4,98.8,45.5,98.8,44.1z"/>
	<path id="XMLID_85_" d="M102.2,45.7c0.4,0,0.7,0.3,0.7,0.7s-0.3,0.7-0.7,0.7c-0.4,0-0.7-0.3-0.7-0.7S101.8,45.7,102.2,45.7z"/>
	<path id="XMLID_87_" d="M109.3,36.7h0.9v10.4h-0.9V36.7z"/>
	<path id="XMLID_89_" d="M112.9,37c0.4,0,0.7,0.3,0.7,0.7c0,0.4-0.3,0.7-0.7,0.7c-0.4,0-0.7-0.3-0.7-0.7
		C112.2,37.3,112.6,37,112.9,37z M112.5,40h0.9v7.1h-0.9V40z"/>
	<path id="XMLID_92_" d="M116.3,45c0.2,1,0.9,1.4,2.1,1.4c1,0,1.8-0.5,1.8-1.3c0-2.1-4.7-0.3-4.7-3.3c0-1.1,1.1-2,2.6-2
		c1.4,0,2.5,0.7,2.8,2L120,42c-0.2-1-1-1.4-1.9-1.4c-1,0-1.7,0.5-1.7,1.2c0,2,4.7,0.4,4.7,3.3c0,1.2-1.2,2.1-2.7,2.1
		c-1.7,0-2.7-0.7-3-2L116.3,45z"/>
	<path id="XMLID_94_" d="M122.3,40h1.5v-2l0.9-0.2V40h2.3v0.8h-2.3v4c0,1.1,0.3,1.6,1,1.6c0.4,0,0.8-0.1,1.4-0.3l0.2,0.8
		c-0.7,0.3-1.2,0.3-1.7,0.3c-1.3,0-1.8-0.9-1.8-2.4v-4h-1.5V40z"/>
	<path id="XMLID_96_" d="M131.5,39.8c1.7,0,3.2,1.4,3.2,3.7c0,2.3-1.5,3.7-3.2,3.7c-1.7,0-3.2-1.4-3.2-3.7
		C128.2,41.2,129.7,39.8,131.5,39.8z M131.5,46.4c1.2,0,2.3-1,2.3-2.9c0-1.8-1.1-2.9-2.3-2.9c-1.2,0-2.3,1-2.3,2.9
		C129.2,45.4,130.2,46.4,131.5,46.4z"/>
	<path id="XMLID_99_" d="M136.5,40h0.9v0.9c0.7-0.6,1.5-1.1,2.5-1.1c1.5,0,2.9,1.2,2.9,3.7c0,2.5-1.6,3.7-3,3.7
		c-1,0-1.7-0.3-2.3-0.8v3.5h-0.9V40z M139.6,46.4c1.2,0,2.3-0.9,2.3-2.9c0-1.9-1-2.9-2.1-2.9c-0.8,0-1.6,0.4-2.3,1.1v3.7
		C138.2,46,138.8,46.4,139.6,46.4z"/>
	<path id="XMLID_102_" d="M147.6,43h1.5v-0.6c0-1.2-0.7-1.8-1.8-1.8c-0.8,0-1.6,0.5-1.9,1.4l-0.9-0.3c0.4-1.3,1.6-1.9,2.8-1.9
		c1.6,0,2.7,0.9,2.7,2.6V45c0,0.7,0.2,1.3,0.5,1.9l-0.9,0.1c-0.2-0.4-0.4-0.8-0.4-1.3c-0.7,0.9-1.8,1.3-2.7,1.3
		c-1.2,0-2.2-0.7-2.2-1.9C144.2,43.8,145.3,43,147.6,43z M146.5,46.4c0.9,0,2.1-0.6,2.6-1.5v-1.1h-1.5c-1.6,0-2.4,0.5-2.4,1.5
		C145.2,46,145.8,46.4,146.5,46.4z"/>
	<path id="XMLID_105_" d="M154.8,39.8c1,0,1.7,0.3,2.3,0.8v-3.9h0.9v10.4h-0.9v-0.9c-0.6,0.6-1.4,1-2.5,1c-1.5,0-2.9-1.2-2.9-3.7
		C151.7,41.1,153.4,39.8,154.8,39.8z M154.8,46.4c0.8,0,1.6-0.4,2.3-1.1v-3.7c-0.7-0.6-1.3-0.9-2.1-0.9c-1.2,0-2.3,0.9-2.3,2.9
		C152.7,45.5,153.7,46.4,154.8,46.4z"/>
	<path id="XMLID_108_" d="M161.2,40v4.3c0,1.5,0.7,2.1,1.7,2.1c0.8,0,1.7-0.4,2.3-1.1V40h0.9v7.1h-0.9v-0.9c-0.7,0.6-1.5,1-2.5,1
		c-1.4,0-2.5-0.8-2.5-2.9V40H161.2z"/>
	<path id="XMLID_110_" d="M172.6,46.2c4.3-3.6,5.5-4.9,5.5-6.3c0-1.2-0.9-2-2.2-2c-1.5,0-2.6,1.1-2.1,3.1h-0.9c-0.5-2.4,1-3.9,3-3.9
		c1.9,0,3.1,1.1,3.1,2.8c0,1.6-1.3,3.1-5.3,6.3h5.5v0.9h-6.7V46.2z"/>
	<path id="XMLID_112_" d="M184.5,37.1c2.1,0,3.9,1.9,3.9,5c0,3.2-1.8,5-3.9,5c-2.1,0-3.9-1.9-3.9-5C180.7,39,182.4,37.1,184.5,37.1z
		 M184.5,46.4c1.5,0,2.9-1.5,2.9-4.2c0-2.7-1.4-4.2-2.9-4.2s-2.9,1.5-2.9,4.2C181.6,44.9,183,46.4,184.5,46.4z"/>
	<path id="XMLID_115_" d="M190,46.2h2.9v-7.7c-0.7,0.6-1.8,1.2-2.9,1.4l-0.2-0.9c1-0.2,2.3-0.8,3.2-1.8h0.8v9h2.7v0.8H190V46.2z"/>
	<path id="XMLID_117_" d="M197.4,44.5c0-1,0.7-1.9,1.8-2.4c-1-0.5-1.5-1.3-1.5-2.3c0-1.4,1.3-2.7,3.2-2.7c1.9,0,3.2,1.2,3.2,2.7
		c0,1-0.6,1.8-1.5,2.3c1.1,0.5,1.8,1.4,1.8,2.4c0,1.4-1.4,2.7-3.5,2.7C198.9,47.2,197.4,45.9,197.4,44.5z M203.4,44.4
		c0-1-1-1.9-2.5-1.9c-1.5,0-2.5,0.9-2.5,1.9c0,1,1,1.9,2.5,1.9C202.4,46.4,203.4,45.5,203.4,44.4z M203.2,39.8c0-1-0.9-1.9-2.3-1.9
		c-1.3,0-2.3,0.9-2.3,1.9c0,1,0.9,1.8,2.3,1.8C202.2,41.7,203.2,40.8,203.2,39.8z"/>
	<path id="XMLID_121_" d="M209.7,43.1h6.6v0.8h-6.6V43.1z"/>
	<path id="XMLID_123_" d="M227.3,40.8h-3.9v6.3h-0.9v-6.3H221V40h1.5v-1.3c0-1.3,0.7-2.1,1.9-2.1c0.4,0,0.8,0.1,1.3,0.3l-0.2,0.8
		c-0.5-0.2-0.7-0.3-1-0.3c-0.7,0-1.1,0.6-1.1,1.3V40h4.8v7.1h-0.9V40.8z M227.7,37c0.4,0,0.7,0.3,0.7,0.7c0,0.4-0.3,0.7-0.7,0.7
		s-0.7-0.3-0.7-0.7C227.1,37.3,227.4,37,227.7,37z"/>
	<path id="XMLID_126_" d="M230.5,40h0.9v0.9c0.7-0.6,1.5-1.1,2.5-1.1c1.4,0,2.5,0.8,2.5,2.9v4.4h-0.9v-4.3c0-1.5-0.7-2.1-1.7-2.1
		c-0.8,0-1.7,0.4-2.3,1.1v5.3h-0.9V40z"/>
	<path id="XMLID_128_" d="M241.4,43h1.5v-0.6c0-1.2-0.7-1.8-1.8-1.8c-0.8,0-1.6,0.5-1.9,1.4l-0.9-0.3c0.4-1.3,1.6-1.9,2.8-1.9
		c1.6,0,2.7,0.9,2.7,2.6V45c0,0.7,0.2,1.3,0.5,1.9l-0.9,0.1c-0.2-0.4-0.4-0.8-0.4-1.3c-0.7,0.9-1.8,1.3-2.7,1.3
		c-1.2,0-2.2-0.7-2.2-1.9C238.1,43.8,239.2,43,241.4,43z M240.4,46.4c0.9,0,2.1-0.6,2.6-1.5v-1.1h-1.5c-1.6,0-2.4,0.5-2.4,1.5
		C239,46,239.6,46.4,240.4,46.4z M241.7,36.4l1,0.1l-1.3,2.4h-0.9L241.7,36.4z"/>
	<path id="XMLID_132_" d="M246,36.7h0.9v10.4H246V36.7z"/>
	<path id="XMLID_134_" d="M249.7,43.7c0.1,1.7,1.1,2.6,2.3,2.6c0.9,0,1.7-0.5,2-1.5l0.9,0.3c-0.4,1.3-1.6,2.1-2.9,2.1
		c-1.7,0-3.2-1.4-3.2-3.7c0-2.3,1.5-3.7,3.2-3.7c1.7,0,3.2,1.3,3.1,3.9H249.7z M249.8,43h4.4c-0.2-1.5-1-2.3-2.2-2.3
		C250.9,40.6,249.9,41.5,249.8,43z"/>
</g>
<line id="XMLID_19_" class="st1" x1="66.5" y1="0" x2="66.5" y2="63"/>
</svg>
