<?xml version="1.0" encoding="utf-8"?>
<!-- Generator: Adobe Illustrator 19.0.0, SVG Export Plug-In . SVG Version: 6.00 Build 0)  -->
<svg version="1.1" id="Layer_1" xmlns="http://www.w3.org/2000/svg" xmlns:xlink="http://www.w3.org/1999/xlink" x="0px" y="0px"
	 viewBox="-46 -66 194 194" style="enable-background:new -46 -66 194 194;" xml:space="preserve">
<style type="text/css">
	.st0{fill:#FFFFFF;}
</style>
<g>
	<g id="XMLID_2331_" transform="matrix( 1, 0, 0, 1, 0,0) ">
		<g id="XMLID_2332_">
			<g id="a_37_">
				<path id="XMLID_2333_" class="st0" d="M23.7,9.9L26-1.6L8.8,15.6H23L19.4,28L36.6,9.9H23.7z"/>
			</g>
		</g>
	</g>
	<g id="XMLID_2328_" transform="matrix( 1, 0, 0, 1, 0,0) ">
		<g id="XMLID_2329_">
			<g id="a_36_">
				<path id="XMLID_2330_" class="st0" d="M74.3,9.9l2.3-11.5L59.3,15.6h14.3L70,28L87.2,9.9H74.3z"/>
			</g>
		</g>
	</g>
	<g id="XMLID_2325_" transform="matrix( 1, 0, 0, 1, 0,0) ">
		<g id="XMLID_2326_">
			<g id="a_35_">
				<path id="XMLID_2327_" class="st0" d="M-1.2-16.5L1.1-28l-17.2,17.2h14.3L-5.4,1.7l17.2-18.2H-1.2z"/>
			</g>
		</g>
	</g>
	<g id="XMLID_2322_" transform="matrix( 1, 0, 0, 1, 0,0) ">
		<g id="XMLID_2323_">
			<g id="a_34_">
				<path id="XMLID_2324_" class="st0" d="M49.4-16.5L51.7-28L34.5-10.8h14.3L45.1,1.7l17.2-18.2H49.4z"/>
			</g>
		</g>
	</g>
	<g id="XMLID_2319_" transform="matrix( 1, 0, 0, 1, 0,0) ">
		<g id="XMLID_2320_">
			<g id="a_33_">
				<path id="XMLID_2321_" class="st0" d="M97.6-16.5L99.9-28L82.7-10.8H97L93.4,1.7l17.2-18.2H97.6z"/>
			</g>
		</g>
	</g>
	<g id="XMLID_2292_">
		<path id="XMLID_2317_" class="st0" d="M-31.8,57.6v4.5h-12.4v-19H-32v4.5H-39v2.8h6.2v4.3H-39v2.8H-31.8z"/>
		<path id="XMLID_2315_" class="st0" d="M-11.8,43.2v19h-4.3l-7.5-10.3v10.3h-5.1v-19h4.6l7.3,10v-10H-11.8z"/>
		<path id="XMLID_2313_" class="st0" d="M4.2,57.6v4.5H-8.2v-19H4v4.5h-6.9v2.8h6.2v4.3h-6.2v2.8H4.2z"/>
		<path id="XMLID_2310_" class="st0" d="M14.4,56.3h-1.9v5.8H7.2v-19h8.2c4.1,0,7.1,2.8,7.1,6.7c0,2.3-1.1,4.2-3,5.4l3.8,6.9h-5.8
			L14.4,56.3z M12.5,51.9h2.4c1.5,0,2.3-0.9,2.3-2.1c0-1.2-0.8-2.1-2.3-2.1h-2.4V51.9z"/>
		<path id="XMLID_2308_" class="st0" d="M44.6,52c0,6.2-4.1,10.6-10,10.6c-5.8,0-10.1-4.2-10.1-10c0-5.8,4.2-10,10.1-10
			c5,0,9.1,3.1,9.9,7.5h-5.5c-0.7-1.6-2.4-2.6-4.3-2.6c-2.8,0-4.8,2.1-4.8,5.1c0,3,1.9,5.1,4.8,5.1c2,0,3.7-1,4.3-2.4h-4.7V52
			L44.6,52z"/>
		<path id="XMLID_2306_" class="st0" d="M59.6,57.6v4.5H47.2v-19h12.2v4.5h-6.9v2.8h6.2v4.3h-6.2v2.8H59.6z"/>
		<path id="XMLID_2304_" class="st0" d="M76.8,47.9h-5.2v14.3h-5.3V47.9h-5.2v-4.7h15.6V47.9z"/>
		<path id="XMLID_2302_" class="st0" d="M79.2,43.2h5.3v19h-5.3V43.2z"/>
		<path id="XMLID_2300_" class="st0" d="M97.3,62.6c-5.8,0-10.1-4.3-10.1-10c0-5.7,4.3-10,10.1-10c5,0,8.8,3.3,9.6,8.1h-5.3
			c-0.7-1.9-2.3-3.2-4.3-3.2c-2.7,0-4.7,2.2-4.7,5.1c0,2.9,2,5.1,4.7,5.1c2.1,0,3.8-1.4,4.3-3.5h5.4
			C106.2,59.2,102.3,62.6,97.3,62.6L97.3,62.6z"/>
		<path id="XMLID_2298_" class="st0" d="M120.1,62.2l-5.4-8.4v8.4h-5.2v-19h5.2v8l5-8h6.1l-6.1,9.2l6.7,9.8H120.1z"/>
		<path id="XMLID_2295_" class="st0" d="M139.4,59.1h-6.7l-1.1,3.1H126l7.5-19h5.1l7.6,19h-5.8L139.4,59.1z M136,49.1l-2.1,5.9h4.2
			L136,49.1z"/>
		<path id="XMLID_2293_" class="st0" d="M136,38.9h4.7l-2.1,3.1h-4.7L136,38.9z"/>
	</g>
	<g id="XMLID_2266_">
		<path id="XMLID_2289_" class="st0" d="M-20.6,90c-6.1,0-10.5-4.2-10.5-10s4.4-10,10.5-10c6.1,0,10.4,4.2,10.4,10
			C-10.2,85.8-14.5,90-20.6,90L-20.6,90z M-20.6,85.1c2.9,0,5-2.1,5-5.1c0-3-2.1-5.1-5-5.1c-2.9,0-5,2.2-5,5.1
			C-25.6,83-23.5,85.1-20.6,85.1L-20.6,85.1z"/>
		<path id="XMLID_2287_" class="st0" d="M4.6,84.7v4.8H-7.5v-19h5.3v14.2H4.6z"/>
		<path id="XMLID_2285_" class="st0" d="M14.9,82.1v7.4H9.5v-7.4L3,70.5h5.8l3.5,6.9l3.5-6.9h5.8L14.9,82.1z"/>
		<path id="XMLID_2283_" class="st0" d="M40.9,89.5l-1.5-10.9l-5,11h-1.5l-5-11l-1.5,10.9H21l2.9-19h5.2l4.5,10.3l4.5-10.3h5.2
			l2.8,19H40.9z"/>
		<path id="XMLID_2280_" class="st0" d="M63.8,77.4c0,4-3,6.9-7,6.9H54v5.2h-5.2v-19h8.1C60.8,70.5,63.8,73.4,63.8,77.4z M58.5,77.4
			c0-1.4-0.9-2.3-2.3-2.3H54v4.6h2.2C57.6,79.7,58.5,78.7,58.5,77.4z"/>
		<path id="XMLID_2278_" class="st0" d="M66.2,70.5h5.3v19h-5.3V70.5z"/>
		<path id="XMLID_2275_" class="st0" d="M86.8,86.4H80L79,89.5h-5.6l7.5-19h5.1l7.6,19h-5.8L86.8,86.4z M83.4,76.5l-2.1,5.9h4.2
			L83.4,76.5z"/>
		<path id="XMLID_2272_" class="st0" d="M112.9,80c0,5.5-4.1,9.5-9.8,9.5h-7.7v-19h7.7C108.8,70.5,112.9,74.5,112.9,80z M107.5,80
			c0-2.8-1.9-4.7-4.7-4.7h-2.2v9.4h2.2C105.7,84.7,107.5,82.8,107.5,80z"/>
		<path id="XMLID_2269_" class="st0" d="M126.2,86.4h-6.7l-1.1,3.1h-5.6l7.5-19h5.1l7.6,19h-5.8L126.2,86.4z M122.9,76.5l-2.1,5.9
			h4.2L122.9,76.5z"/>
		<path id="XMLID_2267_" class="st0" d="M83.4,65.9h4.7L85.9,69h-4.7L83.4,65.9z"/>
	</g>
</g>
</svg>
