<?xml version="1.0" encoding="utf-8"?>
<!-- Generator: Adobe Illustrator 19.0.0, SVG Export Plug-In . SVG Version: 6.00 Build 0)  -->
<svg version="1.1" id="Layer_1" xmlns="http://www.w3.org/2000/svg" xmlns:xlink="http://www.w3.org/1999/xlink" x="0px" y="0px"
	 viewBox="0 0 14 14" style="enable-background:new 0 0 14 14;" xml:space="preserve">
<style type="text/css">
	.st0{opacity:0.11;}
	.st1{clip-path:url(#XMLID_2_);}
	.st2{fill:#5F82C1;}
</style>
<g id="XMLID_7043_" class="st0">
	<defs>
		<rect id="XMLID_7044_" y="0" class="st0" width="14" height="14"/>
	</defs>
	<clipPath id="XMLID_2_">
		<use xlink:href="#XMLID_7044_"  style="overflow:visible;"/>
	</clipPath>
	<g id="XMLID_7045_" class="st1">
		<g id="XMLID_7058_" transform="matrix( 1, 0, 0, 1, 0,0) ">
			<g id="XMLID_7059_">
				<g id="a_1431_">
					<path id="XMLID_7060_" class="st2" d="M-1-0.7L-0.5-3l-3.5,3.5h2.9L-1.9,3l3.5-3.7H-1z"/>
				</g>
			</g>
		</g>
		<g id="XMLID_7055_" transform="matrix( 1, 0, 0, 1, 0,0) ">
			<g id="XMLID_7056_">
				<g id="a_1430_">
					<path id="XMLID_7057_" class="st2" d="M13,13.3l0.5-2.4l-3.5,3.5h2.9L12.1,17l3.5-3.7H13z"/>
				</g>
			</g>
		</g>
		<g id="XMLID_7052_" transform="matrix( 1, 0, 0, 1, 0,0) ">
			<g id="XMLID_7053_">
				<g id="a_1429_">
					<path id="XMLID_7054_" class="st2" d="M-1,13.3l0.5-2.4l-3.5,3.5h2.9L-1.9,17l3.5-3.7H-1z"/>
				</g>
			</g>
		</g>
		<g id="XMLID_7049_" transform="matrix( 1, 0, 0, 1, 0,0) ">
			<g id="XMLID_7050_">
				<g id="a_1428_">
					<path id="XMLID_7051_" class="st2" d="M13-0.7L13.5-3L9.9,0.5h2.9L12.1,3l3.5-3.7H13z"/>
				</g>
			</g>
		</g>
		<g id="XMLID_7046_" transform="matrix( 1, 0, 0, 1, 0,0) ">
			<g id="XMLID_7047_">
				<g id="a_1427_">
					<path id="XMLID_7048_" class="st2" d="M6,6.3L6.5,4L2.9,7.5h2.9L5.1,10l3.5-3.7H6z"/>
				</g>
			</g>
		</g>
	</g>
</g>
</svg>
