<?xml version="1.0" encoding="utf-8"?>
<!-- Generator: Adobe Illustrator 19.0.0, SVG Export Plug-In . SVG Version: 6.00 Build 0)  -->
<svg version="1.1" id="Layer_1" xmlns="http://www.w3.org/2000/svg" xmlns:xlink="http://www.w3.org/1999/xlink" x="0px" y="0px"
	 viewBox="0 0 200 196" style="enable-background:new 0 0 200 196;" xml:space="preserve">
<style type="text/css">
	.st0{fill:#2B4272;}
	.st1{fill:#FFFFFF;}
</style>
<g>
	<g transform="translate(-302.000000, -43.000000)">
		<g transform="translate(302.004929, 43.386742)">
			<path class="st0" d="M99.1,145.7h70.2c17,0,30.7-13.7,30.7-30.7V30.5c0-16.9-13.7-30.7-30.7-30.7H30.7C13.7-0.1,0,13.6,0,30.5
				v84.5c0,16.9,13.7,30.7,30.7,30.7h21.9v49.6L99.1,145.7z"/>
		</g>
	</g>
</g>
<g id="XMLID_4_">
	<path id="XMLID_5_" class="st1" d="M48.3,43.2h4.8l3.1,13.6L64,43.2h5l-3.6,20.3h-3.8L64,50.1l-7.7,13.3h-2.5l-3-13.1l-2.3,13.1
		h-3.9L48.3,43.2z"/>
	<path id="XMLID_7_" class="st1" d="M75.5,48.4L73.9,58c-0.3,1.8,0.5,2.5,1.7,2.5c1.1,0,2.5-0.7,3.6-1.5l1.9-10.6h3.8l-2.6,15.1
		h-3.6l0.3-1.6c-1.5,1.2-3.2,1.9-4.8,1.9c-2.7,0-4.8-1.7-4.1-5.6l1.7-9.7H75.5z"/>
	<path id="XMLID_9_" class="st1" d="M89.8,58.7c0.3,1.5,1.2,2.1,2.6,2.1c1.4,0,2.8-0.7,2.8-1.7c0-2.3-7.9-0.4-7.9-5.7
		c0-3,2.8-5.3,6.8-5.3c3.3,0,5.4,1.7,5.8,4.3l-3.7,0.8c-0.2-1.5-1.2-2.1-2.5-2.1c-1.3,0-2.6,0.6-2.6,1.7c0,2.3,7.9,0.5,7.9,5.7
		c0,3-2.9,5.3-7,5.3c-3.5,0-5.5-1.7-6-4.3L89.8,58.7z"/>
	<path id="XMLID_11_" class="st1" d="M104,48.4h3.9l-2.6,15.1h-3.9L104,48.4z M107.3,41.1l3.9,0.2l-4.1,5.5h-3.4L107.3,41.1z"/>
	<path id="XMLID_14_" class="st1" d="M111.6,48.4h3.6l-0.3,1.6c1.4-1.2,2.9-1.9,4.4-1.9c1.5,0,2.8,0.6,3.5,2.1
		c1.6-1.2,3.3-2.1,5.1-2.1c2.4,0,4.4,1.7,3.7,5.6l-1.7,9.7h-3.8l1.7-9.6c0.3-1.7-0.4-2.4-1.5-2.4c-0.9,0-2.2,0.6-3.1,1.5
		c0,0.3,0,0.5-0.1,0.8l-1.7,9.7h-3.9l1.7-9.6c0.3-1.7-0.4-2.4-1.5-2.4c-0.9,0-2.1,0.6-3.1,1.5l-1.9,10.6h-3.9L111.6,48.4z"/>
	<path id="XMLID_16_" class="st1" d="M137.5,57.1c0,2.6,1.4,3.5,2.6,3.5c1.4,0,2.6-0.7,3.5-2.1l3.5,0.8c-1.7,3-4.5,4.5-7.5,4.5
		c-3.2,0-5.9-2.3-5.9-6.4c0-5.7,4.5-9.3,8.6-9.3c3.3,0,7,2.3,5.5,9H137.5z M138.1,54.3h6.4c0-2-1-3-2.4-3
		C140.5,51.2,138.8,52.4,138.1,54.3z"/>
	<path id="XMLID_19_" class="st1" d="M25.7,83.2h3.6l-0.3,1.6c1.5-1.2,3.2-1.9,4.8-1.9c2.6,0,4.8,1.7,4.1,5.6l-1.7,9.7h-3.9l1.7-9.6
		c0.3-1.7-0.5-2.4-1.7-2.4c-1.1,0-2.5,0.6-3.6,1.5l-1.9,10.6h-3.9L25.7,83.2z"/>
	<path id="XMLID_21_" class="st1" d="M44,91.9c0,2.6,1.4,3.5,2.6,3.5c1.4,0,2.6-0.7,3.5-2.1l3.5,0.8c-1.7,3-4.5,4.5-7.5,4.5
		c-3.2,0-5.9-2.3-5.9-6.4c0-5.7,4.5-9.3,8.6-9.3c3.3,0,7,2.3,5.5,9H44z M44.6,76.4l3.1-0.5l1.7,3l2.8-3l3.1,0.5l-4.4,5.2h-3.6
		L44.6,76.4z M44.6,89.1h6.4c0-2-1-3-2.4-3C46.9,86,45.3,87.2,44.6,89.1z"/>
	<path id="XMLID_25_" class="st1" d="M65.1,82.9c3.2,0,5.4,1.8,5.8,5.2l-3.9,0.8c-0.2-1.9-1.2-2.7-2.3-2.7c-2.1,0-4.4,2.3-4.4,5.9
		c0,2,1,3.2,2.5,3.2c1.3,0,2.8-0.9,3.5-2.7l3.7,0.8c-1.4,3.4-4.5,5.2-7.7,5.2c-3.2,0-5.9-2.3-5.9-6.4C56.5,86.5,61,82.9,65.1,82.9z"
		/>
	<path id="XMLID_27_" class="st1" d="M80.8,82.9c3.2,0,6,2.3,6,6.4c0,5.6-4.7,9.3-8.8,9.3c-3.2,0-6-2.3-6-6.4
		C72,86.5,76.7,82.9,80.8,82.9z M78.4,95.2c2.1,0,4.4-2.3,4.4-5.9c0-2-1-3.1-2.5-3.1c-2.1,0-4.4,2.3-4.4,5.9
		C76,94.1,77,95.2,78.4,95.2z"/>
	<path id="XMLID_30_" class="st1" d="M96.3,95l8.4-8.4H98l0.6-3.3h11.6l-0.6,3.3l-8.4,8.4h6.9l-0.6,3.3H95.7L96.3,95z"/>
	<path id="XMLID_32_" class="st1" d="M112.8,83.2h3.6l-0.3,1.6c1.5-1.2,3.2-1.9,4.8-1.9c2.6,0,4.8,1.7,4.1,5.6l-1.7,9.7h-3.9
		l1.7-9.6c0.3-1.7-0.5-2.4-1.7-2.4c-1.1,0-2.5,0.6-3.6,1.5L114,98.3h-3.9L112.8,83.2z"/>
	<path id="XMLID_34_" class="st1" d="M134.9,82.9c1.5,0,2.8,0.5,4,1.5l0.2-1.2h3.6l-1.9,10.6c-0.3,1.7-0.3,2.9,0.1,4.4l-3.7,0.3
		c-0.2-0.6-0.2-1.3-0.2-1.9c-1.6,1.3-3.3,2.1-5,2.1c-2.5,0-4.8-2-4.8-6C127.2,86.4,131.3,82.9,134.9,82.9z M133.6,95.2
		c1,0,2.3-0.6,3.4-1.5l1.2-6.6c-0.9-0.6-1.7-0.9-2.7-0.9c-2.1,0-4.4,2-4.4,5.7C131.1,94.2,132.3,95.2,133.6,95.2z M137.6,75.9
		l3.9,0.2l-4.1,5.5H134L137.6,75.9z"/>
	<path id="XMLID_38_" class="st1" d="M145.2,83.2h2.4l0.7-3.8l3.9-0.5l-0.8,4.3h3.9l-0.6,3.3h-3.9l-1.1,6.5
		c-0.2,1.3,0.1,2.1,1.3,2.1c0.6,0,1.3-0.1,2.2-0.4l0.2,3.3c-1.5,0.4-2.5,0.6-3.5,0.6c-3.3,0-4.6-2.3-4-5.5l1.2-6.6h-2.4L145.2,83.2z
		"/>
	<path id="XMLID_40_" class="st1" d="M167.2,83.3c0-1.1-0.8-2.1-2.5-2.1c-2.2,0-3.8,1.7-3.6,4l-4,0.5c-0.4-4.8,3.4-8,8.2-8
		c3.7,0,6,2.2,6,5.1c0,5.2-6.1,5.3-6.7,8.9h-3.6C162.1,86.2,167.2,86.3,167.2,83.3z M162.5,94c1.1,0,1.9,0.8,1.9,1.9
		c0,1.5-1.3,2.6-2.7,2.6c-1.1,0-1.9-0.9-1.9-2C159.8,95.1,161.1,94,162.5,94z"/>
</g>
</svg>
