<?xml version="1.0" encoding="utf-8"?>
<!-- Generator: Adobe Illustrator 22.0.1, SVG Export Plug-In . SVG Version: 6.00 Build 0)  -->
<svg version="1.1" id="Layer_1" xmlns="http://www.w3.org/2000/svg" xmlns:xlink="http://www.w3.org/1999/xlink" x="0px" y="0px"
	 viewBox="0 0 49 30" style="enable-background:new 0 0 49 30;" xml:space="preserve">
<style type="text/css">
	.st0{fill:#FFFFFF;}
</style>
<g>
	<path class="st0" d="M47.9,0.2H23c-0.5,0-0.9,0.4-0.9,0.9v7.7c-0.7,0.3-1.3,0.5-2.1,0.6c-1.9,0.3-3.8,1.2-5.2,2.6l-0.1,0.1
		c-0.4,0.4-0.9,0.7-1.4,0.8v-0.2c0-0.5-0.4-0.9-0.9-0.9H1.8c-0.5,0-0.9,0.4-0.9,0.9s0.4,0.9,0.9,0.9h9.7v10.2H1.8
		c-0.5,0-0.9,0.4-0.9,0.9c0,0.5,0.4,0.9,0.9,0.9h10.6c0.5,0,0.9-0.4,0.9-0.9V24h0.6c0.6,0,1.3,0.2,1.8,0.5c0.6,0.4,1.3,0.6,2.1,0.7
		l1.7,0.2c0.9,0.1,1.7,0.2,2.6,0.2v3.4c0,0.5,0.4,0.9,0.9,0.9h24.9c0.5,0,0.9-0.4,0.9-0.9v-28C48.8,0.6,48.4,0.2,47.9,0.2z
		 M13.3,14.8c1-0.2,2-0.7,2.7-1.4l0.1-0.1c1.1-1.1,2.6-1.9,4.1-2.1c1.3-0.2,2.5-0.6,3.6-1.3l1.1-0.7c0.7-0.4,1.2-0.9,1.8-1.5
		l1.1-1.3c0.1-0.1,0.2-0.1,0.3-0.1c0.1,0,0.1,0,0.2,0c0.2,0.1,0.3,0.3,0.2,0.5c-0.4,1.6-1.3,2.9-2.7,3.8c-0.6,0.4-1,0.9-1.2,1.6
		c-0.3,1.2-1.4,4.2-4,5.5c-0.5,0.2-0.6,0.8-0.4,1.2c0.2,0.3,0.5,0.5,0.8,0.5c0.1,0,0.3,0,0.4-0.1c0.2-0.1,0.4-0.2,0.7-0.4v4.9
		c-0.8,0-1.6-0.1-2.4-0.2L18,23.4c-0.5-0.1-0.9-0.2-1.4-0.5c-0.8-0.5-1.8-0.8-2.8-0.8h-0.6V14.8z M23.9,17.4
		c1.5-1.7,2.2-3.7,2.5-4.7c0.1-0.2,0.2-0.4,0.4-0.6c1.7-1.1,3-2.9,3.5-4.9C30.5,6.1,30,5.1,29,4.6c-0.3-0.1-0.6-0.2-0.9-0.2
		c-0.6,0-1.2,0.3-1.7,0.8l-1.1,1.3c-0.4,0.5-0.9,0.9-1.4,1.2l-0.1,0V2H47v26.2H23.9V17.4z"/>
	<path class="st0" d="M42.9,12.3H28.9c-0.5,0-0.9,0.4-0.9,0.9c0,0.5,0.4,0.9,0.9,0.9h14.1c0.5,0,0.9-0.4,0.9-0.9
		C43.8,12.7,43.4,12.3,42.9,12.3z"/>
	<path class="st0" d="M39.8,18.6c0.5,0,0.9-0.4,0.9-0.9c0-0.5-0.4-0.9-0.9-0.9H32c-0.5,0-0.9,0.4-0.9,0.9c0,0.5,0.4,0.9,0.9,0.9
		H39.8z"/>
	<path class="st0" d="M42.9,21.3H28.9c-0.5,0-0.9,0.4-0.9,0.9c0,0.5,0.4,0.9,0.9,0.9h14.1c0.5,0,0.9-0.4,0.9-0.9
		C43.8,21.7,43.4,21.3,42.9,21.3z"/>
	<path class="st0" d="M3.8,23.1c1.2,0,2.2-1,2.2-2.2c0-1.2-1-2.2-2.2-2.2s-2.2,1-2.2,2.2C1.7,22.1,2.6,23.1,3.8,23.1z M3.8,21.3
		c-0.2,0-0.4-0.2-0.4-0.4c0-0.2,0.2-0.4,0.4-0.4c0.2,0,0.4,0.2,0.4,0.4C4.2,21.1,4,21.3,3.8,21.3z"/>
	<path class="st0" d="M10.7,20.9c0-1.2-1-2.2-2.2-2.2s-2.2,1-2.2,2.2c0,1.2,1,2.2,2.2,2.2S10.7,22.1,10.7,20.9z M8.2,20.9
		c0-0.2,0.2-0.4,0.4-0.4c0.2,0,0.4,0.2,0.4,0.4c0,0.2-0.2,0.4-0.4,0.4C8.4,21.3,8.2,21.1,8.2,20.9z"/>
</g>
</svg>
