<?xml version="1.0" encoding="utf-8"?>
<!-- Generator: Adobe Illustrator 22.0.1, SVG Export Plug-In . SVG Version: 6.00 Build 0)  -->
<svg version="1.1" id="Layer_1" xmlns="http://www.w3.org/2000/svg" xmlns:xlink="http://www.w3.org/1999/xlink" x="0px" y="0px"
	 viewBox="0 0 200 200" style="enable-background:new 0 0 200 200;" xml:space="preserve">
<style type="text/css">
	.st0{opacity:0.19;}
</style>
<g transform="translate(0,-952.36218)" class="st0">
	<path d="M100,952.4c-55.2,0-100,44.8-100,100c0,55.2,44.8,100,100,100s100-44.8,100-100C200,997.2,155.2,952.4,100,952.4z
		 M100,961.5c17.7,0,34.2,5.1,48.2,13.8l-18.3,18.4c-9-4.6-19.1-7.2-29.8-7.2s-20.9,2.6-29.8,7.2l-18.3-18.4
		C65.8,966.5,82.3,961.5,100,961.5z M44.2,980.6l17.9,17.8c-6.2,4.4-11.7,9.8-16.1,16.1l-17.9-17.8
		C32.8,990.6,38.3,985.2,44.2,980.6z M155.8,980.6c6,4.7,11.4,10.1,16.1,16.1l-17.9,17.8c-4.4-6.2-9.8-11.7-16.1-16.1L155.8,980.6z
		 M100,995.5c31.4,0,56.8,25.4,56.8,56.8c0,31.4-25.4,56.8-56.8,56.8s-56.8-25.4-56.8-56.8C43.2,1020.9,68.6,995.5,100,995.5z
		 M22.9,1004.1l18.4,18.4c-4.6,9-7.2,19.1-7.2,29.8s2.6,20.9,7.2,29.8l-18.4,18.4c-8.7-14-13.8-30.5-13.8-48.2
		S14.1,1018.1,22.9,1004.1z M177.1,1004.1c8.7,14,13.8,30.5,13.8,48.2s-5,34.3-13.8,48.2l-18.4-18.4c4.6-9,7.2-19.1,7.2-29.8
		s-2.6-20.9-7.2-29.8L177.1,1004.1z M46.1,1090.3c4.4,6.2,9.8,11.7,16.1,16.1l-17.9,17.8c-6-4.7-11.4-10.1-16.1-16.1L46.1,1090.3z
		 M153.9,1090.3l17.9,17.8c-4.7,6-10.1,11.4-16.1,16.1l-17.9-17.8C144.1,1102,149.5,1096.5,153.9,1090.3z M70.2,1111.1
		c9,4.6,19.1,7.2,29.8,7.2s20.9-2.6,29.8-7.2l18.3,18.4c-14,8.7-30.5,13.8-48.2,13.8s-34.2-5.1-48.2-13.8L70.2,1111.1z"/>
</g>
</svg>
