<?xml version="1.0" encoding="utf-8"?>
<!-- Generator: Adobe Illustrator 22.0.1, SVG Export Plug-In . SVG Version: 6.00 Build 0)  -->
<svg version="1.1" id="Layer_1" xmlns="http://www.w3.org/2000/svg" xmlns:xlink="http://www.w3.org/1999/xlink" x="0px" y="0px"
	 viewBox="0 0 64 64" style="enable-background:new 0 0 64 64;" xml:space="preserve">
<style type="text/css">
	.st0{fill:#FFFFFF;}
	.st1{fill:#FF0000;}
</style>
<circle class="st0" cx="32" cy="32" r="32"/>
<path class="st0" d="M31.9,3.2C16.2,3.2,3.5,15.9,3.5,31.6c0,15.7,12.7,28.5,28.5,28.5c15.7,0,28.5-12.7,28.5-28.5
	C60.4,15.9,47.7,3.2,31.9,3.2z M31.9,49.8c-10,0-18.2-8.1-18.2-18.2c0-10,8.1-18.2,18.2-18.2c10,0,18.2,8.1,18.2,18.2
	C50.1,41.6,42,49.8,31.9,49.8z"/>
<polygon class="st1" points="47.7,41.5 55,47.8 49.5,54.3 41.5,47.9 "/>
<polygon class="st1" points="48.3,9.4 55,16.4 48.8,22.3 41.5,15.1 "/>
<polygon class="st1" points="14.5,42.1 21.8,48.5 16.3,54.9 8.3,48.5 "/>
<polygon class="st1" points="15.8,9.4 22.4,16.4 16.2,22.3 9,15.1 "/>
<g transform="translate(0,-952.36218)">
	<path d="M32,954.6c-16.4,0-29.7,13.3-29.7,29.7c0,16.4,13.3,29.7,29.7,29.7s29.7-13.3,29.7-29.7C61.7,967.9,48.4,954.6,32,954.6z
		 M32,957.3c5.3,0,10.2,1.5,14.3,4.1l-5.5,5.5c-2.7-1.4-5.7-2.1-8.9-2.1s-6.2,0.8-8.9,2.1l-5.5-5.5C21.8,958.8,26.7,957.3,32,957.3z
		 M15.4,963l5.3,5.3c-1.9,1.3-3.5,2.9-4.8,4.8l-5.3-5.3C12,966,13.6,964.4,15.4,963z M48.6,963c1.8,1.4,3.4,3,4.8,4.8l-5.3,5.3
		c-1.3-1.9-2.9-3.5-4.8-4.8L48.6,963z M32,967.5c9.4,0,16.9,7.6,16.9,16.9s-7.6,16.9-16.9,16.9s-16.9-7.6-16.9-16.9
		S22.6,967.5,32,967.5z M9.1,970l5.5,5.5c-1.4,2.7-2.1,5.7-2.1,8.9s0.8,6.2,2.1,8.9l-5.5,5.5c-2.6-4.2-4.1-9.1-4.1-14.3
		S6.5,974.2,9.1,970z M54.9,970c2.6,4.2,4.1,9.1,4.1,14.3s-1.5,10.2-4.1,14.3l-5.5-5.5c1.4-2.7,2.1-5.7,2.1-8.9s-0.8-6.2-2.1-8.9
		L54.9,970z M16,995.6c1.3,1.9,2.9,3.5,4.8,4.8l-5.3,5.3c-1.8-1.4-3.4-3-4.8-4.8L16,995.6z M48,995.6l5.3,5.3
		c-1.4,1.8-3,3.4-4.8,4.8l-5.3-5.3C45.1,999.1,46.7,997.5,48,995.6z M23.1,1001.8c2.7,1.4,5.7,2.1,8.9,2.1s6.2-0.8,8.9-2.1l5.5,5.5
		c-4.2,2.6-9.1,4.1-14.3,4.1s-10.2-1.5-14.3-4.1L23.1,1001.8z"/>
</g>
<g>
	<path d="M34.4,28.2c0-1.1-0.8-2.1-2.4-2.1c-1.8,0-2.9,1.4-2.4,3.4l-3.6,0.5c-0.9-4.3,1.8-7.1,6.1-7.1c3.7,0,6.2,2.3,6.2,5.2
		c0,4.3-4.6,4-4.6,7.1h-3.3C30.4,30.5,34.4,30.8,34.4,28.2z M32,37c1.1,0,2.1,1,2.1,2.1c0,1.2-1,2.1-2.1,2.1c-1.2,0-2.1-1-2.1-2.1
		C29.9,38,30.9,37,32,37z"/>
</g>
</svg>
