<?xml version="1.0" encoding="utf-8"?>
<!-- Generator: Adobe Illustrator 24.0.0, SVG Export Plug-In . SVG Version: 6.00 Build 0)  -->
<svg version="1.1" xmlns="http://www.w3.org/2000/svg" xmlns:xlink="http://www.w3.org/1999/xlink" x="0px" y="0px"
	 viewBox="0 0 42 64" style="enable-background:new 0 0 42 64;" xml:space="preserve">
<style type="text/css">
	.st0{display:none;}
	.st1{display:inline;fill:#FFFFFF;}
	.st2{display:inline;}
	.st3{fill:#4A5AA8;}
	.st4{fill:#FFFFFF;}
	.st5{fill:#7F7F7F;}
	.st6{fill-rule:evenodd;clip-rule:evenodd;fill:#4A5AA8;}
	.st7{fill:#4F97D3;}
	.st8{display:inline;fill:none;}
	.st9{font-family:'FrontageCondensed-Regular';}
	.st10{font-size:8.1px;}
	.st11{fill-rule:evenodd;clip-rule:evenodd;fill:#4F97D3;}
</style>
<g id="still">
	<g class="st0">
		<circle class="st1" cx="21" cy="21" r="20.5"/>
		<g class="st2">
			<path class="st3" d="M21,1c11,0,20,9,20,20s-9,20-20,20S1,32,1,21S10,1,21,1 M21,0C9.4,0,0,9.4,0,21s9.4,21,21,21s21-9.4,21-21
				S32.6,0,21,0L21,0z"/>
		</g>
	</g>
	<g class="st0">
		<g id="XMLID_2325_" transform="matrix( 1, 0, 0, 1, 0,0) " class="st2">
			<g id="XMLID_2326_">
				<g id="a_35_">
					<path id="XMLID_2327_" class="st3" d="M21.5,18.8l1.6-8.4L10.6,23h10.5l-2.6,9.1L31,18.8H21.5z"/>
				</g>
			</g>
		</g>
	</g>
	<g>
		<circle class="st4" cx="21" cy="21" r="20.5"/>
		<g>
			<path class="st3" d="M21,1c11,0,20,9,20,20s-9,20-20,20S1,32,1,21S10,1,21,1 M21,0C9.4,0,0,9.4,0,21s9.4,21,21,21s21-9.4,21-21
				S32.6,0,21,0L21,0z"/>
		</g>
	</g>
	<g>
		<path class="st5" d="M4,49.7h0.6v5.8H4V49.7z"/>
		<path class="st5" d="M6.7,49.7h0.5l1.3,3.8v-3.8h0.6v5.8H8.6l-1.3-3.7v3.7H6.7V49.7z"/>
		<path class="st5" d="M11.2,49.7h2.2v0.6h-1.5v2h1.2V53h-1.2v2.6h-0.6V49.7z"/>
		<path class="st5" d="M14.9,54.5v-3.7c0-0.7,0.5-1.2,1.2-1.2s1.2,0.5,1.2,1.2v3.7c0,0.7-0.5,1.2-1.2,1.2S14.9,55.2,14.9,54.5z
			 M16.6,54.6v-3.9c0-0.3-0.2-0.5-0.5-0.5s-0.5,0.2-0.5,0.5v3.9c0,0.3,0.2,0.5,0.5,0.5S16.6,54.9,16.6,54.6z"/>
		<path class="st5" d="M19.2,49.7h1.2c0.7,0,1.2,0.5,1.2,1.2v1.2c0,0.5-0.2,0.9-0.6,1.1l0.7,2.4H21l-0.7-2.3h-0.4v2.3h-0.6V49.7z
			 M20.4,52.7c0.3,0,0.5-0.2,0.5-0.5v-1.3c0-0.3-0.2-0.5-0.5-0.5h-0.5v2.4H20.4z"/>
		<path class="st5" d="M23.5,49.7h0.5l1,2.8l1-2.8h0.5v5.8H26v-3.7l-0.9,2.4h0l-0.9-2.4v3.7h-0.6V49.7z"/>
		<path class="st5" d="M29,49.7h1.1l0.8,5.8h-0.6l-0.2-1.4H29l-0.2,1.4h-0.6L29,49.7z M30,53.6l-0.4-3.3h-0.1l-0.4,3.3H30z"/>
		<path class="st5" d="M32.3,54.5v-3.7c0-0.7,0.5-1.2,1.2-1.2c0.7,0,1.2,0.5,1.2,1.2v0.6H34v-0.6c0-0.3-0.2-0.5-0.5-0.5
			c-0.3,0-0.5,0.2-0.5,0.5v3.9c0,0.3,0.2,0.5,0.5,0.5c0.3,0,0.5-0.2,0.5-0.5V54h0.6v0.6c0,0.7-0.5,1.2-1.2,1.2
			C32.8,55.7,32.3,55.2,32.3,54.5z"/>
		<path class="st5" d="M36.5,49.7h2.2v0.6h-1.5v2h1.2V53h-1.2v2h1.5v0.6h-2.2V49.7z"/>
	</g>
	<g>
		<path class="st6" d="M13.2,23.2c-1.8,1.2-4-1.3-2.4-3l8.8-8.9c0.8-0.7,2-0.7,2.7,0l8.9,8.9c1.7,1.7-0.7,4.2-2.4,3v8h-5.5v-7.3
			h-4.7v7.3h-5.4V23.2z"/>
	</g>
</g>
<g id="hover" class="st0">
	<g class="st2">
		<circle class="st4" cx="21" cy="21" r="20.5"/>
		<g>
			<path class="st7" d="M21,1c11,0,20,9,20,20s-9,20-20,20S1,32,1,21S10,1,21,1 M21,0C9.4,0,0,9.4,0,21s9.4,21,21,21s21-9.4,21-21
				S32.6,0,21,0L21,0z"/>
		</g>
	</g>
	<rect x="0" y="49.6" class="st8" width="41.9" height="14.2"/>
	<text transform="matrix(1 0 0 1 2.4639 55.7458)" class="st2 st9 st10">informace</text>
	<g class="st2">
		<path class="st7" d="M29,13.6c-4.2-4.2-11-4.3-15.4-0.4l-1.2-1.2c-0.4-0.4-1-0.2-1.2,0.3L10,17.9c-0.1,0.5,0.3,1,0.8,0.8l5.5-1.3
			c0.5-0.1,0.7-0.8,0.3-1.2L15.4,15c3.5-3,8.7-2.9,12,0.4c3.4,3.4,3.4,9,0,12.4L27,28.1c-0.5,0.4-0.5,1.2-0.1,1.7
			c0.2,0.3,0.6,0.4,0.9,0.4c0.3,0,0.6-0.1,0.8-0.3c0.1-0.1,0.3-0.3,0.4-0.4C33.3,25.1,33.3,18,29,13.6z"/>
		<path class="st7" d="M23.8,29.9L23.4,30c-0.6,0.2-1,0.8-0.8,1.5c0.1,0.5,0.6,0.9,1.2,0.9c0.1,0,0.2,0,0.3,0c0.2,0,0.4-0.1,0.6-0.2
			c0.6-0.2,1-0.9,0.8-1.5C25.1,30,24.5,29.7,23.8,29.9z"/>
		<path class="st7" d="M19.8,30.3l-0.5-0.1c-0.7-0.1-1.3,0.3-1.4,0.9c-0.1,0.7,0.3,1.3,0.9,1.4c0.2,0,0.4,0.1,0.6,0.1
			c0,0,0.1,0,0.2,0c0.6,0,1.1-0.4,1.2-1C20.9,31,20.4,30.3,19.8,30.3z"/>
		<path class="st7" d="M15.7,28.5c-0.5-0.4-1.3-0.3-1.7,0.2c-0.4,0.5-0.3,1.3,0.2,1.7c0.2,0.1,0.3,0.2,0.5,0.4
			c0.2,0.1,0.4,0.2,0.7,0.2c0.4,0,0.8-0.2,1-0.5c0.4-0.5,0.3-1.3-0.3-1.7L15.7,28.5z"/>
		<path class="st7" d="M13.1,25.3c-0.3-0.6-1-0.9-1.6-0.6c-0.6,0.3-0.9,1-0.6,1.6c0.1,0.2,0.2,0.4,0.3,0.5c0.2,0.4,0.6,0.6,1.1,0.6
			c0.2,0,0.4,0,0.6-0.1c0.6-0.3,0.8-1,0.5-1.6L13.1,25.3z"/>
		<path class="st7" d="M25,22.6l-2.7-1.8v-4.4c0-0.7-0.5-1.2-1.2-1.2c-0.7,0-1.2,0.5-1.2,1.2v5c0,0.4,0.2,0.8,0.6,1l3.3,2.1
			c0.2,0.1,0.4,0.2,0.6,0.2c0.4,0,0.8-0.2,1-0.6C25.7,23.7,25.6,23,25,22.6z"/>
	</g>
	<g class="st2">
		<path class="st11" d="M13.2,23.2c-1.8,1.2-4-1.3-2.4-3l8.8-8.9c0.8-0.7,2-0.7,2.7,0l8.9,8.9c1.7,1.7-0.7,4.2-2.4,3v8h-5.5v-7.3
			h-4.7v7.3h-5.4V23.2z"/>
	</g>
</g>
</svg>
