<?xml version="1.0" encoding="utf-8"?>
<!-- Generator: Adobe Illustrator 24.0.0, SVG Export Plug-In . SVG Version: 6.00 Build 0)  -->
<svg version="1.1" id="Layer_1" xmlns="http://www.w3.org/2000/svg" xmlns:xlink="http://www.w3.org/1999/xlink" x="0px" y="0px"
	 viewBox="0 0 42 64" style="enable-background:new 0 0 42 64;" xml:space="preserve">
<style type="text/css">
	.st0{display:none;}
	.st1{display:inline;fill:#FFFFFF;}
	.st2{display:inline;}
	.st3{fill:#4A5AA8;}
	.st4{display:inline;fill:#7F7F7F;}
	.st5{fill:#FFFFFF;}
	.st6{fill:#7F7F7F;}
	.st7{fill:#4F97D3;}
	.st8{display:inline;fill:#4F97D3;}
</style>
<g class="st0">
	<circle class="st1" cx="21" cy="21" r="20.5"/>
	<g class="st2">
		<path class="st3" d="M21,1c11,0,20,9,20,20s-9,20-20,20S1,32,1,21S10,1,21,1 M21,0C9.4,0,0,9.4,0,21s9.4,21,21,21s21-9.4,21-21
			S32.6,0,21,0L21,0z"/>
	</g>
</g>
<g class="st0">
	<g id="XMLID_2325_" transform="matrix( 1, 0, 0, 1, 0,0) " class="st2">
		<g id="XMLID_2326_">
			<g id="a_35_">
				<path id="XMLID_2327_" class="st3" d="M21.5,18.8l1.6-8.4L10.6,23h10.5l-2.6,9.1L31,18.8H21.5z"/>
			</g>
		</g>
	</g>
</g>
<g class="st0">
	<path class="st4" d="M1.7,49.8h2.2v0.6H2.3v2h1.2V53H2.3v2h1.5v0.6H1.7V49.8z"/>
	<path class="st4" d="M5.4,49.8h0.5l1.3,3.7v-3.7h0.6v5.8H7.3L6,51.8v3.7H5.4V49.8z"/>
	<path class="st4" d="M9.6,49.8h2.2v0.6h-1.5v2h1.2V53h-1.2v2h1.5v0.6H9.6V49.8z"/>
	<path class="st4" d="M13.3,49.8h1.2c0.7,0,1.2,0.5,1.2,1.2v1.2c0,0.5-0.2,0.9-0.6,1l0.7,2.4h-0.7l-0.7-2.2H14v2.2h-0.6L13.3,49.8
		L13.3,49.8z M14.5,52.7c0.3,0,0.5-0.2,0.5-0.5v-1.3c0-0.3-0.2-0.5-0.5-0.5H14v2.4h0.5V52.7z"/>
	<path class="st4" d="M17.3,54.5v-3.7c0-0.7,0.5-1.2,1.2-1.2s1.2,0.5,1.2,1.2v0.6H19v-0.6c0-0.3-0.2-0.5-0.5-0.5S18,50.4,18,50.7
		v3.8c0,0.3,0.2,0.5,0.5,0.5s0.5-0.2,0.5-0.5v-1.2h-0.4v-0.6h1v1.8c0,0.7-0.5,1.2-1.2,1.2S17.3,55.2,17.3,54.5z"/>
	<path class="st4" d="M21.4,49.8h2.2v0.6H22v2h1.2V53H22v2h1.5v0.6h-2.2v-5.8H21.4z"/>
	<path class="st4" d="M25.7,50.3h-1.1v-0.6h2.8v0.6h-1.1v5.2h-0.6C25.7,55.5,25.7,50.3,25.7,50.3z"/>
	<path class="st4" d="M28.8,49.8h0.6v5.8h-0.6V49.8z"/>
	<path class="st4" d="M31.1,54.5v-3.7c0-0.7,0.5-1.2,1.2-1.2c0.7,0,1.2,0.5,1.2,1.2v0.6h-0.6v-0.6c0-0.3-0.2-0.5-0.5-0.5
		s-0.5,0.2-0.5,0.5v3.8c0,0.3,0.2,0.5,0.5,0.5s0.5-0.2,0.5-0.5V54h0.6v0.6c0,0.7-0.5,1.2-1.2,1.2S31.1,55.2,31.1,54.5z"/>
	<path class="st4" d="M35,49.8h0.6v2.4l1.1-2.4h0.7l-1,2.2l1.1,3.6h-0.7L36,52.8l-0.4,0.9v1.8H35V49.8z"/>
	<path class="st4" d="M39.2,49.8h1.1l0.8,5.8h-0.6l-0.2-1.4h-1.1L39,55.5h-0.6L39.2,49.8z M40.2,53.6l-0.4-3.2h-0.1l-0.4,3.2H40.2z
		 M39.7,48.5h0.5l-0.4,0.7h-0.4L39.7,48.5z"/>
	<path class="st4" d="M2.1,62.5v-3.7c0-0.7,0.5-1.2,1.2-1.2s1.2,0.5,1.2,1.2v0.6H3.7v-0.6c0-0.3-0.2-0.5-0.5-0.5s-0.5,0.2-0.5,0.5
		v3.8c0,0.3,0.2,0.5,0.5,0.5s0.5-0.2,0.5-0.5v-1.2H3.3v-0.6h1v1.8c0,0.7-0.5,1.2-1.2,1.2S2.1,63.2,2.1,62.5z"/>
	<path class="st4" d="M6.1,57.8h1.2c0.7,0,1.2,0.5,1.2,1.2v1.2c0,0.5-0.2,0.9-0.6,1l0.7,2.4H7.8l-0.7-2.2H6.7v2.2H6.1V57.8z
		 M7.3,60.7c0.3,0,0.5-0.2,0.5-0.5v-1.3c0-0.3-0.2-0.5-0.5-0.5H6.7v2.4h0.6C7.3,60.8,7.3,60.7,7.3,60.7z"/>
	<path class="st4" d="M10.5,57.8h1.1l0.8,5.8h-0.6l-0.2-1.4h-1.1l-0.2,1.4H9.7L10.5,57.8z M11.5,61.6l-0.4-3.2H11l-0.4,3.2H11.5z"/>
	<path class="st4" d="M13.8,57.8h0.5l1,2.8l1-2.8h0.5v5.8h-0.6v-3.7l-0.8,2.4l0,0l-0.8-2.4v3.7H14v-5.8H13.8z"/>
	<path class="st4" d="M18.5,62.5v-3.7c0-0.7,0.5-1.2,1.2-1.2s1.2,0.5,1.2,1.2v3.7c0,0.7-0.5,1.2-1.2,1.2S18.5,63.2,18.5,62.5z
		 M20.2,62.5v-3.8c0-0.3-0.2-0.5-0.5-0.5s-0.5,0.2-0.5,0.5v3.8c0,0.3,0.2,0.5,0.5,0.5S20.2,62.8,20.2,62.5z"/>
	<path class="st4" d="M23.1,58.3H22v-0.6h2.8v0.6h-1.1v5.2h-0.6C23.1,63.5,23.1,58.3,23.1,58.3z"/>
	<path class="st4" d="M26.2,57.8h0.5l1.3,3.7v-3.7h0.6v5.8h-0.5l-1.3-3.7v3.7h-0.6V57.8z"/>
	<path class="st4" d="M30.4,62.5v-3.7c0-0.7,0.5-1.2,1.2-1.2c0.7,0,1.2,0.5,1.2,1.2v3.7c0,0.7-0.5,1.2-1.2,1.2S30.4,63.2,30.4,62.5z
		 M32.1,62.5v-3.8c0-0.3-0.2-0.5-0.5-0.5S31,58.4,31,58.7v3.8c0,0.3,0.2,0.5,0.5,0.5S32.1,62.8,32.1,62.5z"/>
	<path class="st4" d="M34.3,62.5v-0.6h0.6v0.6c0,0.3,0.2,0.5,0.5,0.5s0.5-0.2,0.5-0.5V62c0-1.1-1.7-1.4-1.7-2.8v-0.5
		c0-0.7,0.5-1.2,1.2-1.2s1.2,0.5,1.2,1.2v0.6H36v-0.6c0-0.3-0.2-0.5-0.5-0.5S35,58.4,35,58.7v0.5c0,1.1,1.7,1.4,1.7,2.8v0.5
		c0,0.7-0.5,1.2-1.2,1.2S34.3,63.2,34.3,62.5z"/>
	<path class="st4" d="M38.9,58.3h-1.1v-0.6h2.8v0.6h-1.1v5.2h-0.6C38.9,63.5,38.9,58.3,38.9,58.3z"/>
</g>
<g>
	<circle class="st5" cx="21" cy="21" r="20.5"/>
	<g>
		<path class="st3" d="M21,1c11,0,20,9,20,20s-9,20-20,20S1,32,1,21S10,1,21,1 M21,0C9.4,0,0,9.4,0,21s9.4,21,21,21s21-9.4,21-21
			S32.6,0,21,0L21,0z"/>
	</g>
</g>
<g>
	<path class="st6" d="M5.6,49.7h1.1l0.8,5.8H6.8l-0.2-1.4h-1l-0.2,1.4H4.7L5.6,49.7z M6.6,53.6l-0.4-3.3H6.1l-0.4,3.3H6.6z"/>
	<path class="st6" d="M9,49.7h0.6v2.4l1.1-2.4h0.7l-1,2.2l1.1,3.6h-0.7L10,52.8l-0.4,0.9v1.8H9V49.7z"/>
	<path class="st6" d="M13.7,50.3h-1.1v-0.6h2.8v0.6h-1.1v5.2h-0.6C13.7,55.5,13.7,50.3,13.7,50.3z"/>
	<path class="st6" d="M17,54.5v-4.8h0.6v4.8c0,0.3,0.2,0.5,0.5,0.5s0.5-0.2,0.5-0.5v-4.8h0.6v4.8c0,0.7-0.5,1.2-1.2,1.2
		S17,55.2,17,54.5z"/>
	<path class="st6" d="M21.6,49.7h1.1l0.8,5.8h-0.6l-0.2-1.4h-1.1l-0.2,1.4h-0.6L21.6,49.7z M22.6,53.6l-0.4-3.3h-0.1l-0.4,3.3H22.6z
		"/>
	<path class="st6" d="M25.1,49.7h0.6V55h1.4v0.6h-2V49.7z"/>
	<path class="st6" d="M28.6,49.7h0.6v5.8h-0.6V49.7z"/>
	<path class="st6" d="M31.9,50.3h-1.1v-0.6h2.8v0.6h-1.1v5.2h-0.6V50.3z"/>
	<path class="st6" d="M35.9,52.9l-1.2-3.2h0.7l0.8,2.2l0.8-2.2h0.7l-1.2,3.2v2.7h-0.6V52.9z"/>
</g>
<path class="st3" d="M22,31.6L22,31.6c-0.4,1.1-1.6,1.7-2.5,1.3c-1-0.4-1.5-1.4-1.2-2.3C19.7,30.9,20.9,31.3,22,31.6z M19.1,29.2
	c-0.2-0.1-0.4-0.1-0.6-0.2c-8.3-3-6.7-5.1-5.2-5.7c1.7-0.8,2.7-3.3,4.4-7.8c0.9-2.5,2.9-3.1,4.5-3c0-0.2,0.1-0.4,0.1-0.6
	c0.4-1.1,1.7-1.7,2.7-1.3c1.1,0.4,1.7,1.7,1.3,2.7c-0.1,0.2-0.2,0.3-0.3,0.5c1.3,1,2.6,2.7,1.7,5.4c-1.7,4.5-2.4,7.2-1.7,8.8
	c0.7,1.4,0.7,3.4-4.4,2.1l0,0c-0.2,0-0.4-0.1-0.6-0.2l0,0C20.6,29.7,19.9,29.5,19.1,29.2C19.2,29.2,19.2,29.2,19.1,29.2z M23.5,12.5
	c0.6,0.1,1,0.2,1,0.2s0.3,0.1,0.7,0.3c0.1-0.1,0.1-0.2,0.1-0.2c0.2-0.5-0.1-1.1-0.6-1.2c-0.5-0.2-1.1,0.1-1.2,0.6
	C23.6,12.3,23.5,12.4,23.5,12.5z M23,14c-0.1-0.1-0.1-0.2-0.2-0.2c-0.3,0-0.6,0-1,0c-1.4,0.1-2.1,0.8-2.6,2
	c-1.7,4.6-2.9,7.6-5.1,8.6c-0.2,0.1-0.3,0.2-0.4,0.3c0.1,0.1,0.3,0.4,0.9,0.8c0.2-0.3,0.7-0.6,1.1-0.8c1.7-0.8,2.7-3.3,4.4-7.8
	C20.6,15.1,21.8,14.3,23,14z M21.7,34c-0.2,0.1,0.3,2.2,0.5,2.6c0.1,0.4,0.2,0.7,0.6,0.6c0.4-0.1,0.3-0.5,0.1-0.9
	C22.7,35.9,21.9,33.9,21.7,34z M19.5,34.3c-0.2-0.1-0.9,1.4-1.1,1.7c-0.1,0.3-0.2,0.5,0.1,0.6c0.3,0.1,0.4-0.1,0.5-0.4
	C19.1,35.9,19.6,34.4,19.5,34.3z M24.9,33.8C24.6,33.7,23,33,23,33.2c-0.1,0.2,1.4,1,1.7,1.2c0.3,0.1,0.5,0.3,0.6,0
	C25.4,34,25.2,33.9,24.9,33.8z"/>
<g id="hover" class="st0">
	<g class="st2">
		<circle class="st5" cx="21" cy="21" r="20.5"/>
		<g>
			<path class="st7" d="M21,1c11,0,20,9,20,20s-9,20-20,20S1,32,1,21S10,1,21,1 M21,0C9.4,0,0,9.4,0,21s9.4,21,21,21s21-9.4,21-21
				S32.6,0,21,0L21,0z"/>
		</g>
	</g>
	<g class="st2">
		<path d="M5.6,49.7h1.1l0.8,5.8H6.8l-0.2-1.4h-1l-0.2,1.4H4.7L5.6,49.7z M6.6,53.6l-0.4-3.3H6.1l-0.4,3.3H6.6z"/>
		<path d="M9,49.7h0.6v2.4l1.1-2.4h0.7l-1,2.2l1.1,3.6h-0.7L10,52.8l-0.4,0.9v1.8H9V49.7z"/>
		<path d="M13.7,50.3h-1.1v-0.6h2.8v0.6h-1.1v5.2h-0.6C13.7,55.5,13.7,50.3,13.7,50.3z"/>
		<path d="M17,54.5v-4.8h0.6v4.8c0,0.3,0.2,0.5,0.5,0.5s0.5-0.2,0.5-0.5v-4.8h0.6v4.8c0,0.7-0.5,1.2-1.2,1.2S17,55.2,17,54.5z"/>
		<path d="M21.6,49.7h1.1l0.8,5.8h-0.6l-0.2-1.4h-1.1l-0.2,1.4h-0.6L21.6,49.7z M22.6,53.6l-0.4-3.3h-0.1l-0.4,3.3H22.6z"/>
		<path d="M25.1,49.7h0.6V55h1.4v0.6h-2V49.7z"/>
		<path d="M28.6,49.7h0.6v5.8h-0.6V49.7z"/>
		<path d="M31.9,50.3h-1.1v-0.6h2.8v0.6h-1.1v5.2h-0.6V50.3z"/>
		<path d="M35.9,52.9l-1.2-3.2h0.7l0.8,2.2l0.8-2.2h0.7l-1.2,3.2v2.7h-0.6V52.9z"/>
	</g>
	<path class="st8" d="M22,29.4L22,29.4c-0.4,1.1-1.6,1.7-2.6,1.3c-1-0.4-1.5-1.4-1.2-2.4C19.7,28.7,20.9,29.1,22,29.4z M19.1,27
		c-0.2-0.1-0.4-0.1-0.6-0.2c-8.5-3.1-6.9-5.2-5.3-5.9c1.7-0.8,2.8-3.4,4.5-8c0.9-2.6,3-3.2,4.6-3.1c0-0.2,0.1-0.4,0.1-0.6
		c0.4-1.1,1.7-1.7,2.8-1.3c1.1,0.4,1.7,1.7,1.3,2.8c-0.1,0.2-0.2,0.3-0.3,0.5c1.3,1,2.7,2.8,1.7,5.5c-1.7,4.6-2.5,7.4-1.7,9
		c0.7,1.4,0.7,3.5-4.5,2.2l0,0c-0.2,0-0.4-0.1-0.6-0.2l0,0C20.6,27.5,19.9,27.3,19.1,27C19.2,27,19.2,27,19.1,27z M23.6,9.8
		c0.6,0.1,1,0.2,1,0.2s0.3,0.1,0.7,0.3c0.1-0.1,0.1-0.2,0.1-0.2c0.2-0.5-0.1-1.1-0.6-1.2c-0.5-0.2-1.1,0.1-1.2,0.6
		C23.7,9.6,23.6,9.7,23.6,9.8z M23.1,11.4c-0.1-0.1-0.1-0.2-0.2-0.2c-0.3,0-0.6,0-1,0c-1.4,0.1-2.2,0.8-2.7,2.1
		c-1.7,4.7-3,7.8-5.2,8.8c-0.2,0.1-0.3,0.2-0.4,0.3c0.1,0.1,0.3,0.4,0.9,0.8c0.2-0.3,0.7-0.6,1.1-0.8c1.7-0.8,2.8-3.4,4.5-8
		C20.6,12.5,21.8,11.7,23.1,11.4z M21.7,31.9c-0.2,0.1,0.3,2.3,0.5,2.7c0.1,0.4,0.2,0.7,0.6,0.6c0.4-0.1,0.3-0.5,0.1-0.9
		C22.8,33.9,21.9,31.8,21.7,31.9z M19.5,32.2c-0.2-0.1-0.9,1.4-1.1,1.7c-0.1,0.3-0.2,0.5,0.1,0.6c0.3,0.1,0.4-0.1,0.5-0.4
		C19.1,33.9,19.6,32.3,19.5,32.2z M25,31.7c-0.3-0.1-1.9-0.8-1.9-0.6c-0.1,0.2,1.4,1,1.7,1.2c0.3,0.1,0.5,0.3,0.6,0
		C25.5,31.9,25.3,31.8,25,31.7z"/>
</g>
</svg>
