<?xml version="1.0" encoding="utf-8"?>
<!-- Generator: Adobe Illustrator 24.0.0, SVG Export Plug-In . SVG Version: 6.00 Build 0)  -->
<svg version="1.1" xmlns="http://www.w3.org/2000/svg" xmlns:xlink="http://www.w3.org/1999/xlink" x="0px" y="0px"
	 viewBox="0 0 42 64" style="enable-background:new 0 0 42 64;" xml:space="preserve">
<style type="text/css">
	.st0{display:none;}
	.st1{display:inline;fill:#FFFFFF;}
	.st2{display:inline;}
	.st3{fill:#4A5AA8;}
	.st4{display:inline;fill:#7F7F7F;}
	.st5{fill:#FFFFFF;}
	.st6{fill:#7F7F7F;}
	.st7{fill:#4F97D3;}
</style>
<g id="still">
	<g class="st0">
		<circle class="st1" cx="21" cy="21" r="20.5"/>
		<g class="st2">
			<path class="st3" d="M21,1c11,0,20,9,20,20s-9,20-20,20S1,32,1,21S10,1,21,1 M21,0C9.4,0,0,9.4,0,21s9.4,21,21,21s21-9.4,21-21
				S32.6,0,21,0L21,0z"/>
		</g>
	</g>
	<g class="st0">
		<g id="XMLID_2325_" transform="matrix( 1, 0, 0, 1, 0,0) " class="st2">
			<g id="XMLID_2326_">
				<g id="a_35_">
					<path id="XMLID_2327_" class="st3" d="M21.5,18.8l1.6-8.4L10.6,23h10.5l-2.6,9.1L31,18.8H21.5z"/>
				</g>
			</g>
		</g>
	</g>
	<g class="st0">
		<path class="st4" d="M1.7,49.8h2.2v0.6H2.3v2h1.2V53H2.3v2h1.5v0.6H1.7V49.8z"/>
		<path class="st4" d="M5.4,49.8h0.5l1.3,3.7v-3.7h0.6v5.8H7.3L6,51.8v3.7H5.4V49.8z"/>
		<path class="st4" d="M9.6,49.8h2.2v0.6h-1.5v2h1.2V53h-1.2v2h1.5v0.6H9.6V49.8z"/>
		<path class="st4" d="M13.3,49.8h1.2c0.7,0,1.2,0.5,1.2,1.2v1.2c0,0.5-0.2,0.9-0.6,1l0.7,2.4h-0.7l-0.7-2.2H14v2.2h-0.6L13.3,49.8
			L13.3,49.8z M14.5,52.7c0.3,0,0.5-0.2,0.5-0.5v-1.3c0-0.3-0.2-0.5-0.5-0.5H14v2.4h0.5V52.7z"/>
		<path class="st4" d="M17.3,54.5v-3.7c0-0.7,0.5-1.2,1.2-1.2s1.2,0.5,1.2,1.2v0.6H19v-0.6c0-0.3-0.2-0.5-0.5-0.5S18,50.4,18,50.7
			v3.8c0,0.3,0.2,0.5,0.5,0.5s0.5-0.2,0.5-0.5v-1.2h-0.4v-0.6h1v1.8c0,0.7-0.5,1.2-1.2,1.2S17.3,55.2,17.3,54.5z"/>
		<path class="st4" d="M21.4,49.8h2.2v0.6H22v2h1.2V53H22v2h1.5v0.6h-2.2v-5.8H21.4z"/>
		<path class="st4" d="M25.7,50.3h-1.1v-0.6h2.8v0.6h-1.1v5.2h-0.6L25.7,50.3z"/>
		<path class="st4" d="M28.8,49.8h0.6v5.8h-0.6V49.8z"/>
		<path class="st4" d="M31.1,54.5v-3.7c0-0.7,0.5-1.2,1.2-1.2c0.7,0,1.2,0.5,1.2,1.2v0.6h-0.6v-0.6c0-0.3-0.2-0.5-0.5-0.5
			s-0.5,0.2-0.5,0.5v3.8c0,0.3,0.2,0.5,0.5,0.5s0.5-0.2,0.5-0.5V54h0.6v0.6c0,0.7-0.5,1.2-1.2,1.2S31.1,55.2,31.1,54.5z"/>
		<path class="st4" d="M35,49.8h0.6v2.4l1.1-2.4h0.7l-1,2.2l1.1,3.6h-0.7L36,52.8l-0.4,0.9v1.8H35V49.8z"/>
		<path class="st4" d="M39.2,49.8h1.1l0.8,5.8h-0.6l-0.2-1.4h-1.1L39,55.5h-0.6L39.2,49.8z M40.2,53.6l-0.4-3.2h-0.1l-0.4,3.2H40.2z
			 M39.7,48.5h0.5l-0.4,0.7h-0.4L39.7,48.5z"/>
		<path class="st4" d="M2.1,62.5v-3.7c0-0.7,0.5-1.2,1.2-1.2s1.2,0.5,1.2,1.2v0.6H3.7v-0.6c0-0.3-0.2-0.5-0.5-0.5s-0.5,0.2-0.5,0.5
			v3.8c0,0.3,0.2,0.5,0.5,0.5s0.5-0.2,0.5-0.5v-1.2H3.3v-0.6h1v1.8c0,0.7-0.5,1.2-1.2,1.2S2.1,63.2,2.1,62.5z"/>
		<path class="st4" d="M6.1,57.8h1.2c0.7,0,1.2,0.5,1.2,1.2v1.2c0,0.5-0.2,0.9-0.6,1l0.7,2.4H7.8l-0.7-2.2H6.7v2.2H6.1V57.8z
			 M7.3,60.7c0.3,0,0.5-0.2,0.5-0.5v-1.3c0-0.3-0.2-0.5-0.5-0.5H6.7v2.4h0.6L7.3,60.7z"/>
		<path class="st4" d="M10.5,57.8h1.1l0.8,5.8h-0.6l-0.2-1.4h-1.1l-0.2,1.4H9.7L10.5,57.8z M11.5,61.6l-0.4-3.2H11l-0.4,3.2H11.5z"
			/>
		<path class="st4" d="M13.8,57.8h0.5l1,2.8l1-2.8h0.5v5.8h-0.6v-3.7l-0.8,2.4l0,0l-0.8-2.4v3.7H14v-5.8H13.8z"/>
		<path class="st4" d="M18.5,62.5v-3.7c0-0.7,0.5-1.2,1.2-1.2s1.2,0.5,1.2,1.2v3.7c0,0.7-0.5,1.2-1.2,1.2S18.5,63.2,18.5,62.5z
			 M20.2,62.5v-3.8c0-0.3-0.2-0.5-0.5-0.5s-0.5,0.2-0.5,0.5v3.8c0,0.3,0.2,0.5,0.5,0.5S20.2,62.8,20.2,62.5z"/>
		<path class="st4" d="M23.1,58.3H22v-0.6h2.8v0.6h-1.1v5.2h-0.6L23.1,58.3z"/>
		<path class="st4" d="M26.2,57.8h0.5l1.3,3.7v-3.7h0.6v5.8h-0.5l-1.3-3.7v3.7h-0.6V57.8z"/>
		<path class="st4" d="M30.4,62.5v-3.7c0-0.7,0.5-1.2,1.2-1.2c0.7,0,1.2,0.5,1.2,1.2v3.7c0,0.7-0.5,1.2-1.2,1.2S30.4,63.2,30.4,62.5
			z M32.1,62.5v-3.8c0-0.3-0.2-0.5-0.5-0.5S31,58.4,31,58.7v3.8c0,0.3,0.2,0.5,0.5,0.5S32.1,62.8,32.1,62.5z"/>
		<path class="st4" d="M34.3,62.5v-0.6h0.6v0.6c0,0.3,0.2,0.5,0.5,0.5s0.5-0.2,0.5-0.5V62c0-1.1-1.7-1.4-1.7-2.8v-0.5
			c0-0.7,0.5-1.2,1.2-1.2s1.2,0.5,1.2,1.2v0.6H36v-0.6c0-0.3-0.2-0.5-0.5-0.5S35,58.4,35,58.7v0.5c0,1.1,1.7,1.4,1.7,2.8v0.5
			c0,0.7-0.5,1.2-1.2,1.2S34.3,63.2,34.3,62.5z"/>
		<path class="st4" d="M38.9,58.3h-1.1v-0.6h2.8v0.6h-1.1v5.2h-0.6C38.9,63.5,38.9,58.3,38.9,58.3z"/>
	</g>
	<g>
		<circle class="st5" cx="21" cy="21" r="20.5"/>
		<g>
			<path class="st3" d="M21,1c11,0,20,9,20,20s-9,20-20,20S1,32,1,21S10,1,21,1 M21,0C9.4,0,0,9.4,0,21s9.4,21,21,21s21-9.4,21-21
				S32.6,0,21,0L21,0z"/>
		</g>
	</g>
	<g>
		<path class="st6" d="M4.2,49.7h1.2c0.7,0,1.2,0.5,1.2,1.2v1.2c0,0.7-0.5,1.2-1.2,1.2H4.9v2.3H4.2V49.7z M5.4,52.7
			c0.3,0,0.5-0.2,0.5-0.5v-1.3c0-0.3-0.2-0.5-0.5-0.5H4.9v2.4H5.4z"/>
		<path class="st6" d="M8.3,49.7h1.2c0.7,0,1.2,0.5,1.2,1.2v1.2c0,0.5-0.2,0.9-0.6,1.1l0.7,2.4h-0.7l-0.7-2.3H9v2.3H8.3V49.7z
			 M8.7,48.5h0.4l0.3,0.4l0.3-0.4H10l-0.4,0.7H9.1L8.7,48.5z M9.5,52.7c0.3,0,0.5-0.2,0.5-0.5v-1.3c0-0.3-0.2-0.5-0.5-0.5H9v2.4H9.5
			z"/>
		<path class="st6" d="M12.7,49.7h2.2v0.6h-1.5v2h1.2V53h-1.2v2h1.5v0.6h-2.2V49.7z"/>
		<path class="st6" d="M16.6,49.6L16.6,49.6L16.6,49.6L16.6,49.6z M16.6,49.7h1.2c0.7,0,1.2,0.5,1.2,1.2v3.5c0,0.7-0.5,1.2-1.2,1.2
			h-1.2V49.7z M17.8,55c0.3,0,0.5-0.2,0.5-0.5v-3.6c0-0.3-0.2-0.5-0.5-0.5h-0.5V55H17.8z"/>
		<path class="st6" d="M20.8,54.5v-3.7c0-0.7,0.5-1.2,1.2-1.2s1.2,0.5,1.2,1.2v0.6h-0.6v-0.6c0-0.3-0.2-0.5-0.5-0.5
			c-0.3,0-0.5,0.2-0.5,0.5v3.9c0,0.3,0.2,0.5,0.5,0.5c0.3,0,0.5-0.2,0.5-0.5V54h0.6v0.6c0,0.7-0.5,1.2-1.2,1.2S20.8,55.2,20.8,54.5z
			"/>
		<path class="st6" d="M24.9,49.7h0.6v2.6h1.1v-2.6h0.6v5.8h-0.6V53h-1.1v2.6h-0.6V49.7z"/>
		<path class="st6" d="M29.2,54.5v-3.7c0-0.7,0.5-1.2,1.2-1.2c0.7,0,1.2,0.5,1.2,1.2v3.7c0,0.7-0.5,1.2-1.2,1.2
			C29.7,55.7,29.2,55.2,29.2,54.5z M30.9,54.6v-3.9c0-0.3-0.2-0.5-0.5-0.5c-0.3,0-0.5,0.2-0.5,0.5v3.9c0,0.3,0.2,0.5,0.5,0.5
			C30.7,55.1,30.9,54.9,30.9,54.6z"/>
		<path class="st6" d="M33.3,55.2l1.7-4.9h-1.6v-0.6h2.3v0.4L34,55h1.6v0.6h-2.3V55.2z"/>
		<path class="st6" d="M37.5,49.7h0.6v5.8h-0.6V49.7z M37.8,48.5h0.6l-0.4,0.7h-0.4L37.8,48.5z"/>
		<path class="st6" d="M8.3,57.7h1.2c0.7,0,1.2,0.5,1.2,1.2v1.2c0,0.5-0.2,0.9-0.6,1.1l0.7,2.4h-0.7l-0.7-2.3H8.9v2.3H8.3V57.7z
			 M9.5,60.7c0.3,0,0.5-0.2,0.5-0.5v-1.3c0-0.3-0.2-0.5-0.5-0.5H8.9v2.4H9.5z"/>
		<path class="st6" d="M12.6,62.5v-3.7c0-0.7,0.5-1.2,1.2-1.2s1.2,0.5,1.2,1.2v3.7c0,0.7-0.5,1.2-1.2,1.2S12.6,63.2,12.6,62.5z
			 M14.3,62.6v-3.9c0-0.3-0.2-0.5-0.5-0.5s-0.5,0.2-0.5,0.5v3.9c0,0.3,0.2,0.5,0.5,0.5S14.3,62.9,14.3,62.6z"/>
		<path class="st6" d="M16.8,62.5v-3.7c0-0.7,0.5-1.2,1.2-1.2s1.2,0.5,1.2,1.2v0.6h-0.6v-0.6c0-0.3-0.2-0.5-0.5-0.5
			s-0.5,0.2-0.5,0.5v3.9c0,0.3,0.2,0.5,0.5,0.5s0.5-0.2,0.5-0.5V62h0.6v0.6c0,0.7-0.5,1.2-1.2,1.2S16.8,63.2,16.8,62.5z M17.3,56.5
			h0.4l0.3,0.4l0.3-0.4h0.4l-0.4,0.7h-0.6L17.3,56.5z"/>
		<path class="st6" d="M20.9,57.7h0.5l1.3,3.8v-3.8h0.6v5.8h-0.5l-1.3-3.7v3.7h-0.6V57.7z"/>
		<path class="st6" d="M25.4,57.7h0.6v5.8h-0.6V57.7z M25.8,56.5h0.6l-0.4,0.7h-0.4L25.8,56.5z"/>
		<path class="st6" d="M28.1,57.7h0.6v2.4l1.1-2.4h0.7l-1,2.2l1.1,3.6H30l-0.8-2.7l-0.4,0.9v1.8h-0.6V57.7z"/>
		<path class="st6" d="M32.8,60.9l-1.2-3.2h0.7l0.8,2.2l0.8-2.2h0.7l-1.2,3.2v2.7h-0.6V60.9z"/>
	</g>
	<g>
		<path class="st3" d="M29,13.6c-4.2-4.2-11-4.3-15.4-0.4l-1.2-1.2c-0.4-0.4-1-0.2-1.2,0.3L10,17.9c-0.1,0.5,0.3,1,0.8,0.8l5.5-1.3
			c0.5-0.1,0.7-0.8,0.3-1.2L15.4,15c3.5-3,8.7-2.9,12,0.4c3.4,3.4,3.4,9,0,12.4L27,28.1c-0.5,0.4-0.5,1.2-0.1,1.7
			c0.2,0.3,0.6,0.4,0.9,0.4c0.3,0,0.6-0.1,0.8-0.3c0.1-0.1,0.3-0.3,0.4-0.4C33.3,25.1,33.3,18,29,13.6z"/>
		<path class="st3" d="M23.8,29.9L23.4,30c-0.6,0.2-1,0.8-0.8,1.5c0.1,0.5,0.6,0.9,1.2,0.9c0.1,0,0.2,0,0.3,0c0.2,0,0.4-0.1,0.6-0.2
			c0.6-0.2,1-0.9,0.8-1.5C25.1,30,24.5,29.7,23.8,29.9z"/>
		<path class="st3" d="M19.8,30.3l-0.5-0.1c-0.7-0.1-1.3,0.3-1.4,0.9c-0.1,0.7,0.3,1.3,0.9,1.4c0.2,0,0.4,0.1,0.6,0.1
			c0,0,0.1,0,0.2,0c0.6,0,1.1-0.4,1.2-1C20.9,31,20.4,30.3,19.8,30.3z"/>
		<path class="st3" d="M15.7,28.5c-0.5-0.4-1.3-0.3-1.7,0.2c-0.4,0.5-0.3,1.3,0.2,1.7c0.2,0.1,0.3,0.2,0.5,0.4
			c0.2,0.1,0.4,0.2,0.7,0.2c0.4,0,0.8-0.2,1-0.5c0.4-0.5,0.3-1.3-0.3-1.7L15.7,28.5z"/>
		<path class="st3" d="M13.1,25.3c-0.3-0.6-1-0.9-1.6-0.6c-0.6,0.3-0.9,1-0.6,1.6c0.1,0.2,0.2,0.4,0.3,0.5c0.2,0.4,0.6,0.6,1.1,0.6
			c0.2,0,0.4,0,0.6-0.1c0.6-0.3,0.8-1,0.5-1.6L13.1,25.3z"/>
		<path class="st3" d="M25,22.6l-2.7-1.8v-4.4c0-0.7-0.5-1.2-1.2-1.2c-0.7,0-1.2,0.5-1.2,1.2v5c0,0.4,0.2,0.8,0.6,1l3.3,2.1
			c0.2,0.1,0.4,0.2,0.6,0.2c0.4,0,0.8-0.2,1-0.6C25.7,23.7,25.6,23,25,22.6z"/>
	</g>
</g>
<g id="hover" class="st0">
	<g class="st2">
		<circle class="st5" cx="21" cy="21" r="20.5"/>
		<g>
			<path class="st7" d="M21,1c11,0,20,9,20,20s-9,20-20,20S1,32,1,21S10,1,21,1 M21,0C9.4,0,0,9.4,0,21s9.4,21,21,21s21-9.4,21-21
				S32.6,0,21,0L21,0z"/>
		</g>
	</g>
	<g class="st2">
		<path d="M4.2,49.7h1.2c0.7,0,1.2,0.5,1.2,1.2v1.2c0,0.7-0.5,1.2-1.2,1.2H4.9v2.3H4.2V49.7z M5.4,52.7c0.3,0,0.5-0.2,0.5-0.5v-1.3
			c0-0.3-0.2-0.5-0.5-0.5H4.9v2.4H5.4z"/>
		<path d="M8.3,49.7h1.2c0.7,0,1.2,0.5,1.2,1.2v1.2c0,0.5-0.2,0.9-0.6,1.1l0.7,2.4h-0.7l-0.7-2.3H9v2.3H8.3V49.7z M8.7,48.5h0.4
			l0.3,0.4l0.3-0.4H10l-0.4,0.7H9.1L8.7,48.5z M9.5,52.7c0.3,0,0.5-0.2,0.5-0.5v-1.3c0-0.3-0.2-0.5-0.5-0.5H9v2.4H9.5z"/>
		<path d="M12.7,49.7h2.2v0.6h-1.5v2h1.2V53h-1.2v2h1.5v0.6h-2.2V49.7z"/>
		<path d="M16.6,49.6L16.6,49.6L16.6,49.6L16.6,49.6z M16.6,49.7h1.2c0.7,0,1.2,0.5,1.2,1.2v3.5c0,0.7-0.5,1.2-1.2,1.2h-1.2V49.7z
			 M17.8,55c0.3,0,0.5-0.2,0.5-0.5v-3.6c0-0.3-0.2-0.5-0.5-0.5h-0.5V55H17.8z"/>
		<path d="M20.8,54.5v-3.7c0-0.7,0.5-1.2,1.2-1.2s1.2,0.5,1.2,1.2v0.6h-0.6v-0.6c0-0.3-0.2-0.5-0.5-0.5c-0.3,0-0.5,0.2-0.5,0.5v3.9
			c0,0.3,0.2,0.5,0.5,0.5c0.3,0,0.5-0.2,0.5-0.5V54h0.6v0.6c0,0.7-0.5,1.2-1.2,1.2S20.8,55.2,20.8,54.5z"/>
		<path d="M24.9,49.7h0.6v2.6h1.1v-2.6h0.6v5.8h-0.6V53h-1.1v2.6h-0.6V49.7z"/>
		<path d="M29.2,54.5v-3.7c0-0.7,0.5-1.2,1.2-1.2c0.7,0,1.2,0.5,1.2,1.2v3.7c0,0.7-0.5,1.2-1.2,1.2C29.7,55.7,29.2,55.2,29.2,54.5z
			 M30.9,54.6v-3.9c0-0.3-0.2-0.5-0.5-0.5c-0.3,0-0.5,0.2-0.5,0.5v3.9c0,0.3,0.2,0.5,0.5,0.5C30.7,55.1,30.9,54.9,30.9,54.6z"/>
		<path d="M33.3,55.2l1.7-4.9h-1.6v-0.6h2.3v0.4L34,55h1.6v0.6h-2.3V55.2z"/>
		<path d="M37.5,49.7h0.6v5.8h-0.6V49.7z M37.8,48.5h0.6l-0.4,0.7h-0.4L37.8,48.5z"/>
		<path d="M8.3,57.7h1.2c0.7,0,1.2,0.5,1.2,1.2v1.2c0,0.5-0.2,0.9-0.6,1.1l0.7,2.4h-0.7l-0.7-2.3H8.9v2.3H8.3V57.7z M9.5,60.7
			c0.3,0,0.5-0.2,0.5-0.5v-1.3c0-0.3-0.2-0.5-0.5-0.5H8.9v2.4H9.5z"/>
		<path d="M12.6,62.5v-3.7c0-0.7,0.5-1.2,1.2-1.2s1.2,0.5,1.2,1.2v3.7c0,0.7-0.5,1.2-1.2,1.2S12.6,63.2,12.6,62.5z M14.3,62.6v-3.9
			c0-0.3-0.2-0.5-0.5-0.5s-0.5,0.2-0.5,0.5v3.9c0,0.3,0.2,0.5,0.5,0.5S14.3,62.9,14.3,62.6z"/>
		<path d="M16.8,62.5v-3.7c0-0.7,0.5-1.2,1.2-1.2s1.2,0.5,1.2,1.2v0.6h-0.6v-0.6c0-0.3-0.2-0.5-0.5-0.5s-0.5,0.2-0.5,0.5v3.9
			c0,0.3,0.2,0.5,0.5,0.5s0.5-0.2,0.5-0.5V62h0.6v0.6c0,0.7-0.5,1.2-1.2,1.2S16.8,63.2,16.8,62.5z M17.3,56.5h0.4l0.3,0.4l0.3-0.4
			h0.4l-0.4,0.7h-0.6L17.3,56.5z"/>
		<path d="M20.9,57.7h0.5l1.3,3.8v-3.8h0.6v5.8h-0.5l-1.3-3.7v3.7h-0.6V57.7z"/>
		<path d="M25.4,57.7h0.6v5.8h-0.6V57.7z M25.8,56.5h0.6l-0.4,0.7h-0.4L25.8,56.5z"/>
		<path d="M28.1,57.7h0.6v2.4l1.1-2.4h0.7l-1,2.2l1.1,3.6H30l-0.8-2.7l-0.4,0.9v1.8h-0.6V57.7z"/>
		<path d="M32.8,60.9l-1.2-3.2h0.7l0.8,2.2l0.8-2.2h0.7l-1.2,3.2v2.7h-0.6V60.9z"/>
	</g>
	<g class="st2">
		<path class="st7" d="M29,13.6c-4.2-4.2-11-4.3-15.4-0.4l-1.2-1.2c-0.4-0.4-1-0.2-1.2,0.3L10,17.9c-0.1,0.5,0.3,1,0.8,0.8l5.5-1.3
			c0.5-0.1,0.7-0.8,0.3-1.2L15.4,15c3.5-3,8.7-2.9,12,0.4c3.4,3.4,3.4,9,0,12.4L27,28.1c-0.5,0.4-0.5,1.2-0.1,1.7
			c0.2,0.3,0.6,0.4,0.9,0.4c0.3,0,0.6-0.1,0.8-0.3c0.1-0.1,0.3-0.3,0.4-0.4C33.3,25.1,33.3,18,29,13.6z"/>
		<path class="st7" d="M23.8,29.9L23.4,30c-0.6,0.2-1,0.8-0.8,1.5c0.1,0.5,0.6,0.9,1.2,0.9c0.1,0,0.2,0,0.3,0c0.2,0,0.4-0.1,0.6-0.2
			c0.6-0.2,1-0.9,0.8-1.5C25.1,30,24.5,29.7,23.8,29.9z"/>
		<path class="st7" d="M19.8,30.3l-0.5-0.1c-0.7-0.1-1.3,0.3-1.4,0.9c-0.1,0.7,0.3,1.3,0.9,1.4c0.2,0,0.4,0.1,0.6,0.1
			c0,0,0.1,0,0.2,0c0.6,0,1.1-0.4,1.2-1C20.9,31,20.4,30.3,19.8,30.3z"/>
		<path class="st7" d="M15.7,28.5c-0.5-0.4-1.3-0.3-1.7,0.2c-0.4,0.5-0.3,1.3,0.2,1.7c0.2,0.1,0.3,0.2,0.5,0.4
			c0.2,0.1,0.4,0.2,0.7,0.2c0.4,0,0.8-0.2,1-0.5c0.4-0.5,0.3-1.3-0.3-1.7L15.7,28.5z"/>
		<path class="st7" d="M13.1,25.3c-0.3-0.6-1-0.9-1.6-0.6c-0.6,0.3-0.9,1-0.6,1.6c0.1,0.2,0.2,0.4,0.3,0.5c0.2,0.4,0.6,0.6,1.1,0.6
			c0.2,0,0.4,0,0.6-0.1c0.6-0.3,0.8-1,0.5-1.6L13.1,25.3z"/>
		<path class="st7" d="M25,22.6l-2.7-1.8v-4.4c0-0.7-0.5-1.2-1.2-1.2c-0.7,0-1.2,0.5-1.2,1.2v5c0,0.4,0.2,0.8,0.6,1l3.3,2.1
			c0.2,0.1,0.4,0.2,0.6,0.2c0.4,0,0.8-0.2,1-0.6C25.7,23.7,25.6,23,25,22.6z"/>
	</g>
</g>
</svg>
