<?xml version="1.0" encoding="utf-8"?>
<!-- Generator: Adobe Illustrator 24.0.0, SVG Export Plug-In . SVG Version: 6.00 Build 0)  -->
<svg version="1.1" xmlns="http://www.w3.org/2000/svg" xmlns:xlink="http://www.w3.org/1999/xlink" x="0px" y="0px"
	 viewBox="0 0 42 64" style="enable-background:new 0 0 42 64;" xml:space="preserve">
<style type="text/css">
	.st0{display:none;}
	.st1{display:inline;fill:#FFFFFF;}
	.st2{display:inline;}
	.st3{fill:#4A5AA8;}
	.st4{fill:#FFFFFF;}
	.st5{fill:#7F7F7F;}
	.st6{fill-rule:evenodd;clip-rule:evenodd;fill:#4A5AA8;}
	.st7{fill:#4F97D3;}
	.st8{fill-rule:evenodd;clip-rule:evenodd;fill:#4F97D3;}
</style>
<g id="still" class="st0">
	<g>
		<circle class="st1" cx="21" cy="21" r="20.5"/>
		<g class="st2">
			<path class="st3" d="M21,1c11,0,20,9,20,20s-9,20-20,20S1,32,1,21S10,1,21,1 M21,0C9.4,0,0,9.4,0,21s9.4,21,21,21s21-9.4,21-21
				S32.6,0,21,0L21,0z"/>
		</g>
	</g>
	<g>
		<g id="XMLID_2325_" transform="matrix( 1, 0, 0, 1, 0,0) " class="st2">
			<g id="XMLID_2326_">
				<g id="a_35_">
					<path id="XMLID_2327_" class="st3" d="M21.5,18.8l1.6-8.4L10.6,23h10.5l-2.6,9.1L31,18.8H21.5z"/>
				</g>
			</g>
		</g>
	</g>
	<g class="st2">
		<circle class="st4" cx="21" cy="21" r="20.5"/>
		<g>
			<path class="st3" d="M21,1c11,0,20,9,20,20s-9,20-20,20S1,32,1,21S10,1,21,1 M21,0C9.4,0,0,9.4,0,21s9.4,21,21,21s21-9.4,21-21
				S32.6,0,21,0L21,0z"/>
		</g>
	</g>
	<g class="st2">
		<path class="st5" d="M4,49.7h0.6v5.8H4V49.7z"/>
		<path class="st5" d="M6.7,49.7h0.5l1.3,3.8v-3.8h0.6v5.8H8.6l-1.3-3.7v3.7H6.7V49.7z"/>
		<path class="st5" d="M11.2,49.7h2.2v0.6h-1.5v2h1.2V53h-1.2v2.6h-0.6V49.7z"/>
		<path class="st5" d="M14.9,54.5v-3.7c0-0.7,0.5-1.2,1.2-1.2s1.2,0.5,1.2,1.2v3.7c0,0.7-0.5,1.2-1.2,1.2S14.9,55.2,14.9,54.5z
			 M16.6,54.6v-3.9c0-0.3-0.2-0.5-0.5-0.5s-0.5,0.2-0.5,0.5v3.9c0,0.3,0.2,0.5,0.5,0.5S16.6,54.9,16.6,54.6z"/>
		<path class="st5" d="M19.2,49.7h1.2c0.7,0,1.2,0.5,1.2,1.2v1.2c0,0.5-0.2,0.9-0.6,1.1l0.7,2.4H21l-0.7-2.3h-0.4v2.3h-0.6V49.7z
			 M20.4,52.7c0.3,0,0.5-0.2,0.5-0.5v-1.3c0-0.3-0.2-0.5-0.5-0.5h-0.5v2.4H20.4z"/>
		<path class="st5" d="M23.5,49.7h0.5l1,2.8l1-2.8h0.5v5.8H26v-3.7l-0.9,2.4h0l-0.9-2.4v3.7h-0.6V49.7z"/>
		<path class="st5" d="M29,49.7h1.1l0.8,5.8h-0.6l-0.2-1.4H29l-0.2,1.4h-0.6L29,49.7z M30,53.6l-0.4-3.3h-0.1l-0.4,3.3H30z"/>
		<path class="st5" d="M32.3,54.5v-3.7c0-0.7,0.5-1.2,1.2-1.2c0.7,0,1.2,0.5,1.2,1.2v0.6H34v-0.6c0-0.3-0.2-0.5-0.5-0.5
			c-0.3,0-0.5,0.2-0.5,0.5v3.9c0,0.3,0.2,0.5,0.5,0.5c0.3,0,0.5-0.2,0.5-0.5V54h0.6v0.6c0,0.7-0.5,1.2-1.2,1.2
			C32.8,55.7,32.3,55.2,32.3,54.5z"/>
		<path class="st5" d="M36.5,49.7h2.2v0.6h-1.5v2h1.2V53h-1.2v2h1.5v0.6h-2.2V49.7z"/>
	</g>
	<g class="st2">
		<path class="st6" d="M13.2,23.2c-1.8,1.2-4-1.3-2.4-3l8.8-8.9c0.8-0.7,2-0.7,2.7,0l8.9,8.9c1.7,1.7-0.7,4.2-2.4,3v8h-5.5v-7.3
			h-4.7v7.3h-5.4V23.2z"/>
	</g>
</g>
<g id="hover">
	<g>
		<circle class="st4" cx="21" cy="21" r="20.5"/>
		<g>
			<path class="st7" d="M21,1c11,0,20,9,20,20s-9,20-20,20S1,32,1,21S10,1,21,1 M21,0C9.4,0,0,9.4,0,21s9.4,21,21,21s21-9.4,21-21
				S32.6,0,21,0L21,0z"/>
		</g>
	</g>
	<g>
		<path d="M4,49.7h0.6v5.8H4V49.7z"/>
		<path d="M6.7,49.7h0.5l1.3,3.8v-3.8h0.6v5.8H8.6l-1.3-3.7v3.7H6.7V49.7z"/>
		<path d="M11.2,49.7h2.2v0.6h-1.5v2h1.2V53h-1.2v2.6h-0.6V49.7z"/>
		<path d="M14.9,54.5v-3.7c0-0.7,0.5-1.2,1.2-1.2s1.2,0.5,1.2,1.2v3.7c0,0.7-0.5,1.2-1.2,1.2S14.9,55.2,14.9,54.5z M16.6,54.6v-3.9
			c0-0.3-0.2-0.5-0.5-0.5s-0.5,0.2-0.5,0.5v3.9c0,0.3,0.2,0.5,0.5,0.5S16.6,54.9,16.6,54.6z"/>
		<path d="M19.2,49.7h1.2c0.7,0,1.2,0.5,1.2,1.2v1.2c0,0.5-0.2,0.9-0.6,1.1l0.7,2.4H21l-0.7-2.3h-0.4v2.3h-0.6V49.7z M20.4,52.7
			c0.3,0,0.5-0.2,0.5-0.5v-1.3c0-0.3-0.2-0.5-0.5-0.5h-0.5v2.4H20.4z"/>
		<path d="M23.5,49.7h0.5l1,2.8l1-2.8h0.5v5.8H26v-3.7l-0.9,2.4h0l-0.9-2.4v3.7h-0.6V49.7z"/>
		<path d="M29,49.7h1.1l0.8,5.8h-0.6l-0.2-1.4H29l-0.2,1.4h-0.6L29,49.7z M30,53.6l-0.4-3.3h-0.1l-0.4,3.3H30z"/>
		<path d="M32.3,54.5v-3.7c0-0.7,0.5-1.2,1.2-1.2c0.7,0,1.2,0.5,1.2,1.2v0.6H34v-0.6c0-0.3-0.2-0.5-0.5-0.5c-0.3,0-0.5,0.2-0.5,0.5
			v3.9c0,0.3,0.2,0.5,0.5,0.5c0.3,0,0.5-0.2,0.5-0.5V54h0.6v0.6c0,0.7-0.5,1.2-1.2,1.2C32.8,55.7,32.3,55.2,32.3,54.5z"/>
		<path d="M36.5,49.7h2.2v0.6h-1.5v2h1.2V53h-1.2v2h1.5v0.6h-2.2V49.7z"/>
	</g>
	<g>
		<path class="st8" d="M13.2,23.2c-1.8,1.2-4-1.3-2.4-3l8.8-8.9c0.8-0.7,2-0.7,2.7,0l8.9,8.9c1.7,1.7-0.7,4.2-2.4,3v8h-5.5v-7.3
			h-4.7v7.3h-5.4V23.2z"/>
	</g>
</g>
</svg>
