<?xml version="1.0" encoding="utf-8"?>
<!-- Generator: Adobe Illustrator 19.0.0, SVG Export Plug-In . SVG Version: 6.00 Build 0)  -->
<svg version="1.1" id="Layer_1" xmlns="http://www.w3.org/2000/svg" xmlns:xlink="http://www.w3.org/1999/xlink" x="0px" y="0px"
	 viewBox="0 0 88 90" style="enable-background:new 0 0 88 90;" xml:space="preserve">
<style type="text/css">
	.st0{clip-path:url(#XMLID_6_);}
	.st1{fill:#E3E3E3;}
</style>
<g id="XMLID_4_">
	<defs>
		<rect id="XMLID_3_" width="88" height="90"/>
	</defs>
	<clipPath id="XMLID_6_">
		<use xlink:href="#XMLID_3_"  style="overflow:visible;"/>
	</clipPath>
	<g id="XMLID_43_" class="st0">
		<circle id="XMLID_2_" class="st1" cx="44" cy="15.3" r="26.8"/>
		<g id="XMLID_57_">
			<path id="XMLID_1_" class="st1" d="M44,47.6c-8.8,0-17.9,0.5-26.9,1.5c-2.4,0.3-4.6,1.7-5.9,3.7C2.9,66.4-0.3,77.6,0,91.4
				c0.1,3.9,3,7.2,6.9,7.7c12.4,1.6,24.8,2.4,37.1,2.4c12.2,0,24.7-0.8,37.1-2.4c3.9-0.5,6.9-3.8,6.9-7.7c0.3-13.8-3-25-11.3-38.5
				c-1.3-2.1-3.4-3.5-5.9-3.7C61.9,48.1,52.8,47.6,44,47.6L44,47.6z"/>
		</g>
	</g>
</g>
</svg>
