<?xml version="1.0" encoding="utf-8"?>
<!-- Generator: Adobe Illustrator 19.0.0, SVG Export Plug-In . SVG Version: 6.00 Build 0)  -->
<svg version="1.1" id="Layer_1" xmlns="http://www.w3.org/2000/svg" xmlns:xlink="http://www.w3.org/1999/xlink" x="0px" y="0px"
	 viewBox="0 0 228 294" style="enable-background:new 0 0 228 294;" xml:space="preserve">
<style type="text/css">
	.st0{fill:#E3E3E3;}
</style>
<g id="XMLID_43_">
	<circle id="XMLID_2_" class="st0" cx="114" cy="70.4" r="69.2"/>
	<g id="XMLID_57_">
		<path id="XMLID_1_" class="st0" d="M114,153.7c-22.8,0-46.1,1.3-69.3,4c-6.3,0.7-11.8,4.3-15.2,9.6C8.1,202.2-0.3,231,0.4,266.7
			c0.2,10.1,7.8,18.6,17.9,19.9c31.9,4.1,64.1,6.2,95.6,6.2c31.6,0,63.8-2.1,95.7-6.2c10.1-1.3,17.7-9.8,17.9-19.9
			c0.8-35.7-7.7-64.5-29.1-99.3c-3.3-5.4-8.9-8.9-15.2-9.6C160.1,155.1,136.8,153.7,114,153.7L114,153.7z"/>
	</g>
</g>
</svg>
