<?xml version="1.0" encoding="utf-8"?>
<!-- Generator: Adobe Illustrator 19.0.0, SVG Export Plug-In . SVG Version: 6.00 Build 0)  -->
<svg version="1.1" id="Layer_1" xmlns="http://www.w3.org/2000/svg" xmlns:xlink="http://www.w3.org/1999/xlink" x="0px" y="0px"
	 viewBox="56 5 250 85" style="enable-background:new 56 5 250 85;" xml:space="preserve">
<style type="text/css">
	.st0{clip-path:url(#SVGID_2_);}
	.st1{fill:#6284C2;}
	.st2{fill:#231F20;}
</style>
<g>
	<defs>
		<rect id="SVGID_1_" x="61.5" y="5" width="240.8" height="85"/>
	</defs>
	<clipPath id="SVGID_2_">
		<use xlink:href="#SVGID_1_"  style="overflow:visible;"/>
	</clipPath>
	<g id="XMLID_2019_" transform="matrix( 1, 0, 0, 1, 0,0) " class="st0">
		<g id="XMLID_2020_">
			<g id="a_22_">
				<path id="XMLID_2021_" class="st1" d="M185.2,37.6L194-7l-66.5,66.6h55.2l-14,48.1L235,37.6H185.2z"/>
			</g>
		</g>
	</g>
	<g id="_x39_v8mhU.tif_15_" class="st0">
		<g id="XMLID_2013_">
			<path id="XMLID_2014_" class="st2" d="M100.9,82.7c-1-0.5-2.1-0.9-2.1-2.3c0-1.5,0.7-2.6,1.9-3.4c1.4-0.8,2.9-1.4,4.4-1.8
				c1.7-0.5,2.1-1.7,2.5-3.3c-1.2,1.1-2.2,2.1-3.7,2.4c-2.6,0.6-4.5-1-3.8-3.5c1.2-4.4,4.1-7.5,8.4-9c1.4-0.5,2.7-0.1,3.7,1
				c0.4,0.4,0.5,0.7-0.1,1c-0.7,0.3-1.4,0.9-2.2,0.2c-0.5-0.4-1.2-0.1-1.7,0.2c-2.7,1.4-4.6,3.5-5.7,6.3c-0.2,0.6-0.4,1.2,0.2,1.7
				c0.6,0.5,1.3,0.2,1.8-0.2c2-1.3,3.5-3.2,4.9-5.1c0.2-0.2,0.3-0.5,0.4-0.7c0.3-0.3,0.3-1,0.8-1c0.6,0.1,1.1,0.4,1.6,0.8
				c0.4,0.2,0,0.6-0.1,0.8c-0.8,2-1.6,4-2.4,6c-0.1,0.2-0.1,0.3-0.2,0.7c3.1-1.2,5.6-2.9,7.8-5.3c1.4-1.5,2.4-3.2,3.3-5
				c0.3-0.6,0.3-0.9-0.3-1.3c-0.9-0.7-1.2-2.1-0.7-3.1c0.5-1,1.3-1.4,2.3-1.2c1,0.1,1.8,0.9,1.6,2.2c-0.2,1.4,0.5,1.8,1.6,2.1
				c2.7,0.8,3.2,2.3,1.9,4.8c-0.5,0.9-1,1.8-1.4,2.7c-0.4,0.8-0.6,1.9,0.2,2.6c0.8,0.7,1.8,0.5,2.6,0c1.9-1,3.3-2.5,4.5-4.3
				c1.8-2.7,4-4.9,7.2-5.8c1.7-0.5,3.1,0.1,4.2,1.6c-0.4,0.2-0.8,0.4-1.2,0.6c-0.5,0.3-0.8,0.4-1.3,0c-0.7-0.5-1.5-0.2-2.2,0.1
				c-2.6,1.4-4.4,3.5-5.6,6.1c-0.3,0.6-0.4,1.3,0.1,1.8c0.6,0.4,1.2,0.2,1.8-0.2c2.3-1.4,3.8-3.6,5.3-5.8c0.2-0.3,0.3-1,0.8-0.9
				c0.6,0.1,1.1,0.5,1.6,0.7c0.4,0.2,0,0.5-0.1,0.7c-0.4,1.1-0.9,2.3-1.3,3.4c-0.2,0.6-0.3,1.4,0.3,1.9c0.6,0.5,1.4,0.4,2.1,0.1
				c2-0.9,3.3-2.6,4.7-4.1c1.1-1.2,1.5-2.8,2.1-4.3c0.8-2,0.8-2,3.1-1.7c-0.4,1.1-0.8,2.2-1.3,3.5c1-0.9,1.9-1.6,2.7-2.4
				c0.7-0.6,1.5-1.1,2.4-1.3c1.6-0.5,2.7,0.4,2.7,2.1c0,0.9-0.5,1.7-0.8,2.8c0.7-0.6,1.2-1.1,1.8-1.6c0.8-0.6,1.6-1.2,2.6-0.7
				c1.1,0.5,1.3,1.5,1.3,2.6c0,1.1,0,2.2,0,3.3c0,2,1.2,2.7,2.9,1.6c2.1-1.4,3.7-3.2,4.8-5.4c0.8-1.5,1.7-2.9,3.1-3.8
				c1-0.7,2.1-1,3.3-0.9c2,0.1,3.4,1.9,3.3,4.2c0,0.5-0.1,1.1-0.2,1.6c-0.3,1.3,0.1,1.7,1.4,1.8c2.3,0.2,3.9-0.9,5.1-2.7
				c0.5-0.7,0.6-1.6,0.9-2.4c-0.1,0-0.2-0.1-0.2-0.1c-0.4-0.3-1.3,0.4-1.4-0.4c-0.1-1,0.7-1.8,1.7-1.8c0.6,0,1-0.1,1.1-0.7
				c0-0.1,0.1-0.3,0.2-0.4c0.8-1.9,0.8-1.9,3-1.7c-0.1,0.8-0.5,1.5-0.8,2.2c-0.2,0.5-0.1,0.7,0.4,0.7c0.8,0,1.6,0,2.4,0
				c-0.3,2.1-0.4,2.3-2.3,2.1c-1.3-0.1-1.9,0.3-2.3,1.5c-0.4,1.3-1,2.6-1.5,3.9c-0.6,1.9,0.2,2.9,2.1,2.8c2.2-0.1,3.8-1.5,5.4-2.8
				c1.9-1.5,2.8-3.6,3.6-5.8c0.7-2,0.8-2,3-1.7c-0.4,1-0.7,1.9-1.1,2.8c0.1,0.1,0.1,0.1,0.2,0.2c0.6-0.6,1.1-1.2,1.7-1.8
				c0.8-0.7,1.8-1.3,2.9-1.5c1.8-0.2,2.7,0.6,2.8,2.4c0.1,1.5-0.2,2.9-0.3,4.3c-0.1,0.8-0.2,1.6,0,2.4c0.2,1.5,1.1,1.9,2.4,1.2
				c1.6-0.9,2.7-2.4,3.9-3.8c0.5-0.6,1-1.3,1.4-2.1c0.6-1.2,1.3-2.2,2.4-3c1.9-1.5,4-1.8,5.5-0.8c1.4,0.9,2,3,1.5,5.3
				c-0.3,1.2,0.1,1.7,1.4,1.8c1.8,0.1,3.2-0.5,4.4-1.8c1.4-1.6,2.8-3.3,4.4-4.8c0.4-0.4,0.3-0.7,0.2-1.1c-0.4-1.8,0.5-3,2.1-3.1
				c1.6-0.1,2.6,1.3,1.7,2.6c-0.9,1.3-0.5,2,0.2,3.1c1.5,2.4,1.9,4.9,0.1,7.5c3.8-0.6,7.8-4,8.7-7.6c0,0,0,0-0.1-0.1
				c-0.4-0.2-1.3,0.4-1.4-0.4c-0.1-0.9,0.8-1.8,1.7-1.8c0.6,0,1-0.1,1.1-0.8c0.1-0.3,0.3-0.6,0.4-0.9c0.5-1.1,1.3-1.5,2.5-1.2
				c0.5,0.1,0.3,0.4,0.2,0.6c-0.3,0.8-1.1,1.6-0.7,2.2c0.3,0.4,1.5,0.1,2.3,0.1c0.5,0,0.6,0.2,0.4,0.6c-0.3,0.9-0.6,1.7-2,1.6
				c-1.9-0.2-1.9,0-2.6,1.8c-0.5,1.2-1,2.4-1.4,3.6c-0.6,1.9,0.2,3,2.2,2.8c2.2-0.2,3.8-1.5,5.3-2.8c1-0.8,1.7-1.8,2.5-2.8
				c0.5,0.4,1,0.9,1.5,1.3c0,0.2,0,0.3,0,0.5c-1.2,1.2-2.3,2.5-3.6,3.6c-1.6,1.2-3.4,2.1-5.4,2.5c-3,0.5-4.6-0.5-5.1-3.5
				c-2.1,1.5-4.4,2.6-6.9,3.1c-2.2,0.5-4.4,0.9-6.7,0.4c-0.6-0.1-1.1-0.3-1.6-0.6c-1.5-0.9-1.5-1.1-0.3-2.2c0.4-0.4,0.6-0.4,1,0
				c1.5,1.2,3.6,1.2,5.1,0.1c1.5-1.1,2.1-3.1,1.4-5c-0.3-0.9-0.7-1.7-1.3-2.4c-1.6,1.4-2.9,3-4.2,4.5c-1.9,2.2-4.4,3.3-7.2,2.5
				c-1.4-0.4-2-0.2-2.7,0.9c-0.7,1-1.7,1.7-2.8,2.1c-2.2,0.9-4.3-0.1-5.1-2.4c-0.1-0.2-0.1-0.3-0.2-0.6c-1.1,1.1-2.2,2.2-3.7,2.8
				c-3,1.2-5-0.1-5.1-3.3c-0.1-1.7,0.2-3.3,0.3-5c0.1-0.6,0.4-1.5-0.4-1.9c-0.7-0.4-1.3,0.3-1.8,0.7c-2.5,2.3-4.4,5.1-6.1,8.1
				c-1,1.7-1,1.7-3.1,1.5c0-0.6,0.6-1.1,0.5-1.9c-1.6,1.1-3.3,1.9-5.1,2.1c-1.1,0.2-2.1,0.1-3.1-0.4c-1.4-0.7-1.8-1.9-1.7-3.5
				c-1.6,0.7-3.2,1.1-4.8,0.8c0,0-0.1,0-0.1,0c-1.5-1-2.3-0.1-3.1,1c-0.9,1.1-2.1,1.9-3.5,2.1c-2,0.3-3.4-0.7-4.3-3.1
				c-0.8,0.7-1.5,1.4-2.3,2c-1.3,0.9-2.7,1.4-4.3,1.2c-1.5-0.2-2.4-1.3-2.5-2.8c-0.1-1.2,0-2.4,0-3.7c0-0.4,0.2-1-0.3-1.2
				c-0.6-0.3-1,0.1-1.4,0.5c-1.5,1.5-2.7,3.2-3.8,5c-0.1,0.1-0.1,0.2-0.2,0.3c-0.5,1.7-1.6,2.1-3.2,1.6c1.1-2.7,2.1-5.4,3.2-8.1
				c0.2-0.6,0.8-1.3,0.2-1.8c-0.6-0.5-1.3,0.1-1.8,0.5c-2.6,2-4.3,4.8-5.9,7.6c-1,1.8-1,1.8-3.1,1.7c-0.2-0.5,0.4-0.8,0.2-1.4
				c-1.1,0.6-2.2,1.3-3.5,1.6c-2.5,0.5-4.1-0.6-4.2-3.3c-0.9,0.8-1.6,1.6-2.6,2.3c-0.9,0.6-2,1-3.1,1.1c-1.5,0.1-2.4-0.7-2.9-2.1
				c-1.5,1.2-3.1,2.2-5,2.2c-2.7,0-4.2-2-3.5-4.7c0.3-1.3,1-2.4,1.7-3.5c1-1.7,0.3-2.9-1.6-3c-0.4,0-0.4,0.3-0.5,0.5
				c-2.7,5.8-7.1,9.7-13.2,11.8c-0.7,0.2-1.2,0.6-1.4,1.3c-0.1,0.3-0.3,0.6-0.5,0.9c-1.2,2.4-3,4.2-5.7,4.8
				C101.5,82.7,101.2,82.7,100.9,82.7z M181.3,66.2c-0.1-0.9-0.1-1.8-1-2.2c-0.9-0.5-1.7-0.1-2.4,0.4c-1.8,1.5-2.7,3.4-2.8,5.7
				c0,0.7,0.1,1.5,0.8,1.9c0.8,0.4,1.5,0.2,2.2-0.3C180.1,70.4,180.9,68.4,181.3,66.2z M220.3,69.4c0,2.5,1,3.3,2.6,2.5
				c2-0.9,3.8-4.3,3.4-6.4c-0.3-1.8-1.5-2.4-3-1.4C221.3,65.5,220.5,67.5,220.3,69.4z M105.6,76.8c-1.6,0.6-3.1,0.9-4.2,2
				c-0.4,0.4-0.6,0.9-0.2,1.4c0.4,0.5,0.9,0.5,1.4,0.2C104.1,79.8,104.8,78.4,105.6,76.8z"/>
		</g>
	</g>
	<g id="ncOYM4.tif_10_" class="st0">
		<g id="XMLID_1990_">
			<path id="XMLID_2009_" class="st2" d="M163.9,57.5c-0.7-0.6-1.5-0.4-2.3-0.6c-2.7-0.5-4.5-1.9-4.8-3.8c-0.4-2.5,0.4-4,3-5.5
				c-1.7-1.7-1.6-2.3,0.6-4c-2.1-1.4-2.7-3.5-2-5.8c0.8-2.6,3-3.5,5.4-3.8c4.3-0.6,8.7-0.2,13-0.3c0.4,0,0.7-0.1,0.7,0.5
				c0,1.1,0,2.1,0,3.2c0,0.6-0.5,0.4-0.8,0.4c-0.7,0-1.3,0-2.1,0c0.3,1.6,0.4,3.2-0.7,4.5c-1.2,1.5-2.9,2-4.7,2.3
				c-1.5,0.3-2.9,0.3-4.4,0.3c-0.6,0-1.3,0.2-1.3,0.8c0,0.8,0.7,0.7,1.3,0.7c2.3,0.3,4.6,0.1,6.9,0.6c3.7,0.8,5.5,3.5,4.4,6.6
				c-0.6,1.6-1.8,2.4-3.3,2.9c-1.3,0.4-2.7,0.6-4,0.9C167.1,57.5,165.5,57.5,163.9,57.5z M166.6,53.1c0.8,0,1.6,0,2.4-0.2
				c0.5-0.2,1-0.4,0.9-1c0-0.5-0.4-0.8-0.9-0.9c-1.7-0.3-3.3-0.3-5,0c-0.5,0.1-0.8,0.3-0.8,0.9c0,0.6,0.3,0.8,0.8,0.9
				C164.9,53.1,165.7,53.1,166.6,53.1z M166.4,37.7c-0.9,0.1-1.9,0.2-1.9,1.5c0,1.4,1,1.6,2.1,1.7c1.1,0,2.1-0.3,2-1.7
				C168.5,37.8,167.5,37.7,166.4,37.7z"/>
			<path id="XMLID_2006_" class="st2" d="M291.2,50.4c-2.9,0.6-5.5,0.6-7.4-2.3c-1.1,1.7-2.7,2.4-4.6,2.6c-1.8,0.2-3.6,0.1-5.4-0.8
				c-2-1-2.7-2.6-2.6-4.7c0.1-2,1.3-3.2,3.1-3.9c2.5-1,5.6-0.9,8.8,0.2c0-0.3,0-0.6,0-0.9c0-0.9,0.3-2-1-2.3
				c-1.1-0.2-2.5-0.6-3.2,0.9c-0.2,0.5-0.6,0.5-1,0.5c-1.7,0-3.4,0-5.1,0c-0.8,0-1-0.3-0.9-1c0.2-1.7,1.2-3,2.7-3.7
				c4-1.8,8.1-1.8,12.1-0.3c2.2,0.8,2.8,2.8,2.9,5c0,1.3,0.1,2.6,0,3.8c-0.1,1,0.3,1.6,1.3,1.7C291.2,46.9,291.2,48.7,291.2,50.4z
				 M280.4,46.2c0.6,0,1.3,0,1.9-0.1c0.4-0.1,0.9-0.2,0.9-0.8c0-0.7-0.5-0.9-1-0.9c-0.6-0.1-1.2-0.2-1.8-0.1
				c-0.9,0.1-2.5-0.3-2.5,0.9C277.9,46.6,279.5,45.9,280.4,46.2z"/>
			<path id="XMLID_2005_" class="st2" d="M71.2,38.9c0-3.3,0-6.6,0-10c0-1.1,0.2-1.6,1.5-1.6c5.9,0.1,11.9,0.1,17.8,0
				c1.1,0,1.4,0.3,1.3,1.4c-0.1,1-0.1,2,0,3.1c0.1,1-0.2,1.2-1.2,1.2c-3.6-0.1-7.3,0.1-10.9-0.1c-1.4,0-1.1,0.8-1.1,1.5
				c0,0.7-0.4,1.6,1.1,1.6c2.9-0.1,5.7,0,8.6-0.1c1,0,1.3,0.3,1.2,1.2c-0.1,1.3,0.5,3-0.3,3.8c-0.7,0.8-2.4,0.2-3.7,0.2
				c-1.9,0-3.8,0.1-5.7,0c-0.9,0-1.3,0.1-1.2,1.1c0,2.5,0,2.5,2.5,2.5c3.2,0,6.3,0,9.5,0c1,0,1.3,0.3,1.2,1.3
				c-0.1,1.4,0.5,3.2-0.2,4c-0.8,0.9-2.7,0.3-4.1,0.3c-4.9,0-9.7-0.1-14.6,0.1c-1.5,0-1.7-0.5-1.7-1.7
				C71.2,45.4,71.2,42.2,71.2,38.9z"/>
			<path id="XMLID_2004_" class="st2" d="M269.5,34.2c-1.6,2.2-3.2,4.3-4.9,6.4c-0.6,0.8-0.8,1.4,0,2.3c1.9,2.3,3.7,4.7,5.7,7.4
				c-2.5,0-4.7,0-7,0c-0.5,0-0.6-0.5-0.8-0.9c-1.7-2.3-3.4-4.7-5.3-7.4c0,2.6-0.1,4.8,0,6.9c0,1-0.2,1.5-1.3,1.4
				c-1.7-0.2-4,0.7-5-0.3c-0.9-0.9-0.3-3.2-0.3-4.9c0-5.5,0-11,0-16.6c0-1,0.2-1.3,1.2-1.3c1.4,0.1,2.8,0.1,4.1,0
				c0.9-0.1,1.2,0.2,1.2,1.2c-0.1,4.2,0,8.4,0,12.8c1-0.8,1.5-1.9,2.1-2.8c1.1-1.5,1.8-3.6,3.3-4.3c1.5-0.8,3.6-0.2,5.4-0.2
				C268.5,34,268.9,33.8,269.5,34.2z"/>
			<path id="XMLID_2003_" class="st2" d="M101.9,36.7c2-2.6,4.5-3.4,7.5-3c3.2,0.4,5.2,2.4,5.3,5.7c0.1,3.4,0,6.7,0.1,10.1
				c0,0.7-0.2,0.9-0.9,0.9c-1.6,0-3.2-0.1-4.8,0c-0.8,0-0.9-0.2-0.9-1c0-2.2,0.1-4.5,0-6.7c-0.1-2.6-2.1-4-4.5-3.1
				c-1.4,0.6-1.8,1.7-1.8,3.1c0,2.2,0,4.4,0,6.6c0,0.9-0.2,1.1-1.1,1.1c-1.5-0.1-3.1-0.1-4.6,0c-0.7,0-0.9-0.2-0.9-0.9
				c0-4.9,0-9.8,0-14.7c0-0.7,0.2-0.9,0.9-0.9c1.4,0,2.8,0.1,4.1,0c1.3-0.1,1.7,0.4,1.5,1.6C101.9,35.9,101.9,36.3,101.9,36.7z"/>
			<path id="XMLID_2000_" class="st2" d="M192.1,43.1c-1.7,0-3.5,0.1-5.2,0c-1,0-1.1,0.4-0.9,1.2c0.5,2,3.2,2.7,4.8,1.1
				c0.5-0.5,1-0.6,1.6-0.6c1.7,0,3.4,0,5.1,0c0.8,0,0.9,0.3,0.6,0.9c-0.7,1.9-2,3.3-3.9,4c-3.3,1.3-6.7,1.4-10,0.2
				c-3.9-1.4-5.4-4.5-5.2-8.6c0.3-4.2,3.1-7,7.3-7.6c2.7-0.4,5.4-0.3,7.9,0.9c2.9,1.4,4.7,4.3,4.5,7.5c0,0.7-0.3,1-1,0.9
				C195.8,43.1,194,43.1,192.1,43.1z M191.5,40.2c-0.2-1.5-1.1-2.1-2.3-2.3c-1.1-0.1-2,0.1-2.7,1c-0.2,0.3-0.4,0.6-0.3,1
				c0.1,0.5,0.6,0.3,0.9,0.3C188.5,40.3,190,40.2,191.5,40.2z"/>
			<path id="XMLID_1997_" class="st2" d="M131.4,43.1c-1.8,0-3.6,0-5.4,0c-0.8,0-1,0.4-0.8,1c0.2,0.9,0.6,1.7,1.5,1.9
				c1.2,0.3,2.4,0.4,3.3-0.6c0.5-0.5,0.9-0.7,1.6-0.7c1.6,0,3.3,0,4.9,0c1,0,1.1,0.3,0.7,1.2c-0.7,1.9-2,3.1-3.8,3.8
				c-3.3,1.3-6.8,1.4-10.2,0.2c-3.3-1.2-5-3.8-5.1-7.6c-0.1-3.5,1.5-6.4,4.7-7.7c3.5-1.5,7-1.5,10.5,0.1c3,1.3,4.7,4.2,4.5,7.5
				c0,0.8-0.4,1-1.1,1C135,43.1,133.2,43.1,131.4,43.1z M128.1,40.2c0.6,0,1.1,0,1.7,0c1.1,0.1,1.1-0.3,0.6-1.1
				c-0.9-1.4-3.3-1.7-4.5-0.4c-0.3,0.3-0.6,0.8-0.4,1.2c0.2,0.5,0.7,0.2,1.1,0.2C127.1,40.3,127.6,40.2,128.1,40.2z"/>
			<path id="XMLID_1996_" class="st2" d="M243.7,40.9c-0.8,0-1.5,0-2.3,0c-0.6,0-1.1-0.1-1.6-0.6c-1.2-1.3-3.3-1.2-4.4,0
				c-1,1-1,2.9,0,3.9c1,1,3.4,1.1,4.3,0.1c0.6-0.6,1.1-0.7,1.9-0.7c1.5,0,3,0.1,4.4,0c1.4-0.1,1.4,0.5,1.1,1.6
				c-0.6,2.3-2.1,3.8-4.2,4.7c-3,1.2-6.1,1.3-9.1,0.5c-4.1-1.1-6.4-4.4-6.1-8.7c0.3-4.3,3.1-7.3,7.4-7.8c3.5-0.4,6.8-0.2,9.8,2
				c1.4,1,2.1,2.4,2.4,4.1c0.1,0.7,0,1.1-0.8,1C245.6,40.8,244.6,40.9,243.7,40.9z"/>
			<path id="XMLID_1995_" class="st2" d="M202.6,42c0-0.6-0.1-1.2,0-1.8c0.1-0.9-0.2-1.4-1.2-1.2c-0.7,0.1-0.9-0.2-0.9-0.9
				c-0.1-1.4,0-2.7,1.4-3.6c0.9-0.6,1.6-1.4,2.3-2.2c1-1.2,2.2-1.6,3.7-1.5c1.1,0,1.4,0.4,1.3,1.4c-0.3,1.6,0.4,2,2,1.9
				c2.4-0.1,2.4,0,2.4,2.5c0,2.4,0,2.4-2.4,2.4c-2,0-2,0-2,2c0,0.5,0,1,0,1.5c0,2.5,1.1,3.5,3.5,2.9c1.3-0.3,1.2,0.2,1.2,1.1
				c0,0.6,0,1.2,0,1.8c0,2.2-0.1,2.4-2.4,2.4c-1.3,0-2.5,0-3.8-0.3c-3.2-0.7-4.6-2.2-5-5.4C202.6,44,202.6,43,202.6,42
				C202.6,42,202.6,42,202.6,42z"/>
			<path id="XMLID_1994_" class="st2" d="M154.9,40.9c-1.5-0.3-2.8-0.7-4.2-0.4c-2.2,0.5-3,1.3-3.1,3.7c-0.1,1.7-0.1,3.4,0,5.1
				c0.1,1.1-0.3,1.3-1.3,1.2c-1.4-0.1-2.9,0-4.3,0c-0.7,0-1-0.1-1-0.9c0-4.9,0-9.7,0-14.6c0-0.9,0.4-1,1.1-1c1.4,0,2.8,0.1,4.1,0
				c1.1-0.1,1.5,0.3,1.3,1.4c-0.1,0.5,0,1,0.1,1.6c1.3-2,3-3,5.2-3.2c1.7-0.1,1.9,0,1.9,1.7C154.9,37.2,154.9,39,154.9,40.9z"/>
			<path id="XMLID_1993_" class="st2" d="M224.4,42.2c0,2.4,0,4.8,0,7.2c0,0.7-0.1,1-0.9,1c-1.6-0.1-3.2-0.1-4.7,0
				c-0.8,0-0.9-0.3-0.9-1c0-4.8,0-9.6,0-14.4c0-0.9,0.3-1.1,1.1-1.1c1.8,0.1,4-0.7,5.1,0.3c1,0.9,0.2,3.2,0.3,4.9
				C224.4,40.2,224.4,41.2,224.4,42.2z"/>
			<path id="XMLID_1992_" class="st2" d="M278.4,31c1.6-1.7,3-3.2,4.4-4.8c0.4-0.4,0.8-0.4,1.3-0.4c2.1,0,4.3,0,6.5,0
				c-0.2,0.7-0.8,0.8-1.2,1.1c-1.2,0.8-2.5,1.5-3.5,2.4C283.8,31.4,281.2,31.2,278.4,31z"/>
			<path id="XMLID_1991_" class="st2" d="M221.1,32.5c-2,0-3.4-1.1-3.4-2.7c0-1.7,1.3-2.7,3.5-2.7c2.1,0,3.4,1.1,3.4,2.6
				C224.6,31.4,223.3,32.5,221.1,32.5z"/>
		</g>
	</g>
</g>
</svg>
