<?xml version="1.0" encoding="utf-8"?>
<!-- Generator: Adobe Illustrator 19.0.0, SVG Export Plug-In . SVG Version: 6.00 Build 0)  -->
<svg version="1.1" id="Layer_1" xmlns="http://www.w3.org/2000/svg" xmlns:xlink="http://www.w3.org/1999/xlink" x="0px" y="0px"
	 viewBox="0 0 120 52" style="enable-background:new 0 0 120 52;" xml:space="preserve">
<style type="text/css">
	.st0{fill:#5C5959;}
</style>
<g id="XMLID_1_">
	<g id="XMLID_2331_" transform="matrix( 1, 0, 0, 1, 0,0) ">
		<g id="XMLID_2332_">
			<g id="a_37_">
				<path id="XMLID_2333_" class="st0" d="M38.2,35.1l2.1-10.7l-16,16h13.2L34.2,52l15.9-16.9H38.2z"/>
			</g>
		</g>
	</g>
	<g id="XMLID_2328_" transform="matrix( 1, 0, 0, 1, 0,0) ">
		<g id="XMLID_2329_">
			<g id="a_36_">
				<path id="XMLID_2330_" class="st0" d="M85.1,35.1l2.1-10.7l-16,16h13.2L81.1,52l15.9-16.9H85.1z"/>
			</g>
		</g>
	</g>
	<g id="XMLID_2325_" transform="matrix( 1, 0, 0, 1, 0,0) ">
		<g id="XMLID_2326_">
			<g id="a_35_">
				<path id="XMLID_2327_" class="st0" d="M15.1,10.7L17.2,0l-16,16h13.2l-3.4,11.5l15.9-16.9H15.1z"/>
			</g>
		</g>
	</g>
	<g id="XMLID_2322_" transform="matrix( 1, 0, 0, 1, 0,0) ">
		<g id="XMLID_2323_">
			<g id="a_34_">
				<path id="XMLID_2324_" class="st0" d="M62.1,10.7L64.2,0l-16,16h13.2l-3.4,11.5L74,10.7H62.1z"/>
			</g>
		</g>
	</g>
	<g id="XMLID_2319_" transform="matrix( 1, 0, 0, 1, 0,0) ">
		<g id="XMLID_2320_">
			<g id="a_33_">
				<path id="XMLID_2321_" class="st0" d="M106.8,10.7L108.9,0l-16,16h13.2l-3.4,11.5l15.9-16.9H106.8z"/>
			</g>
		</g>
	</g>
</g>
</svg>
