<?xml version="1.0" encoding="utf-8"?>
<!-- Generator: Adobe Illustrator 19.0.0, SVG Export Plug-In . SVG Version: 6.00 Build 0)  -->
<svg version="1.1" id="Layer_1" xmlns="http://www.w3.org/2000/svg" xmlns:xlink="http://www.w3.org/1999/xlink" x="0px" y="0px"
	 viewBox="0 0 16 11" style="enable-background:new 0 0 16 11;" xml:space="preserve">
<style type="text/css">
	.st0{fill:#848484;}
</style>
<g>
	<path id="XMLID_4_" class="st0" d="M9.2,5.8l5.5-5.5C14.4,0.1,14,0,13.5,0H2.5C2,0,1.6,0.1,1.2,0.3l5.5,5.5
		C7.6,6.7,8.4,6.7,9.2,5.8z"/>
	<path id="XMLID_3_" class="st0" d="M15.4,0.9l-4.6,4.6l4.6,4.6c0.2-0.3,0.3-0.8,0.3-1.3V2.2C15.7,1.7,15.6,1.3,15.4,0.9z"/>
	<path id="XMLID_2_" class="st0" d="M9.9,6.5C9.3,7,8.6,7.3,8,7.3C7.4,7.3,6.7,7,6.1,6.5L5.8,6.1l-4.6,4.6C1.6,10.9,2,11,2.5,11
		h10.9c0.5,0,0.9-0.1,1.3-0.3l-4.6-4.6L9.9,6.5z"/>
	<path id="XMLID_1_" class="st0" d="M0.6,0.9C0.4,1.3,0.3,1.7,0.3,2.2v6.6c0,0.5,0.1,0.9,0.3,1.3l4.6-4.6L0.6,0.9z"/>
</g>
</svg>
