<?xml version="1.0" encoding="utf-8"?>
<!-- Generator: Adobe Illustrator 19.0.0, SVG Export Plug-In . SVG Version: 6.00 Build 0)  -->
<svg version="1.1" id="Layer_1" xmlns="http://www.w3.org/2000/svg" xmlns:xlink="http://www.w3.org/1999/xlink" x="0px" y="0px"
	 viewBox="62 -40 137 95" style="enable-background:new 62 -40 137 95;" xml:space="preserve">
<style type="text/css">
	.st0{fill:#FFFFFF;}
</style>
<g id="XMLID_17_">
	<path id="XMLID_18_" class="st0" d="M62.1,37.9h1.6v16.8h-1.6V37.9z"/>
	<path id="XMLID_20_" class="st0" d="M67.7,37.9h1.8L78.4,52V37.9H80v16.8h-1.8l-8.9-14.1v14.1h-1.6V37.9z"/>
	<path id="XMLID_22_" class="st0" d="M83.9,37.9H94v1.4h-8.5v6.1h8V47h-8v7.8h-1.6V37.9z"/>
	<path id="XMLID_25_" class="st0" d="M103.4,37.7c3.9,0,7.3,3.2,7.3,8.6s-3.4,8.7-7.3,8.7s-7.3-3.2-7.3-8.6S99.5,37.7,103.4,37.7z
		 M103.4,53.5c3,0,5.6-2.5,5.6-7.2c0-4.6-2.7-7.2-5.6-7.2s-5.6,2.6-5.6,7.2C97.8,51,100.5,53.5,103.4,53.5z"/>
	<path id="XMLID_29_" class="st0" d="M114.1,37.9h5.6c3.3,0,5.8,1.5,5.8,4.9c0,3.5-2.6,5-5.8,5h-4v6.9h-1.6V37.9z M119.8,46.4
		c2.1,0,4.1-1,4.1-3.5s-2-3.5-4.1-3.5h-4v7H119.8z"/>
	<path id="XMLID_32_" class="st0" d="M135.1,37.7c3.9,0,7.3,3.2,7.3,8.6S139,55,135.1,55c-3.9,0-7.3-3.2-7.3-8.6
		S131.1,37.7,135.1,37.7z M135.1,53.5c3,0,5.6-2.5,5.6-7.2c0-4.6-2.7-7.2-5.6-7.2c-3,0-5.6,2.6-5.6,7.2
		C129.4,51,132.1,53.5,135.1,53.5z"/>
	<path id="XMLID_35_" class="st0" d="M154.3,50.9c-1.4-2.4-2.4-3.7-4.6-3.7h-2.3v7.6h-1.6V37.9h5.9c2.9,0,5.4,1.4,5.4,4.6
		c0,2.6-1.6,4.1-3.8,4.5c1.1,0.8,1.9,2,2.8,3.5l2.5,4.3h-1.9L154.3,50.9z M151.6,45.7c2.1,0,3.7-0.9,3.7-3.1s-1.7-3.1-3.7-3.1h-4.2
		v6.3h4.2V45.7z"/>
	<path id="XMLID_38_" class="st0" d="M165.2,39.4h-5.7V38h13v1.4h-5.7v15.4h-1.6C165.2,54.8,165.2,39.4,165.2,39.4z"/>
	<path id="XMLID_40_" class="st0" d="M177.8,37.9h1.8l6.4,16.8h-1.8l-2.1-5.7h-6.9l-2.1,5.7h-1.7L177.8,37.9z M175.7,47.6h5.8
		l-2.9-7.8L175.7,47.6z M180.6,32.5l1.9,0.4l-4.2,3.4l-1.6-0.3L180.6,32.5z"/>
	<path id="XMLID_44_" class="st0" d="M188.4,37.9h1.6v15.4h8.8v1.4h-10.4V37.9z"/>
</g>
<path id="XMLID_26_" class="st0" d="M105.9,9.2h13.6l-3.3,3.9h-9.4c-0.2,0-0.4,0.1-0.6,0.2l-4.9,3.9c-0.3,0.3-0.5,0.7-0.3,1.1
	c0.2,0.4,0.6,0.7,1,0.7h57c0.4,0,0.8-0.3,0.9-0.7c0.1-0.4,0-0.8-0.3-1.1l-4.9-3.9c-0.2-0.1-0.4-0.2-0.6-0.2h-9.4l-3.3-3.9H155
	c2.7,0,4.9-2.2,4.9-4.9v-39.4c0.1-2.7-2.1-4.9-4.8-4.9h-49.2c-2.7,0-4.9,2.2-4.9,4.9V4.2C101,7,103.2,9.2,105.9,9.2z M156.2,17
	h-51.4l2.5-2h9.5h27.5h9.5L156.2,17z M142.2,13.1h-23.4l3.3-3.9h16.8L142.2,13.1z M103-35.1c0-1.6,1.3-2.9,3-2.9h49.2
	c1.5,0,2.8,1.3,2.8,2.9V4.2c0,1.6-1.3,3-2.9,3h-15.8h-17.6h-15.8c-1.6,0-3-1.3-3-3L103-35.1L103-35.1z"/>
<path id="XMLID_23_" class="st0" d="M105.9,1.3h49.2c0.5,0,1-0.4,1-1v-35.4c0-0.5-0.4-1-1-1h-49.2c-0.5,0-1,0.4-1,1V0.3
	C104.9,0.9,105.4,1.3,105.9,1.3z M106.9-34.1h47.2v33.4h-47.2V-34.1z"/>
<rect id="XMLID_6_" x="125.6" y="3.3" class="st0" width="9.8" height="2"/>
<path class="st0" d="M121.4-13.9h8l-2,6.9c-0.1,0.5,0.1,1,0.5,1.2c0.2,0.1,0.3,0.1,0.5,0.1c0.3,0,0.6-0.1,0.8-0.3l11.3-12
	c0.3-0.3,0.4-0.8,0.2-1.2c-0.2-0.4-0.6-0.6-1-0.6h-7.2l1.2-6.3c0.1-0.5-0.1-0.9-0.5-1.1s-0.9-0.1-1.3,0.2l-11.4,11.4
	c-0.3,0.3-0.4,0.8-0.2,1.2C120.5-14.2,120.9-13.9,121.4-13.9z M131-23.2l-0.8,4.2c-0.1,0.3,0,0.6,0.2,0.9c0.2,0.2,0.5,0.4,0.8,0.4h6
	l-6.6,7l1.2-4c0.1-0.3,0-0.7-0.2-0.9c-0.2-0.3-0.5-0.4-0.9-0.4h-6.9L131-23.2z"/>
</svg>
