<?xml version="1.0" encoding="utf-8"?>
<!-- Generator: Adobe Illustrator 19.0.0, SVG Export Plug-In . SVG Version: 6.00 Build 0)  -->
<svg version="1.1" id="Layer_1" xmlns="http://www.w3.org/2000/svg" xmlns:xlink="http://www.w3.org/1999/xlink" x="0px" y="0px"
	 viewBox="-250 250.9 66 66" style="enable-background:new -250 250.9 66 66;" xml:space="preserve">
<style type="text/css">
	.st0{fill:#F3F3F3;}
	.st1{fill:#4F97D3;}
</style>
<circle id="XMLID_1_" class="st0" cx="-217" cy="283.9" r="33"/>
<g id="XMLID_3_">
	<path id="XMLID_2_" class="st1" d="M-200.9,275.9h-32.2c-0.9,0-1.6-0.7-1.6-1.6l0,0c0-0.9,0.7-1.6,1.6-1.6h32.3
		c0.9,0,1.6,0.7,1.6,1.6l0,0C-199.3,275.2-200,275.9-200.9,275.9z"/>
	<path id="XMLID_4_" class="st1" d="M-200.9,295.1h-32.2c-0.9,0-1.6-0.7-1.6-1.6l0,0c0-0.9,0.7-1.6,1.6-1.6h32.3
		c0.9,0,1.6,0.7,1.6,1.6l0,0C-199.3,294.4-200,295.1-200.9,295.1z"/>
	<path id="XMLID_5_" class="st1" d="M-200.9,285.6h-32.2c-0.9,0-1.6-0.7-1.6-1.6l0,0c0-0.9,0.7-1.6,1.6-1.6h32.3
		c0.9,0,1.6,0.7,1.6,1.6l0,0C-199.3,284.9-200,285.6-200.9,285.6z"/>
</g>
</svg>
