<?xml version="1.0" encoding="utf-8"?>
<!-- Generator: Adobe Illustrator 19.0.0, SVG Export Plug-In . SVG Version: 6.00 Build 0)  -->
<svg version="1.1" id="Layer_1" xmlns="http://www.w3.org/2000/svg" xmlns:xlink="http://www.w3.org/1999/xlink" x="0px" y="0px"
	 viewBox="62 -40 137 95" style="enable-background:new 62 -40 137 95;" xml:space="preserve">
<style type="text/css">
	.st0{fill:none;}
	.st1{fill:#FFFFFF;}
</style>
<rect x="-369.8" y="579.3" class="st0" width="142.1" height="20.6"/>
<rect x="62.1" y="36.5" class="st0" width="136.9" height="20.6"/>
<g>
	<path class="st1" d="M74.3,37.2c3.9,0,7.3,3.2,7.3,8.6s-3.4,8.6-7.3,8.6S67,51.3,67,45.9S70.4,37.2,74.3,37.2z M74.3,53.1
		c3,0,5.6-2.5,5.6-7.2c0-4.6-2.7-7.2-5.6-7.2s-5.6,2.6-5.6,7.2C68.7,50.5,71.3,53.1,74.3,53.1z"/>
	<path class="st1" d="M85,37.5h1.6v15.4h8.8v1.4H85V37.5z"/>
	<path class="st1" d="M99.5,47.7l-6.2-10.3h1.9l5.2,8.5l5.2-8.5h1.8l-6.2,10.3v6.5h-1.6V47.7z"/>
	<path class="st1" d="M109.6,37.5h2.2l5.9,14.4l5.8-14.4h2.2v16.8H124V40l-5.7,14.3h-1.4l-5.7-14v14h-1.6V37.5z"/>
	<path class="st1" d="M129.4,37.5h5.6c3.3,0,5.8,1.5,5.8,4.9c0,3.5-2.6,5-5.8,5h-4v6.9h-1.6V37.5z M135.1,45.9c2.1,0,4.1-1,4.1-3.5
		c0-2.5-2-3.5-4.1-3.5h-4v7H135.1z"/>
	<path class="st1" d="M143.8,37.5h1.6v16.8h-1.6V37.5z"/>
	<path class="st1" d="M154.3,37.5h1.8l6.4,16.8h-1.8l-2.1-5.7h-6.9l-2.1,5.7h-1.7L154.3,37.5z M152.2,47.1h5.8l-2.9-7.8L152.2,47.1z
		 M157.2,32l1.9,0.4l-4.2,3.4l-1.6-0.3L157.2,32z"/>
	<path class="st1" d="M164.9,37.5h5.8c3.9,0,7.3,3.1,7.3,8.4c0,5.3-3.4,8.4-7.3,8.4h-5.8V37.5z M170.8,52.8c3,0,5.6-2.5,5.6-7
		s-2.6-7-5.6-7h-4.2v13.9H170.8z"/>
	<path class="st1" d="M185.8,37.5h1.8l6.4,16.8h-1.8l-2.1-5.7h-6.9l-2.1,5.7h-1.7L185.8,37.5z M183.8,47.1h5.8l-2.9-7.8L183.8,47.1z
		"/>
</g>
<g>
	<g id="XMLID_2331_" transform="matrix( 1, 0, 0, 1, 0,0) ">
		<g id="XMLID_2332_">
			<g id="a_37_">
				<path id="XMLID_2333_" class="st1" d="M111.6,1.8l1.8-9.2L99.6,6.4H111l-2.9,10l13.8-14.5H111.6z"/>
			</g>
		</g>
	</g>
	<g id="XMLID_2328_" transform="matrix( 1, 0, 0, 1, 0,0) ">
		<g id="XMLID_2329_">
			<g id="a_36_">
				<path id="XMLID_2330_" class="st1" d="M152.2,1.8l1.8-9.2L140.2,6.4h11.5l-2.9,10l13.8-14.5H152.2z"/>
			</g>
		</g>
	</g>
	<g id="XMLID_2325_" transform="matrix( 1, 0, 0, 1, 0,0) ">
		<g id="XMLID_2326_">
			<g id="a_35_">
				<path id="XMLID_2327_" class="st1" d="M91.6-19.4l1.8-9.2L79.6-14.8h11.5l-2.9,10L102-19.4H91.6z"/>
			</g>
		</g>
	</g>
	<g id="XMLID_2322_" transform="matrix( 1, 0, 0, 1, 0,0) ">
		<g id="XMLID_2323_">
			<g id="a_34_">
				<path id="XMLID_2324_" class="st1" d="M132.2-19.4l1.8-9.2l-13.8,13.8h11.5l-3,10l13.8-14.6H132.2z"/>
			</g>
		</g>
	</g>
	<g id="XMLID_2319_" transform="matrix( 1, 0, 0, 1, 0,0) ">
		<g id="XMLID_2320_">
			<g id="a_33_">
				<path id="XMLID_2321_" class="st1" d="M171-19.4l1.8-9.2L159-14.8h11.5l-2.9,10l13.8-14.6H171z"/>
			</g>
		</g>
	</g>
</g>
</svg>
