<?xml version="1.0" encoding="utf-8"?>
<!-- Generator: Adobe Illustrator 19.0.0, SVG Export Plug-In . SVG Version: 6.00 Build 0)  -->
<svg version="1.1" id="Layer_1" xmlns="http://www.w3.org/2000/svg" xmlns:xlink="http://www.w3.org/1999/xlink" x="0px" y="0px"
	 viewBox="-250 250.9 66 66" style="enable-background:new -250 250.9 66 66;" xml:space="preserve">
<style type="text/css">
	.st0{fill:#F3F3F3;}
	.st1{fill:#4F97D3;stroke:#4F97D3;stroke-width:0.5;stroke-miterlimit:10;}
</style>
<circle id="XMLID_1_" class="st0" cx="-217" cy="283.9" r="33"/>
<path id="XMLID_22_" class="st1" d="M-229.6,298.5c-0.5,0.5-1.4,0.5-1.9,0s-0.5-1.4,0-1.9l12.6-12.7l-12.7-12.6
	c-0.5-0.5-0.5-1.4,0-1.9s1.4-0.5,1.9,0L-217,282l12.6-12.6c0.5-0.5,1.4-0.5,1.9,0s0.5,1.4,0,1.9l-12.6,12.6l12.6,12.6
	c0.5,0.5,0.5,1.4,0,1.9s-1.4,0.5-1.9,0l-12.6-12.6L-229.6,298.5z"/>
</svg>
