<?xml version="1.0" encoding="utf-8"?>
<!-- Generator: Adobe Illustrator 19.0.0, SVG Export Plug-In . SVG Version: 6.00 Build 0)  -->
<svg version="1.1" id="Layer_1" xmlns="http://www.w3.org/2000/svg" xmlns:xlink="http://www.w3.org/1999/xlink" x="0px" y="0px"
	 viewBox="-215 236.9 137 95" style="enable-background:new -215 236.9 137 95;" xml:space="preserve">
<style type="text/css">
	.st0{fill:#4F97D3;}
</style>
<g>
	<path class="st0" d="M-191,326.8c0.5,2.5,2.2,3.7,4.7,3.7c2.5,0,4.3-1.3,4.3-3.1c0-5.1-10.3-1.4-10.3-8.2c0-2.7,2.4-4.6,5.7-4.6
		c3.3,0,5.5,1.7,6,4.7l-1.6,0.4c-0.4-2.4-2.2-3.7-4.5-3.7s-4,1.3-4,3.1c0,5.1,10.3,1.4,10.3,8.2c0,2.7-2.4,4.6-5.9,4.6
		c-3.5,0-5.7-1.7-6.3-4.7L-191,326.8z M-190.9,309.6l1.7-0.3l2.5,2.5l2.6-2.5l1.6,0.3l-3.4,3.4h-1.7L-190.9,309.6z"/>
	<path class="st0" d="M-177,314.9h1.6v8.4l7.8-8.4h2.1l-6.6,7.1l7.2,9.7h-2l-6.3-8.4l-2.1,2.3v6.1h-1.6V314.9z"/>
	<path class="st0" d="M-156.8,314.6c3.9,0,7.3,3.2,7.3,8.6s-3.4,8.6-7.3,8.6c-3.9,0-7.3-3.2-7.3-8.6S-160.7,314.6-156.8,314.6z
		 M-156.8,330.4c3,0,5.6-2.5,5.6-7.2c0-4.6-2.7-7.2-5.6-7.2s-5.6,2.6-5.6,7.2C-162.4,327.9-159.7,330.4-156.8,330.4z"/>
	<path class="st0" d="M-146.1,314.9h1.6v15.4h8.8v1.4h-10.4V314.9z"/>
	<path class="st0" d="M-132.7,314.9h10.6v1.4h-9v6.1h8.5v1.5h-8.5v6.3h9v1.4h-10.6V314.9z"/>
	<path class="st0" d="M-118.7,314.9h1.8l8.9,14.1v-14.1h1.6v16.8h-1.8l-8.9-14.1v14.1h-1.6V314.9z"/>
	<path class="st0" d="M-99.6,309.4l1.9,0.4l-4.2,3.4l-1.6-0.3L-99.6,309.4z M-102.4,314.9h1.6v16.8h-1.6V314.9z"/>
</g>
<path class="st0" d="M-106.5,254.4L-146,238c-0.3-0.1-0.7-0.1-1,0l-39.5,16.3c-0.5,0.2-0.8,0.7-0.8,1.3s0.3,1,0.8,1.3l10.1,4.2v24.5
	c0,0.8,0.6,1.4,1.4,1.4c0.6,0,1.2-0.5,1.3-1.1c1.3-1.1,10.3-3,27.3-3c7.1,0,13.8,0.4,19.1,1.1v5.7c0,0.8,0.6,1.4,1.4,1.4h8.2
	c0.8,0,1.4-0.6,1.4-1.4v-12.3V261l10.1-4.2c0.5-0.2,0.8-0.7,0.8-1.3S-106,254.6-106.5,254.4z M-146.6,280.1
	c-5.5,0-20.9,0.2-27.2,2.8v-20.8l26.7,11.1c0.2,0.1,0.3,0.1,0.5,0.1c0.2,0,0.4,0,0.5-0.1l22.6-9.4v8.3c-2.3,0.6-4.1,2.7-4.1,5.3v3.8
	C-132.8,280.5-139.5,280.1-146.6,280.1z M-119.3,272.7c-0.2-0.1-0.4-0.2-0.6-0.3c0,0,0,0,0,0c-0.2-0.1-0.5-0.2-0.7-0.2v-9.4l1.4-0.6
	V272.7z M-119.3,288.3h-5.4v-5.6v-5.3c0-1.5,1.2-2.7,2.7-2.7c1.5,0,2.7,1.2,2.7,2.7V288.3z M-146.6,270.5l-35.9-14.9l35.9-14.9
	l35.9,14.9L-146.6,270.5z"/>
</svg>
