<?xml version="1.0" encoding="utf-8"?>
<!-- Generator: Adobe Illustrator 19.0.0, SVG Export Plug-In . SVG Version: 6.00 Build 0)  -->
<svg version="1.1" id="Layer_1" xmlns="http://www.w3.org/2000/svg" xmlns:xlink="http://www.w3.org/1999/xlink" x="0px" y="0px"
	 viewBox="-215 236.9 137 95" style="enable-background:new -215 236.9 137 95;" xml:space="preserve">
<style type="text/css">
	.st0{fill:none;}
	.st1{enable-background:new    ;}
	.st2{fill:#FFFFFF;}
</style>
<rect x="-431.8" y="619.3" class="st0" width="142.1" height="20.6"/>
<text transform="matrix(1 0 0 1 -431.75 637.0914)" style="font-family:'UrbanGroteskReBo-Regular'; font-size:24px;">INFOPORTÁL</text>
<g>
	<path class="st2" d="M-198.6,314.9h5.6c3.3,0,5.8,1.5,5.8,4.9c0,3.5-2.6,5-5.8,5h-4v6.9h-1.6V314.9z M-192.9,323.3
		c2.1,0,4.1-1,4.1-3.5c0-2.5-2-3.5-4.1-3.5h-4v7H-192.9z"/>
	<path class="st2" d="M-181.3,314.9h1.8l6.4,16.8h-1.8l-2.1-5.7h-6.9l-2.1,5.7h-1.7L-181.3,314.9z M-183.3,324.5h5.8l-2.9-7.8
		L-183.3,324.5z"/>
	<path class="st2" d="M-162.1,327.8c-1.4-2.4-2.4-3.7-4.6-3.7h-2.3v7.6h-1.6v-16.8h5.9c2.9,0,5.4,1.4,5.4,4.6c0,2.6-1.6,4.1-3.8,4.5
		c1.1,0.8,1.9,2,2.8,3.5l2.5,4.3h-1.9L-162.1,327.8z M-164.8,322.6c2.1,0,3.7-0.9,3.7-3.1s-1.7-3.1-3.7-3.1h-4.2v6.3H-164.8z"/>
	<path class="st2" d="M-151.2,316.3h-5.7v-1.4h13v1.4h-5.7v15.4h-1.6V316.3z"/>
	<path class="st2" d="M-141.4,314.9h1.8l8.9,14.1v-14.1h1.6v16.8h-1.8l-8.9-14.1v14.1h-1.6V314.9z"/>
	<path class="st2" d="M-125.2,314.9h10.6v1.4h-9v6.1h8.5v1.5h-8.5v6.3h9v1.4h-10.6V314.9z"/>
	<path class="st2" d="M-102.6,327.8c-1.4-2.3-2.4-3.6-4.5-3.7h-2.4v7.6h-1.6v-16.8h5.9c2.9,0,5.4,1.4,5.4,4.6c0,2.6-1.6,4.1-3.8,4.5
		c1.1,0.8,1.9,2,2.8,3.5l2.5,4.3h-1.9L-102.6,327.8z M-110.2,309.6l1.7-0.3l2.5,2.5l2.6-2.5l1.6,0.3l-3.4,3.4h-1.7L-110.2,309.6z
		 M-105.3,322.6c2.1,0,3.7-0.9,3.7-3.1s-1.7-3.1-3.7-3.1h-4.2v6.3H-105.3z"/>
	<path class="st2" d="M-96,314.9h1.6v16.8H-96V314.9z"/>
</g>
<path class="st2" d="M-113.2,245.5h-9.2c-0.6,0-1.2,0.5-1.2,1.2v1.2h-27.7c-0.3,0-0.6,0.1-0.8,0.3l-1.5,1.5l-1.5-1.5
	c-0.2-0.2-0.5-0.3-0.8-0.3h-13.9v-1.2c0-0.6-0.5-1.2-1.2-1.2h-9.2c-0.6,0-1.2,0.5-1.2,1.2v32.3c0,0.6,0.5,1.2,1.2,1.2h9.2
	c0.6,0,1.2-0.5,1.2-1.2v-1.2h0.9c0.3,0.6,0.8,1.2,1.4,1.6c0.6,0.4,1.3,0.6,1.9,0.6c0.2,0,0.5,0,0.7-0.1c0.2,0.9,0.8,1.6,1.6,2.1
	c0.6,0.4,1.3,0.6,1.9,0.6c0.2,0,0.5,0,0.7-0.1c0.2,0.9,0.8,1.6,1.6,2.1c0.6,0.4,1.2,0.6,1.9,0.6c0.2,0,0.5,0,0.7-0.1
	c0.2,0.9,0.8,1.6,1.6,2.1c0.6,0.4,1.3,0.6,1.9,0.6c1.2,0,2.4-0.6,3.1-1.7l0.8-1.2l3.6,3.6c0.7,0.7,1.6,1.1,2.5,1.1s1.8-0.4,2.5-1.1
	c0.7-0.6,1-1.5,1-2.4c0.9,0,1.7-0.4,2.4-1c0.7-0.6,1-1.5,1-2.4c0.9,0,1.7-0.4,2.4-1c0.7-0.6,1-1.5,1-2.4c0.9,0,1.7-0.4,2.4-1
	c0.4-0.4,0.7-0.9,0.8-1.4l5.8,1v1.3c0,0.6,0.5,1.2,1.2,1.2h9.2c0.6,0,1.2-0.5,1.2-1.2v-32.3C-112,246-112.5,245.5-113.2,245.5z
	 M-172,277.8h-6.9v-30h6.9v1.2v27.7V277.8z M-166.3,277.4c-0.3-0.2-0.5-0.5-0.6-0.8c0-0.1,0-0.3,0-0.4c0,0,0-0.1,0-0.1
	c0-0.1,0.1-0.3,0.2-0.4l3.5-5.5c0.1-0.1,0.2-0.2,0.3-0.3c0,0,0.1,0,0.1-0.1c0.1-0.1,0.3-0.1,0.4-0.2c0,0,0,0,0.1,0
	c0.1,0,0.3,0,0.4,0c0,0,0.1,0,0.1,0c0.1,0,0.3,0.1,0.4,0.2c0.6,0.4,0.8,1.2,0.4,1.8l-3.5,5.5C-164.9,277.6-165.7,277.8-166.3,277.4z
	 M-162.1,280c-0.6-0.4-0.8-1.2-0.4-1.8l1.3-2.1l0,0l2.1-3.4c0.2-0.4,0.7-0.6,1.1-0.6c0.2,0,0.5,0.1,0.7,0.2c0.3,0.2,0.5,0.5,0.6,0.8
	c0.1,0.3,0,0.7-0.2,1l-3.5,5.5C-160.7,280.2-161.5,280.4-162.1,280z M-158,282.6c-0.3-0.2-0.5-0.5-0.6-0.8c-0.1-0.3,0-0.7,0.2-1
	l3.5-5.5c0.4-0.6,1.2-0.8,1.8-0.4c0.6,0.4,0.8,1.2,0.4,1.8l-3.5,5.5c-0.2,0.3-0.5,0.5-0.8,0.6C-157.3,282.9-157.7,282.8-158,282.6z
	 M-152,284.8c-0.4,0.6-1.2,0.8-1.8,0.4c-0.6-0.4-0.8-1.2-0.4-1.8l3.5-5.5c0,0,0,0,0,0c0.2-0.3,0.5-0.5,0.8-0.6c0.1,0,0.2,0,0.3,0
	c0.2,0,0.5,0.1,0.7,0.2c0.3,0.2,0.5,0.5,0.6,0.8c0.1,0.3,0,0.7-0.2,1L-152,284.8z M-142.3,286.8c-0.5,0.5-1.3,0.5-1.8,0l-4-4
	l1.4-2.2l4.4,4.4c0.2,0.2,0.4,0.6,0.4,0.9S-142,286.5-142.3,286.8z M-131.9,276.4c-0.5,0.5-1.3,0.5-1.8,0l-6.3-6.3l-1.6,1.6l6.3,6.3
	c0.2,0.2,0.4,0.6,0.4,0.9c0,0.3-0.1,0.7-0.4,0.9c-0.5,0.5-1.3,0.5-1.8,0l-6.3-6.3l-1.6,1.6l6.3,6.3c0.2,0.2,0.4,0.6,0.4,0.9
	c0,0.3-0.1,0.7-0.4,0.9c-0.5,0.5-1.3,0.5-1.8,0l-5.2-5.2l0,0l-0.3-0.3c0,0,0,0,0,0c-0.2-0.9-0.8-1.7-1.6-2.2
	c-0.8-0.5-1.7-0.7-2.6-0.5c-0.2-0.9-0.8-1.6-1.6-2.1c-0.8-0.5-1.7-0.6-2.6-0.5c-0.2-0.9-0.8-1.6-1.6-2.1c-0.8-0.5-1.7-0.6-2.6-0.5
	c-0.2-0.9-0.8-1.6-1.6-2.1c-1.7-1.1-3.9-0.6-5,1.1l-3.5,5.5c-0.1,0.2-0.2,0.4-0.3,0.6c0,0.1-0.1,0.2-0.1,0.3c0,0.1,0,0.1-0.1,0.2
	h-0.7v-25.4h13.4l1.2,1.2l-2.6,2.6c-1.7,1.7-1.7,4.5,0,6.2c1.7,1.7,4.5,1.7,6.2,0l2.6-2.6l17.1,17.1c0.2,0.2,0.4,0.6,0.4,0.9
	S-131.6,276.1-131.9,276.4z M-128.8,274.4l-1.5-1.5l-17.9-17.9c-0.5-0.5-1.2-0.5-1.6,0l-3.5,3.5c-0.8,0.8-2.2,0.8-3,0
	c-0.1-0.1-0.2-0.2-0.3-0.3c0,0,0-0.1,0-0.1c-0.1-0.1-0.1-0.2-0.1-0.3c0,0,0-0.1,0-0.1c0-0.1-0.1-0.2-0.1-0.3c0,0,0-0.1,0-0.1
	c0-0.2,0-0.4,0-0.6c0,0,0-0.1,0-0.1c0-0.1,0.1-0.2,0.1-0.3c0,0,0-0.1,0-0.1c0-0.1,0.1-0.2,0.1-0.3c0,0,0-0.1,0-0.1
	c0.1-0.1,0.2-0.2,0.3-0.3l3.5-3.5l2-2h27.2v25.2L-128.8,274.4z M-114.3,277.8h-6.9v-1.2v-27.7v-1.2h6.9V277.8z"/>
</svg>
