<?xml version="1.0" encoding="utf-8"?>
<!-- Generator: Adobe Illustrator 19.0.0, SVG Export Plug-In . SVG Version: 6.00 Build 0)  -->
<svg version="1.1" id="Layer_1" xmlns="http://www.w3.org/2000/svg" xmlns:xlink="http://www.w3.org/1999/xlink" x="0px" y="0px"
	 viewBox="-215 236.9 137 95" style="enable-background:new -215 236.9 137 95;" xml:space="preserve">
<style type="text/css">
	.st0{fill:none;}
	.st1{fill:#4F97D3;}
</style>
<rect x="-431.8" y="619.3" class="st0" width="142.1" height="20.6"/>
<g>
	<path class="st1" d="M-173.6,314.6c3.9,0,7.3,3.2,7.3,8.6s-3.4,8.6-7.3,8.6c-3.9,0-7.3-3.2-7.3-8.6S-177.5,314.6-173.6,314.6z
		 M-173.6,330.5c3,0,5.6-2.5,5.6-7.2c0-4.6-2.7-7.2-5.6-7.2s-5.6,2.6-5.6,7.2C-179.2,327.9-176.5,330.5-173.6,330.5z"/>
	<path class="st1" d="M-155.7,314.9h1.8l8.9,14.1v-14.1h1.6v16.8h-1.8l-8.9-14.1v14.1h-1.6V314.9z"/>
	<path class="st1" d="M-134.4,314.9h1.8l6.4,16.8h-1.8l-2.1-5.7h-6.9l-2.1,5.7h-1.7L-134.4,314.9z M-136.5,324.6h5.8l-2.9-7.8
		L-136.5,324.6z M-131.5,309.4l1.9,0.4l-4.2,3.4l-1.6-0.3L-131.5,309.4z"/>
	<path class="st1" d="M-122.7,326.8c0.5,2.5,2.2,3.7,4.7,3.7c2.5,0,4.3-1.3,4.3-3.1c0-5.1-10.3-1.4-10.3-8.2c0-2.7,2.4-4.6,5.7-4.6
		c3.3,0,5.5,1.7,6,4.7l-1.6,0.4c-0.4-2.4-2.2-3.7-4.5-3.7c-2.3,0-4,1.3-4,3.1c0,5.1,10.3,1.4,10.3,8.2c0,2.7-2.4,4.6-5.9,4.6
		c-3.5,0-5.7-1.7-6.3-4.7L-122.7,326.8z"/>
</g>
<g>
	<path class="st1" d="M-115.6,296.7c-0.4-4.2-3.1-7.9-7.2-9.9c0.8-1.2,1.3-2.7,1.3-4.2c0-4.2-3.4-7.7-7.7-7.7s-7.7,3.4-7.7,7.7
		c0,1.5,0.4,3,1.3,4.2c-1,0.5-2,1.1-2.8,1.8c0.8-1.2,1.2-2.6,1.2-4.1c0-4.2-3.4-7.7-7.7-7.7c-4.2,0-7.7,3.4-7.7,7.7
		c0,1.5,0.4,3,1.3,4.2c-0.8,0.4-1.6,0.9-2.3,1.4c-1.2-1.4-2.7-2.5-4.4-3.3c0.8-1.2,1.3-2.7,1.3-4.2c0-4.2-3.4-7.7-7.7-7.7
		s-7.7,3.4-7.7,7.7c0,1.5,0.4,3,1.3,4.2c-4.1,2-6.8,5.6-7.2,9.9l-0.1,1.2h19.7c0,0.2-0.1,0.5-0.1,0.7l-0.1,1.2h27.6l-0.1-1.2
		c0-0.2-0.1-0.5-0.1-0.7h16L-115.6,296.7z M-167.2,287.8l-1.2-1.2c-1-1-1.6-2.4-1.6-3.9c0-3,2.5-5.5,5.5-5.5c3,0,5.5,2.5,5.5,5.5
		c0,1.5-0.6,2.8-1.6,3.9l-1.2,1.2l1.6,0.6c2.2,0.8,4.1,2.2,5.4,4l0.7,1l0.9-0.8c1.1-1,2.4-1.8,3.9-2.3l1.6-0.6l-1.2-1.2
		c-1-1-1.6-2.4-1.6-3.9c0-3,2.5-5.5,5.5-5.5c3,0,5.5,2.5,5.5,5.5c0,1.5-0.6,2.8-1.6,3.9l-1.2,1.2l1.6,0.6c0.6,0.2,1.2,0.5,1.7,0.8
		l0.7,0.4l0.6-0.6c1.2-1.1,2.6-2,4.1-2.5l1.6-0.6l-1.2-1.2c-1-1-1.6-2.4-1.6-3.9c0-3,2.5-5.5,5.5-5.5c3,0,5.5,2.5,5.5,5.5
		c0,1.5-0.6,2.8-1.6,3.9l-1.2,1.2l1.6,0.6c3.6,1.3,6.2,4,7,7.4h-16.3v0.1l0.4,1.3c0.1,0.2,0.1,0.3,0.1,0.5h-22.6
		c0-0.2,0.1-0.3,0.1-0.5l0.4-1.4h-20.1c0.8-3.4,3.4-6.1,7-7.4L-167.2,287.8z"/>
	<path class="st1" d="M-130.6,257.9c0.9,0.7,2,1.1,3.1,1.1c1.5,0,2.9-0.7,3.8-1.8c0.7-0.9,1.1-2,1.1-3.1c0-1.5-0.7-2.9-1.8-3.8
		c-0.9-0.7-2-1.1-3.1-1.1c-1.5,0-2.9,0.7-3.8,1.8c-0.2,0.2-0.3,0.4-0.5,0.6l-4.7-0.8c0-0.1,0-0.2,0-0.3c0-1.5-0.7-2.9-1.8-3.8
		c-0.3-0.3-0.7-0.5-1.1-0.7l-1.9-0.4l0,0c0,0,0,0-0.1,0c-1.5,0-2.9,0.7-3.8,1.8c-0.7,0.9-1.1,2-1.1,3.2c0,1.1,0.4,2.2,1.1,3.1
		l-3.2,4.9c-0.8-0.4-1.7-0.5-2.6-0.5c-1.3,0.1-2.5,0.8-3.3,1.8c-0.3,0.4-0.5,0.8-0.7,1.2l-4.5-1.1c0-0.2,0-0.4,0-0.6
		c0-1.5-0.7-2.9-1.8-3.8c-1-0.8-2.3-1.2-3.6-1.1c-1.3,0.1-2.5,0.8-3.3,1.8c-0.7,0.9-1.1,2-1.1,3.1c0,1.5,0.7,2.9,1.8,3.8
		c0.9,0.7,2,1.1,3.1,1.1c1.5,0,2.9-0.7,3.8-1.8c0.1-0.1,0.2-0.3,0.3-0.5l4.8,1.1c0.1,1.4,0.7,2.7,1.8,3.6c0.9,0.7,2,1.1,3.1,1.1
		c0.2,0,0.3,0,0.5,0c1.3-0.1,2.5-0.8,3.3-1.8c0.7-0.9,1.1-2,1.1-3.2c0-1.1-0.4-2.2-1.1-3.1l3.2-4.9c0.8,0.4,1.7,0.5,2.6,0.5
		c1.3-0.1,2.5-0.8,3.3-1.8c0.2-0.2,0.3-0.5,0.5-0.7l4.7,0.8c0,0.1,0,0.2,0,0.4C-132.4,255.5-131.7,256.9-130.6,257.9z M-127.4,251.4
		c0.6,0,1.2,0.2,1.7,0.6c0.6,0.5,1,1.3,1,2.1c0,0.6-0.2,1.2-0.6,1.7c-0.5,0.6-1.3,1-2.1,1c-0.6,0-1.2-0.2-1.7-0.6
		c-0.6-0.5-1-1.3-1-2.1c0-0.6,0.2-1.2,0.6-1.7l0,0C-129,251.7-128.2,251.4-127.4,251.4z M-147.8,262.9c0,0.6-0.2,1.2-0.6,1.7v0
		c-0.5,0.6-1.3,1-2.1,1c-0.6,0-1.2-0.2-1.7-0.6c-0.6-0.5-1-1.3-1-2.1c0-0.6,0.2-1.2,0.6-1.7c0.5-0.6,1.1-0.9,1.8-1
		c0.1,0,0.2,0,0.3,0c0.6,0,1.2,0.2,1.7,0.6C-148.1,261.3-147.8,262.1-147.8,262.9z M-138.6,250.5c0,0.6-0.2,1.2-0.6,1.7
		c-0.5,0.6-1.1,0.9-1.8,1c-0.7,0.1-1.4-0.1-2-0.6c-0.6-0.5-1-1.3-1-2.1c0-0.6,0.2-1.2,0.6-1.7c0.5-0.6,1.3-1,2.1-1
		c0.6,0,1.2,0.2,1.7,0.6C-139,248.9-138.6,249.7-138.6,250.5z M-161.7,259.3c0,0.6-0.2,1.2-0.6,1.7c-0.5,0.6-1.3,1-2.1,1
		c-0.6,0-1.2-0.2-1.7-0.6c-0.6-0.5-1-1.3-1-2.1c0-0.6,0.2-1.2,0.6-1.7c0.5-0.6,1.1-0.9,1.8-1c0.1,0,0.2,0,0.3,0
		c0.6,0,1.2,0.2,1.7,0.6C-162,257.7-161.7,258.5-161.7,259.3z"/>
	<path class="st1" d="M-115.8,236.9h-61.3c-0.7,0-1.2,0.5-1.2,1.2v44.4c0,0.7,0.5,1.2,1.2,1.2h2.2v-2.4h-1.1v-42h58.9v42h-1.1v2.4
		h2.2c0.7,0,1.2-0.5,1.2-1.2v-44.4C-114.6,237.5-115.2,236.9-115.8,236.9z"/>
	<path class="st1" d="M-117.8,279.5v-38.2c0-0.7-0.5-1.2-1.2-1.2h-55c-0.7,0-1.2,0.5-1.2,1.2v38.2h2.4v-37h52.6v37H-117.8z"/>
</g>
</svg>
