<?xml version="1.0" encoding="iso-8859-1"?>
<!-- Generator: Adobe Illustrator 19.0.0, SVG Export Plug-In . SVG Version: 6.00 Build 0)  -->
<svg version="1.1" id="Layer_1" xmlns="http://www.w3.org/2000/svg" xmlns:xlink="http://www.w3.org/1999/xlink" x="0px" y="0px"
	 viewBox="19 -20 250 85" style="enable-background:new 19 -20 250 85;" xml:space="preserve">
<rect x="63.333" y="-3.808" style="fill:none;" width="161.333" height="56.949"/>
<g id="XMLID_2019_" transform="matrix( 1, 0, 0, 1, 0,0) ">
	<g id="XMLID_2020_">
		<g id="a_22_">
			<path id="XMLID_2021_" style="fill:#6284C2;" d="M146.646,18.034l5.896-29.882l-44.554,44.621h36.983L135.592,65l44.42-46.966
				H146.646z"/>
		</g>
	</g>
</g>
<g>
	<defs>
		<rect id="SVGID_1_" x="63.333" y="-3.808" width="161.333" height="56.949"/>
	</defs>
	<clipPath id="SVGID_2_">
		<use xlink:href="#SVGID_1_"  style="overflow:visible;"/>
	</clipPath>
	<g id="_x39_v8mhU.tif_15_" style="clip-path:url(#SVGID_2_);">
		<g id="XMLID_2013_">
			<path id="XMLID_2014_" style="fill:#231F20;" d="M89.731,48.25c-0.67-0.335-1.407-0.603-1.407-1.541
				c0-1.005,0.469-1.742,1.273-2.278c0.938-0.536,1.943-0.938,2.948-1.206c1.139-0.335,1.407-1.139,1.675-2.211
				c-0.804,0.737-1.474,1.407-2.479,1.608c-1.742,0.402-3.015-0.67-2.546-2.345c0.804-2.948,2.747-5.025,5.628-6.03
				c0.938-0.335,1.809-0.067,2.479,0.67c0.268,0.268,0.335,0.469-0.067,0.67c-0.469,0.201-0.938,0.603-1.474,0.134
				c-0.335-0.268-0.804-0.067-1.139,0.134c-1.809,0.938-3.082,2.345-3.819,4.221c-0.134,0.402-0.268,0.804,0.134,1.139
				c0.402,0.335,0.871,0.134,1.206-0.134c1.34-0.871,2.345-2.144,3.283-3.417c0.134-0.134,0.201-0.335,0.268-0.469
				c0.201-0.201,0.201-0.67,0.536-0.67c0.402,0.067,0.737,0.268,1.072,0.536c0.268,0.134,0,0.402-0.067,0.536
				c-0.536,1.34-1.072,2.68-1.608,4.02c-0.067,0.134-0.067,0.201-0.134,0.469c2.077-0.804,3.752-1.943,5.226-3.551
				c0.938-1.005,1.608-2.144,2.211-3.35c0.201-0.402,0.201-0.603-0.201-0.871c-0.603-0.469-0.804-1.407-0.469-2.077
				c0.335-0.67,0.871-0.938,1.541-0.804c0.67,0.067,1.206,0.603,1.072,1.474c-0.134,0.938,0.335,1.206,1.072,1.407
				c1.809,0.536,2.144,1.541,1.273,3.216c-0.335,0.603-0.67,1.206-0.938,1.809c-0.268,0.536-0.402,1.273,0.134,1.742
				s1.206,0.335,1.742,0c1.273-0.67,2.211-1.675,3.015-2.881c1.206-1.809,2.68-3.283,4.824-3.886
				c1.139-0.335,2.077,0.067,2.814,1.072c-0.268,0.134-0.536,0.268-0.804,0.402c-0.335,0.201-0.536,0.268-0.871,0
				c-0.469-0.335-1.005-0.134-1.474,0.067c-1.742,0.938-2.948,2.345-3.752,4.087c-0.201,0.402-0.268,0.871,0.067,1.206
				c0.402,0.268,0.804,0.134,1.206-0.134c1.541-0.938,2.546-2.412,3.551-3.886c0.134-0.201,0.201-0.67,0.536-0.603
				c0.402,0.067,0.737,0.335,1.072,0.469c0.268,0.134,0,0.335-0.067,0.469c-0.268,0.737-0.603,1.541-0.871,2.278
				c-0.134,0.402-0.201,0.938,0.201,1.273c0.402,0.335,0.938,0.268,1.407,0.067c1.34-0.603,2.211-1.742,3.149-2.747
				c0.737-0.804,1.005-1.876,1.407-2.881c0.536-1.34,0.536-1.34,2.077-1.139c-0.268,0.737-0.536,1.474-0.871,2.345
				c0.67-0.603,1.273-1.072,1.809-1.608c0.469-0.402,1.005-0.737,1.608-0.871c1.072-0.335,1.809,0.268,1.809,1.407
				c0,0.603-0.335,1.139-0.536,1.876c0.469-0.402,0.804-0.737,1.206-1.072c0.536-0.402,1.072-0.804,1.742-0.469
				c0.737,0.335,0.871,1.005,0.871,1.742s0,1.474,0,2.211c0,1.34,0.804,1.809,1.943,1.072c1.407-0.938,2.479-2.144,3.216-3.618
				c0.536-1.005,1.139-1.943,2.077-2.546c0.67-0.469,1.407-0.67,2.211-0.603c1.34,0.067,2.278,1.273,2.211,2.814
				c0,0.335-0.067,0.737-0.134,1.072c-0.201,0.871,0.067,1.139,0.938,1.206c1.541,0.134,2.613-0.603,3.417-1.809
				c0.335-0.469,0.402-1.072,0.603-1.608c-0.067,0-0.134-0.067-0.134-0.067c-0.268-0.201-0.871,0.268-0.938-0.268
				c-0.067-0.67,0.469-1.206,1.139-1.206c0.402,0,0.67-0.067,0.737-0.469c0-0.067,0.067-0.201,0.134-0.268
				c0.536-1.273,0.536-1.273,2.01-1.139c-0.067,0.536-0.335,1.005-0.536,1.474c-0.134,0.335-0.067,0.469,0.268,0.469
				c0.536,0,1.072,0,1.608,0c-0.201,1.407-0.268,1.541-1.541,1.407c-0.871-0.067-1.273,0.201-1.541,1.005
				c-0.268,0.871-0.67,1.742-1.005,2.613c-0.402,1.273,0.134,1.943,1.407,1.876c1.474-0.067,2.546-1.005,3.618-1.876
				c1.273-1.005,1.876-2.412,2.412-3.886c0.469-1.34,0.536-1.34,2.01-1.139c-0.268,0.67-0.469,1.273-0.737,1.876
				c0.067,0.067,0.067,0.067,0.134,0.134c0.402-0.402,0.737-0.804,1.139-1.206c0.536-0.469,1.206-0.871,1.943-1.005
				c1.206-0.134,1.809,0.402,1.876,1.608c0.067,1.005-0.134,1.943-0.201,2.881c-0.067,0.536-0.134,1.072,0,1.608
				c0.134,1.005,0.737,1.273,1.608,0.804c1.072-0.603,1.809-1.608,2.613-2.546c0.335-0.402,0.67-0.871,0.938-1.407
				c0.402-0.804,0.871-1.474,1.608-2.01c1.273-1.005,2.68-1.206,3.685-0.536c0.938,0.603,1.34,2.01,1.005,3.551
				c-0.201,0.804,0.067,1.139,0.938,1.206c1.206,0.067,2.144-0.335,2.948-1.206c0.938-1.072,1.876-2.211,2.948-3.216
				c0.268-0.268,0.201-0.469,0.134-0.737c-0.268-1.206,0.335-2.01,1.407-2.077c1.072-0.067,1.742,0.871,1.139,1.742
				c-0.603,0.871-0.335,1.34,0.134,2.077c1.005,1.608,1.273,3.283,0.067,5.025c2.546-0.402,5.226-2.68,5.829-5.092
				c0,0,0,0-0.067-0.067c-0.268-0.134-0.871,0.268-0.938-0.268c-0.067-0.603,0.536-1.206,1.139-1.206
				c0.402,0,0.67-0.067,0.737-0.536c0.067-0.201,0.201-0.402,0.268-0.603c0.335-0.737,0.871-1.005,1.675-0.804
				c0.335,0.067,0.201,0.268,0.134,0.402c-0.201,0.536-0.737,1.072-0.469,1.474c0.201,0.268,1.005,0.067,1.541,0.067
				c0.335,0,0.402,0.134,0.268,0.402c-0.201,0.603-0.402,1.139-1.34,1.072c-1.273-0.134-1.273,0-1.742,1.206
				c-0.335,0.804-0.67,1.608-0.938,2.412c-0.402,1.273,0.134,2.01,1.474,1.876c1.474-0.134,2.546-1.005,3.551-1.876
				c0.67-0.536,1.139-1.206,1.675-1.876c0.335,0.268,0.67,0.603,1.005,0.871c0,0.134,0,0.201,0,0.335
				c-0.804,0.804-1.541,1.675-2.412,2.412c-1.072,0.804-2.278,1.407-3.618,1.675c-2.01,0.335-3.082-0.335-3.417-2.345
				c-1.407,1.005-2.948,1.742-4.623,2.077c-1.474,0.335-2.948,0.603-4.489,0.268c-0.402-0.067-0.737-0.201-1.072-0.402
				c-1.005-0.603-1.005-0.737-0.201-1.474c0.268-0.268,0.402-0.268,0.67,0c1.005,0.804,2.412,0.804,3.417,0.067
				c1.005-0.737,1.407-2.077,0.938-3.35c-0.201-0.603-0.469-1.139-0.871-1.608c-1.072,0.938-1.943,2.01-2.814,3.015
				c-1.273,1.474-2.948,2.211-4.824,1.675c-0.938-0.268-1.34-0.134-1.809,0.603c-0.469,0.67-1.139,1.139-1.876,1.407
				c-1.474,0.603-2.881-0.067-3.417-1.608c-0.067-0.134-0.067-0.201-0.134-0.402c-0.737,0.737-1.474,1.474-2.479,1.876
				c-2.01,0.804-3.35-0.067-3.417-2.211c-0.067-1.139,0.134-2.211,0.201-3.35c0.067-0.402,0.268-1.005-0.268-1.273
				c-0.469-0.268-0.871,0.201-1.206,0.469c-1.675,1.541-2.948,3.417-4.087,5.427c-0.67,1.139-0.67,1.139-2.077,1.005
				c0-0.402,0.402-0.737,0.335-1.273c-1.072,0.737-2.211,1.273-3.417,1.407c-0.737,0.134-1.407,0.067-2.077-0.268
				c-0.938-0.469-1.206-1.273-1.139-2.345c-1.072,0.469-2.144,0.737-3.216,0.536h-0.067c-1.005-0.67-1.541-0.067-2.077,0.67
				c-0.603,0.737-1.407,1.273-2.345,1.407c-1.34,0.201-2.278-0.469-2.881-2.077c-0.536,0.469-1.005,0.938-1.541,1.34
				c-0.871,0.603-1.809,0.938-2.881,0.804c-1.005-0.134-1.608-0.871-1.675-1.876c-0.067-0.804,0-1.608,0-2.479
				c0-0.268,0.134-0.67-0.201-0.804c-0.402-0.201-0.67,0.067-0.938,0.335c-1.005,1.005-1.809,2.144-2.546,3.35
				c-0.067,0.067-0.067,0.134-0.134,0.201c-0.335,1.139-1.072,1.407-2.144,1.072c0.737-1.809,1.407-3.618,2.144-5.427
				c0.134-0.402,0.536-0.871,0.134-1.206c-0.402-0.335-0.871,0.067-1.206,0.335c-1.742,1.34-2.881,3.216-3.953,5.092
				c-0.67,1.206-0.67,1.206-2.077,1.139c-0.134-0.335,0.268-0.536,0.134-0.938c-0.737,0.402-1.474,0.871-2.345,1.072
				c-1.675,0.335-2.747-0.402-2.814-2.211c-0.603,0.536-1.072,1.072-1.742,1.541c-0.603,0.402-1.34,0.67-2.077,0.737
				c-1.005,0.067-1.608-0.469-1.943-1.407c-1.005,0.804-2.077,1.474-3.35,1.474c-1.809,0-2.814-1.34-2.345-3.149
				c0.201-0.871,0.67-1.608,1.139-2.345c0.67-1.139,0.201-1.943-1.072-2.01c-0.268,0-0.268,0.201-0.335,0.335
				c-1.809,3.886-4.757,6.499-8.844,7.906c-0.469,0.134-0.804,0.402-0.938,0.871c-0.067,0.201-0.201,0.402-0.335,0.603
				c-0.804,1.608-2.01,2.814-3.819,3.216C90.133,48.25,89.932,48.25,89.731,48.25z M143.598,37.195
				c-0.067-0.603-0.067-1.206-0.67-1.474c-0.603-0.335-1.139-0.067-1.608,0.268c-1.206,1.005-1.809,2.278-1.876,3.819
				c0,0.469,0.067,1.005,0.536,1.273c0.536,0.268,1.005,0.134,1.474-0.201C142.794,40.009,143.33,38.669,143.598,37.195z
				 M169.728,39.339c0,1.675,0.67,2.211,1.742,1.675c1.34-0.603,2.546-2.881,2.278-4.288c-0.201-1.206-1.005-1.608-2.01-0.938
				C170.398,36.726,169.862,38.066,169.728,39.339z M92.88,44.297c-1.072,0.402-2.077,0.603-2.814,1.34
				c-0.268,0.268-0.402,0.603-0.134,0.938s0.603,0.335,0.938,0.134C91.875,46.307,92.344,45.369,92.88,44.297z"/>
		</g>
	</g>
</g>
<g>
	<defs>
		<rect id="SVGID_3_" x="63.333" y="-3.808" width="161.333" height="56.949"/>
	</defs>
	<clipPath id="SVGID_4_">
		<use xlink:href="#SVGID_3_"  style="overflow:visible;"/>
	</clipPath>
	<g id="ncOYM4.tif_10_" style="clip-path:url(#SVGID_4_);">
		<g id="XMLID_1990_">
			<path id="XMLID_2009_" style="fill:#231F20;" d="M131.94,31.367c-0.469-0.402-1.005-0.268-1.541-0.402
				c-1.809-0.335-3.015-1.273-3.216-2.546c-0.268-1.675,0.268-2.68,2.01-3.685c-1.139-1.139-1.072-1.541,0.402-2.68
				c-1.407-0.938-1.809-2.345-1.34-3.886c0.536-1.742,2.01-2.345,3.618-2.546c2.881-0.402,5.829-0.134,8.71-0.201
				c0.268,0,0.469-0.067,0.469,0.335c0,0.737,0,1.407,0,2.144c0,0.402-0.335,0.268-0.536,0.268c-0.469,0-0.871,0-1.407,0
				c0.201,1.072,0.268,2.144-0.469,3.015c-0.804,1.005-1.943,1.34-3.149,1.541c-1.005,0.201-1.943,0.201-2.948,0.201
				c-0.402,0-0.871,0.134-0.871,0.536c0,0.536,0.469,0.469,0.871,0.469c1.541,0.201,3.082,0.067,4.623,0.402
				c2.479,0.536,3.685,2.345,2.948,4.422c-0.402,1.072-1.206,1.608-2.211,1.943c-0.871,0.268-1.809,0.402-2.68,0.603
				C134.084,31.367,133.012,31.367,131.94,31.367z M133.749,28.419c0.536,0,1.072,0,1.608-0.134c0.335-0.134,0.67-0.268,0.603-0.67
				c0-0.335-0.268-0.536-0.603-0.603c-1.139-0.201-2.211-0.201-3.35,0c-0.335,0.067-0.536,0.201-0.536,0.603
				c0,0.402,0.201,0.536,0.536,0.603C132.61,28.419,133.146,28.419,133.749,28.419z M133.615,18.101
				c-0.603,0.067-1.273,0.134-1.273,1.005c0,0.938,0.67,1.072,1.407,1.139c0.737,0,1.407-0.201,1.34-1.139
				C135.022,18.168,134.352,18.101,133.615,18.101z"/>
			<path id="XMLID_2006_" style="fill:#231F20;" d="M217.23,26.61c-1.943,0.402-3.685,0.402-4.958-1.541
				c-0.737,1.139-1.809,1.608-3.082,1.742c-1.206,0.134-2.412,0.067-3.618-0.536c-1.34-0.67-1.809-1.742-1.742-3.149
				c0.067-1.34,0.871-2.144,2.077-2.613c1.675-0.67,3.752-0.603,5.896,0.134c0-0.201,0-0.402,0-0.603c0-0.603,0.201-1.34-0.67-1.541
				c-0.737-0.134-1.675-0.402-2.144,0.603c-0.134,0.335-0.402,0.335-0.67,0.335c-1.139,0-2.278,0-3.417,0
				c-0.536,0-0.67-0.201-0.603-0.67c0.134-1.139,0.804-2.01,1.809-2.479c2.68-1.206,5.427-1.206,8.107-0.201
				c1.474,0.536,1.876,1.876,1.943,3.35c0,0.871,0.067,1.742,0,2.546c-0.067,0.67,0.201,1.072,0.871,1.139
				C217.23,24.265,217.23,25.471,217.23,26.61z M209.994,23.796c0.402,0,0.871,0,1.273-0.067c0.268-0.067,0.603-0.134,0.603-0.536
				c0-0.469-0.335-0.603-0.67-0.603c-0.402-0.067-0.804-0.134-1.206-0.067c-0.603,0.067-1.675-0.201-1.675,0.603
				C208.319,24.064,209.391,23.595,209.994,23.796z"/>
			<path id="XMLID_2005_" style="fill:#231F20;" d="M69.832,18.905c0-2.211,0-4.422,0-6.7c0-0.737,0.134-1.072,1.005-1.072
				c3.953,0.067,7.973,0.067,11.926,0c0.737,0,0.938,0.201,0.871,0.938c-0.067,0.67-0.067,1.34,0,2.077
				c0.067,0.67-0.134,0.804-0.804,0.804c-2.412-0.067-4.891,0.067-7.303-0.067c-0.938,0-0.737,0.536-0.737,1.005
				c0,0.469-0.268,1.072,0.737,1.072c1.943-0.067,3.819,0,5.762-0.067c0.67,0,0.871,0.201,0.804,0.804
				c-0.067,0.871,0.335,2.01-0.201,2.546c-0.469,0.536-1.608,0.134-2.479,0.134c-1.273,0-2.546,0.067-3.819,0
				c-0.603,0-0.871,0.067-0.804,0.737c0,1.675,0,1.675,1.675,1.675c2.144,0,4.221,0,6.365,0c0.67,0,0.871,0.201,0.804,0.871
				c-0.067,0.938,0.335,2.144-0.134,2.68c-0.536,0.603-1.809,0.201-2.747,0.201c-3.283,0-6.499-0.067-9.782,0.067
				c-1.005,0-1.139-0.335-1.139-1.139C69.832,23.26,69.832,21.116,69.832,18.905z"/>
			<path id="XMLID_2004_" style="fill:#231F20;" d="M202.691,15.756c-1.072,1.474-2.144,2.881-3.283,4.288
				c-0.402,0.536-0.536,0.938,0,1.541c1.273,1.541,2.479,3.149,3.819,4.958c-1.675,0-3.149,0-4.69,0
				c-0.335,0-0.402-0.335-0.536-0.603c-1.139-1.541-2.278-3.149-3.551-4.958c0,1.742-0.067,3.216,0,4.623
				c0,0.67-0.134,1.005-0.871,0.938c-1.139-0.134-2.68,0.469-3.35-0.201c-0.603-0.603-0.201-2.144-0.201-3.283
				c0-3.685,0-7.37,0-11.122c0-0.67,0.134-0.871,0.804-0.871c0.938,0.067,1.876,0.067,2.747,0c0.603-0.067,0.804,0.134,0.804,0.804
				c-0.067,2.814,0,5.628,0,8.576c0.67-0.536,1.005-1.273,1.407-1.876c0.737-1.005,1.206-2.412,2.211-2.881
				c1.005-0.536,2.412-0.134,3.618-0.134C202.021,15.622,202.289,15.488,202.691,15.756z"/>
			<path id="XMLID_2003_" style="fill:#231F20;" d="M90.401,17.431c1.34-1.742,3.015-2.278,5.025-2.01
				c2.144,0.268,3.484,1.608,3.551,3.819c0.067,2.278,0,4.489,0.067,6.767c0,0.469-0.134,0.603-0.603,0.603
				c-1.072,0-2.144-0.067-3.216,0c-0.536,0-0.603-0.134-0.603-0.67c0-1.474,0.067-3.015,0-4.489
				c-0.067-1.742-1.407-2.68-3.015-2.077c-0.938,0.402-1.206,1.139-1.206,2.077c0,1.474,0,2.948,0,4.422
				c0,0.603-0.134,0.737-0.737,0.737c-1.005-0.067-2.077-0.067-3.082,0c-0.469,0-0.603-0.134-0.603-0.603c0-3.283,0-6.566,0-9.849
				c0-0.469,0.134-0.603,0.603-0.603c0.938,0,1.876,0.067,2.747,0c0.871-0.067,1.139,0.268,1.005,1.072
				C90.401,16.895,90.401,17.163,90.401,17.431z"/>
			<path id="XMLID_2000_" style="fill:#231F20;" d="M150.834,21.719c-1.139,0-2.345,0.067-3.484,0c-0.67,0-0.737,0.268-0.603,0.804
				c0.335,1.34,2.144,1.809,3.216,0.737c0.335-0.335,0.67-0.402,1.072-0.402c1.139,0,2.278,0,3.417,0
				c0.536,0,0.603,0.201,0.402,0.603c-0.469,1.273-1.34,2.211-2.613,2.68c-2.211,0.871-4.489,0.938-6.7,0.134
				c-2.613-0.938-3.618-3.015-3.484-5.762c0.201-2.814,2.077-4.69,4.891-5.092c1.809-0.268,3.618-0.201,5.293,0.603
				c1.943,0.938,3.149,2.881,3.015,5.025c0,0.469-0.201,0.67-0.67,0.603C153.313,21.719,152.107,21.719,150.834,21.719z
				 M150.432,19.776c-0.134-1.005-0.737-1.407-1.541-1.541c-0.737-0.067-1.34,0.067-1.809,0.67c-0.134,0.201-0.268,0.402-0.201,0.67
				c0.067,0.335,0.402,0.201,0.603,0.201C148.422,19.843,149.427,19.776,150.432,19.776z"/>
			<path id="XMLID_1997_" style="fill:#231F20;" d="M110.166,21.719c-1.206,0-2.412,0-3.618,0c-0.536,0-0.67,0.268-0.536,0.67
				c0.134,0.603,0.402,1.139,1.005,1.273c0.804,0.201,1.608,0.268,2.211-0.402c0.335-0.335,0.603-0.469,1.072-0.469
				c1.072,0,2.211,0,3.283,0c0.67,0,0.737,0.201,0.469,0.804c-0.469,1.273-1.34,2.077-2.546,2.546
				c-2.211,0.871-4.556,0.938-6.834,0.134c-2.211-0.804-3.35-2.546-3.417-5.092c-0.067-2.345,1.005-4.288,3.149-5.159
				c2.345-1.005,4.69-1.005,7.035,0.067c2.01,0.871,3.149,2.814,3.015,5.025c0,0.536-0.268,0.67-0.737,0.67
				C112.578,21.719,111.372,21.719,110.166,21.719z M107.955,19.776c0.402,0,0.737,0,1.139,0c0.737,0.067,0.737-0.201,0.402-0.737
				c-0.603-0.938-2.211-1.139-3.015-0.268c-0.201,0.201-0.402,0.536-0.268,0.804c0.134,0.335,0.469,0.134,0.737,0.134
				C107.285,19.843,107.62,19.776,107.955,19.776z"/>
			<path id="XMLID_1996_" style="fill:#231F20;" d="M185.405,20.245c-0.536,0-1.005,0-1.541,0c-0.402,0-0.737-0.067-1.072-0.402
				c-0.804-0.871-2.211-0.804-2.948,0c-0.67,0.67-0.67,1.943,0,2.613c0.67,0.67,2.278,0.737,2.881,0.067
				c0.402-0.402,0.737-0.469,1.273-0.469c1.005,0,2.01,0.067,2.948,0c0.938-0.067,0.938,0.335,0.737,1.072
				c-0.402,1.541-1.407,2.546-2.814,3.149c-2.01,0.804-4.087,0.871-6.097,0.335c-2.747-0.737-4.288-2.948-4.087-5.829
				c0.201-2.881,2.077-4.891,4.958-5.226c2.345-0.268,4.556-0.134,6.566,1.34c0.938,0.67,1.407,1.608,1.608,2.747
				c0.067,0.469,0,0.737-0.536,0.67C186.678,20.178,186.008,20.245,185.405,20.245z"/>
			<path id="XMLID_1995_" style="fill:#231F20;" d="M157.869,20.982c0-0.402-0.067-0.804,0-1.206
				c0.067-0.603-0.134-0.938-0.804-0.804c-0.469,0.067-0.603-0.134-0.603-0.603c-0.067-0.938,0-1.809,0.938-2.412
				c0.603-0.402,1.072-0.938,1.541-1.474c0.67-0.804,1.474-1.072,2.479-1.005c0.737,0,0.938,0.268,0.871,0.938
				c-0.201,1.072,0.268,1.34,1.34,1.273c1.608-0.067,1.608,0,1.608,1.675c0,1.608,0,1.608-1.608,1.608c-1.34,0-1.34,0-1.34,1.34
				c0,0.335,0,0.67,0,1.005c0,1.675,0.737,2.345,2.345,1.943c0.871-0.201,0.804,0.134,0.804,0.737c0,0.402,0,0.804,0,1.206
				c0,1.474-0.067,1.608-1.608,1.608c-0.871,0-1.675,0-2.546-0.201c-2.144-0.469-3.082-1.474-3.35-3.618
				C157.869,22.322,157.869,21.652,157.869,20.982L157.869,20.982z"/>
			<path id="XMLID_1994_" style="fill:#231F20;" d="M125.91,20.245c-1.005-0.201-1.876-0.469-2.814-0.268
				c-1.474,0.335-2.01,0.871-2.077,2.479c-0.067,1.139-0.067,2.278,0,3.417c0.067,0.737-0.201,0.871-0.871,0.804
				c-0.938-0.067-1.943,0-2.881,0c-0.469,0-0.67-0.067-0.67-0.603c0-3.283,0-6.499,0-9.782c0-0.603,0.268-0.67,0.737-0.67
				c0.938,0,1.876,0.067,2.747,0c0.737-0.067,1.005,0.201,0.871,0.938c-0.067,0.335,0,0.67,0.067,1.072
				c0.871-1.34,2.01-2.01,3.484-2.144c1.139-0.067,1.273,0,1.273,1.139C125.91,17.766,125.91,18.972,125.91,20.245z"/>
			<path id="XMLID_1993_" style="fill:#231F20;" d="M172.475,21.116c0,1.608,0,3.216,0,4.824c0,0.469-0.067,0.67-0.603,0.67
				c-1.072-0.067-2.144-0.067-3.149,0c-0.536,0-0.603-0.201-0.603-0.67c0-3.216,0-6.432,0-9.648c0-0.603,0.201-0.737,0.737-0.737
				c1.206,0.067,2.68-0.469,3.417,0.201c0.67,0.603,0.134,2.144,0.201,3.283C172.475,19.776,172.475,20.446,172.475,21.116z"/>
			<path id="XMLID_1992_" style="fill:#231F20;" d="M208.654,13.612c1.072-1.139,2.01-2.144,2.948-3.216
				c0.268-0.268,0.536-0.268,0.871-0.268c1.407,0,2.881,0,4.355,0c-0.134,0.469-0.536,0.536-0.804,0.737
				c-0.804,0.536-1.675,1.005-2.345,1.608C212.272,13.88,210.53,13.746,208.654,13.612z"/>
			<path id="XMLID_1991_" style="fill:#231F20;" d="M170.264,14.617c-1.34,0-2.278-0.737-2.278-1.809
				c0-1.139,0.871-1.809,2.345-1.809c1.407,0,2.278,0.737,2.278,1.742C172.609,13.88,171.738,14.617,170.264,14.617z"/>
		</g>
	</g>
</g>
</svg>
