<?xml version="1.0" encoding="iso-8859-1"?>
<!-- Generator: Adobe Illustrator 19.0.0, SVG Export Plug-In . SVG Version: 6.00 Build 0)  -->
<svg version="1.1" id="Layer_1" xmlns="http://www.w3.org/2000/svg" xmlns:xlink="http://www.w3.org/1999/xlink" x="0px" y="0px"
	 viewBox="-0.913 -1.25 215.826 47.25" style="enable-background:new -0.913 -1.25 215.826 47.25;" xml:space="preserve">
<g id="XMLID_9_">
	<path id="XMLID_20_" style="fill:#FFFFFF;" d="M66.857,27.177c0.547,2.735,2.407,4.048,5.142,4.048s4.705-1.422,4.705-3.392
		c0-5.58-11.27-1.532-11.27-8.972c0-2.954,2.626-5.033,6.237-5.033s6.018,1.86,6.565,5.142l-1.751,0.438
		c-0.438-2.626-2.407-4.048-4.924-4.048c-2.517,0-4.377,1.422-4.377,3.392c0,5.58,11.27,1.532,11.27,8.972
		c0,2.954-2.626,5.033-6.455,5.033s-6.237-1.86-6.893-5.142L66.857,27.177z M66.967,8.358l1.86-0.328l2.735,2.735l2.845-2.735
		l1.751,0.328l-3.72,3.72h-1.86L66.967,8.358z"/>
	<path id="XMLID_19_" style="fill:#FFFFFF;" d="M82.175,14.157h1.751v9.191l8.534-9.191h2.298l-7.221,7.768l7.878,10.613h-2.188
		l-6.893-9.191l-2.298,2.516v6.674h-1.751v-18.38H82.175z"/>
	<path id="XMLID_16_" style="fill:#FFFFFF;" d="M104.277,13.829c4.267,0,7.987,3.501,7.987,9.41s-3.72,9.41-7.987,9.41
		s-7.987-3.501-7.987-9.41S100.009,13.829,104.277,13.829z M104.277,31.116c3.282,0,6.127-2.735,6.127-7.878
		c0-5.033-2.954-7.878-6.127-7.878s-6.127,2.845-6.127,7.878C98.149,28.381,101.104,31.116,104.277,31.116z"/>
	<path id="XMLID_15_" style="fill:#FFFFFF;" d="M115.984,14.157h1.751v16.85h9.628v1.532h-11.379V14.157L115.984,14.157z"/>
	<path id="XMLID_14_" style="fill:#FFFFFF;" d="M130.645,14.157h11.598v1.532h-9.847v6.674h9.3v1.641h-9.3v6.893h9.847v1.532
		h-11.598L130.645,14.157L130.645,14.157z"/>
	<path id="XMLID_13_" style="fill:#FFFFFF;" d="M145.963,14.157h1.969l9.738,15.427V14.157h1.751v18.381h-1.969l-9.738-15.427
		v15.427h-1.751V14.157z"/>
	<path id="XMLID_10_" style="fill:#FFFFFF;" d="M166.861,8.139l2.079,0.438l-4.595,3.72l-1.751-0.328L166.861,8.139z
		 M163.797,14.157h1.751v18.381h-1.751V14.157z"/>
</g>
<path id="XMLID_81_" style="fill:#FFFFFF;" d="M47.65,12.55l-23.74-9.857c-0.18-0.06-0.421-0.06-0.601,0l-23.74,9.797
	c-0.301,0.12-0.481,0.421-0.481,0.781c0,0.361,0.18,0.601,0.481,0.781l6.07,2.524v14.725c0,0.481,0.361,0.841,0.841,0.841
	c0.361,0,0.721-0.301,0.781-0.661c0.781-0.661,6.191-1.803,16.408-1.803c4.267,0,8.294,0.24,11.48,0.661v3.426
	c0,0.481,0.361,0.841,0.841,0.841h4.928c0.481,0,0.841-0.361,0.841-0.841v-7.393v-9.857l6.07-2.524
	c0.301-0.12,0.481-0.421,0.481-0.781S47.95,12.67,47.65,12.55z M23.549,27.997c-3.306,0-12.561,0.12-16.348,1.683V17.178
	l16.047,6.671c0.12,0.06,0.18,0.06,0.301,0.06s0.24,0,0.301-0.06l13.583-5.65v4.988c-1.382,0.361-2.464,1.623-2.464,3.185v2.284
	C31.843,28.237,27.816,27.997,23.549,27.997z M39.957,23.549c-0.12-0.06-0.24-0.12-0.361-0.18l0,0c-0.12-0.06-0.301-0.12-0.421-0.12
	v-5.65l0.841-0.361v6.311H39.957z M39.957,32.925h-3.246v-3.366v-3.185c0-0.902,0.721-1.623,1.623-1.623s1.623,0.721,1.623,1.623
	C39.957,26.374,39.957,32.925,39.957,32.925z M23.549,22.227L1.972,13.271l21.577-8.955l21.577,8.955L23.549,22.227z"/>
</svg>
