<?xml version="1.0" encoding="iso-8859-1"?>
<!-- Generator: Adobe Illustrator 19.0.0, SVG Export Plug-In . SVG Version: 6.00 Build 0)  -->
<svg version="1.1" id="Layer_1" xmlns="http://www.w3.org/2000/svg" xmlns:xlink="http://www.w3.org/1999/xlink" x="0px" y="0px"
	 viewBox="-0.913 -1.25 215.826 47.25" style="enable-background:new -0.913 -1.25 215.826 47.25;" xml:space="preserve">
<g>
	<path style="fill:#FFFFFF;" d="M65.434,14.155h6.127c3.611,0,6.346,1.641,6.346,5.361c0,3.829-2.845,5.471-6.346,5.471h-4.377v7.55
		h-1.751V14.155z M71.671,23.346c2.298,0,4.486-1.094,4.486-3.829s-2.188-3.829-4.486-3.829h-4.377v7.659H71.671z"/>
	<path style="fill:#FFFFFF;" d="M84.362,14.155h1.969l7.002,18.381h-1.969L89.067,26.3h-7.55l-2.298,6.237h-1.86L84.362,14.155z
		 M82.174,24.659h6.346l-3.173-8.534L82.174,24.659z"/>
	<path style="fill:#FFFFFF;" d="M105.37,28.27c-1.532-2.626-2.626-4.048-5.033-4.048H97.82v8.315H96.07V14.155h6.455
		c3.173,0,5.908,1.532,5.908,5.033c0,2.845-1.751,4.486-4.158,4.924c1.204,0.875,2.079,2.188,3.064,3.829l2.735,4.705h-2.079
		L105.37,28.27z M102.416,22.58c2.298,0,4.048-0.985,4.048-3.392s-1.86-3.392-4.048-3.392H97.82v6.893h4.595V22.58z"/>
	<path style="fill:#FFFFFF;" d="M117.296,15.687h-6.237v-1.532h14.224v1.532h-6.237v16.85h-1.751V15.687z"/>
	<path style="fill:#FFFFFF;" d="M128.018,14.155h1.969l9.738,15.427V14.155h1.751v18.381h-1.969l-9.738-15.427v15.427h-1.751V14.155
		z"/>
	<path style="fill:#FFFFFF;" d="M145.743,14.155h11.598v1.532h-9.847v6.674h9.3v1.641h-9.3v6.893h9.847v1.532h-11.598V14.155z"/>
	<path style="fill:#FFFFFF;" d="M170.471,28.27c-1.532-2.516-2.626-3.939-4.924-4.048h-2.626v8.315h-1.751V14.155h6.455
		c3.173,0,5.908,1.532,5.908,5.033c0,2.845-1.751,4.486-4.158,4.924c1.204,0.875,2.079,2.188,3.064,3.829l2.735,4.705h-2.079
		L170.471,28.27z M162.155,8.356l1.86-0.328l2.735,2.735l2.845-2.735l1.751,0.328l-3.72,3.72h-1.86L162.155,8.356z M167.517,22.58
		c2.298,0,4.048-0.985,4.048-3.392s-1.86-3.392-4.048-3.392h-4.595v6.893h4.595V22.58z"/>
	<path style="fill:#FFFFFF;" d="M177.692,14.155h1.751v18.381h-1.751V14.155z"/>
</g>
<path style="fill:#FFFFFF;" d="M44.886,10.948h-5.834c-0.38,0-0.761,0.317-0.761,0.761v0.761H20.726c-0.19,0-0.38,0.063-0.507,0.19
	l-0.951,0.951l-0.951-0.951c-0.127-0.127-0.317-0.19-0.507-0.19H8.995v-0.761c0-0.38-0.317-0.761-0.761-0.761H2.4
	c-0.38,0-0.761,0.317-0.761,0.761v20.482c0,0.38,0.317,0.761,0.761,0.761h5.834c0.38,0,0.761-0.317,0.761-0.761V31.43h0.571
	c0.19,0.38,0.507,0.761,0.888,1.015c0.38,0.254,0.824,0.38,1.205,0.38c0.127,0,0.317,0,0.444-0.063
	c0.127,0.571,0.507,1.015,1.015,1.332c0.38,0.254,0.824,0.38,1.205,0.38c0.127,0,0.317,0,0.444-0.063
	c0.127,0.571,0.507,1.015,1.015,1.332c0.38,0.254,0.761,0.38,1.205,0.38c0.127,0,0.317,0,0.444-0.063
	c0.127,0.571,0.507,1.015,1.015,1.332c0.38,0.254,0.824,0.38,1.205,0.38c0.761,0,1.522-0.38,1.966-1.078l0.507-0.761l2.283,2.283
	c0.444,0.444,1.015,0.698,1.585,0.698c0.571,0,1.141-0.254,1.585-0.698c0.444-0.38,0.634-0.951,0.634-1.522
	c0.571,0,1.078-0.254,1.522-0.634s0.634-0.951,0.634-1.522c0.571,0,1.078-0.254,1.522-0.634c0.444-0.38,0.634-0.951,0.634-1.522
	c0.571,0,1.078-0.254,1.522-0.634c0.254-0.254,0.444-0.571,0.507-0.888l3.678,0.634v0.824c0,0.38,0.317,0.761,0.761,0.761h5.834
	c0.38,0,0.761-0.317,0.761-0.761V11.836C45.647,11.266,45.33,10.948,44.886,10.948z M7.6,31.43H3.225V12.407H7.6v0.761v17.565V31.43
	z M11.215,31.177c-0.19-0.127-0.317-0.317-0.38-0.507c0-0.063,0-0.19,0-0.254v-0.063c0-0.063,0.063-0.19,0.127-0.254l2.219-3.488
	c0.063-0.063,0.127-0.127,0.19-0.19c0,0,0.063,0,0.063-0.063c0.063-0.063,0.19-0.063,0.254-0.127c0,0,0,0,0.063,0s0.19,0,0.254,0
	h0.063c0.063,0,0.19,0.063,0.254,0.127c0.38,0.254,0.507,0.761,0.254,1.141l-2.219,3.488C12.102,31.304,11.595,31.43,11.215,31.177z
	 M13.878,32.825c-0.38-0.254-0.507-0.761-0.254-1.141l0.824-1.332l0,0l1.332-2.156c0.127-0.254,0.444-0.38,0.698-0.38
	c0.127,0,0.317,0.063,0.444,0.127c0.19,0.127,0.317,0.317,0.38,0.507s0,0.444-0.127,0.634l-2.219,3.488
	C14.766,32.952,14.258,33.079,13.878,32.825z M16.478,34.474c-0.19-0.127-0.317-0.317-0.38-0.507c-0.063-0.19,0-0.444,0.127-0.634
	l2.219-3.488c0.254-0.38,0.761-0.507,1.141-0.254s0.507,0.761,0.254,1.141l-2.219,3.488c-0.127,0.19-0.317,0.317-0.507,0.38
	C16.922,34.664,16.668,34.601,16.478,34.474z M20.282,35.869c-0.254,0.38-0.761,0.507-1.141,0.254
	c-0.38-0.254-0.507-0.761-0.254-1.141l2.219-3.488l0,0c0.127-0.19,0.317-0.317,0.507-0.38c0.063,0,0.127,0,0.19,0
	c0.127,0,0.317,0.063,0.444,0.127c0.19,0.127,0.317,0.317,0.38,0.507c0.063,0.19,0,0.444-0.127,0.634L20.282,35.869z M26.433,37.137
	c-0.317,0.317-0.824,0.317-1.141,0l-2.536-2.536l0.888-1.395l2.79,2.79c0.127,0.127,0.254,0.38,0.254,0.571
	C26.687,36.757,26.624,36.947,26.433,37.137z M33.028,30.543c-0.317,0.317-0.824,0.317-1.141,0l-3.995-3.995l-1.015,1.015
	l3.995,3.995c0.127,0.127,0.254,0.38,0.254,0.571s-0.063,0.444-0.254,0.571c-0.317,0.317-0.824,0.317-1.141,0l-3.995-3.995
	l-1.015,1.015l3.995,3.995c0.127,0.127,0.254,0.38,0.254,0.571s-0.063,0.444-0.254,0.571c-0.317,0.317-0.824,0.317-1.141,0
	l-3.297-3.297l0,0l-0.19-0.19l0,0c-0.127-0.571-0.507-1.078-1.015-1.395c-0.507-0.317-1.078-0.444-1.649-0.317
	c-0.127-0.571-0.507-1.015-1.015-1.332c-0.507-0.317-1.078-0.38-1.649-0.317c-0.127-0.571-0.507-1.015-1.015-1.332
	s-1.078-0.38-1.649-0.317c-0.127-0.571-0.507-1.015-1.015-1.332c-1.078-0.698-2.473-0.38-3.171,0.698l-2.219,3.488
	c-0.063,0.127-0.127,0.254-0.19,0.38c0,0.063-0.063,0.127-0.063,0.19c0,0.063,0,0.063-0.063,0.127H8.932V13.802h8.497l0.761,0.761
	l-1.649,1.649c-1.078,1.078-1.078,2.854,0,3.932c1.078,1.078,2.854,1.078,3.932,0l1.649-1.649l10.843,10.843
	c0.127,0.127,0.254,0.38,0.254,0.571C33.218,30.099,33.218,30.352,33.028,30.543z M34.994,29.274l-0.951-0.951L22.692,16.973
	c-0.317-0.317-0.761-0.317-1.015,0l-2.219,2.219c-0.507,0.507-1.395,0.507-1.902,0c-0.063-0.063-0.127-0.127-0.19-0.19v-0.063
	c-0.063-0.063-0.063-0.127-0.063-0.19v-0.063c0-0.063-0.063-0.127-0.063-0.19v-0.063c0-0.127,0-0.254,0-0.38v-0.063
	c0-0.063,0.063-0.127,0.063-0.19v-0.063c0-0.063,0.063-0.127,0.063-0.19V17.48c0.063-0.063,0.127-0.127,0.19-0.19l2.219-2.219
	l1.268-1.268h17.248v15.98L34.994,29.274z M44.189,31.43h-4.375v-0.761V13.104v-0.761h4.375V31.43z"/>
</svg>
