<?xml version="1.0" encoding="utf-8"?>
<!-- Generator: Adobe Illustrator 19.0.0, SVG Export Plug-In . SVG Version: 6.00 Build 0)  -->
<svg version="1.1" id="Layer_1" xmlns="http://www.w3.org/2000/svg" xmlns:xlink="http://www.w3.org/1999/xlink" x="0px" y="0px"
	 viewBox="101 -16.2 215.8 47.2" style="enable-background:new 101 -16.2 215.8 47.2;" xml:space="preserve">
<style type="text/css">
	.st0{fill:#FFFFFF;}
</style>
<g>
	<path class="st0" d="M172.3-2.5c4.3,0,7.9,3.5,7.9,9.4s-3.7,9.4-7.9,9.4s-7.9-3.5-7.9-9.4S168-2.5,172.3-2.5z M172.3,14.7
		c3.2,0,6.1-2.8,6.1-7.8s-2.9-7.8-6.1-7.8s-6.1,2.8-6.1,7.8C166.2,12,169.1,14.7,172.3,14.7z"/>
	<path class="st0" d="M183.9-2.2h1.8v16.7h9.6v1.6H184V-2.2H183.9z"/>
	<path class="st0" d="M199.7,9L193-2.2h2.1l5.6,9.3l5.6-9.3h2L201.5,9v7.1h-1.8L199.7,9L199.7,9z"/>
	<path class="st0" d="M210.7-2.2h2.3l6.4,15.7l6.3-15.7h2.4v18.3h-1.7V0.5L220.2,16h-1.5l-6.2-15.2V16h-1.7V-2.2H210.7z"/>
	<path class="st0" d="M232.2-2.2h6.1c3.5,0,6.3,1.6,6.3,5.4s-2.9,5.4-6.3,5.4h-4.4v7.5h-1.7V-2.2z M238.4,7c2.3,0,4.5-1.1,4.5-3.8
		s-2.2-3.8-4.5-3.8H234V7H238.4z"/>
	<path class="st0" d="M247.8-2.2h1.8v18.3h-1.8V-2.2z"/>
	<path class="st0" d="M259.2-2.2h2l6.9,18.3h-1.9l-2.3-6.2h-7.5l-2.3,6.2h-1.8L259.2-2.2z M257,8.3h6.3l-3.1-8.4L257,8.3z
		 M262.4-8.1l2,0.4L259.8-4l-1.7-0.3L262.4-8.1z"/>
	<path class="st0" d="M270.8-2.2h6.3c4.3,0,8,3.4,8,9.1s-3.7,9.1-8,9.1h-6.3V-2.2z M277.1,14.5c3.2,0,6.1-2.7,6.1-7.6
		s-2.9-7.6-6.1-7.6h-4.5v15.1L277.1,14.5L277.1,14.5z"/>
	<path class="st0" d="M293.5-2.2h2l6.9,18.3h-1.9l-2.3-6.2h-7.5l-2.3,6.2h-1.8L293.5-2.2z M291.3,8.3h6.3l-3.1-8.4L291.3,8.3z"/>
</g>
<g>
	<g id="XMLID_2331_" transform="matrix( 1, 0, 0, 1, 0,0) ">
		<g id="XMLID_2332_">
			<g id="a_37_">
				<path id="XMLID_2333_" class="st0" d="M116.7,10.9l0.8-4l-6,6h5l-1.2,4.3l6-6.3H116.7z"/>
			</g>
		</g>
	</g>
	<g id="XMLID_2328_" transform="matrix( 1, 0, 0, 1, 0,0) ">
		<g id="XMLID_2329_">
			<g id="a_36_">
				<path id="XMLID_2330_" class="st0" d="M134.3,10.9l0.8-4l-6,6h5l-1.2,4.3l6-6.3H134.3z"/>
			</g>
		</g>
	</g>
	<g id="XMLID_2325_" transform="matrix( 1, 0, 0, 1, 0,0) ">
		<g id="XMLID_2326_">
			<g id="a_35_">
				<path id="XMLID_2327_" class="st0" d="M108.1,1.8l0.8-4l-6,6h5l-1.2,4.3l6-6.3C112.6,1.8,108.1,1.8,108.1,1.8z"/>
			</g>
		</g>
	</g>
	<g id="XMLID_2322_" transform="matrix( 1, 0, 0, 1, 0,0) ">
		<g id="XMLID_2323_">
			<g id="a_34_">
				<path id="XMLID_2324_" class="st0" d="M125.6,1.8l0.8-4l-6,6h5L124,8.2l6-6.3C130,1.8,125.6,1.8,125.6,1.8z"/>
			</g>
		</g>
	</g>
	<g id="XMLID_2319_" transform="matrix( 1, 0, 0, 1, 0,0) ">
		<g id="XMLID_2320_">
			<g id="a_33_">
				<path id="XMLID_2321_" class="st0" d="M142.4,1.8l0.8-4l-6,6h5l-1.2,4.3l6-6.3C146.9,1.8,142.4,1.8,142.4,1.8z"/>
			</g>
		</g>
	</g>
</g>
</svg>
