<?xml version="1.0" encoding="iso-8859-1"?>
<!-- Generator: Adobe Illustrator 19.0.0, SVG Export Plug-In . SVG Version: 6.00 Build 0)  -->
<svg version="1.1" id="Layer_1" xmlns="http://www.w3.org/2000/svg" xmlns:xlink="http://www.w3.org/1999/xlink" x="0px" y="0px"
	 viewBox="-0.913 -1.25 215.826 47.25" style="enable-background:new -0.913 -1.25 215.826 47.25;" xml:space="preserve">
<g>
	<path style="fill:#FFFFFF;" d="M73.421,14.224c4.267,0,7.987,3.501,7.987,9.41s-3.72,9.41-7.987,9.41
		c-4.267,0-7.987-3.501-7.987-9.41S69.154,14.224,73.421,14.224z M73.421,31.621c3.282,0,6.127-2.735,6.127-7.878
		c0-5.033-2.954-7.878-6.127-7.878c-3.173,0-6.127,2.845-6.127,7.878C67.294,28.776,70.248,31.621,73.421,31.621z"/>
	<path style="fill:#FFFFFF;" d="M93.006,14.553h1.969l9.738,15.427V14.553h1.751v18.381h-1.969l-9.738-15.427v15.427h-1.751V14.553z
		"/>
	<path style="fill:#FFFFFF;" d="M116.311,14.553h1.969l7.002,18.381h-1.969l-2.298-6.237h-7.55l-2.298,6.237h-1.86L116.311,14.553z
		 M114.013,25.166h6.346l-3.173-8.534L114.013,25.166z M119.484,8.535l2.079,0.438l-4.595,3.72l-1.751-0.328L119.484,8.535z"/>
	<path style="fill:#FFFFFF;" d="M129.113,27.573c0.547,2.735,2.407,4.048,5.142,4.048c2.735,0,4.705-1.422,4.705-3.392
		c0-5.58-11.27-1.532-11.27-8.972c0-2.954,2.626-5.033,6.237-5.033c3.611,0,6.018,1.86,6.565,5.142l-1.751,0.438
		c-0.438-2.626-2.407-4.048-4.924-4.048c-2.517,0-4.377,1.422-4.377,3.392c0,5.58,11.27,1.532,11.27,8.972
		c0,2.954-2.626,5.033-6.455,5.033c-3.829,0-6.237-1.86-6.893-5.142L129.113,27.573z"/>
</g>
<g>
	<path style="fill:#FFFFFF;" d="M43.116,43.986c-0.254-2.663-1.966-5.01-4.566-6.278c0.507-0.761,0.824-1.712,0.824-2.663
		c0-2.663-2.156-4.883-4.883-4.883c-2.727,0-4.883,2.156-4.883,4.883c0,0.951,0.254,1.902,0.824,2.663
		c-0.634,0.317-1.268,0.698-1.776,1.141c0.507-0.761,0.761-1.649,0.761-2.6c0-2.663-2.156-4.883-4.883-4.883
		c-2.663,0-4.883,2.156-4.883,4.883c0,0.951,0.254,1.902,0.824,2.663c-0.507,0.254-1.015,0.571-1.458,0.888
		c-0.761-0.888-1.712-1.585-2.79-2.093c0.507-0.761,0.824-1.712,0.824-2.663c0-2.663-2.156-4.883-4.883-4.883
		s-4.883,2.156-4.883,4.883c0,0.951,0.254,1.902,0.824,2.663c-2.6,1.268-4.312,3.551-4.566,6.278l-0.063,0.761h12.492
		c0,0.127-0.063,0.317-0.063,0.444l-0.063,0.761H33.35l-0.063-0.761c0-0.127-0.063-0.317-0.063-0.444h10.146L43.116,43.986z
		 M10.395,38.342l-0.761-0.761C9,36.947,8.62,36.059,8.62,35.108c0-1.902,1.585-3.488,3.488-3.488s3.488,1.585,3.488,3.488
		c0,0.951-0.38,1.776-1.015,2.473l-0.761,0.761l1.015,0.38c1.395,0.507,2.6,1.395,3.424,2.536l0.444,0.634l0.571-0.507
		c0.698-0.634,1.522-1.141,2.473-1.458l1.015-0.38L22,38.786c-0.634-0.634-1.015-1.522-1.015-2.473c0-1.902,1.585-3.488,3.488-3.488
		c1.902,0,3.488,1.585,3.488,3.488c0,0.951-0.38,1.776-1.015,2.473l-0.761,0.761l1.015,0.38c0.38,0.127,0.761,0.317,1.078,0.507
		l0.444,0.254l0.38-0.38c0.761-0.698,1.649-1.268,2.6-1.585l1.015-0.38l-0.761-0.761c-0.634-0.634-1.015-1.522-1.015-2.473
		c0-1.902,1.585-3.488,3.488-3.488c1.902,0,3.488,1.585,3.488,3.488c0,0.951-0.38,1.776-1.015,2.473l-0.761,0.761l1.015,0.38
		c2.283,0.824,3.932,2.536,4.439,4.692H31.258v0.063l0.254,0.824c0.063,0.127,0.063,0.19,0.063,0.317H17.244
		c0-0.127,0.063-0.19,0.063-0.317l0.254-0.888H4.815c0.507-2.156,2.156-3.868,4.439-4.692L10.395,38.342z"/>
	<path style="fill:#FFFFFF;" d="M33.604,19.382c0.571,0.444,1.268,0.698,1.966,0.698c0.951,0,1.839-0.444,2.41-1.141
		c0.444-0.571,0.698-1.268,0.698-1.966c0-0.951-0.444-1.839-1.141-2.41c-0.571-0.444-1.268-0.698-1.966-0.698
		c-0.951,0-1.839,0.444-2.41,1.141c-0.127,0.127-0.19,0.254-0.317,0.38l-2.98-0.507c0-0.063,0-0.127,0-0.19
		c0-0.951-0.444-1.839-1.141-2.41c-0.19-0.19-0.444-0.317-0.698-0.444l-1.205-0.254l0,0c0,0,0,0-0.063,0
		c-0.951,0-1.839,0.444-2.41,1.141c-0.444,0.571-0.698,1.268-0.698,2.029c0,0.698,0.254,1.395,0.698,1.966l-2.029,3.107
		c-0.507-0.254-1.078-0.317-1.649-0.317c-0.824,0.063-1.585,0.507-2.093,1.141c-0.19,0.254-0.317,0.507-0.444,0.761l-2.854-0.698
		c0-0.127,0-0.254,0-0.38c0-0.951-0.444-1.839-1.141-2.41c-0.634-0.507-1.458-0.761-2.283-0.698
		c-0.824,0.063-1.585,0.507-2.093,1.141c-0.444,0.571-0.698,1.268-0.698,1.966c0,0.951,0.444,1.839,1.141,2.41
		c0.571,0.444,1.268,0.698,1.966,0.698c0.951,0,1.839-0.444,2.41-1.141c0.063-0.063,0.127-0.19,0.19-0.317l3.044,0.698
		c0.063,0.888,0.444,1.712,1.141,2.283c0.571,0.444,1.268,0.698,1.966,0.698c0.127,0,0.19,0,0.317,0
		c0.824-0.063,1.585-0.507,2.093-1.141c0.444-0.571,0.698-1.268,0.698-2.029c0-0.698-0.254-1.395-0.698-1.966l2.029-3.107
		c0.507,0.254,1.078,0.317,1.649,0.317c0.824-0.063,1.585-0.507,2.093-1.141c0.127-0.127,0.19-0.317,0.317-0.444l2.98,0.507
		c0,0.063,0,0.127,0,0.254C32.463,17.86,32.907,18.748,33.604,19.382z M35.633,15.26c0.38,0,0.761,0.127,1.078,0.38
		c0.38,0.317,0.634,0.824,0.634,1.332c0,0.38-0.127,0.761-0.38,1.078c-0.317,0.38-0.824,0.634-1.332,0.634
		c-0.38,0-0.761-0.127-1.078-0.38c-0.38-0.317-0.634-0.824-0.634-1.332c0-0.38,0.127-0.761,0.38-1.078l0,0
		C34.619,15.45,35.126,15.26,35.633,15.26z M22.697,22.552c0,0.38-0.127,0.761-0.38,1.078l0,0c-0.317,0.38-0.824,0.634-1.332,0.634
		c-0.38,0-0.761-0.127-1.078-0.38c-0.38-0.317-0.634-0.824-0.634-1.332c0-0.38,0.127-0.761,0.38-1.078
		c0.317-0.38,0.698-0.571,1.141-0.634c0.063,0,0.127,0,0.19,0c0.38,0,0.761,0.127,1.078,0.38
		C22.507,21.538,22.697,22.045,22.697,22.552z M28.531,14.689c0,0.38-0.127,0.761-0.38,1.078c-0.317,0.38-0.698,0.571-1.141,0.634
		c-0.444,0.063-0.888-0.063-1.268-0.38c-0.38-0.317-0.634-0.824-0.634-1.332c0-0.38,0.127-0.761,0.38-1.078
		c0.317-0.38,0.824-0.634,1.332-0.634c0.38,0,0.761,0.127,1.078,0.38C28.277,13.675,28.531,14.182,28.531,14.689z M13.883,20.27
		c0,0.38-0.127,0.761-0.38,1.078c-0.317,0.38-0.824,0.634-1.332,0.634c-0.38,0-0.761-0.127-1.078-0.38
		c-0.38-0.317-0.634-0.824-0.634-1.332c0-0.38,0.127-0.761,0.38-1.078c0.317-0.38,0.698-0.571,1.141-0.634c0.063,0,0.127,0,0.19,0
		c0.38,0,0.761,0.127,1.078,0.38C13.693,19.255,13.883,19.762,13.883,20.27z"/>
	<path style="fill:#FFFFFF;" d="M42.989,6.065H4.118c-0.444,0-0.761,0.317-0.761,0.761v28.155c0,0.444,0.317,0.761,0.761,0.761
		h1.395V34.22H4.815V7.587h37.349V34.22h-0.698v1.522h1.395c0.444,0,0.761-0.317,0.761-0.761V6.826
		C43.75,6.446,43.369,6.065,42.989,6.065z"/>
	<path style="fill:#FFFFFF;" d="M41.721,33.079V8.856c0-0.444-0.317-0.761-0.761-0.761H6.083c-0.444,0-0.761,0.317-0.761,0.761
		v24.223h1.522V9.616h33.355v23.462H41.721z"/>
</g>
</svg>
