<?xml version="1.0" encoding="utf-8"?>
<!-- Generator: Adobe Illustrator 19.0.0, SVG Export Plug-In . SVG Version: 6.00 Build 0)  -->
<svg version="1.1" id="Layer_1" xmlns="http://www.w3.org/2000/svg" xmlns:xlink="http://www.w3.org/1999/xlink" x="0px" y="0px"
	 viewBox="0 0 280 260" style="enable-background:new 0 0 280 260;" xml:space="preserve">
<style type="text/css">
	.st0{fill:url(#XMLID_125_);}
	.st1{fill:#FFFFFF;}
</style>
<g id="XMLID_3_">
	
		<linearGradient id="XMLID_125_" gradientUnits="userSpaceOnUse" x1="0" y1="131" x2="280" y2="131" gradientTransform="matrix(1 0 0 -1 0 261)">
		<stop  offset="0" style="stop-color:#5F82C1"/>
		<stop  offset="0.5218" style="stop-color:#4B5AA6"/>
		<stop  offset="1" style="stop-color:#592F8E"/>
	</linearGradient>
	<rect id="XMLID_1_" y="-0.5" class="st0" width="280" height="260.9"/>
	<g>
		<path id="XMLID_5_" class="st1" d="M30.4,45.3h5.9c3.4,0,6.3,1.5,6.3,5.4c0,3.8-3,5.4-6.3,5.4h-2.5v5.6h-3.4V45.3z M36.5,53
			c1.2,0,2.6-0.6,2.6-2.4s-1.4-2.4-2.6-2.4h-2.6v4.7L36.5,53L36.5,53z"/>
		<path id="XMLID_8_" class="st1" d="M43.4,44l2.6-0.4l1.8,2.4l1.8-2.4l2.6,0.4l-2.9,4.2h-3L43.4,44z M44.5,49.5h3.1v3.3
			c0.7-1.6,2.3-3.2,4.3-3.7l0.6,3.3c-1.9,0.3-3.6,1.2-4.7,2.6v6.5h-3.3L44.5,49.5L44.5,49.5z"/>
		<path id="XMLID_11_" class="st1" d="M55.7,44.1c1.1,0,1.9,0.9,1.9,2c0,1.1-0.9,1.9-1.9,1.9c-1.1,0-1.9-0.9-1.9-1.9
			C53.6,45,54.6,44.1,55.7,44.1z M54,49.5h3.3v12.1H54V49.5z"/>
		<path id="XMLID_14_" class="st1" d="M64.5,49.2c1.2,0,2.3,0.4,3.2,0.9v-5.9h3.3v17.4h-3.1v-1.2c-0.9,0.9-2.2,1.5-3.5,1.5
			c-2.4,0-4.8-2.1-4.8-6.3C59.5,51.4,61.9,49.2,64.5,49.2z M65.3,59.1c0.8,0,1.6-0.4,2.3-1.1v-5.1c-0.7-0.5-1.5-0.8-2.2-0.8
			c-1.3,0-2.6,1.1-2.6,3.5S64,59.1,65.3,59.1z"/>
		<path id="XMLID_17_" class="st1" d="M76.4,56.6c0.3,2,1.6,2.6,2.6,2.6c0.9,0,1.9-0.5,2.3-1.6l3.1,0.6c-0.9,2.3-3.1,3.7-5.4,3.7
			c-3,0-5.8-2.3-5.8-6.3c0-3.9,2.9-6.3,5.8-6.3c2.6,0,6,1.9,5.8,7.3C84.6,56.6,76.4,56.6,76.4,56.6z M76.4,54.2h4.9
			c-0.2-1.6-1.3-2.3-2.4-2.3S76.8,52.7,76.4,54.2z"/>
		<path id="XMLID_20_" class="st1" d="M85.1,63.7c1.2,0.1,1.9-0.4,1.9-1.9V49.5h3.3V62c0,3-1.5,4.7-4.8,4.4L85.1,63.7z M88.7,44.1
			c1.1,0,1.9,0.9,1.9,2c0,1.1-0.9,1.9-1.9,1.9c-1.1,0-1.9-0.9-1.9-1.9C86.7,45,87.6,44.1,88.7,44.1z"/>
		<path id="XMLID_23_" class="st1" d="M103,57.7c0.2,1.1,1.1,1.6,2.2,1.6c1,0,1.9-0.5,1.9-1.2c0-2.2-7.1-0.1-7.1-5.1
			c0-1.9,2-3.7,5-3.7c2.7,0,4.7,1.4,5.1,3.4l-3.2,0.7c-0.2-1.2-1.2-1.6-2-1.6c-0.9,0-1.7,0.4-1.7,1.1c0,2.2,7.1,0.1,7.1,5.1
			c0,2-2,3.7-5.1,3.7c-2.9,0-4.7-1.4-5.2-3.5L103,57.7z"/>
		<path id="XMLID_25_" class="st1" d="M115.2,56.6c0.3,2,1.6,2.6,2.6,2.6s1.9-0.5,2.3-1.6l3.1,0.6c-0.9,2.3-3.1,3.7-5.4,3.7
			c-3,0-5.8-2.3-5.8-6.3c0-3.9,2.9-6.3,5.8-6.3c2.6,0,6,1.9,5.8,7.3C123.4,56.6,115.2,56.6,115.2,56.6z M115.3,54.2h4.9
			c-0.2-1.6-1.3-2.3-2.4-2.3C116.6,51.9,115.6,52.7,115.3,54.2z"/>
		<path id="XMLID_28_" class="st1" d="M137,49.2c1.2,0,2.3,0.4,3.2,0.9v-5.9h3.3v17.4h-3.1v-1.2c-0.9,0.9-2.2,1.5-3.5,1.5
			c-2.4,0-4.8-2.1-4.8-6.3C132,51.4,134.5,49.2,137,49.2z M137.8,59.1c0.8,0,1.6-0.4,2.3-1.1v-5.1c-0.7-0.5-1.5-0.8-2.2-0.8
			c-1.3,0-2.6,1.1-2.6,3.5S136.5,59.1,137.8,59.1z"/>
		<path id="XMLID_31_" class="st1" d="M151.5,49.2c3,0,5.9,2.3,5.9,6.3s-3,6.3-5.9,6.3s-5.8-2.3-5.8-6.3
			C145.7,51.7,148.6,49.2,151.5,49.2z M151.5,59.1c1.2,0,2.5-0.9,2.5-3.5s-1.3-3.5-2.5-3.5s-2.5,0.9-2.5,3.5S150.4,59.1,151.5,59.1z
			"/>
		<path id="XMLID_34_" class="st1" d="M169.4,57.7c0.2,1.1,1.1,1.6,2.2,1.6c1,0,1.9-0.5,1.9-1.2c0-2.2-7.1-0.1-7.1-5.1
			c0-1.9,2-3.7,5-3.7c2.7,0,4.7,1.4,5.1,3.4l-3.2,0.7c-0.2-1.2-1.2-1.6-2-1.6s-1.7,0.4-1.7,1.1c0,2.2,7.1,0.1,7.1,5.1
			c0,2-2,3.7-5.1,3.7c-2.9,0-4.7-1.4-5.2-3.5L169.4,57.7z"/>
		<path id="XMLID_36_" class="st1" d="M183.5,57.3l-1.2,1.5v2.9H179V44.3h3.3v10l3.9-4.8h3.8l-4.3,5.1l4.7,7h-3.9L183.5,57.3z"/>
		<path id="XMLID_38_" class="st1" d="M194.7,49.5v7.7c0,1.2,0.7,1.8,1.6,1.8c0.9,0,1.9-0.5,2.6-1.1v-8.4h3.3v12.1H199v-1.2
			c-1,0.9-2.4,1.5-3.7,1.5c-2.1,0-3.9-1.4-3.9-4.5v-7.9H194.7z"/>
		<path id="XMLID_40_" class="st1" d="M205.1,49.5h3.1v1.2c1.1-0.9,2.3-1.5,3.7-1.5c2.4,0,4.7,2.1,4.7,6.3c0,4.2-2.4,6.3-5,6.3
			c-1.2,0-2.3-0.4-3.1-0.9v5.4h-3.3L205.1,49.5L205.1,49.5z M210.5,59.1c1.3,0,2.6-1.1,2.6-3.5s-1.2-3.5-2.5-3.5
			c-0.8,0-1.6,0.4-2.3,1.1v5.1C209,58.8,209.7,59.1,210.5,59.1z"/>
		<path id="XMLID_43_" class="st1" d="M220.3,44.1c1.1,0,1.9,0.9,1.9,2c0,1.1-0.9,1.9-1.9,1.9c-1.1,0-1.9-0.9-1.9-1.9
			C218.3,45,219.2,44.1,220.3,44.1z M218.7,49.5h3.3v12.1h-3.3V49.5z"/>
		<path id="XMLID_46_" class="st1" d="M224.8,49.5h3.1v1.2c1.1-0.9,2.4-1.5,3.7-1.5c2.1,0,3.9,1.4,3.9,4.5v7.9h-3.3v-7.7
			c0-1.2-0.7-1.8-1.6-1.8c-0.9,0-1.9,0.5-2.6,1.1v8.4h-3.3L224.8,49.5L224.8,49.5z"/>
		<path id="XMLID_48_" class="st1" d="M241.1,61.6l-4.6-12.1h3.5l2.9,7.9l2.9-7.9h3.3l-6.5,16.8h-3.3L241.1,61.6z"/>
	</g>
	<g>
		<path id="XMLID_50_" class="st1" d="M30.7,77.4h3.1v1.2c1.1-0.9,2.4-1.5,3.7-1.5c2.1,0,3.9,1.4,3.9,4.5v7.9h-3.3v-7.7
			c0-1.2-0.7-1.8-1.6-1.8c-0.9,0-1.9,0.5-2.6,1.1v8.4h-3.3L30.7,77.4L30.7,77.4z"/>
		<path id="XMLID_52_" class="st1" d="M49.7,82.2h1.1v-0.3c0-1.5-0.8-2-1.9-2c-0.9,0-1.7,0.5-2,1.6l-3.2-0.9c0.5-2,2.6-3.4,5.2-3.4
			c3,0,5.1,1.5,5.1,4.7v3.9c0,1.4,0.2,2.4,0.6,3.6l-3.1,0.2c-0.2-0.5-0.4-1.2-0.4-1.7c-1.1,1.2-2.6,1.8-4,1.8c-2,0-3.8-1.3-3.8-3.6
			C43.4,83.8,45.2,82.2,49.7,82.2z M47.8,87.1c1,0,2.4-0.6,3-1.6v-1h-1.2c-2.4,0-3.2,0.6-3.2,1.5C46.5,86.8,47.1,87.1,47.8,87.1z"/>
		<path id="XMLID_55_" class="st1" d="M64.8,80.2h-1.9v-2.8h1.9v-1.2c0-2.4,1.2-4.2,3.7-4.2c0.8,0,1.6,0.2,2.6,0.5l-0.6,2.7
			C70,75.1,69.6,75,69.3,75c-0.9,0-1.2,0.5-1.2,1.4v1.1h3.1v2.7h-3.1v9.3h-3.3L64.8,80.2L64.8,80.2z"/>
		<path id="XMLID_57_" class="st1" d="M78.3,82.2h1.1v-0.3c0-1.5-0.8-2-1.9-2c-0.9,0-1.7,0.5-2,1.6l-3.2-0.9c0.5-2,2.6-3.4,5.2-3.4
			c3,0,5.1,1.5,5.1,4.7v3.9c0,1.4,0.2,2.4,0.6,3.6l-3.1,0.2c-0.2-0.5-0.4-1.2-0.4-1.7c-1.1,1.2-2.6,1.8-4,1.8c-2,0-3.8-1.3-3.8-3.6
			C72,83.8,73.8,82.2,78.3,82.2z M76.5,87.1c1,0,2.4-0.6,3-1.6v-1h-1.2c-2.4,0-3.2,0.6-3.2,1.5C75.2,86.8,75.8,87.1,76.5,87.1z"/>
		<path id="XMLID_60_" class="st1" d="M90.6,77.2c2.6,0,4.7,1.4,5.4,4.3l-3.3,0.7c-0.2-1.6-1.2-2.1-2.2-2.1c-1.1,0-2.5,0.9-2.5,3.5
			s1.4,3.5,2.5,3.5c0.9,0,1.9-0.6,2.2-2.1l3.3,0.6c-0.8,2.9-3,4.3-5.4,4.3c-3,0-5.8-2.3-5.8-6.3S87.8,77.2,90.6,77.2z"/>
		<path id="XMLID_62_" class="st1" d="M100.7,84.5c0.3,2,1.6,2.6,2.6,2.6c0.9,0,1.9-0.5,2.3-1.6l3.1,0.6c-0.9,2.3-3.1,3.7-5.4,3.7
			c-3,0-5.8-2.3-5.8-6.3c0-3.9,2.9-6.3,5.8-6.3c2.6,0,6,1.9,5.8,7.3C108.9,84.5,100.7,84.5,100.7,84.5z M100.8,82.2h4.9
			c-0.2-1.6-1.3-2.3-2.4-2.3S101.1,80.6,100.8,82.2z"/>
		<path id="XMLID_65_" class="st1" d="M111.3,72.3h3.3v6.3c0.9-0.8,2.2-1.3,3.5-1.3c2.4,0,4.7,2.1,4.7,6.3c0,4.2-2.5,6.3-5,6.3
			c-1.2,0-2.4-0.4-3.3-1.1v0.8h-3.1L111.3,72.3L111.3,72.3z M116.7,87c1.3,0,2.6-1.1,2.6-3.5s-1.2-3.5-2.5-3.5
			c-0.8,0-1.6,0.4-2.3,1.1v5.1C115.2,86.8,116,87,116.7,87z"/>
		<path id="XMLID_68_" class="st1" d="M130,77.2c3,0,5.9,2.3,5.9,6.3c0,4-3,6.3-5.9,6.3c-3,0-5.8-2.3-5.8-6.3
			C124.2,79.6,127.1,77.2,130,77.2z M130,87c1.2,0,2.5-0.9,2.5-3.5S131.2,80,130,80s-2.5,0.9-2.5,3.5S128.9,87,130,87z"/>
		<path id="XMLID_71_" class="st1" d="M143.3,77.2c3,0,5.9,2.3,5.9,6.3c0,4-3,6.3-5.9,6.3c-3,0-5.8-2.3-5.8-6.3
			C137.5,79.6,140.4,77.2,143.3,77.2z M143.3,87c1.2,0,2.5-0.9,2.5-3.5s-1.3-3.5-2.5-3.5s-2.5,0.9-2.5,3.5S142.2,87,143.3,87z"/>
		<path id="XMLID_74_" class="st1" d="M155.9,85.2l-1.2,1.5v2.9h-3.3V72.3h3.3v10l3.9-4.8h3.8l-4.3,5.1l4.7,7H159L155.9,85.2z"/>
		<path id="XMLID_76_" class="st1" d="M167.1,77.4v7.7c0,1.2,0.7,1.8,1.6,1.8c0.9,0,1.9-0.5,2.6-1.1v-8.4h3.3v12.1h-3.1v-1.2
			c-1.1,0.9-2.4,1.5-3.7,1.5c-2.1,0-3.9-1.4-3.9-4.5v-7.9H167.1z"/>
	</g>
	<g>
		<path id="XMLID_78_" class="st1" d="M190.7,82.2h1.1v-0.3c0-1.5-0.8-2-1.9-2c-0.9,0-1.7,0.5-2,1.6l-3.2-0.9c0.5-2,2.6-3.4,5.2-3.4
			c3,0,5.1,1.6,5.1,4.7v3.9c0,1.4,0.2,2.4,0.6,3.6l-3.1,0.2c-0.2-0.5-0.4-1.2-0.4-1.7c-1.1,1.2-2.6,1.8-4,1.8c-2,0-3.8-1.3-3.8-3.6
			C184.3,83.8,186.1,82.2,190.7,82.2z M188.8,87.1c1,0,2.4-0.6,3-1.6v-1h-1.2c-2.4,0-3.2,0.6-3.2,1.5
			C187.5,86.7,188,87.1,188.8,87.1z"/>
		<path id="XMLID_81_" class="st1" d="M204.9,72.2h3.3v6.3c0.9-0.8,2.2-1.3,3.5-1.3c2.4,0,4.7,2.1,4.7,6.3s-2.4,6.3-5,6.3
			c-1.2,0-2.4-0.4-3.3-1.1v0.8h-3.1C204.9,89.5,204.9,72.2,204.9,72.2z M210.3,87c1.3,0,2.6-1.1,2.6-3.5s-1.2-3.5-2.5-3.5
			c-0.8,0-1.6,0.4-2.3,1.1v5.1C208.9,86.7,209.6,87,210.3,87z"/>
		<path id="XMLID_84_" class="st1" d="M221.7,77.4v7.7c0,1.3,0.7,1.8,1.6,1.8c0.9,0,1.9-0.5,2.6-1v-8.5h3.3v12.1H226v-1.2
			c-1,0.9-2.4,1.5-3.7,1.5c-2.1,0-3.9-1.4-3.9-4.5v-7.9H221.7z"/>
		<path id="XMLID_86_" class="st1" d="M236.3,77.1c1.2,0,2.3,0.4,3.2,0.9v-5.9h3.3v17.4h-3.1v-1.2c-0.9,0.9-2.2,1.5-3.5,1.5
			c-2.4,0-4.8-2.1-4.8-6.3C231.3,79.3,233.8,77.1,236.3,77.1z M237.1,87c0.8,0,1.6-0.4,2.3-1v-5.1c-0.7-0.5-1.5-0.8-2.2-0.8
			c-1.3,0-2.6,1.1-2.6,3.5C234.7,85.9,235.8,87,237.1,87z M243.7,71.3l2.9-0.3c0.9,1.8,0.5,3.9-0.8,5.4l-2.2-0.5
			C244.5,74.3,244.5,72.7,243.7,71.3z"/>
	</g>
	<path id="XMLID_90_" class="st1" d="M30.6,104.4h3.1v3.3c0.7-1.6,2.3-3.2,4.3-3.7l0.6,3.3c-1.9,0.3-3.6,1.2-4.7,2.6v6.5h-3.3V104.4
		z"/>
	<path id="XMLID_92_" class="st1" d="M44.9,104.2c3,0,5.9,2.3,5.9,6.3s-3,6.3-5.9,6.3c-3,0-5.8-2.3-5.8-6.3
		C39,106.6,41.9,104.2,44.9,104.2z M44.9,114c1.2,0,2.5-0.9,2.5-3.5S46,107,44.9,107s-2.5,0.9-2.5,3.5C42.3,113.1,43.7,114,44.9,114
		z"/>
	<path id="XMLID_95_" class="st1" d="M51.1,104.4h3.5l2.9,7.9l2.9-7.9h3.3L59,116.6h-3.3L51.1,104.4z"/>
	<path id="XMLID_97_" class="st1" d="M65.3,104.4h3.1v1.2c1.1-0.9,2.4-1.5,3.7-1.5c2.1,0,3.9,1.4,3.9,4.5v7.9h-3.3v-7.7
		c0-1.2-0.7-1.8-1.6-1.8c-0.9,0-1.9,0.5-2.6,1.1v8.4h-3.3V104.4z"/>
	<path id="XMLID_99_" class="st1" d="M84,104.2c3,0,5.9,2.3,5.9,6.3s-3,6.3-5.9,6.3s-5.8-2.3-5.8-6.3
		C78.2,106.6,81.1,104.2,84,104.2z M84,114c1.2,0,2.5-0.9,2.5-3.5S85.2,107,84,107s-2.5,0.9-2.5,3.5C81.5,113.1,82.9,114,84,114z"/>
	<path id="XMLID_102_" class="st1" d="M95.3,104.4v7.7c0,1.3,0.7,1.8,1.6,1.8c0.9,0,1.9-0.5,2.6-1v-8.5h3.3v12.1h-3.1v-1.2
		c-1,0.9-2.4,1.5-3.7,1.5c-2.1,0-3.9-1.4-3.9-4.5v-7.9H95.3z"/>
	<path id="XMLID_104_" class="st1" d="M115.9,104.4v7.7c0,1.3,0.7,1.8,1.6,1.8c0.9,0,1.9-0.5,2.6-1v-8.5h3.3v12.1h-3.1v-1.2
		c-1,0.9-2.4,1.5-3.7,1.5c-2.1,0-3.9-1.4-3.9-4.5v-7.9H115.9z"/>
	<path id="XMLID_106_" class="st1" d="M132.3,113.7l5.5-6.5h-5.3v-2.8h9.4v2.8l-5.5,6.5h5.5v2.8h-9.6V113.7z"/>
	<path id="XMLID_108_" class="st1" d="M148,104.2c1.2,0,2.3,0.4,3.2,0.9v-5.9h3.3v17.4h-3.1v-1.2c-0.9,0.9-2.2,1.5-3.5,1.5
		c-2.4,0-4.8-2.1-4.8-6.3C143.1,106.4,145.5,104.2,148,104.2z M148.9,114c0.8,0,1.6-0.4,2.3-1v-5.1c-0.7-0.5-1.5-0.8-2.2-0.8
		c-1.3,0-2.6,1.1-2.6,3.5C146.4,112.9,147.6,114,148.9,114z"/>
	<path id="XMLID_111_" class="st1" d="M157.4,104.4h3.1v3.3c0.7-1.6,2.3-3.2,4.3-3.7l0.6,3.3c-1.9,0.3-3.6,1.2-4.7,2.6v6.5h-3.3
		V104.4z"/>
	<path id="XMLID_113_" class="st1" d="M171.7,104.2c3,0,5.9,2.3,5.9,6.3s-3,6.3-5.9,6.3s-5.8-2.3-5.8-6.3
		C165.8,106.6,168.8,104.2,171.7,104.2z M171.7,114c1.2,0,2.5-0.9,2.5-3.5s-1.3-3.5-2.5-3.5s-2.5,0.9-2.5,3.5
		C169.2,113.1,170.6,114,171.7,114z"/>
	<path id="XMLID_116_" class="st1" d="M178,118.7c1.2,0.1,1.9-0.4,1.9-1.9v-12.4h3.3v12.5c0,3-1.5,4.7-4.8,4.4L178,118.7z M181.5,99
		c1.1,0,1.9,0.9,1.9,2c0,1.1-0.9,1.9-1.9,1.9c-1.1,0-1.9-0.9-1.9-1.9C179.6,99.9,180.4,99,181.5,99z"/>
	<path id="XMLID_119_" class="st1" d="M188.7,111.5c0.3,2,1.6,2.6,2.6,2.6c0.9,0,1.9-0.5,2.3-1.6l3.1,0.6c-0.9,2.3-3.1,3.7-5.4,3.7
		c-3,0-5.8-2.3-5.8-6.3c0-3.9,2.9-6.3,5.8-6.3c2.6,0,6,1.9,5.8,7.3C196.9,111.5,188.7,111.5,188.7,111.5z M188.8,109.2h4.9
		c-0.2-1.6-1.3-2.3-2.4-2.3C190.1,106.8,189.1,107.6,188.8,109.2z"/>
	<path id="XMLID_122_" class="st1" d="M29.9,130.6H33v1.2c1.1-0.9,2.4-1.5,3.7-1.5c2.1,0,3.9,1.4,3.9,4.5v7.9h-3.3v-7.7
		c0-1.2-0.7-1.8-1.6-1.8c-0.9,0-1.9,0.5-2.6,1.1v8.4h-3.3L29.9,130.6L29.9,130.6z"/>
	<path id="XMLID_124_" class="st1" d="M48.7,130.4c3,0,5.9,2.3,5.9,6.3c0,4-3,6.3-5.9,6.3c-3,0-5.8-2.3-5.8-6.3
		C42.7,132.8,45.7,130.4,48.7,130.4z M48.7,140.2c1.2,0,2.5-0.9,2.5-3.5c0-2.6-1.3-3.5-2.5-3.5s-2.5,0.9-2.5,3.5
		C46.1,139.4,47.5,140.2,48.7,140.2z"/>
	<path id="XMLID_127_" class="st1" d="M54.9,130.6h3.5l2.9,7.9l2.9-7.9h3.3l-4.7,12.1h-3.3L54.9,130.6z"/>
	<path id="XMLID_129_" class="st1" d="M70.7,125.3c1.1,0,1.9,0.9,1.9,2c0,1.1-0.9,1.9-1.9,1.9c-1.1,0-1.9-0.9-1.9-1.9
		C68.7,126.1,69.6,125.3,70.7,125.3z M69,130.6h3.3v12.1H69V130.6z"/>
	<path id="XMLID_132_" class="st1" d="M75.3,130.6h3.1v1.2c1.1-0.9,2.4-1.5,3.7-1.5c2.1,0,3.9,1.4,3.9,4.5v7.9h-3.3v-7.7
		c0-1.2-0.7-1.8-1.6-1.8c-0.9,0-1.9,0.5-2.6,1.1v8.4h-3.3V130.6z"/>
	<path id="XMLID_134_" class="st1" d="M91.4,137.7c0.3,2,1.6,2.6,2.6,2.6c0.9,0,1.9-0.5,2.3-1.6l3.1,0.6c-0.9,2.3-3.1,3.7-5.4,3.7
		c-3,0-5.8-2.3-5.8-6.3c0-3.9,2.9-6.3,5.8-6.3c2.6,0,6,1.9,5.8,7.3C99.6,137.7,91.4,137.7,91.4,137.7z M91.5,135.4h4.9
		c-0.2-1.6-1.3-2.3-2.4-2.3C92.8,133.1,91.8,133.8,91.5,135.4z"/>
	<path id="XMLID_137_" class="st1" d="M106.4,138.4l-1.2,1.5v2.9h-3.3v-17.3h3.3v10l3.9-4.8h3.8l-4.3,5.1l4.7,7h-3.9L106.4,138.4z"
		/>
	<path id="XMLID_139_" class="st1" d="M126.9,135.5h1.1v-0.3c0-1.5-0.8-2-1.9-2c-0.9,0-1.7,0.5-1.9,1.6l-3.2-0.9
		c0.5-2,2.6-3.4,5.2-3.4c3,0,5.1,1.6,5.1,4.7v3.9c0,1.4,0.2,2.4,0.6,3.6l-3.1,0.2c-0.2-0.5-0.4-1.2-0.4-1.7c-1.1,1.2-2.6,1.8-4,1.8
		c-2,0-3.8-1.3-3.8-3.6C120.5,137,122.3,135.5,126.9,135.5z M125,140.4c1,0,2.4-0.6,3-1.6v-1h-1.2c-2.4,0-3.1,0.6-3.1,1.5
		C123.7,140,124.2,140.4,125,140.4z"/>
	<path id="XMLID_142_" class="st1" d="M142.7,125.3c1.1,0,1.9,0.9,1.9,2c0,1.1-0.9,1.9-1.9,1.9c-1.1,0-1.9-0.9-1.9-1.9
		C140.7,126.1,141.6,125.3,142.7,125.3z M141,130.6h3.3v12.1H141V130.6z"/>
	<path id="XMLID_145_" class="st1" d="M147.3,130.6h3.1v1.2c1.1-0.9,2.5-1.5,3.7-1.5c2.1,0,3.9,1.4,3.9,4.5v7.9h-3.3v-7.7
		c0-1.2-0.7-1.8-1.6-1.8c-0.9,0-1.9,0.5-2.6,1.1v8.4h-3.3V130.6z"/>
	<path id="XMLID_147_" class="st1" d="M161.7,133.5h-1.9v-2.8h1.9v-1.2c0-2.4,1.2-4.2,3.7-4.2c0.8,0,1.6,0.2,2.6,0.5l-0.6,2.7
		c-0.5-0.2-0.9-0.2-1.3-0.2c-0.9,0-1.2,0.5-1.2,1.4v1.1h3.1v2.7h-3.1v9.3h-3.3V133.5z"/>
	<path id="XMLID_149_" class="st1" d="M174.6,130.4c3,0,5.9,2.3,5.9,6.3c0,4-3,6.3-5.9,6.3c-3,0-5.8-2.3-5.8-6.3
		C168.7,132.8,171.6,130.4,174.6,130.4z M174.6,140.2c1.2,0,2.5-0.9,2.5-3.5c0-2.6-1.3-3.5-2.5-3.5c-1.2,0-2.5,0.9-2.5,3.5
		C172,139.4,173.4,140.2,174.6,140.2z"/>
	<path id="XMLID_152_" class="st1" d="M182.7,130.6h3.1v3.3c0.7-1.6,2.3-3.2,4.3-3.7l0.6,3.3c-1.9,0.3-3.6,1.2-4.7,2.6v6.5h-3.3
		V130.6z"/>
	<path id="XMLID_154_" class="st1" d="M192.2,130.6h3.1v1.2c1-0.9,2.3-1.5,3.4-1.5s2.3,0.5,3,1.6c1.2-0.9,2.6-1.6,3.9-1.6
		c1.9,0,3.6,1.3,3.6,4.4v7.9h-3.3V135c0-1.2-0.6-1.7-1.4-1.7c-0.7,0-1.6,0.5-2.2,1.1c0,0.2,0,0.4,0,0.6v7.8H199V135
		c0-1.2-0.6-1.7-1.4-1.7c-0.7,0-1.6,0.5-2.2,1.1v8.4h-3.3V130.6z"/>
	<path id="XMLID_156_" class="st1" d="M217.4,135.5h1.1v-0.3c0-1.5-0.8-2-1.9-2c-0.9,0-1.7,0.5-1.9,1.6l-3.2-0.9
		c0.5-2,2.6-3.4,5.2-3.4c3,0,5.1,1.6,5.1,4.7v3.9c0,1.4,0.2,2.4,0.6,3.6l-3.1,0.2c-0.2-0.5-0.3-1.2-0.4-1.7c-1.1,1.2-2.6,1.8-4,1.8
		c-2,0-3.9-1.3-3.9-3.6C211,137,212.8,135.5,217.4,135.5z M215.5,140.4c1,0,2.4-0.6,3-1.6v-1h-1.2c-2.4,0-3.1,0.6-3.1,1.5
		C214.2,140,214.7,140.4,215.5,140.4z"/>
	<path id="XMLID_159_" class="st1" d="M229.7,130.4c2.6,0,4.7,1.4,5.4,4.3l-3.3,0.7c-0.2-1.6-1.2-2.1-2.2-2.1
		c-1.1,0-2.5,0.9-2.5,3.5c0,2.6,1.4,3.5,2.5,3.5c0.9,0,1.9-0.6,2.2-2.1l3.3,0.6c-0.8,2.9-3,4.3-5.4,4.3c-3,0-5.8-2.3-5.8-6.3
		C223.9,132.8,226.7,130.4,229.7,130.4z"/>
	<path id="XMLID_161_" class="st1" d="M238.9,124.7l3.3,0.2l-2.7,4.4h-2.7L238.9,124.7z M237.1,130.6h3.3v12.1h-3.3V130.6z"/>
	<path id="XMLID_164_" class="st1" d="M245.2,139.2c1,0,1.9,0.9,1.9,1.9s-0.9,1.9-1.9,1.9c-1,0-1.9-0.9-1.9-1.9
		C243.4,140.1,244.1,139.2,245.2,139.2z M243.4,126.4h3.5l-0.4,11h-2.6L243.4,126.4z"/>
	<path id="XMLID_2_" class="st1" d="M227.4,184c-14,0-25.3,11.3-25.3,25.3c0,14,11.3,25.3,25.3,25.3s25.3-11.3,25.3-25.3
		C252.6,195.3,241.3,184,227.4,184z M234,199.4c-0.8,0-1.7,0-2.5,0c-1.1,0-1.8,0.6-1.8,1.7c-0.1,0.9,0,1.8,0,2.6
		c0,0.3,0.2,0.3,0.4,0.3c1.3,0,2.6,0,3.8,0c0.4,0,0.5,0.1,0.5,0.5c-0.2,1.4-0.3,3-0.4,4.5c0,0.3-0.2,0.4-0.5,0.4c-1,0-2,0-3,0
		c-0.7,0-0.6-0.1-0.6,0.6c0,4.7,0,9.2,0,13.9c0,0.5-0.2,0.6-0.6,0.6c-1.8,0-3.4,0-5.2,0c-0.5,0-0.6-0.2-0.6-0.6c0-2.3,0-4.7,0-7
		s0-4.7,0-7.1c0-0.4-0.1-0.6-0.5-0.5c-0.7,0-1.4,0-2.2,0c-0.3,0-0.4-0.1-0.4-0.4c0-1.4,0-3,0-4.4c0-0.3,0.1-0.4,0.4-0.4
		c0.7,0,1.5,0,2.2,0c0.4,0,0.6-0.2,0.5-0.6c0-1.1,0-2.2,0-3.4c0-1.4,0.4-2.6,1.2-3.8c1-1.4,2.5-2.1,4.2-2.2c1.8-0.1,3.4,0,5.2-0.1
		c0.2,0,0.3,0.1,0.3,0.3c0,1.5,0,3,0,4.5C234.4,199.3,234.3,199.4,234,199.4z"/>
	<g id="XMLID_2331_" transform="matrix( 1, 0, 0, 1, 0,0) ">
		<g id="XMLID_2332_">
			<g id="a_37_">
				<path id="XMLID_2333_" class="st1" d="M168.2,205.7l3.3-16.5l-24.7,24.7h20.5l-5.2,17.8l24.6-26.1L168.2,205.7L168.2,205.7z"/>
			</g>
		</g>
	</g>
</g>
</svg>
