<?xml version="1.0" encoding="iso-8859-1"?>
<!-- Generator: Adobe Illustrator 19.0.0, SVG Export Plug-In . SVG Version: 6.00 Build 0)  -->
<svg version="1.1" id="Layer_1" xmlns="http://www.w3.org/2000/svg" xmlns:xlink="http://www.w3.org/1999/xlink" x="0px" y="0px"
	 viewBox="-0.913 -1.25 215.826 47.25" style="enable-background:new -0.913 -1.25 215.826 47.25;" xml:space="preserve">
<g>
	<path style="fill:#FFFFFF;" d="M72.584,14.335h1.969l7.002,18.381h-1.969l-2.298-6.237h-7.55l-2.298,6.237h-1.86L72.584,14.335z
		 M70.287,24.948h6.346l-3.173-8.534L70.287,24.948z"/>
	<path style="fill:#FFFFFF;" d="M84.182,14.335h1.751v9.191l8.534-9.191h2.298l-7.221,7.768l7.878,10.613h-2.188l-6.893-9.191
		l-2.298,2.516v6.674h-1.751V14.335H84.182z"/>
	<path style="fill:#FFFFFF;" d="M106.393,14.006c3.392,0,6.237,2.188,6.893,5.689l-1.86,0.438c-0.547-2.954-2.735-4.486-5.142-4.486
		c-3.282,0-6.127,2.845-6.127,7.878s2.845,7.878,6.127,7.878c2.407,0,4.595-1.532,5.142-4.486l1.86,0.438
		c-0.766,3.501-3.611,5.689-6.893,5.689c-4.267,0-7.987-3.501-7.987-9.41S102.126,14.006,106.393,14.006z"/>
	<path style="fill:#FFFFFF;" d="M116.678,14.335h11.598v1.532h-9.847v6.674h9.3v1.641h-9.3v6.893h9.847v1.532h-11.598V14.335z"/>
</g>
<g>
	<path style="fill:#FFFFFF;" d="M16.467,32.986h5.861l-1.465,5.055c-0.073,0.366,0.073,0.733,0.366,0.879
		c0.147,0.073,0.22,0.073,0.366,0.073c0.22,0,0.44-0.073,0.586-0.22l8.278-8.791c0.22-0.22,0.293-0.586,0.147-0.879
		c-0.147-0.293-0.44-0.44-0.733-0.44h-5.275l0.879-4.615c0.073-0.366-0.073-0.659-0.366-0.806c-0.293-0.147-0.659-0.073-0.952,0.147
		l-8.351,8.351c-0.22,0.22-0.293,0.586-0.147,0.879C15.808,32.766,16.101,32.986,16.467,32.986z M23.5,26.173l-0.586,3.077
		c-0.073,0.22,0,0.44,0.147,0.659c0.147,0.147,0.366,0.293,0.586,0.293h4.395l-4.835,5.128l0.879-2.93
		c0.073-0.22,0-0.513-0.147-0.659c-0.147-0.22-0.366-0.293-0.659-0.293h-5.055L23.5,26.173z"/>
	<path style="fill:#FFFFFF;" d="M42.693,9.324h-5.714V8.591c0-1.758-1.465-3.223-3.223-3.223c-1.758,0-3.223,1.465-3.223,3.223
		v0.733H16.467V8.591c0-1.758-1.465-3.223-3.223-3.223s-3.223,1.465-3.223,3.223v0.733H4.307c-0.513,0-0.952,0.44-0.952,0.952
		v33.772C3.354,44.56,3.794,45,4.307,45h38.387c0.513,0,0.952-0.44,0.952-0.952V10.276C43.646,9.69,43.206,9.324,42.693,9.324z
		 M41.741,19.067v23.955H5.186V19.067H41.741z M13.244,15.111c1.758,0,3.223-1.465,3.223-3.223v-0.733h14.065v0.733
		c0,1.758,1.465,3.223,3.223,3.223c1.758,0,3.223-1.465,3.223-3.223v-0.733h4.762v6.08H5.186v-6.08h4.762v0.733
		C10.021,13.646,11.486,15.111,13.244,15.111z M35.148,11.888c0,0.733-0.659,1.392-1.392,1.392s-1.392-0.659-1.392-1.392V8.591
		c0-0.733,0.659-1.392,1.392-1.392s1.392,0.659,1.392,1.392V11.888z M14.636,11.888c0,0.733-0.659,1.392-1.392,1.392
		s-1.392-0.659-1.392-1.392V8.591c0-0.733,0.659-1.392,1.392-1.392s1.392,0.659,1.392,1.392V11.888z"/>
</g>
</svg>
