<?xml version="1.0" encoding="utf-8"?>
<!-- Generator: Adobe Illustrator 19.0.0, SVG Export Plug-In . SVG Version: 6.00 Build 0)  -->
<svg version="1.1" id="Layer_1" xmlns="http://www.w3.org/2000/svg" xmlns:xlink="http://www.w3.org/1999/xlink" x="0px" y="0px"
	 viewBox="101 -16.2 215.8 47.2" style="enable-background:new 101 -16.2 215.8 47.2;" xml:space="preserve">
<style type="text/css">
	.st0{fill:#FFFFFF;}
</style>
<path id="XMLID_26_" class="st0" d="M106.9,22.3l10-0.1l-2.4,2.9h-6.9c-0.1,0-0.3,0.1-0.4,0.2l-3.6,2.9c-0.2,0.2-0.4,0.5-0.2,0.8
	c0.1,0.3,0.4,0.5,0.7,0.5l41.9-0.3c0.3,0,0.6-0.2,0.7-0.5c0.1-0.3,0-0.6-0.2-0.8l-3.6-2.8c-0.1-0.1-0.3-0.1-0.4-0.1h-6.9l-2.4-2.9
	l10-0.1c2,0,3.6-1.6,3.6-3.6l-0.2-29c0.1-2-1.6-3.6-3.6-3.6L106.8-14c-2,0-3.6,1.6-3.6,3.6l0.2,28.9
	C103.2,20.7,104.9,22.3,106.9,22.3z M143.9,27.8L106.1,28l1.8-1.5h7l20.2-0.1h7L143.9,27.8z M133.6,25l-17.2,0.1l2.4-2.9l12.4-0.1
	L133.6,25z M104.6-10.3c0-1.2,0.9-2.1,2.2-2.1l36.2-0.2c1.1,0,2.1,0.9,2.1,2.1l0.2,28.9c0,1.2-0.9,2.2-2.1,2.2l-11.6,0.1l-12.9,0.1
	h-11.8c-1.2,0-2.2-0.9-2.2-2.2L104.6-10.3L104.6-10.3z"/>
<path id="XMLID_23_" class="st0" d="M106.9,16.5l36.2-0.2c0.4,0,0.7-0.3,0.7-0.7l-0.2-26c0-0.4-0.3-0.7-0.7-0.7l-36.2,0.2
	c-0.4,0-0.7,0.3-0.7,0.7l0.2,26C106.1,16.2,106.5,16.5,106.9,16.5z M107.4-9.6l34.7-0.2l0.2,24.6L107.6,15L107.4-9.6z"/>
<rect id="XMLID_11_" x="121.3" y="17.6" transform="matrix(1 -6.599712e-03 6.599712e-03 1 -0.1181 0.8249)" class="st0" width="7.2" height="1.5"/>
<g id="XMLID_17_">
	<path id="XMLID_18_" class="st0" d="M166.8-2.1h1.8l0.1,18.4h-1.8L166.8-2.1z"/>
	<path id="XMLID_1_" class="st0" d="M172.9-2.2h2l9.8,15.4l-0.1-15.4h1.8l0.1,18.4h-2l-9.9-15.4l0.1,15.4H173L172.9-2.2z"/>
	<path id="XMLID_22_" class="st0" d="M190.7-2.3l11.1-0.1v1.5l-9.3,0.1v6.7l8.8-0.1v1.8l-8.8,0.1l0.1,8.5h-1.8L190.7-2.3z"/>
	<path id="XMLID_25_" class="st0" d="M211.9-2.6c4.3,0,8,3.4,8,9.4s-3.7,9.5-7.9,9.6c-4.3,0-8-3.4-8-9.4S207.7-2.6,211.9-2.6z
		 M212.1,14.6c3.3,0,6.1-2.8,6.1-7.9c0-5-3-7.9-6.2-7.8s-6.1,2.9-6.1,7.9C205.9,11.9,208.9,14.7,212.1,14.6z"/>
	<path id="XMLID_29_" class="st0" d="M223.7-2.5h6.1c3.6,0,6.4,1.6,6.4,5.3c0,3.8-2.8,5.5-6.3,5.5h-4.4v7.5h-1.8V-2.5z M229.9,6.8
		c2.3,0,4.5-1.1,4.5-3.9c0-2.7-2.2-3.8-4.5-3.8h-4.4v7.7H229.9z"/>
	<path id="XMLID_32_" class="st0" d="M246.7-2.9c4.3,0,8,3.4,8,9.4s-3.7,9.5-7.9,9.6c-4.3,0-8-3.4-8-9.4S242.2-2.8,246.7-2.9z
		 M246.8,14.4c3.3,0,6.1-2.8,6.1-7.9c0-5-3-7.9-6.2-7.8c-3.3,0-6.1,2.9-6.1,7.9C240.6,11.7,243.4,14.4,246.8,14.4z"/>
	<path id="XMLID_35_" class="st0" d="M267.8,11.4c-1.5-2.6-2.7-4-5.1-4h-2.5l0.1,8.3h-1.8l-0.1-18.5h6.5c3.2,0,5.9,1.5,5.9,5
		c0,2.8-1.7,4.5-4.1,5c1.2,0.9,2.1,2.2,3.1,3.8l2.8,4.7h-2.1L267.8,11.4z M264.8,5.8c2.3,0,4-1,4-3.4S266.9-1,264.7-1H260v6.9
		L264.8,5.8L264.8,5.8z"/>
	<path id="XMLID_38_" class="st0" d="M279.5-1.2h-6.2v-1.5l14.2-0.1v1.5h-6.2l0.1,16.8h-1.8C279.8,15.6,279.5-1.2,279.5-1.2z"/>
	<path id="XMLID_40_" class="st0" d="M293.3-3h2l7.1,18.3h-2l-2.3-6.2h-7.5l-2.3,6.3h-1.9L293.3-3z M291.2,7.7h6.3l-3.2-8.5
		L291.2,7.7z M296.3-8.9l2.1,0.4l-4.6,3.8L292-5L296.3-8.9z"/>
	<path id="XMLID_44_" class="st0" d="M305-3h1.8l0.1,16.8l9.6-0.1v1.5L305,15.3L305-3z"/>
</g>
<path class="st0" d="M117.1,5.2h6.8l-1.7,5.9c-0.1,0.4,0.1,0.9,0.4,1c0.2,0.1,0.3,0.1,0.4,0.1c0.3,0,0.5-0.1,0.7-0.3l9.6-10.2
	c0.3-0.3,0.3-0.7,0.2-1c-0.2-0.3-0.5-0.5-0.9-0.5h-6l1-5.4c0.1-0.4-0.1-0.8-0.4-0.9s-0.8-0.1-1.1,0.2l-9.7,9.7
	c-0.3,0.3-0.3,0.7-0.2,1C116.2,4.9,116.7,5.2,117.1,5.2z M125.2-2.8l-0.7,3.6c-0.1,0.3,0,0.5,0.2,0.8c0.2,0.2,0.4,0.3,0.7,0.3h5.1
	l-5.6,6l1-3.4c0.1-0.3,0-0.6-0.2-0.8c-0.2-0.3-0.4-0.3-0.8-0.3h-5.9L125.2-2.8z"/>
</svg>
