<?xml version="1.0" encoding="utf-8"?>
<!-- Generator: Adobe Illustrator 22.0.1, SVG Export Plug-In . SVG Version: 6.00 Build 0)  -->
<svg version="1.1" id="Layer_1" xmlns="http://www.w3.org/2000/svg" xmlns:xlink="http://www.w3.org/1999/xlink" x="0px" y="0px"
	 viewBox="0 0 61 110" style="enable-background:new 0 0 61 110;" xml:space="preserve">
<style type="text/css">
	.st0{fill:#FFFFFF;}
</style>
<g transform="matrix( 1, 0, 0, 1, 50,50) ">
	<g transform="matrix( 1, 0, 0, 1, 0,0) ">
		<g>
			<g id="a_1_">
				<path class="st0" d="M-35,31c-2.1,2.7-3.1,5.6-3.1,8.9c0,3.1,1.5,6,4.4,8.7c2.2,2,5.3,4.2,9.4,6.7c1,0.6,2,1.2,2.9,1.7
					c1.6,1.1,3.4,1.9,5.4,2.4c0.7,0.2,1.5,0.3,2.2,0.4c0.8,0.1,1.6,0.1,2.5,0.1c3.3,0,6.1-1.6,8.3-4.9c1.6-2.4,2.4-4.4,2.4-6
					c0-3.3-0.5-6-1.5-8.1c-1.2-2.4-3.1-4.5-5.6-6.1c-2.4-2.3-6.8-5.2-13.4-8.6C-27.7,26.1-32.4,27.6-35,31 M-33,34.3
					c0.6-1.2,1.9-2.4,3.7-3.6c2.2-1.5,4.2-2.1,6-1.6c2.3,0.5,4.8,1.9,7.4,4c0.1,0.1,0.2,0.2,0.3,0.2c-3.7,0.5-6.6,2.2-8.7,4.9
					c-2.1,2.7-3.1,5.6-3.1,8.9c0,0.7,0.1,1.3,0.2,1.9c-1-0.4-2.2-1.1-3.6-2.1c-2.8-2.1-4.1-4.4-4.1-6.8
					C-34.8,38.4-34.2,36.5-33,34.3 M-20,54c-2.8-2.1-4.1-4.4-4.1-6.8c0-1.7,0.6-3.6,1.9-5.7c0.6-1.2,1.9-2.4,3.7-3.6
					c2.2-1.5,4.2-2,6-1.6c2.9,0.6,5.2,2.3,6.7,5c1.1,2.1,1.7,4.1,1.7,6c0,2.7-0.8,4.9-2.4,6.6c-1.9,1.9-4.5,2.8-8,2.8
					C-15.9,56.6-17.7,55.7-20,54 M10.9-41.1c0.1-0.8,0.1-1.2,0.1-1.3c0-0.2-0.3-0.4-0.9-0.4c-3.7-3.1-5.8-4.8-6.4-5.2
					c-1.5-1-2.4-1.6-2.9-1.7c-0.4-0.1-1-0.2-1.6-0.3c-0.7,0-16.7,0-48.1,0c-0.6,0-1,0.2-1.1,0.4c0,0.1,0,0.5,0.1,1.3
					c9.2,41.8,13.8,63.1,13.8,64c0.2,1.3,0.7,2.3,1.6,2.9c0.1,0.1,3.7,2.5,10.7,7.1c0,0,0,0.1,0.1,0.1l2.7,0.4
					c1.6,0.1,3.9,0.1,6.9,0.1c6,0,9.2-0.2,9.6-0.6c0.9-0.7,1.5-1.6,1.6-2.9C-2.8,22,1.8,0.7,10.9-41.1 M-1.2-45.7
					c2.1,0.8,3.8,1.8,5.1,2.9c-7.3,0-21.2,0-41.6,0c-1-0.7-2.3-1.5-3.9-2.5c-0.4-0.3-0.8-0.5-1.2-0.7c3.6,0,9.6,0.1,18.1,0.1
					C-17.7-46-9.8-45.9-1.2-45.7 M-14.1-38.8c10.7,0,17.6,0,20.5-0.1C4.9-30.6,2.6-20.3-0.3-8.1C-3,2.8-5.1,13-6.6,22.4
					c-0.1,0-5.2,0-15.1,0c-1.4-8.9-3.6-19.1-6.4-30.6C-31-19.8-33.2-30-34.6-38.9C-31.7-38.9-24.9-38.8-14.1-38.8 M-42.8-43.4
					c0.3,0.2,1.3,0.9,3.1,2.1c0.2,0.1,0.4,0.2,0.6,0.4c7.3,33.7,11.8,54.1,13.2,61.2c-1.8-1.3-4-3-6.6-5c-1.4-8.9-3.6-19.1-6.4-30.6
					c-2.7-10.8-4.8-20.5-6.2-29C-44.5-44.1-43.7-43.8-42.8-43.4z"/>
			</g>
		</g>
	</g>
</g>
</svg>
