<?xml version="1.0" encoding="utf-8"?>
<!-- Generator: Adobe Illustrator 24.0.0, SVG Export Plug-In . SVG Version: 6.00 Build 0)  -->
<svg version="1.1" id="Layer_1" xmlns="http://www.w3.org/2000/svg" xmlns:xlink="http://www.w3.org/1999/xlink" x="0px" y="0px"
	 viewBox="0 0 126 126" style="enable-background:new 0 0 126 126;" xml:space="preserve">
<style type="text/css">
	.st0{fill:#FFFFFF;}
</style>
<path class="st0" d="M72.5,98.7L72.5,98.7c-1.8,5-7.3,7.7-11.8,5.9s-6.8-6.4-5.5-10.9C62.1,95.5,67.5,97.4,72.5,98.7z M59.4,87.8
	c-0.9-0.5-1.8-0.5-2.7-0.9C18,72.8,25.3,63.3,32.5,60.1c7.7-3.6,12.7-15.4,20.4-36.3C57.1,11.9,66.6,9.2,73.9,9.7
	c0-0.9,0.5-1.8,0.5-2.7c1.8-5,7.7-7.7,12.7-5.9s7.7,7.7,5.9,12.7c-0.5,0.9-0.9,1.4-1.4,2.3c5.9,4.5,12.3,12.7,7.7,25
	C91.6,61.9,88,74.6,91.6,81.9c3.2,6.4,3.2,15.9-20.4,10l0,0c-0.9,0-1.8-0.5-2.7-0.9l0,0C66.2,90.1,63,89.2,59.4,87.8
	C59.8,87.8,59.8,87.8,59.4,87.8z M79.8,9.7c2.7,0.5,4.5,0.9,4.5,0.9s1.4,0.5,3.2,1.4C88,11.5,88,11,88,11c0.9-2.3-0.5-5-2.7-5.5
	c-2.3-0.9-5,0.5-5.5,2.7C80.2,8.8,79.8,9.2,79.8,9.7z M77.5,16.9c-0.5-0.5-0.5-0.9-0.9-0.9c-1.4,0-2.7,0-4.5,0
	c-6.4,0.5-10,3.6-12.3,9.5c-7.7,21.4-13.6,35.4-23.6,40c-0.9,0.5-1.4,0.9-1.8,1.4c0.5,0.5,1.4,1.8,4.1,3.6c0.9-1.4,3.2-2.7,5-3.6
	c7.7-3.6,12.7-15.4,20.4-36.3C66.2,21.9,71.6,18.3,77.5,16.9z M71.2,110.1c-0.9,0.5,1.4,10.4,2.3,12.3c0.5,1.8,0.9,3.2,2.7,2.7
	c1.8-0.5,1.4-2.3,0.5-4.1C76.2,119.2,72.1,109.6,71.2,110.1z M61.2,111.4c-0.9-0.5-4.1,6.4-5,7.7c-0.5,1.4-0.9,2.3,0.5,2.7
	c1.4,0.5,1.8-0.5,2.3-1.8C59.4,119.2,61.6,111.9,61.2,111.4z M86.2,109.2c-1.4-0.5-8.6-3.6-8.6-2.7c-0.5,0.9,6.4,4.5,7.7,5.5
	c1.4,0.5,2.3,1.4,2.7,0C88.4,110.1,87.5,109.6,86.2,109.2z"/>
</svg>
