<?xml version="1.0" encoding="utf-8"?>
<!-- Generator: Adobe Illustrator 24.3.0, SVG Export Plug-In . SVG Version: 6.00 Build 0)  -->
<svg version="1.1" id="Layer_1" xmlns="http://www.w3.org/2000/svg" xmlns:xlink="http://www.w3.org/1999/xlink" x="0px" y="0px"
	 viewBox="0 0 180 180" style="enable-background:new 0 0 180 180;" fill="#FFFFFF" xml:space="preserve">
<g transform="translate(-30 -200)">
	<g>
		<path d="M80.4,265.5c0,21.6,18.9,40.4,18.9,40.4c1.5,1.5,3.9,3.9,5.4,5.4c0,0,18.9,18.8,40.4,18.8c13,0,18.1-8.3,20.2-15
			c1.4-4.4,1.4-8.1,1.4-8.1c0-2.1-1.6-4.3-3.6-5l-17-5.7c-2-0.7-4,0.5-4.5,2.5c0,0-0.8,3.1-2.1,6.3c-1.8,4.5-10.5,8.8-26.6-7.3
			c-16.2-16.2-11.9-24.8-7.3-26.6c3.2-1.3,6.3-2.1,6.3-2.1c2-0.5,3.2-2.5,2.5-4.5l-5.7-17c-0.7-2-2.9-3.6-5-3.6c0,0-3.7,0-8.1,1.4
			C88.8,247.4,80.4,252.5,80.4,265.5z"/>
		<path d="M40.4,290.1c0,44.2,35.8,80,80,80s80-35.8,80-80s-35.8-80-80-80S40.4,245.9,40.4,290.1z M194.3,290.1
			c0,40.7-33.1,73.9-73.9,73.9s-73.9-33.1-73.9-73.9s33.1-73.9,73.9-73.9S194.3,249.4,194.3,290.1z"/>
	</g>
</g>
</svg>
