<?xml version="1.0" encoding="utf-8"?>
<!-- Generator: Adobe Illustrator 22.0.1, SVG Export Plug-In . SVG Version: 6.00 Build 0)  -->
<svg version="1.1" id="Layer_1" xmlns="http://www.w3.org/2000/svg" xmlns:xlink="http://www.w3.org/1999/xlink" x="0px" y="0px"
	 viewBox="0 0 43 31" style="enable-background:new 0 0 43 31;" xml:space="preserve">
<style type="text/css">
	.st0{fill:#4A5AA8;}
</style>
<path class="st0" d="M17.6,31L17.6,31c0.3,0,0.6,0,0.9,0H22c0.4,0,0.9-0.1,1.3-0.2c0.5-0.1,1-0.3,1.4-0.6c0.3-0.2,0.6-0.5,0.8-0.7
	c0.4-0.6,0.7-1.3,0.7-2l0,0c0-0.1,0-0.1,0-0.2c0-0.5-0.1-0.9-0.2-1.3c0.5-0.1,1-0.4,1.4-0.7c0.9-0.7,1.5-1.8,1.5-2.9
	c0-0.5-0.1-1-0.3-1.4c1.6-0.4,2.7-1.9,2.7-3.5c0-0.4-0.1-0.8-0.2-1.2c2.7,0,6,0,7.4,0c0.4,0,0.7,0,0.7,0c2,0,3.7-1.6,3.7-3.7
	c0-2-1.6-3.7-3.7-3.7c-0.2,0-14.9,0-15.5,0c-0.4,0-0.8,0-1.1,0c0.7-0.6,1.5-1.3,2.5-2.1c0.9-0.8,1.4-1.8,1.4-3.1c0-1-0.4-2-1.2-2.7
	c-0.2-0.2-0.4-0.4-0.7-0.5c-0.5-0.3-1-0.4-1.6-0.4c0,0-0.1,0-0.1,0c-0.3,0-0.7,0-1,0.1c-0.9,0.2-1.7,0.7-2.6,1.2
	c-0.2,0.1-0.5,0.3-0.7,0.4l-0.1,0.1c-5.5,3-9.1,5.4-12,8c-0.2,0.2-1.1,0.5-4.8,0.6l-0.3,0c-0.2,0-0.3,0-0.5,0c-0.5,0-1,0.5-1,1v14.7
	c0,0.6,0.4,1,1,1l5,0.1c0.1,0.1,0.3,0.4,0.6,0.7c0.4,0.5,0.8,1,1.2,1.2C10.9,31.1,14.5,31,17.6,31z M9.1,27.5
	c-0.2-0.1-0.5-0.5-0.8-0.9c-0.6-0.7-1-1.1-1.3-1.3c-0.1-0.1-0.3-0.1-0.5-0.1l-4.4-0.1V12.4C5,12.3,7.1,12.1,8,11.3
	c2.8-2.6,6.3-4.9,11.6-7.8l0.1-0.1c0.2-0.1,0.5-0.3,0.7-0.4c0.7-0.4,1.4-0.8,2-1c0,0,0,0,0.1,0C22.7,2,22.8,2,23,2c0,0,0,0,0.1,0
	c0,0,0,0,0,0c0.3,0,0.5,0,0.6,0.1c0.1,0,0.1,0.1,0.2,0.2c0,0,0.1,0.1,0.1,0.1c0.3,0.3,0.5,0.7,0.5,1.2c0,0.7-0.2,1.2-0.7,1.6
	c-1.8,1.6-3.1,2.6-4.3,3.4l-0.1,0.1c-0.3,0.2-0.5,0.6-0.4,1c0.1,0.4,0.3,0.7,0.7,0.8c0.8,0.2,2.2,0.4,4.1,0.4c0.2,0,15.3,0,15.5,0
	c0.9,0,1.6,0.7,1.6,1.6s-0.7,1.6-1.6,1.6c-0.1,0-0.3,0-0.7,0c-1.8,0-6.6,0-9.4,0c0,0,0,0,0,0c0,0,0,0,0,0h-2.5c-0.6,0-1,0.5-1,1
	c0,0.6,0.5,1,1,1h2.2c0.3,0.3,0.5,0.7,0.5,1.2c0,0.8-0.6,1.5-1.3,1.6c0,0-0.1,0-0.1,0C27.7,19,27.5,19,27.3,19h-0.5c0,0,0,0,0,0
	h-2.5c-0.6,0-1,0.5-1,1c0,0.6,0.5,1,1,1h2.2c0.3,0.3,0.5,0.7,0.5,1.2c0,0.5-0.3,1-0.7,1.3c0,0-0.1,0-0.1,0.1c-0.3,0.2-0.6,0.4-1,0.4
	c0,0-0.1,0-0.1,0c-0.2,0-0.5,0-0.8,0c0,0,0,0,0,0c0,0,0,0,0,0h-2.5c-0.6,0-1,0.5-1,1c0,0.6,0.5,1,1,1h2.2c0.3,0.3,0.4,0.8,0.4,1.2
	l0,0.1c0,0,0,0,0,0.1c0,0.3-0.1,0.6-0.3,0.8c-0.1,0.1-0.2,0.2-0.3,0.3c0,0,0,0,0,0c-0.2,0.2-0.4,0.3-0.7,0.3c0,0-0.1,0-0.1,0
	c-0.3,0.1-0.6,0.1-0.8,0.1l-3.6,0c-0.3,0-0.6,0-0.9,0l0,0C14.7,29,11.5,29.1,9.1,27.5z"/>
</svg>
