<?xml version="1.0" encoding="utf-8"?>
<!-- Generator: Adobe Illustrator 22.1.0, SVG Export Plug-In . SVG Version: 6.00 Build 0)  -->
<svg version="1.1" id="Layer_1" xmlns="http://www.w3.org/2000/svg" xmlns:xlink="http://www.w3.org/1999/xlink" x="0px" y="0px"
	 viewBox="0 0 96 124" style="enable-background:new 0 0 96 124;" xml:space="preserve">
<style type="text/css">
	.st0{fill:#E0E0E0;}
</style>
<path id="XMLID_2_" class="st0" d="M48,2.7c14.9,0,27.1,12.2,27.1,27.1S62.9,56.9,48,56.9S20.9,44.7,20.9,29.8S33.1,2.7,48,2.7
	 M48,0.7c-16.1,0-29.1,13-29.1,29.1s13,29.1,29.1,29.1s29.1-13,29.1-29.1S64.1,0.7,48,0.7L48,0.7z"/>
<g id="XMLID_3_">
	<path id="XMLID_13_" class="st0" d="M48,66.8c9.3,0,19,0.6,28.8,1.7c2.2,0.3,3.9,1.4,5,3.2c8.8,14.2,12.3,26,11.9,40.7
		c-0.1,3.3-2.5,6-5.8,6.5c-13.6,1.7-27.1,2.6-40.1,2.6c-13,0-26.4-0.9-39.9-2.6c-3.3-0.5-5.7-3.2-5.8-6.5C1.9,97.8,5.4,86,14.2,71.6
		c1.1-1.7,2.9-2.9,4.9-3.2C29,67.4,38.7,66.8,48,66.8 M48,64.8c-9.6,0-19.4,0.6-29.1,1.7c-2.6,0.3-5,1.8-6.4,4.1
		c-9,14.7-12.6,26.8-12.3,41.8c0.1,4.3,3.3,7.8,7.5,8.4c13.4,1.7,27,2.6,40.2,2.6c13.3,0,26.8-0.9,40.3-2.6c4.2-0.6,7.4-4.1,7.5-8.4
		c0.4-15.1-3.1-27.2-12.2-41.8c-1.4-2.3-3.7-3.7-6.4-4.1C67.4,65.4,57.5,64.8,48,64.8L48,64.8z"/>
</g>
<g>
	<path class="st0" d="M42.3,30h4.6v-4.6h2.1V30h4.6v2h-4.6v4.6h-2.1V32h-4.6V30z"/>
</g>
<g>
	<path class="st0" d="M32.5,78h1v0.8c0.6-0.5,1.2-0.9,2.1-0.9c1.3,0,2.5,1.1,2.5,3.2c0,2.1-1.4,3.2-2.6,3.2c-0.8,0-1.4-0.3-1.9-0.6
		v2.9h-1V78z M35.1,83.3c0.9,0,1.8-0.7,1.8-2.3c0-1.5-0.8-2.3-1.6-2.3c-0.6,0-1.2,0.3-1.8,0.8v3C34.1,83.1,34.6,83.3,35.1,83.3z"/>
	<path class="st0" d="M38.9,75.1l0.9-0.2l1,1.4l1-1.4l0.9,0.2l-1.4,2h-1L38.9,75.1z M39.5,78h1v1.6c0.4-0.7,1.2-1.5,2.3-1.8l0.2,1.1
		c-1,0.3-1.9,0.9-2.4,1.6v3.6h-1V78z"/>
	<path class="st0" d="M44.5,75.4c0.4,0,0.7,0.3,0.7,0.7c0,0.4-0.3,0.7-0.7,0.7s-0.7-0.3-0.7-0.7C43.9,75.7,44.2,75.4,44.5,75.4z
		 M44,78h1v6.1h-1V78z"/>
	<path class="st0" d="M49.1,77.9c0.8,0,1.4,0.3,1.9,0.6v-3.3h1v8.9h-1v-0.8c-0.5,0.5-1.2,0.9-2,0.9c-1.3,0-2.5-1.1-2.5-3.2
		C46.5,78.9,47.9,77.9,49.1,77.9z M49.2,83.3c0.6,0,1.2-0.3,1.8-0.8v-3c-0.5-0.4-1-0.7-1.6-0.7c-0.9,0-1.8,0.7-1.8,2.3
		C47.6,82.6,48.4,83.3,49.2,83.3z"/>
	<path class="st0" d="M56.4,80.6h1.1v-0.4c0-1-0.6-1.4-1.4-1.4c-0.6,0-1.2,0.4-1.4,1.1l-1-0.3c0.3-1.1,1.4-1.7,2.4-1.7
		c1.4,0,2.4,0.7,2.4,2.3v2.2c0,0.6,0.1,1.2,0.4,1.7l-1,0.1c-0.2-0.3-0.3-0.7-0.3-1c-0.6,0.7-1.5,1.1-2.2,1.1c-1,0-1.9-0.6-1.9-1.7
		C53.5,81.3,54.4,80.6,56.4,80.6z M55.5,83.4c0.7,0,1.6-0.5,2-1.2v-0.9h-1.1c-1.4,0-2,0.4-2,1.1C54.5,83.1,54.9,83.4,55.5,83.4z"/>
	<path class="st0" d="M59.7,78h1.2v-1.7l1-0.2V78h1.9v0.9h-1.9v3.2c0,0.9,0.3,1.2,0.8,1.2c0.3,0,0.6-0.1,1.1-0.2L64,84
		c-0.6,0.2-1.1,0.3-1.5,0.3c-1.2,0-1.7-0.8-1.7-2.1v-3.2h-1.2V78z"/>
	<path class="st0" d="M31.5,92.3c0.8,0,1.4,0.3,1.9,0.6v-3.3h1v8.9h-1v-0.8c-0.5,0.5-1.2,0.9-2,0.9c-1.3,0-2.5-1.1-2.5-3.2
		C28.9,93.3,30.3,92.3,31.5,92.3z M31.6,97.8c0.6,0,1.2-0.3,1.8-0.8v-3c-0.5-0.4-1-0.7-1.6-0.7c-0.9,0-1.8,0.7-1.8,2.3
		C30,97,30.8,97.8,31.6,97.8z"/>
	<path class="st0" d="M38.9,95h1.1v-0.4c0-1-0.6-1.4-1.4-1.4c-0.6,0-1.2,0.4-1.4,1.1l-1-0.3c0.3-1.1,1.4-1.7,2.4-1.7
		c1.4,0,2.4,0.7,2.4,2.3v2.2c0,0.6,0.1,1.2,0.4,1.7l-1,0.1c-0.2-0.3-0.3-0.7-0.3-1c-0.6,0.7-1.5,1.1-2.2,1.1c-1,0-1.9-0.6-1.9-1.7
		C35.9,95.7,36.8,95,38.9,95z M37.9,97.8c0.7,0,1.6-0.5,2-1.2v-0.9h-1.1c-1.4,0-2,0.4-2,1.1C36.9,97.5,37.4,97.8,37.9,97.8z"/>
	<path class="st0" d="M42.7,89.7h1v8.9h-1V89.7z"/>
	<path class="st0" d="M46.3,96.7c0.2,0.8,0.7,1.1,1.6,1.1c0.8,0,1.4-0.4,1.4-1c0-1.6-3.9-0.2-3.9-2.8c0-1,0.9-1.8,2.3-1.8
		c1.3,0,2.2,0.6,2.5,1.7l-1,0.3c-0.1-0.8-0.8-1.1-1.5-1.1c-0.7,0-1.3,0.4-1.3,0.9c0,1.6,3.9,0.2,3.9,2.8c0,1-1,1.8-2.4,1.8
		c-1.5,0-2.3-0.6-2.6-1.7L46.3,96.7z M45.9,89.5l0.9-0.2l1,1.4l1-1.4l0.9,0.2l-1.4,2h-1L45.9,89.5z"/>
	<path class="st0" d="M52.8,89.4l1.1,0.1l-1.2,2.1h-0.9L52.8,89.4z M51.9,92.4h1v6.1h-1V92.4z"/>
	<path class="st0" d="M54.8,89.7h1v3.5c0.6-0.5,1.3-0.8,2-0.8c1.2,0,2.1,0.7,2.1,2.4v3.8h-1v-3.8c0-1.1-0.6-1.5-1.3-1.5
		c-0.6,0-1.3,0.3-1.8,0.8v4.5h-1V89.7z"/>
	<path class="st0" d="M64.2,92.3c1.5,0,2.8,1.2,2.8,3.2s-1.4,3.2-2.8,3.2s-2.8-1.2-2.8-3.2S62.7,92.3,64.2,92.3z M64.2,97.8
		c0.9,0,1.8-0.8,1.8-2.3s-0.9-2.3-1.8-2.3c-0.9,0-1.8,0.8-1.8,2.3S63.3,97.8,64.2,97.8z"/>
	<path class="st0" d="M36.7,106.7c1.2,0,2.3,0.7,2.6,2l-1,0.2c-0.2-0.9-0.9-1.4-1.5-1.4c-0.9,0-1.8,0.8-1.8,2.3s0.9,2.3,1.8,2.3
		c0.7,0,1.4-0.5,1.5-1.4l1,0.2c-0.3,1.3-1.4,2-2.6,2c-1.5,0-2.8-1.2-2.8-3.2C33.9,107.9,35.2,106.7,36.7,106.7z M34.8,103.9l0.9-0.2
		l1,1.4l1-1.4l0.9,0.2l-1.4,2h-1L34.8,103.9z"/>
	<path class="st0" d="M40.6,104.1h1v8.9h-1V104.1z"/>
	<path class="st0" d="M44.2,110.1c0.1,1.4,0.9,2,1.8,2c0.7,0,1.3-0.4,1.6-1.2l1,0.2c-0.4,1.1-1.4,1.8-2.6,1.8
		c-1.5,0-2.8-1.2-2.8-3.2c0-2,1.3-3.2,2.8-3.2c1.4,0,2.8,1.1,2.7,3.5H44.2z M44.2,109.3h3.5c-0.1-1.1-0.8-1.8-1.7-1.8
		C45.1,107.6,44.4,108.2,44.2,109.3z"/>
	<path class="st0" d="M50.2,106.8h1v0.8c0.6-0.5,1.3-0.9,2.1-0.9c1.2,0,2.1,0.7,2.1,2.4v3.8h-1v-3.8c0-1.1-0.6-1.5-1.3-1.5
		c-0.6,0-1.3,0.3-1.8,0.8v4.5h-1V106.8z"/>
	<path class="st0" d="M59.7,109.4h1.1V109c0-1-0.6-1.4-1.4-1.4c-0.6,0-1.2,0.4-1.4,1.1l-1-0.3c0.3-1.1,1.4-1.7,2.4-1.7
		c1.4,0,2.4,0.7,2.4,2.3v2.2c0,0.6,0.1,1.2,0.4,1.7l-1,0.1c-0.2-0.3-0.3-0.7-0.3-1c-0.6,0.7-1.5,1.1-2.2,1.1c-1,0-1.9-0.6-1.9-1.7
		C56.7,110.1,57.6,109.4,59.7,109.4z M58.8,112.2c0.7,0,1.6-0.5,2-1.2v-0.9h-1.1c-1.4,0-2,0.4-2,1.1
		C57.7,111.9,58.2,112.2,58.8,112.2z"/>
</g>
</svg>
