<?xml version="1.0" encoding="utf-8"?>
<!-- Generator: Adobe Illustrator 19.0.0, SVG Export Plug-In . SVG Version: 6.00 Build 0)  -->
<svg version="1.1" id="Layer_1" xmlns="http://www.w3.org/2000/svg" xmlns:xlink="http://www.w3.org/1999/xlink" x="0px" y="0px"
	 viewBox="0 0 62 25" style="enable-background:new 0 0 62 25;" xml:space="preserve">
<style type="text/css">
	.st0{fill:url(#XMLID_6_);}
	.st1{fill:#FFFFFF;}
</style>
<linearGradient id="XMLID_6_" gradientUnits="userSpaceOnUse" x1="0" y1="12.5" x2="62" y2="12.5">
	<stop  offset="0" style="stop-color:#5F82C1"/>
	<stop  offset="0.5218" style="stop-color:#4B5AA6"/>
	<stop  offset="1" style="stop-color:#592F8E"/>
</linearGradient>
<path id="XMLID_2_" class="st0" d="M49.5,25h-37C5.6,25,0,19.4,0,12.5v0C0,5.6,5.6,0,12.5,0h37C56.4,0,62,5.6,62,12.5v0
	C62,19.4,56.4,25,49.5,25z"/>
<path id="XMLID_5_" class="st1" d="M49.2,1.5c-6.1,0-11,4.9-11,11s4.9,11,11,11s11-4.9,11-11S55.3,1.5,49.2,1.5z M50.6,18.3
	c-0.3,0.3-0.6,0.4-1,0.4s-0.7-0.1-1-0.4c-0.6-0.6-0.6-1.4,0-2l2.4-2.4h-7c-0.8,0-1.4-0.6-1.4-1.4c0-0.8,0.6-1.4,1.4-1.4h7l-2.4-2.4
	c-0.6-0.6-0.6-1.4,0-2c0.6-0.6,1.4-0.6,2,0l5.8,5.8L50.6,18.3z"/>
<g id="XMLID_7_">
	<path id="XMLID_8_" class="st1" d="M16.4,6.5c2.8,0,5.1,2.2,5.1,6c0,3.7-2.4,6-5.1,6s-5.1-2.2-5.1-6C11.3,8.8,13.7,6.5,16.4,6.5z
		 M16.4,16.9c1.6,0,3.2-1.3,3.2-4.4c0-3-1.6-4.4-3.2-4.4s-3.2,1.4-3.2,4.4C13.2,15.5,14.8,16.9,16.4,16.9z"/>
	<path id="XMLID_11_" class="st1" d="M23.6,6.7h1.8v5.2l4.7-5.2h2.2l-4.5,4.9l4.9,6.7h-2.2L26.6,13l-1.2,1.3v4h-1.8V6.7z"/>
</g>
</svg>
