<?xml version="1.0" encoding="utf-8"?>
<!-- Generator: Adobe Illustrator 22.1.0, SVG Export Plug-In . SVG Version: 6.00 Build 0)  -->
<svg version="1.1" id="Layer_1" xmlns="http://www.w3.org/2000/svg" xmlns:xlink="http://www.w3.org/1999/xlink" x="0px" y="0px"
	 viewBox="0 0 500 400" style="enable-background:new 0 0 500 400;" xml:space="preserve">
<style type="text/css">
	.st0{fill:#FFFFFF;}
	.st1{fill:#52368B;}
</style>
<g>
	<path class="st0" d="M314.6,393.6L65.8,306.8l1.7-4.9l-1.7,4.9c-2.4-0.8-3.9-3.3-3.4-5.8l0,0c0.4-2.5,2.6-4.3,5.1-4.3l0,0
		l208.5-0.3l86.2-188.1l-64.3-9.3c-2.3-0.3-4-2.1-4.4-4.3l0,0c-0.4-2.3,0.8-4.5,2.8-5.5l0,0L462.6,6.5c1.5-0.8,3.3-0.7,4.8,0.1l0,0
		c1.5,0.8,2.5,2.3,2.7,3.9l0,0l23.5,183.5c0.3,2.4-1,4.6-3.3,5.5l0,0c-2.2,0.9-4.8,0.1-6.1-1.8l0,0l-29.5-41.2L320.9,391.2
		c-0.5,1-1.4,1.7-2.3,2.1l0,0C317.4,393.9,316,394,314.6,393.6L314.6,393.6z M314,382.3l135.7-237.9c0.9-1.5,2.5-2.5,4.3-2.6l0,0
		c1.8-0.1,3.5,0.7,4.5,2.2l0,0l22.2,31l-20-155.8l-144.7,72l54.7,7.9c1.6,0.2,3.1,1.2,3.8,2.7l0,0c0.8,1.4,0.8,3.2,0.2,4.7l0,0
		l-90.5,197.4c-0.9,1.9-2.7,3-4.7,3l0,0l-181.2,0.3L314,382.3L314,382.3z"/>
</g>
<g>
	<path class="st1" d="M35.2,124.6h11C53,124.6,59,130,59,139s-6,14.4-12.9,14.4h-11V124.6z M46.1,148.1c3,0,6.4-2.3,6.4-9.1
		c0-6.9-3.5-9.1-6.4-9.1h-4.9v18.3H46.1z"/>
	<path class="st1" d="M75.4,124.2c6.9,0,12.9,5.5,12.9,14.8c0,9.2-6,14.8-12.9,14.8c-6.9,0-12.9-5.5-12.9-14.8
		C62.5,129.8,68.5,124.2,75.4,124.2z M75.4,148.4c3,0,6.4-2.3,6.4-9.4c0-7.1-3.4-9.4-6.4-9.4c-3,0-6.4,2.3-6.4,9.4
		C69,146.1,72.5,148.4,75.4,148.4z"/>
	<path class="st1" d="M110.1,144.4c0.5,2.9,2.7,4.1,5.4,4.1c2.7,0,4.6-1.2,4.6-3.2c0-5.5-15.8-1-15.8-12.5c0-4.8,4.6-8.6,10.6-8.6
		c6.3,0,10.1,2.8,11.1,8.2l-6,1.2c-0.5-2.9-2.5-4.1-5.1-4.1c-2.5,0-4.3,1.3-4.3,3.2c0,5.6,15.7,1,15.7,12.6c0,4.8-4.6,8.6-10.9,8.6
		c-6.4,0-10.5-3-11.4-8.2L110.1,144.4z"/>
	<path class="st1" d="M142.6,124.2c6.9,0,12.9,5.5,12.9,14.8c0,9.2-6,14.8-12.9,14.8c-6.9,0-12.9-5.5-12.9-14.8
		C129.7,129.8,135.7,124.2,142.6,124.2z M142.6,148.4c3,0,6.4-2.3,6.4-9.4c0-7.1-3.4-9.4-6.4-9.4c-3,0-6.4,2.3-6.4,9.4
		C136.2,146.1,139.7,148.4,142.6,148.4z"/>
	<path class="st1" d="M165.4,124.6v17.9c0,3.4,2.1,5.8,5.3,5.8c3.2,0,5.3-2.5,5.3-5.8v-17.9h6v17.6c0,6.9-4.5,11.6-11.4,11.6
		c-6.9,0-11.3-4.7-11.3-11.6v-17.6H165.4z"/>
	<path class="st1" d="M192.9,129.9h-8.2v-5.2h22.5v5.2h-8.2v23.5h-6V129.9z"/>
	<path class="st1" d="M210.2,124.6H230v5.2h-13.8v6.5h13v5.3h-13v6.5H230v5.3h-19.9V124.6z M210.8,115.4l4.6-1.4l4.2,3.7l4.3-3.7
		l4.6,1.4l-6.2,6.6H217L210.8,115.4z"/>
	<path class="st1" d="M232.7,148.1l13.9-18.3h-13.9v-5.2h21.6v5.2l-13.9,18.3h13.9v5.3h-21.6V148.1z M234.6,115.4l4.6-1.4l4.2,3.7
		l4.3-3.7l4.6,1.4l-6.2,6.6h-5.4L234.6,115.4z"/>
	<path class="st1" d="M257.8,124.6h19.9v5.2h-13.8v6.5h13v5.3h-13v6.5h13.8v5.3h-19.9V124.6z"/>
	<path class="st1" d="M14.4,185.6c0.5,2.9,2.7,4.1,5.4,4.1c2.7,0,4.6-1.2,4.6-3.2c0-5.5-15.8-1-15.8-12.5c0-4.8,4.6-8.6,10.6-8.6
		c6.3,0,10.1,2.8,11.1,8.2l-6,1.2c-0.5-2.9-2.5-4.1-5.1-4.1c-2.5,0-4.3,1.3-4.3,3.2c0,5.6,15.7,1,15.7,12.6c0,4.8-4.6,8.6-10.9,8.6
		c-6.4,0-10.5-3-11.4-8.2L14.4,185.6z"/>
	<path class="st1" d="M35,165.9h19.9v5.2H41.1v6.5h13v5.3h-13v6.5h13.8v5.3H35V165.9z"/>
	<path class="st1" d="M84,186.9c-1.4-2.4-2.5-3.4-5-3.4h-1.4v11.1h-6v-28.7h11.1c5.5,0,10.4,2.5,10.4,8.8c0,4.3-2.2,6.8-5.4,8
		c1.3,1.1,2.5,2.5,3.5,4.3l4.4,7.6h-7L84,186.9z M82.4,178.2c2.4,0,4.2-1,4.2-3.6c0-2.5-1.8-3.6-4.2-3.6h-4.9v7.1H82.4z"/>
	<path class="st1" d="M98.1,165.9H118v5.2h-13.8v6.5h13v5.3h-13v6.5H118v5.3H98.1V165.9z"/>
	<path class="st1" d="M140.6,191.5c-1.9,2.3-4.5,3.5-7.6,3.5c-6.4,0-12-5.5-12-14.8c0-9.2,6.4-14.8,13.3-14.8
		c5.5,0,10.3,3.5,11.7,8.9l-6.4,1.1c-0.6-3.2-3.2-4.6-5.5-4.6c-3,0-6.7,2.3-6.7,9.4c0,7.1,3.7,9.5,6.9,9.5c2.3,0,5.4-1.6,5.9-5.7
		h-6.5v-5.3h12.7v15.8h-5.7V191.5z"/>
	<path class="st1" d="M151.4,165.9h6v28.7h-6V165.9z"/>
	<path class="st1" d="M167.8,185.6c0.5,2.9,2.7,4.1,5.4,4.1c2.7,0,4.6-1.2,4.6-3.2c0-5.5-15.8-1-15.8-12.5c0-4.8,4.6-8.6,10.6-8.6
		c6.3,0,10.1,2.8,11.1,8.2l-6,1.2c-0.5-2.9-2.5-4.1-5.1-4.1c-2.5,0-4.3,1.3-4.3,3.2c0,5.6,15.7,1,15.7,12.6c0,4.8-4.6,8.6-10.9,8.6
		c-6.4,0-10.5-3-11.4-8.2L167.8,185.6z"/>
	<path class="st1" d="M194,171.1h-8.2v-5.2h22.5v5.2h-8.2v23.5h-6V171.1z"/>
	<path class="st1" d="M216.9,165.9v17.9c0,3.4,2.1,5.8,5.3,5.8c3.2,0,5.3-2.5,5.3-5.8v-17.9h6v17.6c0,6.9-4.5,11.6-11.4,11.6
		c-6.9,0-11.3-4.7-11.3-11.6v-17.6H216.9z"/>
	<path class="st1" d="M242.3,184.2c0,3.9,1.8,5.4,3.7,5.4c2.2,0,3.7-1.9,3.7-5.5v-18.3h6v18.8c0,6.2-4.1,10.3-9.7,10.3
		c-5.4,0-9.7-3.8-9.7-10L242.3,184.2z"/>
	<path class="st1" d="M266.5,171.1h-8.2v-5.2h22.5v5.2h-8.2v23.5h-6V171.1z"/>
	<path class="st1" d="M283.7,165.9h19.9v5.2h-13.8v6.5h13v5.3h-13v6.5h13.8v5.3h-19.9V165.9z"/>
	<path class="st1" d="M81.5,256.5l28-36.8h-28v-10.5H125v10.5l-28,36.8h28v10.6H81.5V256.5z"/>
	<path class="st1" d="M132.1,209.2h22.1c13.9,0,25.9,10.8,25.9,28.9s-12.1,28.9-25.9,28.9h-22.1V209.2z M154.1,256.5
		c6,0,13-4.6,13-18.3c0-13.8-7-18.4-13-18.4h-9.8v36.8H154.1z"/>
	<path class="st1" d="M188.9,209.2h40v10.5H201v13.1h26.2v10.6H201v13.1h27.8v10.6h-40V209.2z"/>
</g>
</svg>
