<?xml version="1.0" encoding="utf-8"?>
<!-- Generator: Adobe Illustrator 22.0.1, SVG Export Plug-In . SVG Version: 6.00 Build 0)  -->
<svg version="1.1" id="Layer_1" xmlns="http://www.w3.org/2000/svg" xmlns:xlink="http://www.w3.org/1999/xlink" x="0px" y="0px"
	 viewBox="0 0 28 29" style="enable-background:new 0 0 28 29;" xml:space="preserve">
<style type="text/css">
	.st0{fill-rule:evenodd;clip-rule:evenodd;fill:#FFFFFF;}
</style>
<g id="New_Symbol_2">
	<g id="Layer_1_1_">
		<g>
			<g>
				<g>
					<path class="st0" d="M26,29H2c-1.1,0-1.9-0.8-1.9-1.9V1.9C0.1,0.8,0.9,0,2,0h2.3c0,0,0,7,0,9.5c0,0.7,0.3,0.9,0.9,0.9
						c2.6,0,10.6,0,13.4,0c0.6,0,1.3-0.6,1.3-1.2c0-2.5,0-9.3,0-9.3h2.4l5.7,6.2v20.9C27.9,28.2,27,29,26,29L26,29z M24.2,14.3
						c0-0.5-0.4-1-0.9-1H5.2c-0.5,0-0.9,0.4-0.9,1v10.9c0,0.5,0.4,1,0.9,1h18.1c0.5,0,0.9-0.4,0.9-1V14.3L24.2,14.3z M20.9,23.8H7.1
						c-0.5,0-1-0.4-1-1c0-0.5,0.4-0.9,1-0.9h13.8c0.5,0,0.9,0.4,0.9,0.9C21.8,23.4,21.4,23.8,20.9,23.8L20.9,23.8z M20.9,19H7.1
						c-0.5,0-1-0.4-1-1c0-0.5,0.4-0.9,1-0.9h13.8c0.5,0,0.9,0.4,0.9,0.9C21.8,18.6,21.4,19,20.9,19L20.9,19z M16.1,9h-4.3
						c-0.5,0-1-0.4-1-0.9V1.9c0-0.5,0.4-1,1-1h4.3c0.5,0,1,0.4,1,1v6.2C17.1,8.6,16.7,9,16.1,9L16.1,9z"/>
				</g>
			</g>
		</g>
	</g>
</g>
</svg>
