<?xml version="1.0" encoding="utf-8"?>
<!-- Generator: Adobe Illustrator 19.0.0, SVG Export Plug-In . SVG Version: 6.00 Build 0)  -->
<svg version="1.1" id="Layer_1" xmlns="http://www.w3.org/2000/svg" xmlns:xlink="http://www.w3.org/1999/xlink" x="0px" y="0px"
	 viewBox="0 0 78 78" style="enable-background:new 0 0 78 78;" xml:space="preserve">
<style type="text/css">
	.st0{opacity:0.2;fill:#F2F2F2;}
	.st1{fill:#FFFFFF;}
</style>
<circle id="XMLID_1_" class="st0" cx="39" cy="39" r="39"/>
<g id="XMLID_2_">
	<path id="XMLID_4_" class="st1" d="M60.1,36.4c0.5,0.5,0.5,1.5,0,2l0,0L40,58.7c-0.5,0.5-1.5,0.5-2,0l0,0L18,38.4
		c-0.5-0.5-0.5-1.5,0-2s1.5-0.5,2,0l19,19.1l19.1-19.1C58.7,35.9,59.6,35.9,60.1,36.4z M38,43.3c0.5,0.5,1.5,0.5,2,0l0,0l20.1-20.2
		c0.5-0.5,0.5-1.5,0-2s-1.5-0.5-2,0l-19,19.1L19.9,21c-0.5-0.5-1.5-0.5-2,0s-0.5,1.5,0,2L38,43.3z"/>
</g>
</svg>
