<?xml version="1.0" encoding="utf-8"?>
<!-- Generator: Adobe Illustrator 19.0.0, SVG Export Plug-In . SVG Version: 6.00 Build 0)  -->
<svg version="1.1" id="Layer_1" xmlns="http://www.w3.org/2000/svg" xmlns:xlink="http://www.w3.org/1999/xlink" x="0px" y="0px"
	 viewBox="0 0 96 124" style="enable-background:new 0 0 96 124;" xml:space="preserve">
<style type="text/css">
	.st0{fill:#E0E0E0;}
</style>
<circle id="XMLID_2_" class="st0" cx="48" cy="29.8" r="29.1"/>
<g id="XMLID_3_">
	<polygon id="XMLID_4_" class="st0" points="32.2,101 36.1,101 37.2,97 33.4,97 	"/>
	<path id="XMLID_13_" class="st0" d="M83.5,70.6c-1.4-2.3-3.7-3.7-6.4-4.1c-9.7-1.1-19.6-1.7-29.1-1.7c-9.6,0-19.4,0.6-29.1,1.7
		c-2.6,0.3-5,1.8-6.4,4.1c-9,14.7-12.6,26.8-12.3,41.8c0.1,4.3,3.3,7.8,7.5,8.4c13.4,1.7,27,2.6,40.2,2.6c13.3,0,26.8-0.9,40.3-2.6
		c4.2-0.6,7.4-4.1,7.5-8.4C96.1,97.3,92.6,85.2,83.5,70.6z M44.6,97h-3.3l-1.2,4h3.2l-1.1,4h-3.3l-1.4,4h-4.1l1.4-4h-3.8l-1.4,4
		h-4.1l1.4-4h-3.2l1.1-4h3.2l1.2-4H26l1.1-4h3.2l1.4-5h4.1l-1.4,5h3.8l1.4-5h4.1l-1.4,5h3.3L44.6,97z M71,109H48v-5h9V84.8
		c-3,1.7-5.6,3-8.4,3.4l-0.8-5.5c3-0.4,7.2-2.6,10.1-4.6H63v26h8V109z"/>
</g>
</svg>
