<?xml version="1.0" encoding="utf-8"?>
<!-- Generator: Adobe Illustrator 22.1.0, SVG Export Plug-In . SVG Version: 6.00 Build 0)  -->
<svg version="1.1" id="Layer_1" xmlns="http://www.w3.org/2000/svg" xmlns:xlink="http://www.w3.org/1999/xlink" x="0px" y="0px"
	 viewBox="0 0 659 674" style="enable-background:new 0 0 659 674;" xml:space="preserve">
<style type="text/css">
	.st0{fill:#EDEDED;}
</style>
<g>
	<g>
		<g>
			<path class="st0" d="M83.3,670.6h493.4c44.2,0,80.2-36,80.2-80.2V150.9c0-44.2-36-80.2-80.2-80.2h-0.4v26.5V109
				c0,27.6-22.4,50-50,50h-5.9c-27.6,0-50-22.4-50-50V93.7v-23H189.7v23V109c0,27.6-22.4,50-50,50h-5.9c-27.6,0-50-22.4-50-50V97.2
				V70.7h-0.4c-44.2,0-80.2,36-80.2,80.2v439.5C3.1,634.6,39.1,670.6,83.3,670.6z M49.2,247.6h561.6v342.8
				c0,18.8-15.3,34.1-34.1,34.1H83.3c-18.8,0-34.1-15.3-34.1-34.1L49.2,247.6z"/>
			<rect x="222.3" y="291.8" class="st0" width="96.2" height="76.9"/>
			<rect x="341.5" y="291.8" class="st0" width="96.2" height="76.9"/>
			<rect x="460.8" y="291.8" class="st0" width="96.2" height="76.9"/>
			<rect x="103.1" y="391.8" class="st0" width="96.2" height="76.9"/>
			<rect x="222.3" y="391.8" class="st0" width="96.2" height="76.9"/>
			<rect x="341.5" y="391.8" class="st0" width="96.2" height="76.9"/>
			<rect x="460.8" y="391.8" class="st0" width="96.2" height="76.9"/>
			<rect x="103.1" y="491.8" class="st0" width="96.2" height="76.9"/>
			<rect x="222.3" y="491.8" class="st0" width="96.2" height="76.9"/>
			<rect x="341.5" y="491.8" class="st0" width="96.2" height="76.9"/>
			<rect x="460.8" y="491.8" class="st0" width="96.2" height="76.9"/>
			<path class="st0" d="M139.6,137.5c15.7,0,28.5-12.8,28.5-28.5V31.9c0-15.7-12.8-28.5-28.5-28.5h-5.9c-15.7,0-28.5,12.8-28.5,28.5
				V109c0,15.7,12.8,28.5,28.5,28.5L139.6,137.5z"/>
			<path class="st0" d="M526.3,137.5c15.7,0,28.5-12.8,28.5-28.5V31.9c0-15.7-12.8-28.5-28.5-28.5h-5.9c-15.7,0-28.5,12.8-28.5,28.5
				V109c0,15.7,12.8,28.5,28.5,28.5L526.3,137.5z"/>
		</g>
	</g>
</g>
</svg>
