<?xml version="1.0" encoding="utf-8"?>
<!-- Generator: Adobe Illustrator 22.0.1, SVG Export Plug-In . SVG Version: 6.00 Build 0)  -->
<svg version="1.1" id="Layer_1" xmlns="http://www.w3.org/2000/svg" xmlns:xlink="http://www.w3.org/1999/xlink" x="0px" y="0px"
	 viewBox="0 0 75 68" style="enable-background:new 0 0 75 68;" xml:space="preserve">
<path d="M71.9,33.6c0.5-0.9,0.7-1.9,0.7-3v-1.9c0-3.5-2.8-6.3-6.3-6.3H50.7c0,0,0,0,0-0.1c2.3-2.5,4.6-5.1,5.3-8.7
	c0.3-1.4,0.3-2.8,0.2-4.2c-0.2-1.8-0.7-3.3-1.5-4.8c-0.3-0.8-0.7-1.6-1.4-2.3l0,0c-0.9-1.1-2.1-1.8-3.6-2.1c-1.6-0.3-3.2,0-4.5,0.7
	c0,0,0,0,0,0C45,0.9,44.9,1,44.8,1.1c0,0,0,0,0,0c0,0,0,0,0,0c-2,1.4-2.6,3.5-3.1,5.3c-0.3,1-0.6,2-1,2.7c-0.2,0.3-0.5,0.6-0.8,0.9
	c0,0,0,0-0.1,0.1c0,0-0.1,0-0.1,0.1c-0.3,0.2-0.6,0.5-1,0.7c-0.4,0.3-0.9,0.5-1.3,0.8c-0.2,0.1-0.5,0.3-0.8,0.4l0,0
	c-1,0.6-2,1.3-3,2c0,0,0,0-0.1,0c-0.1,0-0.1,0.1-0.2,0.2C32.1,15,31,15.9,30,16.8c-0.5,0.4-0.9,0.8-1.4,1.2
	c-1.8,1.6-3.6,3.2-5.4,4.9c-1.1,1.1-2.3,2.2-3.4,3.4H0.1v36.3h19.1c2.4,3.2,6.2,5.1,10.3,5.1h0h20.1c0.1,0,0.2,0,0.3,0h0.9
	c0.1,0,0.3,0,0.4,0h13c3.5,0,6.3-2.8,6.3-6.3v-1.9c0-1.1-0.3-2.1-0.8-3c1.8-1.1,3-3.1,3-5.4v-1.9c0-1.1-0.3-2.1-0.7-3
	c1.8-1.1,3-3.1,3-5.4V39C75,36.7,73.7,34.7,71.9,33.6z M68.6,37c1.1,0,2,0.9,2,2v1.9c0,1.1-0.9,2-2,2h-2.3H48.9h-2.3
	c-1.1,0-2-0.9-2-2v-1.9c0-1.1,0.9-2,2-2h2.3h17.4H68.6z M68.3,49.2v1.9c0,1.1-0.9,2-2,2h-2.2h-13h-2.2c-1.1,0-2-0.9-2-2v-1.9
	c0-1.1,0.9-2,2-2h17.4C67.4,47.2,68.3,48.1,68.3,49.2z M29.4,63.4L29.4,63.4c-2.9,0-5.6-1.5-7.1-3.8V30c0.7-0.7,1.4-1.5,2.1-2.2
	c0.1-0.1,0.1-0.1,0.2-0.2c0.3-0.3,0.6-0.6,0.8-0.8c0.2-0.2,0.4-0.4,0.5-0.5c0.2-0.2,0.4-0.4,0.6-0.5c0.3-0.3,0.6-0.6,0.9-0.9
	c0.1-0.1,0.1-0.1,0.2-0.2c1.2-1.1,2.5-2.3,3.7-3.4l0,0c0.4-0.4,0.8-0.7,1.2-1.1c1-0.8,2-1.6,3-2.3c0.1,0,0.1-0.1,0.2-0.1
	c0,0,0,0,0,0c0.9-0.6,1.8-1.2,2.8-1.8c0.2-0.1,0.5-0.3,0.7-0.4c0.5-0.3,0.9-0.5,1.4-0.8c0.7-0.4,1.4-0.9,2-1.5
	c0.5-0.4,0.9-0.9,1.3-1.5c0.8-1.2,1.2-2.6,1.6-3.8c0.4-1.3,0.7-2.5,1.4-3c0,0,0.1-0.1,0.2-0.1c0.7-0.4,1.8-0.1,2.7,0.5
	c0.3,0.4,0.5,0.8,0.7,1.1c0.1,0.6,0.2,1.3,0.2,2.2c0,0.4,0,0.9,0.1,1.3v0c0.1,1,0.1,1.9-0.1,2.9c-0.5,2.5-2.2,4.5-4,6.8
	c-2,2.5-4.2,5.1-4.9,8.7c-0.2,1-0.3,2-0.3,3c0,0.5,0,1-0.1,1.5c-0.6,4.8-4,8.9-8.7,10.3c-1.1,0.4-1.8,1.6-1.4,2.7
	c0.3,0.9,1.1,1.5,2.1,1.5c0.2,0,0.4,0,0.7-0.1c2.5-0.8,4.7-2.1,6.5-3.8c0.5,1.2,1.4,2.2,2.5,2.9c-0.5,0.9-0.7,1.9-0.7,3v1.9
	c0,2.3,1.2,4.3,3,5.4c-0.5,0.9-0.8,1.9-0.8,3v1.9c0,0.7,0.1,1.4,0.3,2L29.4,63.4L29.4,63.4L29.4,63.4z M68.3,28.7v1.9
	c0,1.1-0.9,2-2,2H48.9c-1.1,0-2-0.9-2-2v-1.9c0-1.1,0.9-2,2-2h17.4C67.4,26.7,68.3,27.6,68.3,28.7z M17.7,58.3H4.4V30.7h13.3
	L17.7,58.3L17.7,58.3z M66.1,61.4c0,1.1-0.9,2-2,2h-9.7c-0.1,0-0.2,0-0.3,0h-3.3c-1-0.1-1.8-1-1.8-2v-1.9c0-1.1,0.9-2,2-2h13
	c1.1,0,2,0.9,2,2L66.1,61.4L66.1,61.4z"/>
</svg>
