<svg version="1.1" id="Layer_1" xmlns="http://www.w3.org/2000/svg" x="0" y="0" viewBox="0 0 42 64" xml:space="preserve"><style>.st0{display:none}.st2{display:inline}.st3{fill:#4a5aa8}.st4{display:inline}.st4,.st6{fill:#7f7f7f}</style><g class="st0"><circle cx="21" cy="21" r="20.5" fill="#fff"/><g class="st2"><path class="st3" d="M21 1c11 0 20 9 20 20s-9 20-20 20S1 32 1 21 10 1 21 1m0-1C9.4 0 0 9.4 0 21s9.4 21 21 21 21-9.4 21-21S32.6 0 21 0z"/></g></g><g class="st0"><g id="XMLID_2325_" class="st2"><g id="XMLID_2326_"><g id="a_35_"><path id="XMLID_2327_" class="st3" d="M21.5 18.8l1.6-8.4L10.6 23h10.5l-2.6 9.1L31 18.8h-9.5z"/></g></g></g></g><g class="st0"><path class="st4" d="M1.7 49.8h2.2v.6H2.3v2h1.2v.6H2.3v2h1.5v.6H1.7v-5.8zM5.4 49.8h.5l1.3 3.7v-3.7h.6v5.8h-.5L6 51.8v3.7h-.6v-5.7zM9.6 49.8h2.2v.6h-1.5v2h1.2v.6h-1.2v2h1.5v.6H9.6v-5.8zM13.3 49.8h1.2c.7 0 1.2.5 1.2 1.2v1.2c0 .5-.2.9-.6 1l.7 2.4h-.7l-.7-2.2H14v2.2h-.6l-.1-5.8zm1.2 2.9c.3 0 .5-.2.5-.5v-1.3c0-.3-.2-.5-.5-.5H14v2.4h.5v-.1zM17.3 54.5v-3.7c0-.7.5-1.2 1.2-1.2s1.2.5 1.2 1.2v.6H19v-.6c0-.3-.2-.5-.5-.5s-.5.1-.5.4v3.8c0 .3.2.5.5.5s.5-.2.5-.5v-1.2h-.4v-.6h1v1.8c0 .7-.5 1.2-1.2 1.2s-1.1-.5-1.1-1.2zM21.4 49.8h2.2v.6H22v2h1.2v.6H22v2h1.5v.6h-2.2v-5.8h.1zM25.7 50.3h-1.1v-.6h2.8v.6h-1.1v5.2h-.6v-5.2zM28.8 49.8h.6v5.8h-.6v-5.8zM31.1 54.5v-3.7c0-.7.5-1.2 1.2-1.2s1.2.5 1.2 1.2v.6h-.6v-.6c0-.3-.2-.5-.5-.5s-.5.2-.5.5v3.8c0 .3.2.5.5.5s.5-.2.5-.5V54h.6v.6c0 .7-.5 1.2-1.2 1.2s-1.2-.6-1.2-1.3zM35 49.8h.6v2.4l1.1-2.4h.7l-1 2.2 1.1 3.6h-.7l-.8-2.8-.4.9v1.8H35v-5.7zM39.2 49.8h1.1l.8 5.8h-.6l-.2-1.4h-1.1l-.2 1.3h-.6l.8-5.7zm1 3.8l-.4-3.2h-.1l-.4 3.2h.9zm-.5-5.1h.5l-.4.7h-.4l.3-.7zM2.1 62.5v-3.7c0-.7.5-1.2 1.2-1.2s1.2.5 1.2 1.2v.6h-.8v-.6c0-.3-.2-.5-.5-.5s-.5.2-.5.5v3.8c0 .3.2.5.5.5s.5-.2.5-.5v-1.2h-.4v-.6h1v1.8c0 .7-.5 1.2-1.2 1.2s-1-.6-1-1.3zM6.1 57.8h1.2c.7 0 1.2.5 1.2 1.2v1.2c0 .5-.2.9-.6 1l.7 2.4h-.8l-.7-2.2h-.4v2.2h-.6v-5.8zm1.2 2.9c.3 0 .5-.2.5-.5v-1.3c0-.3-.2-.5-.5-.5h-.6v2.4h.6v-.1zM10.5 57.8h1.1l.8 5.8h-.6l-.2-1.4h-1.1l-.2 1.4h-.6l.8-5.8zm1 3.8l-.4-3.2H11l-.4 3.2h.9zM13.8 57.8h.5l1 2.8 1-2.8h.5v5.8h-.6v-3.7l-.8 2.4-.8-2.4v3.7H14v-5.8h-.2zM18.5 62.5v-3.7c0-.7.5-1.2 1.2-1.2s1.2.5 1.2 1.2v3.7c0 .7-.5 1.2-1.2 1.2s-1.2-.5-1.2-1.2zm1.7 0v-3.8c0-.3-.2-.5-.5-.5s-.5.2-.5.5v3.8c0 .3.2.5.5.5s.5-.2.5-.5zM23.1 58.3H22v-.6h2.8v.6h-1.1v5.2h-.6v-5.2zM26.2 57.8h.5l1.3 3.7v-3.7h.6v5.8h-.5l-1.3-3.7v3.7h-.6v-5.8zM30.4 62.5v-3.7c0-.7.5-1.2 1.2-1.2s1.2.5 1.2 1.2v3.7c0 .7-.5 1.2-1.2 1.2s-1.2-.5-1.2-1.2zm1.7 0v-3.8c0-.3-.2-.5-.5-.5s-.6.2-.6.5v3.8c0 .3.2.5.5.5s.6-.2.6-.5zM34.3 62.5v-.6h.6v.6c0 .3.2.5.5.5s.5-.2.5-.5V62c0-1.1-1.7-1.4-1.7-2.8v-.5c0-.7.5-1.2 1.2-1.2s1.2.5 1.2 1.2v.6H36v-.6c0-.3-.2-.5-.5-.5s-.5.2-.5.5v.5c0 1.1 1.7 1.4 1.7 2.8v.5c0 .7-.5 1.2-1.2 1.2s-1.2-.5-1.2-1.2zM38.9 58.3h-1.1v-.6h2.8v.6h-1.1v5.2h-.6v-5.2z"/></g><circle cx="21" cy="21" r="20.5" fill="#fff"/><path class="st3" d="M21 1c11 0 20 9 20 20s-9 20-20 20S1 32 1 21 10 1 21 1m0-1C9.4 0 0 9.4 0 21s9.4 21 21 21 21-9.4 21-21S32.6 0 21 0z"/><g><g id="XMLID_2331_"><g id="XMLID_2332_"><g id="a_37_"><path id="XMLID_2333_" class="st3" d="M15.3 25.5l.6-2.9-4.3 4.3h3.5l-.9 3.1 4.3-4.5h-3.2z"/></g></g></g><g id="XMLID_2328_"><g id="XMLID_2329_"><g id="a_36_"><path id="XMLID_2330_" class="st3" d="M27.9 25.5l.6-2.9-4.3 4.3h3.6l-.9 3.1 4.3-4.5h-3.3z"/></g></g></g><g id="XMLID_1_"><g id="XMLID_2_"><g id="a_1_"><path id="XMLID_3_" class="st3" d="M9.1 18.9l.6-2.9-4.3 4.3H9l-.9 3.1 4.3-4.5H9.1z"/></g></g></g><g id="XMLID_2322_"><g id="XMLID_2323_"><g id="a_34_"><path id="XMLID_2324_" class="st3" d="M21.7 18.9l.6-2.9-4.3 4.3h3.6l-.9 3.1 4.3-4.5h-3.3z"/></g></g></g><g id="XMLID_2319_"><g id="XMLID_2320_"><g id="a_33_"><path id="XMLID_2321_" class="st3" d="M33.8 18.9l.6-2.9-4.4 4.3h3.6l-.9 3.1 4.3-4.5h-3.2z"/></g></g></g></g><g><path class="st6" d="M1.8 49.8H4v.6H2.4v2h1.2v.6H2.4v2h1.5v.6H1.8v-5.8zM5.5 49.8H6l1.3 3.7v-3.7h.6v5.8h-.5l-1.3-3.7v3.7h-.6v-5.8zM9.7 49.8h2.2v.6h-1.5v2h1.2v.6h-1.2v2h1.5v.6H9.7v-5.8zM13.4 49.8h1.2c.7 0 1.2.5 1.2 1.2v1.2c0 .5-.2.9-.6 1l.7 2.4h-.7l-.7-2.2h-.4v2.2h-.6v-5.8zm1.2 2.9c.3 0 .5-.2.5-.5v-1.3c0-.3-.2-.5-.5-.5h-.5v2.4h.5zM17.4 54.5v-3.7c0-.7.5-1.2 1.2-1.2s1.2.5 1.2 1.2v.6h-.6v-.6c0-.3-.2-.5-.5-.5s-.5.2-.5.5v3.8c0 .3.2.5.5.5s.5-.2.5-.5v-1.2h-.4v-.6h1v1.8c0 .7-.5 1.2-1.2 1.2-.7-.2-1.2-.6-1.2-1.3zM21.5 49.8h2.2v.6h-1.5v2h1.2v.6h-1.2v2h1.5v.6h-2.2v-5.8zM25.8 50.3h-1.1v-.6h2.8v.6h-1.1v5.2h-.6v-5.2zM28.9 49.8h.6v5.8h-.6v-5.8zM31.2 54.5v-3.7c0-.7.5-1.2 1.2-1.2s1.2.5 1.2 1.2v.6H33v-.6c0-.3-.2-.5-.5-.5s-.5.2-.5.5v3.8c0 .3.2.5.5.5s.5-.2.5-.5V54h.6v.6c0 .7-.5 1.2-1.2 1.2s-1.2-.6-1.2-1.3zM35.1 49.8h.6v2.4l1.1-2.4h.7l-1 2.2 1.1 3.6H37l-.8-2.7-.4.9v1.8h-.6v-5.8zM39.3 49.8h1.1l.8 5.8h-.6l-.2-1.4h-1.1l-.2 1.4h-.6l.8-5.8zm1 3.8l-.4-3.2h-.1l-.4 3.2h.9zm-.5-5.1h.5l-.4.7h-.4l.3-.7zM5.7 62.5v-3.7c0-.7.5-1.2 1.2-1.2s1.2.5 1.2 1.2v3.7c0 .7-.5 1.2-1.2 1.2-.8-.1-1.2-.5-1.2-1.2zm1.6 0v-3.8c0-.3-.2-.5-.5-.5s-.5.2-.5.5v3.8c0 .3.2.5.5.5.3.1.5-.2.5-.5zM9.7 57.8h.6V63h1.4v.6h-2v-5.8zM13.3 60.9l-1.1-3.1h.7l.8 2.1.8-2.1h.7L14 60.9v2.6h-.6v-2.6zM16.4 57.8h.5l1 2.8 1-2.8h.5v5.8h-.6v-3.7l-.8 2.4-1-2.5v3.7h-.6v-5.7zM21.2 57.8h1.2c.7 0 1.2.5 1.2 1.2v1.2c0 .7-.5 1.2-1.2 1.2h-.5v2.2h-.6v-5.8zm1.1 2.9c.3 0 .5-.2.5-.5v-1.3c0-.3-.2-.5-.5-.5h-.5v2.4h.5zM25.1 57.8h.6v5.8h-.6v-5.8zM27.9 57.8H29l.8 5.8h-.6l-.2-1.4h-1.1l-.2 1.4H27l.9-5.8zm1 3.8l-.4-3.2h-.1l-.4 3.2h.9zm-.5-5.1h.5l-.4.7h-.4l.3-.7zM31.1 57.6zm0 .2h1.2c.7 0 1.2.5 1.2 1.2v3.4c0 .7-.5 1.2-1.2 1.2h-1.2v-5.8zm1.1 5.1c.3 0 .5-.2.5-.5v-3.6c0-.3-.2-.5-.5-.5h-.5v4.6h.5zM35.3 57.8h1.1l.8 5.8h-.6l-.2-1.4h-1.1l-.2 1.4h-.6l.8-5.8zm1 3.8l-.4-3.2h-.1l-.4 3.2h.9z"/></g></svg>