<svg version="1.1" id="Layer_1" xmlns="http://www.w3.org/2000/svg" x="0" y="0" viewBox="0 0 42 64" xml:space="preserve"><style>.st1{fill:#4f97d3}</style><circle cx="21" cy="21" r="20.5" fill="#fff"/><path class="st1" d="M21 1c11 0 20 9 20 20s-9 20-20 20S1 32 1 21 10 1 21 1m0-1C9.4 0 0 9.4 0 21s9.4 21 21 21 21-9.4 21-21S32.6 0 21 0z"/><path d="M3.5 49.8h.6v5.8h-.6v-5.8zM6 49.8h.5l1.3 3.7v-3.7h.6v5.8h-.5l-1.3-3.7v3.7H6v-5.8zM10.3 49.8h2.2v.6H11v2h1.2v.6H11v2.6h-.6v-5.8zM13.7 54.5v-3.7c0-.7.5-1.2 1.2-1.2s1.2.5 1.2 1.2v3.7c0 .7-.5 1.2-1.2 1.2s-1.2-.5-1.2-1.2zm1.7 0v-3.8c0-.3-.2-.5-.5-.5s-.5.2-.5.5v3.8c0 .3.2.5.5.5s.5-.2.5-.5zM17.8 49.8H19c.7 0 1.2.5 1.2 1.2v1.2c0 .5-.2.9-.6 1l.7 2.4h-.7l-.7-2.2h-.4v2.2h-.6v-5.8zm1.1 2.9c.3 0 .5-.2.5-.5v-1.3c0-.3-.2-.5-.5-.5h-.5v2.4h.5zM21.9 49.8h.5l1 2.8 1-2.8h.5v5.8h-.6v-3.7l-.8 2.4-.8-2.4v3.7h-.6v-5.8zM27 49.8h1.1l.8 5.8h-.6l-.2-1.4H27l-.2 1.4h-.6l.8-5.8zm1 3.8l-.4-3.2h-.1l-.4 3.2h.9zM30.1 54.5v-3.7c0-.7.5-1.2 1.2-1.2s1.2.5 1.2 1.2v.6h-.6v-.6c0-.3-.2-.5-.5-.5s-.5.2-.5.5v3.8c0 .3.2.5.5.5s.5-.2.5-.5V54h.6v.6c0 .7-.5 1.2-1.2 1.2s-1.2-.6-1.2-1.3zm.6-6h.3l.3.4.3-.4h.4l-.4.7H31l-.3-.7zM34 49.8h.5l1.3 3.7v-3.7h.6v5.8H36l-1.3-3.7v3.7H34v-5.8zM38.3 49.8h.6v5.8h-.6v-5.8zm.3-1.3h.5l-.4.7h-.4l.3-.7zM11 57.8h1.2c.7 0 1.2.5 1.2 1.2v1.2c0 .7-.5 1.2-1.2 1.2h-.5v2.2H11v-5.8zm1.2 2.9c.3 0 .5-.2.5-.5v-1.3c0-.3-.2-.5-.5-.5h-.5v2.4h.5zM14.8 62.5v-3.7c0-.7.5-1.2 1.2-1.2s1.2.5 1.2 1.2v3.7c0 .7-.5 1.2-1.2 1.2-.7-.1-1.2-.5-1.2-1.2zm1.7 0v-3.8c0-.3-.2-.5-.5-.5s-.5.2-.5.5v3.8c0 .3.2.5.5.5.3.1.5-.2.5-.5zM18.8 57.8H20c.7 0 1.2.5 1.2 1.2v1.2c0 .5-.2.9-.6 1l.7 2.4h-.7l-.7-2.2h-.4v2.2h-.6v-5.8zm1.2 2.9c.3 0 .5-.2.5-.5v-1.3c0-.3-.2-.5-.5-.5h-.5v2.4h.5zM23.5 58.3h-1.1v-.6h2.8v.6h-1.1v5.2h-.6v-5.2zM26.7 57.8h1.1l.8 5.8H28l-.2-1.4h-1.1l-.2 1.4h-.6l.8-5.8zm1 3.8l-.4-3.2h-.1l-.4 3.2h.9zm-.4-5.1h.5l-.4.7H27l.3-.7zM30 57.8h.6V63H32v.6h-2v-5.8z"/><g><g id="XMLID_4_"><g id="XMLID_5_"><g id="a_2_"><path id="XMLID_6_" class="st1" d="M21.7 18.4l.7-3.4-5.1 5h4.2l-1.1 3.7 5.1-5.4-3.8.1z"/></g></g></g><path class="st1" d="M28.8 10H13.9c-1.8 0-3.2 1.4-3.2 3.2v13.5c0 1.8 1.4 3.2 3.2 3.2h1.5l-1.2 5.7 6.3-5.7h8.3c1.8 0 3.2-1.4 3.2-3.2V13.2c0-1.8-1.4-3.2-3.2-3.2zm1.3 15.4H12.6v-12c0-.9.7-1.6 1.6-1.6h14.3c.9 0 1.6.7 1.6 1.6v12z"/></g></svg>