<svg version="1.1" id="Layer_1" xmlns="http://www.w3.org/2000/svg" x="0" y="0" viewBox="0 0 42 64" xml:space="preserve"><style>.st1{fill:#4f97d3}</style><circle cx="21" cy="21" r="20.5" fill="#fff"/><path class="st1" d="M21 1c11 0 20 9 20 20s-9 20-20 20S1 32 1 21 10 1 21 1m0-1C9.4 0 0 9.4 0 21s9.4 21 21 21 21-9.4 21-21S32.6 0 21 0z"/><path d="M5.1 49.8h.6v5.8h-.6v-5.8zM7.6 49.8h.5l1.3 3.7v-3.7h.6v5.8h-.5l-1.3-3.7v3.7h-.6v-5.8zM11.7 54.5v-.6h.6v.6c0 .3.2.5.5.5s.5-.2.5-.5V54c0-1.1-1.7-1.4-1.7-2.8v-.5c0-.7.5-1.2 1.2-1.2s1.2.5 1.2 1.2v.6h-.6v-.6c0-.3-.2-.5-.5-.5s-.5.2-.5.5v.5c0 1.1 1.7 1.4 1.7 2.8v.5c0 .7-.5 1.2-1.2 1.2-.7-.1-1.2-.5-1.2-1.2zM16.3 50.3h-1.1v-.6H18v.6h-1.1v5.2h-.6v-5.2zM19.5 49.8h1.1l.8 5.8h-.6l-.2-1.4h-1.1l-.2 1.4h-.6l.8-5.8zm1 3.8l-.4-3.2H20l-.4 3.2h.9zM22.6 54.5v-3.7c0-.7.5-1.2 1.2-1.2s1.2.5 1.2 1.2v.6h-.6v-.6c0-.3-.2-.5-.5-.5s-.5.2-.5.5v3.8c0 .3.2.5.5.5s.5-.2.5-.5v-1.2H24v-.6h1v1.8c0 .7-.5 1.2-1.2 1.2s-1.2-.6-1.2-1.3zM26.7 49.8h1.2c.7 0 1.2.5 1.2 1.2v1.2c0 .5-.2.9-.6 1l.7 2.4h-.7l-.7-2.2h-.4v2.2h-.6v-5.8zm1.1 2.9c.3 0 .5-.2.5-.5v-1.3c0-.3-.2-.5-.5-.5h-.5v2.4h.5zM31.1 49.8h1.1l.8 5.8h-.6l-.2-1.4h-1.1l-.2 1.4h-.6l.8-5.8zm1 3.8l-.4-3.2h-.1l-.4 3.2h.9zM34.3 49.8h.5l1 2.8 1-2.8h.5v5.8h-.6v-3.7l-.8 2.4-.9-2.5v3.7h-.6v-5.7z"/><g><path class="st1" d="M20.9 33.4h-5.1c-1.3-.1-2.5-.3-3.6-.9-1.8-1-2.8-2.5-3.2-4.4-.3-1.1-.3-2.1-.3-3.1v-4c0-1.7 0-3.4.1-5.1.1-1.3.3-2.5.9-3.7 1-1.8 2.5-2.8 4.5-3.2 1-.2 1.9-.2 2.9-.2h4.2c1.7 0 3.3 0 5 .1 1.4.1 2.7.3 3.9 1.1 1.6 1 2.6 2.5 3 4.4.2 1.1.2 2.2.3 3.4v3.4c0 1.8 0 3.5-.1 5.3-.1 1.3-.3 2.5-.9 3.6-1 1.8-2.5 2.8-4.5 3.2-1 .2-1.9.2-2.9.3-1.5-.2-2.8-.2-4.2-.2zM31.1 21v-3c0-1 0-2.1-.2-3.1-.3-2-1.5-3.4-3.5-3.8-1-.2-2-.2-3-.2H18c-1.1 0-2.1 0-3.2.2-2 .3-3.4 1.5-3.8 3.5-.2 1-.2 2-.2 3v6.2c0 1 0 2 .1 3 .1.8.3 1.6.7 2.3.8 1.2 1.9 1.7 3.2 1.9 1.1.2 2.2.2 3.2.2h7c.8 0 1.6 0 2.3-.2 1.3-.3 2.3-1 3-2.2.5-.9.6-1.9.6-2.9.2-1.8.2-3.3.2-4.9z"/><path class="st1" d="M21 14.7c3.5 0 6.3 2.8 6.3 6.4 0 3.5-2.9 6.3-6.4 6.3-3.5 0-6.3-2.9-6.3-6.4 0-3.5 2.9-6.3 6.4-6.3zm4.1 6.3c0-2.3-1.8-4.1-4.1-4.1s-4.2 1.8-4.2 4.1 1.8 4.1 4.1 4.1c2.4 0 4.2-1.8 4.2-4.1zM29.1 14.4c0 .8-.7 1.5-1.5 1.5s-1.5-.7-1.5-1.5.7-1.5 1.5-1.5 1.5.7 1.5 1.5z"/></g></svg>