<svg version="1.1" id="Layer_1" xmlns="http://www.w3.org/2000/svg" x="0" y="0" viewBox="0 0 42 64" xml:space="preserve"><style>.st1{fill:#4f97d3}</style><circle cx="21" cy="21" r="20.5" fill="#fff"/><path class="st1" d="M21 1c11 0 20 9 20 20s-9 20-20 20S1 32 1 21 10 1 21 1m0-1C9.4 0 0 9.4 0 21s9.4 21 21 21 21-9.4 21-21S32.6 0 21 0z"/><path d="M12.8 49.8h.6l.7 5.1h.1l.7-5.1h.6l-.8 5.8h-1.1l-.8-5.8zM16.9 49.8h.6v5.8h-.6v-5.8zM19.3 49.8h1.2c.7 0 1.2.5 1.2 1.2v3.4c0 .7-.5 1.2-1.2 1.2h-1.2v-5.8zm1.2 5.1c.3 0 .5-.2.5-.5v-3.6c0-.3-.2-.5-.5-.5H20v4.6h.5zM23.3 49.8h2.2v.6H24v2h1.2v.6H24v2h1.5v.6h-2.2v-5.8zM26.9 54.5v-3.7c0-.7.5-1.2 1.2-1.2s1.2.5 1.2 1.2v3.7c0 .7-.5 1.2-1.2 1.2s-1.2-.5-1.2-1.2zm1.7 0v-3.8c0-.3-.2-.5-.5-.5s-.5.2-.5.5v3.8c0 .3.2.5.5.5s.5-.2.5-.5zM8.3 62.5v-3.7c0-.7.5-1.2 1.2-1.2s1.2.5 1.2 1.2v.6H10v-.6c0-.3-.2-.5-.5-.5s-.5.2-.5.5v3.8c0 .3.2.5.5.5s.5-.2.5-.5V62h.6v.6c0 .7-.5 1.2-1.2 1.2-.6-.2-1.1-.6-1.1-1.3zM12.1 62.5v-3.7c0-.7.5-1.2 1.2-1.2s1.2.5 1.2 1.2v3.7c0 .7-.5 1.2-1.2 1.2-.7-.1-1.2-.5-1.2-1.2zm1.7 0v-3.8c0-.3-.2-.5-.5-.5s-.5.2-.5.5v3.8c0 .3.2.5.5.5.3.1.5-.2.5-.5zM16.2 57.8h.5l1.3 3.7v-3.7h.6v5.8h-.5l-1.3-3.7v3.7h-.6v-5.8zM21.1 58.3H20v-.6h2.8v.6h-1.1v5.2h-.6v-5.2zM24.2 57.8h2.2v.6h-1.5v2H26v.6h-1.2v2h1.5v.6h-2.2v-5.8zM27.9 57.8h.5l1.3 3.7v-3.7h.6v5.8h-.5l-1.3-3.7v3.7h-.6v-5.8zM32.8 58.3h-1.1v-.6h2.8v.6h-1.1v5.2h-.6v-5.2z"/><path class="st1" d="M30.6 21l-8.3 4.8-8.3 4.8V11.4l8.3 4.8z"/></svg>