<svg version="1.1" id="Layer_1" xmlns="http://www.w3.org/2000/svg" x="0" y="0" viewBox="0 0 42 64" xml:space="preserve"><style>.st1{fill:#4f97d3}</style><circle cx="21" cy="21" r="20.5" fill="#fff"/><path class="st1" d="M21 1c11 0 20 9 20 20s-9 20-20 20S1 32 1 21 10 1 21 1m0-1C9.4 0 0 9.4 0 21s9.4 21 21 21 21-9.4 21-21S32.6 0 21 0z"/><g><g id="XMLID_22_"><g id="XMLID_23_"><g id="a_8_"><path id="XMLID_24_" class="st1" d="M15.3 25.5l.6-2.9-4.3 4.3h3.5l-.9 3.1 4.3-4.5h-3.2z"/></g></g></g><g id="XMLID_16_"><g id="XMLID_17_"><g id="a_6_"><path id="XMLID_18_" class="st1" d="M27.9 25.5l.6-2.9-4.3 4.3h3.6l-.9 3.1 4.3-4.5h-3.3z"/></g></g></g><g id="XMLID_13_"><g id="XMLID_14_"><g id="a_5_"><path id="XMLID_15_" class="st1" d="M9.1 18.9l.6-2.9-4.3 4.3H9l-.9 3.1 4.3-4.5H9.1z"/></g></g></g><g id="XMLID_10_"><g id="XMLID_11_"><g id="a_4_"><path id="XMLID_12_" class="st1" d="M21.7 18.9l.6-2.9-4.3 4.3h3.6l-.9 3.1 4.3-4.5h-3.3z"/></g></g></g><g id="XMLID_7_"><g id="XMLID_8_"><g id="a_3_"><path id="XMLID_9_" class="st1" d="M33.8 18.9l.6-2.9-4.4 4.3h3.6l-.9 3.1 4.3-4.5h-3.2z"/></g></g></g></g><g><path d="M1.8 49.8H4v.6H2.4v2h1.2v.6H2.4v2h1.5v.6H1.8v-5.8zM5.5 49.8H6l1.3 3.7v-3.7h.6v5.8h-.5l-1.3-3.7v3.7h-.6v-5.8zM9.7 49.8h2.2v.6h-1.5v2h1.2v.6h-1.2v2h1.5v.6H9.7v-5.8zM13.4 49.8h1.2c.7 0 1.2.5 1.2 1.2v1.2c0 .5-.2.9-.6 1l.7 2.4h-.7l-.7-2.2h-.4v2.2h-.6v-5.8zm1.2 2.9c.3 0 .5-.2.5-.5v-1.3c0-.3-.2-.5-.5-.5h-.5v2.4h.5zM17.4 54.5v-3.7c0-.7.5-1.2 1.2-1.2s1.2.5 1.2 1.2v.6h-.6v-.6c0-.3-.2-.5-.5-.5s-.5.2-.5.5v3.8c0 .3.2.5.5.5s.5-.2.5-.5v-1.2h-.4v-.6h1v1.8c0 .7-.5 1.2-1.2 1.2-.7-.2-1.2-.6-1.2-1.3zM21.5 49.8h2.2v.6h-1.5v2h1.2v.6h-1.2v2h1.5v.6h-2.2v-5.8zM25.8 50.3h-1.1v-.6h2.8v.6h-1.1v5.2h-.6v-5.2zM28.9 49.8h.6v5.8h-.6v-5.8zM31.2 54.5v-3.7c0-.7.5-1.2 1.2-1.2s1.2.5 1.2 1.2v.6H33v-.6c0-.3-.2-.5-.5-.5s-.5.2-.5.5v3.8c0 .3.2.5.5.5s.5-.2.5-.5V54h.6v.6c0 .7-.5 1.2-1.2 1.2s-1.2-.6-1.2-1.3zM35.1 49.8h.6v2.4l1.1-2.4h.7l-1 2.2 1.1 3.6H37l-.8-2.7-.4.9v1.8h-.6v-5.8zM39.3 49.8h1.1l.8 5.8h-.6l-.2-1.4h-1.1l-.2 1.4h-.6l.8-5.8zm1 3.8l-.4-3.2h-.1l-.4 3.2h.9zm-.5-5.1h.5l-.4.7h-.4l.3-.7zM5.7 62.5v-3.7c0-.7.5-1.2 1.2-1.2s1.2.5 1.2 1.2v3.7c0 .7-.5 1.2-1.2 1.2-.8-.1-1.2-.5-1.2-1.2zm1.6 0v-3.8c0-.3-.2-.5-.5-.5s-.5.2-.5.5v3.8c0 .3.2.5.5.5.3.1.5-.2.5-.5zM9.7 57.8h.6V63h1.4v.6h-2v-5.8zM13.3 60.9l-1.1-3.1h.7l.8 2.1.8-2.1h.7L14 60.9v2.6h-.6v-2.6zM16.4 57.8h.5l1 2.8 1-2.8h.5v5.8h-.6v-3.7l-.8 2.4-1-2.5v3.7h-.6v-5.7zM21.2 57.8h1.2c.7 0 1.2.5 1.2 1.2v1.2c0 .7-.5 1.2-1.2 1.2h-.5v2.2h-.6v-5.8zm1.1 2.9c.3 0 .5-.2.5-.5v-1.3c0-.3-.2-.5-.5-.5h-.5v2.4h.5zM25.1 57.8h.6v5.8h-.6v-5.8zM27.9 57.8H29l.8 5.8h-.6l-.2-1.4h-1.1l-.2 1.4H27l.9-5.8zm1 3.8l-.4-3.2h-.1l-.4 3.2h.9zm-.5-5.1h.5l-.4.7h-.4l.3-.7zM31.1 57.6zm0 .2h1.2c.7 0 1.2.5 1.2 1.2v3.4c0 .7-.5 1.2-1.2 1.2h-1.2v-5.8zm1.1 5.1c.3 0 .5-.2.5-.5v-3.6c0-.3-.2-.5-.5-.5h-.5v4.6h.5zM35.3 57.8h1.1l.8 5.8h-.6l-.2-1.4h-1.1l-.2 1.4h-.6l.8-5.8zm1 3.8l-.4-3.2h-.1l-.4 3.2h.9z"/></g></svg>