<svg version="1.1" id="Layer_1" xmlns="http://www.w3.org/2000/svg" x="0" y="0" viewBox="0 0 214 214" xml:space="preserve"><style>.st0{fill:#fff}</style><path class="st0" d="M107.8 121.6c-5.1 0-9.3 4.2-9.3 9.3v22.2h18.6v-22.2c0-5.1-4.2-9.3-9.3-9.3zM110.9 40h13.7v7.1h-13.7z"/><circle class="st0" cx="107.8" cy="94.8" r="6.7"/><path class="st0" d="M54.8 106.7h13.3V153H54.8zM147.5 106.7h12.9V153h-12.9z"/><path class="st0" d="M107 1C48.5 1 1 48.5 1 107s47.5 106 106 106 106-47.5 106-106S165.5 1 107 1zm59.5 102.6v52.8c0 1.8-1.3 3.1-3.1 3.1H51.5c-1.8 0-3.1-1.3-3.1-3.1v-52.8c0-1.8 1.3-3.1 3.1-3.1h16.6V89.2c0-1.1.4-2 1.3-2.7l35-24.4V36.9c0-1.8 1.3-3.1 3.1-3.1h20.2c1.8 0 3.1 1.3 3.1 3.1v13.5c0 1.8-1.3 3.1-3.1 3.1h-16.9v8.6l35.3 24.2c.9.7 1.3 1.6 1.3 2.7v11.3h16.2c1.8 0 3.1 1.6 2.9 3.3z"/><path class="st0" d="M74.5 90.8v62.3H92v-22.2c0-8.6 7.1-15.7 15.7-15.7s15.7 7.1 15.7 15.7v22.2H141V90.8l-33.3-23.3-33.2 23.3zm46.4 4c0 7.3-6 13.1-13.1 13.1s-13.1-6-13.1-13.1c0-7.3 6-13.1 13.1-13.1 7.3 0 13.1 6 13.1 13.1z"/></svg>